<svg version="1.1" viewBox="0.0 0.0 641.0 371.0" fill="none" stroke="none" stroke-linecap="square" stroke-miterlimit="10" width="641" height="371" xmlns:xlink="http://www.w3.org/1999/xlink" xmlns="http://www.w3.org/2000/svg"><path fill="#ffffff" d="M0 0L641.0 0L641.0 371.0L0 371.0L0 0Z" fill-rule="nonzero"/><path stroke="#333333" stroke-width="1.0" stroke-linecap="butt" d="M77.5 300.5L622.5 300.5" fill-rule="nonzero"/><path stroke="#cccccc" stroke-width="1.0" stroke-linecap="butt" d="M77.5 220.5L622.5 220.5" fill-rule="nonzero"/><path stroke="#cccccc" stroke-width="1.0" stroke-linecap="butt" d="M77.5 141.5L622.5 141.5" fill-rule="nonzero"/><path stroke="#cccccc" stroke-width="1.0" stroke-linecap="butt" d="M77.5 61.5L622.5 61.5" fill-rule="nonzero"/><clipPath id="id_0"><path d="M77.55 61.916668L622.45 61.916668L622.45 300.45L77.55 300.45L77.55 61.916668Z" clip-rule="nonzero"/></clipPath><path stroke="#000000" stroke-width="2.0" stroke-linecap="butt" stroke-opacity="0.0" clip-path="url(#id_0)" d="M240.0 300.0L134.0 300.0L134.0 64.0C134.0 62.89543 134.89543 62.0 136.0 62.0L238.0 62.0C239.10457 62.0 240.0 62.89543 240.0 64.0Z" fill-rule="nonzero"/><path fill="#ff9900" clip-path="url(#id_0)" d="M240.0 300.0L134.0 300.0L134.0 64.0C134.0 62.89543 134.89543 62.0 136.0 62.0L238.0 62.0C239.10457 62.0 240.0 62.89543 240.0 64.0Z" fill-rule="nonzero"/><path stroke="#000000" stroke-width="2.0" stroke-linecap="butt" stroke-opacity="0.0" clip-path="url(#id_0)" d="M403.0 300.0L297.0 300.0L297.0 223.0C297.0 221.89543 297.89542 221.0 299.0 221.0L401.0 221.0C402.10458 221.0 403.0 221.89543 403.0 223.0Z" fill-rule="nonzero"/><path fill="#ff9900" clip-path="url(#id_0)" d="M403.0 300.0L297.0 300.0L297.0 223.0C297.0 221.89543 297.89542 221.0 299.0 221.0L401.0 221.0C402.10458 221.0 403.0 221.89543 403.0 223.0Z" fill-rule="nonzero"/><path stroke="#000000" stroke-width="2.0" stroke-linecap="butt" stroke-opacity="0.0" clip-path="url(#id_0)" d="M566.0 300.0L460.0 300.0L460.0 143.0C460.0 141.89543 460.89542 141.0 462.0 141.0L564.0 141.0C565.10455 141.0 566.0 141.89543 566.0 143.0Z" fill-rule="nonzero"/><path fill="#ff9900" clip-path="url(#id_0)" d="M566.0 300.0L460.0 300.0L460.0 143.0C460.0 141.89543 460.89542 141.0 462.0 141.0L564.0 141.0C565.10455 141.0 566.0 141.89543 566.0 143.0Z" fill-rule="nonzero"/><path stroke="#ff9900" stroke-width="3.0" stroke-linejoin="round" stroke-linecap="round" d="M185.79688 73.70104L186.70312 73.70104Q187.34375 73.70104 187.65625 73.38854Q187.96875 73.06042 187.96875 72.52917Q187.96875 72.01354 187.65625 71.73229Q187.35938 71.43542 186.8125 71.43542Q186.32812 71.43542 186.0 71.70104Q185.67188 71.96667 185.67188 72.38854L183.98438 72.38854Q183.98438 71.73229 184.34375 71.20104Q184.70312 70.66979 185.34375 70.37292Q186.0 70.06042 186.78125 70.06042Q188.125 70.06042 188.89062 70.71667Q189.67188 71.35729 189.67188 72.49792Q189.67188 73.09167 189.3125 73.59167Q188.95312 74.07604 188.375 74.32604Q189.09375 74.59167 189.4375 75.10729Q189.79688 75.62292 189.79688 76.32604Q189.79688 77.46667 188.96875 78.15417Q188.14062 78.84167 186.78125 78.84167Q185.5 78.84167 184.6875 78.16979Q183.875 77.48229 183.875 76.37292L185.5625 76.37292Q185.5625 76.85729 185.92188 77.16979Q186.29688 77.46667 186.8125 77.46667Q187.42188 77.46667 187.76562 77.15417Q188.10938 76.82604 188.10938 76.29479Q188.10938 75.02917 186.70312 75.02917L185.79688 75.02917L185.79688 73.70104Z" fill-rule="nonzero"/><path fill="#000000" d="M185.79688 73.70104L186.70312 73.70104Q187.34375 73.70104 187.65625 73.38854Q187.96875 73.06042 187.96875 72.52917Q187.96875 72.01354 187.65625 71.73229Q187.35938 71.43542 186.8125 71.43542Q186.32812 71.43542 186.0 71.70104Q185.67188 71.96667 185.67188 72.38854L183.98438 72.38854Q183.98438 71.73229 184.34375 71.20104Q184.70312 70.66979 185.34375 70.37292Q186.0 70.06042 186.78125 70.06042Q188.125 70.06042 188.89062 70.71667Q189.67188 71.35729 189.67188 72.49792Q189.67188 73.09167 189.3125 73.59167Q188.95312 74.07604 188.375 74.32604Q189.09375 74.59167 189.4375 75.10729Q189.79688 75.62292 189.79688 76.32604Q189.79688 77.46667 188.96875 78.15417Q188.14062 78.84167 186.78125 78.84167Q185.5 78.84167 184.6875 78.16979Q183.875 77.48229 183.875 76.37292L185.5625 76.37292Q185.5625 76.85729 185.92188 77.16979Q186.29688 77.46667 186.8125 77.46667Q187.42188 77.46667 187.76562 77.15417Q188.10938 76.82604 188.10938 76.29479Q188.10938 75.02917 186.70312 75.02917L185.79688 75.02917L185.79688 73.70104Z" fill-rule="nonzero"/><path stroke="#ff9900" stroke-width="3.0" stroke-linejoin="round" stroke-linecap="round" d="M351.1875 237.73889L349.5 237.73889L349.5 231.20764L347.48438 231.83264L347.48438 230.45764L351.01562 229.19202L351.1875 229.19202L351.1875 237.73889Z" fill-rule="nonzero"/><path fill="#000000" d="M351.1875 237.73889L349.5 237.73889L349.5 231.20764L347.48438 231.83264L347.48438 230.45764L351.01562 229.19202L351.1875 229.19202L351.1875 237.73889Z" fill-rule="nonzero"/><path stroke="#ff9900" stroke-width="3.0" stroke-linejoin="round" stroke-linecap="round" d="M515.9219 158.22778L510.07812 158.22778L510.07812 157.07153L512.84375 154.11841Q513.40625 153.50903 513.6719 153.04028Q513.9531 152.57153 513.9531 152.16528Q513.9531 151.58716 513.65625 151.27466Q513.375 150.94653 512.84375 150.94653Q512.2656 150.94653 511.9375 151.33716Q511.60938 151.72778 511.60938 152.38403L509.90625 152.38403Q509.90625 151.60278 510.28125 150.96216Q510.65625 150.30591 511.32812 149.94653Q512.0156 149.57153 512.875 149.57153Q514.1875 149.57153 514.9219 150.21216Q515.65625 150.83716 515.65625 151.99341Q515.65625 152.63403 515.3281 153.29028Q515.0 153.94653 514.2031 154.82153L512.2656 156.86841L515.9219 156.86841L515.9219 158.22778Z" fill-rule="nonzero"/><path fill="#000000" d="M515.9219 158.22778L510.07812 158.22778L510.07812 157.07153L512.84375 154.11841Q513.40625 153.50903 513.6719 153.04028Q513.9531 152.57153 513.9531 152.16528Q513.9531 151.58716 513.65625 151.27466Q513.375 150.94653 512.84375 150.94653Q512.2656 150.94653 511.9375 151.33716Q511.60938 151.72778 511.60938 152.38403L509.90625 152.38403Q509.90625 151.60278 510.28125 150.96216Q510.65625 150.30591 511.32812 149.94653Q512.0156 149.57153 512.875 149.57153Q514.1875 149.57153 514.9219 150.21216Q515.65625 150.83716 515.65625 151.99341Q515.65625 152.63403 515.3281 153.29028Q515.0 153.94653 514.2031 154.82153L512.2656 156.86841L515.9219 156.86841L515.9219 158.22778Z" fill-rule="nonzero"/><path fill="#000000" d="M302.5625 346.4344L303.6875 346.73126Q303.32812 348.1219 302.40625 348.85626Q301.48438 349.59064 300.14062 349.59064Q298.75 349.59064 297.875 349.02814Q297.0 348.46564 296.54688 347.40314Q296.09375 346.325 296.09375 345.09064Q296.09375 343.7469 296.60938 342.7469Q297.125 341.7469 298.0625 341.23126Q299.01562 340.71564 300.15625 340.71564Q301.4375 340.71564 302.3125 341.3719Q303.20312 342.02814 303.54688 343.21564L302.42188 343.48126Q302.125 342.54376 301.54688 342.1219Q300.98438 341.6844 300.125 341.6844Q299.14062 341.6844 298.46875 342.16876Q297.8125 342.6375 297.53125 343.4344Q297.26562 344.23126 297.26562 345.09064Q297.26562 346.1844 297.57812 346.9969Q297.90625 347.8094 298.57812 348.21564Q299.25 348.6219 300.04688 348.6219Q301.0 348.6219 301.65625 348.075Q302.32812 347.52814 302.5625 346.4344ZM309.54688 347.45L310.64062 347.575Q310.39062 348.52814 309.6875 349.0594Q308.98438 349.59064 307.90625 349.59064Q306.54688 349.59064 305.73438 348.7469Q304.9375 347.90314 304.9375 346.3875Q304.9375 344.825 305.75 343.96564Q306.5625 343.09064 307.84375 343.09064Q309.09375 343.09064 309.875 343.9344Q310.67188 344.77814 310.67188 346.325Q310.67188 346.41876 310.67188 346.60626L306.03125 346.60626Q306.09375 347.6375 306.60938 348.1844Q307.125 348.71564 307.90625 348.71564Q308.48438 348.71564 308.89062 348.41876Q309.3125 348.10626 309.54688 347.45ZM306.09375 345.7469L309.5625 345.7469Q309.5 344.95 309.17188 344.5594Q308.65625 343.95 307.85938 343.95Q307.125 343.95 306.625 344.4344Q306.14062 344.91876 306.09375 345.7469ZM312.29688 349.45L312.29688 343.23126L313.23438 343.23126L313.23438 344.10626Q313.92188 343.09064 315.21875 343.09064Q315.78125 343.09064 316.25 343.29376Q316.73438 343.4969 316.96875 343.825Q317.20312 344.15314 317.29688 344.59064Q317.34375 344.8875 317.34375 345.6219L317.34375 349.45L316.29688 349.45L316.29688 345.66876Q316.29688 345.0125 316.17188 344.7Q316.04688 344.3875 315.73438 344.2Q315.42188 343.9969 315.0 343.9969Q314.32812 343.9969 313.82812 344.4344Q313.34375 344.85626 313.34375 346.04376L313.34375 349.45L312.29688 349.45ZM323.35938 348.6844Q322.76562 349.1844 322.21875 349.3875Q321.6875 349.59064 321.0625 349.59064Q320.03125 349.59064 319.48438 349.09064Q318.9375 348.59064 318.9375 347.8094Q318.9375 347.35626 319.14062 346.98126Q319.34375 346.59064 319.6875 346.3719Q320.03125 346.1375 320.45312 346.02814Q320.75 345.9344 321.39062 345.85626Q322.65625 345.71564 323.26562 345.4969Q323.26562 345.27814 323.26562 345.23126Q323.26562 344.575 322.96875 344.3094Q322.5625 343.96564 321.76562 343.96564Q321.03125 343.96564 320.67188 344.23126Q320.3125 344.48126 320.14062 345.1375L319.10938 344.9969Q319.25 344.34064 319.57812 343.9344Q319.90625 343.52814 320.51562 343.3094Q321.125 343.09064 321.92188 343.09064Q322.71875 343.09064 323.21875 343.27814Q323.71875 343.46564 323.95312 343.7469Q324.1875 344.02814 324.28125 344.46564Q324.32812 344.73126 324.32812 345.4344L324.32812 346.84064Q324.32812 348.3094 324.39062 348.7Q324.46875 349.09064 324.67188 349.45L323.5625 349.45Q323.40625 349.1219 323.35938 348.6844ZM323.26562 346.325Q322.6875 346.5594 321.54688 346.73126Q320.89062 346.825 320.625 346.95Q320.35938 347.0594 320.20312 347.27814Q320.0625 347.4969 320.0625 347.77814Q320.0625 348.2 320.375 348.48126Q320.70312 348.7625 321.3125 348.7625Q321.92188 348.7625 322.39062 348.4969Q322.875 348.23126 323.09375 347.7625Q323.26562 347.40314 323.26562 346.71564L323.26562 346.325ZM321.20312 342.45L321.98438 340.8094L323.375 340.8094L322.07812 342.45L321.20312 342.45ZM326.28125 349.45L326.28125 343.23126L327.23438 343.23126L327.23438 344.16876Q327.59375 343.5125 327.89062 343.3094Q328.20312 343.09064 328.57812 343.09064Q329.10938 343.09064 329.65625 343.41876L329.29688 344.40314Q328.90625 344.16876 328.53125 344.16876Q328.17188 344.16876 327.89062 344.3875Q327.625 344.59064 327.51562 344.96564Q327.32812 345.52814 327.32812 346.1844L327.32812 349.45L326.28125 349.45ZM330.29688 342.075L330.29688 340.85626L331.35938 340.85626L331.35938 342.075L330.29688 342.075ZM330.29688 349.45L330.29688 343.23126L331.35938 343.23126L331.35938 349.45L330.29688 349.45ZM332.90625 346.34064Q332.90625 344.60626 333.85938 343.77814Q334.65625 343.09064 335.8125 343.09064Q337.09375 343.09064 337.90625 343.9344Q338.73438 344.7625 338.73438 346.2469Q338.73438 347.45 338.375 348.1375Q338.01562 348.825 337.3125 349.21564Q336.625 349.59064 335.8125 349.59064Q334.51562 349.59064 333.70312 348.7625Q332.90625 347.91876 332.90625 346.34064ZM333.98438 346.34064Q333.98438 347.52814 334.5 348.1219Q335.03125 348.71564 335.8125 348.71564Q336.60938 348.71564 337.125 348.1219Q337.64062 347.52814 337.64062 346.3094Q337.64062 345.15314 337.10938 344.5594Q336.59375 343.96564 335.8125 343.96564Q335.03125 343.96564 334.5 344.5594Q333.98438 345.1375 333.98438 346.34064ZM339.875 347.59064L340.90625 347.4344Q341.0 348.0594 341.39062 348.3875Q341.79688 348.71564 342.53125 348.71564Q343.25 348.71564 343.59375 348.4344Q343.95312 348.1375 343.95312 347.73126Q343.95312 347.3719 343.64062 347.16876Q343.42188 347.02814 342.5625 346.8094Q341.40625 346.5125 340.95312 346.3094Q340.51562 346.09064 340.28125 345.71564Q340.04688 345.34064 340.04688 344.8719Q340.04688 344.46564 340.23438 344.10626Q340.42188 343.7469 340.75 343.5125Q341.0 343.34064 341.42188 343.21564Q341.84375 343.09064 342.34375 343.09064Q343.0625 343.09064 343.60938 343.3094Q344.17188 343.5125 344.4375 343.8719Q344.70312 344.23126 344.79688 344.825L343.76562 344.96564Q343.70312 344.4969 343.35938 344.23126Q343.03125 343.95 342.40625 343.95Q341.6875 343.95 341.375 344.2Q341.0625 344.4344 341.0625 344.7625Q341.0625 344.96564 341.1875 345.1219Q341.32812 345.29376 341.59375 345.40314Q341.75 345.46564 342.53125 345.66876Q343.65625 345.98126 344.09375 346.16876Q344.53125 346.35626 344.78125 346.71564Q345.03125 347.075 345.03125 347.6219Q345.03125 348.15314 344.71875 348.6219Q344.42188 349.075 343.84375 349.34064Q343.26562 349.59064 342.53125 349.59064Q341.3125 349.59064 340.67188 349.09064Q340.04688 348.575 339.875 347.59064ZM354.32812 349.45L354.32812 348.66876Q353.73438 349.59064 352.59375 349.59064Q351.84375 349.59064 351.21875 349.1844Q350.59375 348.7625 350.25 348.02814Q349.90625 347.29376 349.90625 346.34064Q349.90625 345.41876 350.21875 344.65314Q350.53125 343.8875 351.15625 343.4969Q351.78125 343.09064 352.54688 343.09064Q353.10938 343.09064 353.54688 343.325Q353.98438 343.5594 354.26562 343.9344L354.26562 340.85626L355.3125 340.85626L355.3125 349.45L354.32812 349.45ZM351.0 346.34064Q351.0 347.54376 351.5 348.1375Q352.0 348.71564 352.6875 348.71564Q353.375 348.71564 353.85938 348.15314Q354.34375 347.59064 354.34375 346.4344Q354.34375 345.15314 353.84375 344.5594Q353.35938 343.96564 352.64062 343.96564Q351.9375 343.96564 351.46875 344.54376Q351.0 345.10626 351.0 346.34064ZM361.54688 347.45L362.64062 347.575Q362.39062 348.52814 361.6875 349.0594Q360.98438 349.59064 359.90625 349.59064Q358.54688 349.59064 357.73438 348.7469Q356.9375 347.90314 356.9375 346.3875Q356.9375 344.825 357.75 343.96564Q358.5625 343.09064 359.84375 343.09064Q361.09375 343.09064 361.875 343.9344Q362.67188 344.77814 362.67188 346.325Q362.67188 346.41876 362.67188 346.60626L358.03125 346.60626Q358.09375 347.6375 358.60938 348.1844Q359.125 348.71564 359.90625 348.71564Q360.48438 348.71564 360.89062 348.41876Q361.3125 348.10626 361.54688 347.45ZM358.09375 345.7469L361.5625 345.7469Q361.5 344.95 361.17188 344.5594Q360.65625 343.95 359.85938 343.95Q359.125 343.95 358.625 344.4344Q358.14062 344.91876 358.09375 345.7469ZM369.60938 349.45L369.60938 341.8719L366.78125 341.8719L366.78125 340.85626L373.59375 340.85626L373.59375 341.8719L370.75 341.8719L370.75 349.45L369.60938 349.45ZM378.54688 347.45L379.64062 347.575Q379.39062 348.52814 378.6875 349.0594Q377.98438 349.59064 376.90625 349.59064Q375.54688 349.59064 374.73438 348.7469Q373.9375 347.90314 373.9375 346.3875Q373.9375 344.825 374.75 343.96564Q375.5625 343.09064 376.84375 343.09064Q378.09375 343.09064 378.875 343.9344Q379.67188 344.77814 379.67188 346.325Q379.67188 346.41876 379.67188 346.60626L375.03125 346.60626Q375.09375 347.6375 375.60938 348.1844Q376.125 348.71564 376.90625 348.71564Q377.48438 348.71564 377.89062 348.41876Q378.3125 348.10626 378.54688 347.45ZM375.09375 345.7469L378.5625 345.7469Q378.5 344.95 378.17188 344.5594Q377.65625 343.95 376.85938 343.95Q376.125 343.95 375.625 344.4344Q375.14062 344.91876 375.09375 345.7469ZM380.875 347.59064L381.90625 347.4344Q382.0 348.0594 382.39062 348.3875Q382.79688 348.71564 383.53125 348.71564Q384.25 348.71564 384.59375 348.4344Q384.95312 348.1375 384.95312 347.73126Q384.95312 347.3719 384.64062 347.16876Q384.42188 347.02814 383.5625 346.8094Q382.40625 346.5125 381.95312 346.3094Q381.51562 346.09064 381.28125 345.71564Q381.04688 345.34064 381.04688 344.8719Q381.04688 344.46564 381.23438 344.10626Q381.42188 343.7469 381.75 343.5125Q382.0 343.34064 382.42188 343.21564Q382.84375 343.09064 383.34375 343.09064Q384.0625 343.09064 384.60938 343.3094Q385.17188 343.5125 385.4375 343.8719Q385.70312 344.23126 385.79688 344.825L384.76562 344.96564Q384.70312 344.4969 384.35938 344.23126Q384.03125 343.95 383.40625 343.95Q382.6875 343.95 382.375 344.2Q382.0625 344.4344 382.0625 344.7625Q382.0625 344.96564 382.1875 345.1219Q382.32812 345.29376 382.59375 345.40314Q382.75 345.46564 383.53125 345.66876Q384.65625 345.98126 385.09375 346.16876Q385.53125 346.35626 385.78125 346.71564Q386.03125 347.075 386.03125 347.6219Q386.03125 348.15314 385.71875 348.6219Q385.42188 349.075 384.84375 349.34064Q384.26562 349.59064 383.53125 349.59064Q382.3125 349.59064 381.67188 349.09064Q381.04688 348.575 380.875 347.59064ZM390.59375 348.5125L390.75 349.4344Q390.29688 349.52814 389.95312 349.52814Q389.375 349.52814 389.0625 349.35626Q388.75 349.16876 388.60938 348.8719Q388.48438 348.575 388.48438 347.6219L388.48438 344.04376L387.71875 344.04376L387.71875 343.23126L388.48438 343.23126L388.48438 341.6844L389.53125 341.0594L389.53125 343.23126L390.59375 343.23126L390.59375 344.04376L389.53125 344.04376L389.53125 347.6844Q389.53125 348.1375 389.57812 348.2625Q389.64062 348.3875 389.76562 348.46564Q389.89062 348.54376 390.125 348.54376Q390.3125 348.54376 390.59375 348.5125ZM395.54688 347.45L396.64062 347.575Q396.39062 348.52814 395.6875 349.0594Q394.98438 349.59064 393.90625 349.59064Q392.54688 349.59064 391.73438 348.7469Q390.9375 347.90314 390.9375 346.3875Q390.9375 344.825 391.75 343.96564Q392.5625 343.09064 393.84375 343.09064Q395.09375 343.09064 395.875 343.9344Q396.67188 344.77814 396.67188 346.325Q396.67188 346.41876 396.67188 346.60626L392.03125 346.60626Q392.09375 347.6375 392.60938 348.1844Q393.125 348.71564 393.90625 348.71564Q394.48438 348.71564 394.89062 348.41876Q395.3125 348.10626 395.54688 347.45ZM392.09375 345.7469L395.5625 345.7469Q395.5 344.95 395.17188 344.5594Q394.65625 343.95 393.85938 343.95Q393.125 343.95 392.625 344.4344Q392.14062 344.91876 392.09375 345.7469ZM397.875 347.59064L398.90625 347.4344Q399.0 348.0594 399.39062 348.3875Q399.79688 348.71564 400.53125 348.71564Q401.25 348.71564 401.59375 348.4344Q401.95312 348.1375 401.95312 347.73126Q401.95312 347.3719 401.64062 347.16876Q401.42188 347.02814 400.5625 346.8094Q399.40625 346.5125 398.95312 346.3094Q398.51562 346.09064 398.28125 345.71564Q398.04688 345.34064 398.04688 344.8719Q398.04688 344.46564 398.23438 344.10626Q398.42188 343.7469 398.75 343.5125Q399.0 343.34064 399.42188 343.21564Q399.84375 343.09064 400.34375 343.09064Q401.0625 343.09064 401.60938 343.3094Q402.17188 343.5125 402.4375 343.8719Q402.70312 344.23126 402.79688 344.825L401.76562 344.96564Q401.70312 344.4969 401.35938 344.23126Q401.03125 343.95 400.40625 343.95Q399.6875 343.95 399.375 344.2Q399.0625 344.4344 399.0625 344.7625Q399.0625 344.96564 399.1875 345.1219Q399.32812 345.29376 399.59375 345.40314Q399.75 345.46564 400.53125 345.66876Q401.65625 345.98126 402.09375 346.16876Q402.53125 346.35626 402.78125 346.71564Q403.03125 347.075 403.03125 347.6219Q403.03125 348.15314 402.71875 348.6219Q402.42188 349.075 401.84375 349.34064Q401.26562 349.59064 400.53125 349.59064Q399.3125 349.59064 398.67188 349.09064Q398.04688 348.575 397.875 347.59064Z" fill-rule="nonzero"/><path fill="#000000" d="M28.628138 236.74583Q29.175013 235.94896 29.425013 235.29271L30.221888 235.62083Q29.878138 236.54271 29.159388 237.46458Q29.690638 238.41771 29.690638 239.57396Q29.690638 240.74583 29.128138 241.69896Q28.565638 242.63646 27.550013 243.15208Q26.534388 243.66771 25.253138 243.66771Q23.987513 243.66771 22.940638 243.15208Q21.893763 242.63646 21.346888 241.68333Q20.800013 240.73021 20.800013 239.55833Q20.800013 238.37083 21.378138 237.41771Q21.940638 236.44896 22.956263 235.94896Q23.971888 235.44896 25.253138 235.44896Q26.315638 235.44896 27.159388 235.77708Q28.003138 236.08958 28.628138 236.74583ZM27.175013 239.24583Q27.456263 238.26146 28.003138 237.62083Q27.081263 236.62083 25.253138 236.62083Q24.206263 236.62083 23.425013 236.98021Q22.643763 237.33958 22.221888 238.02708Q21.784388 238.69896 21.784388 239.54271Q21.784388 240.82396 22.659388 241.66771Q23.518763 242.49583 25.253138 242.49583Q26.925013 242.49583 27.831263 241.66771Q28.721888 240.83958 28.721888 239.54271Q28.721888 238.93333 28.487513 238.40208Q28.143763 238.93333 28.003138 239.52708L27.175013 239.24583ZM29.550013 230.30833L28.628138 230.30833Q29.690638 231.04271 29.690638 232.29271Q29.690638 232.83958 29.487513 233.32396Q29.268763 233.79271 28.956263 234.02708Q28.628138 234.26146 28.159388 234.35521Q27.862513 234.41771 27.175013 234.41771L23.331263 234.41771L23.331263 233.35521L26.784388 233.35521Q27.596888 233.35521 27.893763 233.29271Q28.300013 233.19896 28.550013 232.88646Q28.784388 232.55833 28.784388 232.07396Q28.784388 231.60521 28.550013 231.19896Q28.300013 230.77708 27.878138 230.60521Q27.456263 230.41771 26.659388 230.41771L23.331263 230.41771L23.331263 229.37083L29.550013 229.37083L29.550013 230.30833ZM28.784388 223.32396Q29.284388 223.91771 29.487513 224.46458Q29.690638 224.99583 29.690638 225.62083Q29.690638 226.65208 29.190638 227.19896Q28.690638 227.74583 27.909388 227.74583Q27.456263 227.74583 27.081263 227.54271Q26.690638 227.33958 26.471888 226.99583Q26.237513 226.65208 26.128138 226.23021Q26.034388 225.93333 25.956263 225.29271Q25.815638 224.02708 25.596888 223.41771Q25.378138 223.41771 25.331263 223.41771Q24.675013 223.41771 24.409388 223.71458Q24.065638 224.12083 24.065638 224.91771Q24.065638 225.65208 24.331263 226.01146Q24.581263 226.37083 25.237513 226.54271L25.096888 227.57396Q24.440638 227.43333 24.034388 227.10521Q23.628138 226.77708 23.409388 226.16771Q23.190638 225.55833 23.190638 224.76146Q23.190638 223.96458 23.378138 223.46458Q23.565638 222.96458 23.846888 222.73021Q24.128138 222.49583 24.565638 222.40208Q24.831263 222.35521 25.534388 222.35521L26.940638 222.35521Q28.409388 222.35521 28.800013 222.29271Q29.190638 222.21458 29.550013 222.01146L29.550013 223.12083Q29.221888 223.27708 28.784388 223.32396ZM26.425013 223.41771Q26.659388 223.99583 26.831263 225.13646Q26.925013 225.79271 27.050013 226.05833Q27.159388 226.32396 27.378138 226.48021Q27.596888 226.62083 27.878138 226.62083Q28.300013 226.62083 28.581263 226.30833Q28.862513 225.98021 28.862513 225.37083Q28.862513 224.76146 28.596888 224.29271Q28.331263 223.80833 27.862513 223.58958Q27.503138 223.41771 26.815638 223.41771L26.425013 223.41771ZM29.550013 220.38646L23.331263 220.38646L23.331263 219.44896L24.206263 219.44896Q23.190638 218.76146 23.190638 217.46458Q23.190638 216.90208 23.393763 216.43333Q23.596888 215.94896 23.925013 215.71458Q24.253138 215.48021 24.690638 215.38646Q24.987513 215.33958 25.721888 215.33958L29.550013 215.33958L29.550013 216.38646L25.768763 216.38646Q25.112513 216.38646 24.800013 216.51146Q24.487513 216.63646 24.300013 216.94896Q24.096888 217.26146 24.096888 217.68333Q24.096888 218.35521 24.534388 218.85521Q24.956263 219.33958 26.143763 219.33958L29.550013 219.33958L29.550013 220.38646ZM28.612513 211.08958L29.534388 210.93333Q29.628138 211.38646 29.628138 211.73021Q29.628138 212.30833 29.456263 212.62083Q29.268763 212.93333 28.971888 213.07396Q28.675013 213.19896 27.721888 213.19896L24.143763 213.19896L24.143763 213.96458L23.331263 213.96458L23.331263 213.19896L21.784388 213.19896L21.159388 212.15208L23.331263 212.15208L23.331263 211.08958L24.143763 211.08958L24.143763 212.15208L27.784388 212.15208Q28.237513 212.15208 28.362513 212.10521Q28.487513 212.04271 28.565638 211.91771Q28.643763 211.79271 28.643763 211.55833Q28.643763 211.37083 28.612513 211.08958ZM22.175013 210.38646L20.956263 210.38646L20.956263 209.32396L22.175013 209.32396L22.175013 210.38646ZM29.550013 210.38646L23.331263 210.38646L23.331263 209.32396L29.550013 209.32396L29.550013 210.38646ZM29.550013 203.35521L28.768763 203.35521Q29.690638 203.94896 29.690638 205.08958Q29.690638 205.83958 29.284388 206.46458Q28.862513 207.08958 28.128138 207.43333Q27.393763 207.77708 26.440638 207.77708Q25.518763 207.77708 24.753138 207.46458Q23.987513 207.15208 23.596888 206.52708Q23.190638 205.90208 23.190638 205.13646Q23.190638 204.57396 23.425013 204.13646Q23.659388 203.69896 24.034388 203.41771L20.956263 203.41771L20.956263 202.37083L29.550013 202.37083L29.550013 203.35521ZM26.440638 206.68333Q27.643763 206.68333 28.237513 206.18333Q28.815638 205.68333 28.815638 204.99583Q28.815638 204.30833 28.253138 203.82396Q27.690638 203.33958 26.534388 203.33958Q25.253138 203.33958 24.659388 203.83958Q24.065638 204.32396 24.065638 205.04271Q24.065638 205.74583 24.643763 206.21458Q25.206263 206.68333 26.440638 206.68333ZM28.784388 196.32396Q29.284388 196.91771 29.487513 197.46458Q29.690638 197.99583 29.690638 198.62083Q29.690638 199.65208 29.190638 200.19896Q28.690638 200.74583 27.909388 200.74583Q27.456263 200.74583 27.081263 200.54271Q26.690638 200.33958 26.471888 199.99583Q26.237513 199.65208 26.128138 199.23021Q26.034388 198.93333 25.956263 198.29271Q25.815638 197.02708 25.596888 196.41771Q25.378138 196.41771 25.331263 196.41771Q24.675013 196.41771 24.409388 196.71458Q24.065638 197.12083 24.065638 197.91771Q24.065638 198.65208 24.331263 199.01146Q24.581263 199.37083 25.237513 199.54271L25.096888 200.57396Q24.440638 200.43333 24.034388 200.10521Q23.628138 199.77708 23.409388 199.16771Q23.190638 198.55833 23.190638 197.76146Q23.190638 196.96458 23.378138 196.46458Q23.565638 195.96458 23.846888 195.73021Q24.128138 195.49583 24.565638 195.40208Q24.831263 195.35521 25.534388 195.35521L26.940638 195.35521Q28.409388 195.35521 28.800013 195.29271Q29.190638 195.21458 29.550013 195.01146L29.550013 196.12083Q29.221888 196.27708 28.784388 196.32396ZM26.425013 196.41771Q26.659388 196.99583 26.831263 198.13646Q26.925013 198.79271 27.050013 199.05833Q27.159388 199.32396 27.378138 199.48021Q27.596888 199.62083 27.878138 199.62083Q28.300013 199.62083 28.581263 199.30833Q28.862513 198.98021 28.862513 198.37083Q28.862513 197.76146 28.596888 197.29271Q28.331263 196.80833 27.862513 196.58958Q27.503138 196.41771 26.815638 196.41771L26.425013 196.41771ZM29.550013 189.35521L28.768763 189.35521Q29.690638 189.94896 29.690638 191.08958Q29.690638 191.83958 29.284388 192.46458Q28.862513 193.08958 28.128138 193.43333Q27.393763 193.77708 26.440638 193.77708Q25.518763 193.77708 24.753138 193.46458Q23.987513 193.15208 23.596888 192.52708Q23.190638 191.90208 23.190638 191.13646Q23.190638 190.57396 23.425013 190.13646Q23.659388 189.69896 24.034388 189.41771L20.956263 189.41771L20.956263 188.37083L29.550013 188.37083L29.550013 189.35521ZM26.440638 192.68333Q27.643763 192.68333 28.237513 192.18333Q28.815638 191.68333 28.815638 190.99583Q28.815638 190.30833 28.253138 189.82396Q27.690638 189.33958 26.534388 189.33958Q25.253138 189.33958 24.659388 189.83958Q24.065638 190.32396 24.065638 191.04271Q24.065638 191.74583 24.643763 192.21458Q25.206263 192.68333 26.440638 192.68333ZM27.550013 182.13646L27.675013 181.04271Q28.628138 181.29271 29.159388 181.99583Q29.690638 182.69896 29.690638 183.77708Q29.690638 185.13646 28.846888 185.94896Q28.003138 186.74583 26.487513 186.74583Q24.925013 186.74583 24.065638 185.93333Q23.190638 185.12083 23.190638 183.83958Q23.190638 182.58958 24.034388 181.80833Q24.878138 181.01146 26.425013 181.01146Q26.518763 181.01146 26.706263 181.01146L26.706263 185.65208Q27.737513 185.58958 28.284388 185.07396Q28.815638 184.55833 28.815638 183.77708Q28.815638 183.19896 28.518763 182.79271Q28.206263 182.37083 27.550013 182.13646ZM25.846888 185.58958L25.846888 182.12083Q25.050013 182.18333 24.659388 182.51146Q24.050013 183.02708 24.050013 183.82396Q24.050013 184.55833 24.534388 185.05833Q25.018763 185.54271 25.846888 185.58958ZM29.550013 172.35521L28.768763 172.35521Q29.690638 172.94896 29.690638 174.08958Q29.690638 174.83958 29.284388 175.46458Q28.862513 176.08958 28.128138 176.43333Q27.393763 176.77708 26.440638 176.77708Q25.518763 176.77708 24.753138 176.46458Q23.987513 176.15208 23.596888 175.52708Q23.190638 174.90208 23.190638 174.13646Q23.190638 173.57396 23.425013 173.13646Q23.659388 172.69896 24.034388 172.41771L20.956263 172.41771L20.956263 171.37083L29.550013 171.37083L29.550013 172.35521ZM26.440638 175.68333Q27.643763 175.68333 28.237513 175.18333Q28.815638 174.68333 28.815638 173.99583Q28.815638 173.30833 28.253138 172.82396Q27.690638 172.33958 26.534388 172.33958Q25.253138 172.33958 24.659388 172.83958Q24.065638 173.32396 24.065638 174.04271Q24.065638 174.74583 24.643763 175.21458Q25.206263 175.68333 26.440638 175.68333ZM27.550013 165.13646L27.675013 164.04271Q28.628138 164.29271 29.159388 164.99583Q29.690638 165.69896 29.690638 166.77708Q29.690638 168.13646 28.846888 168.94896Q28.003138 169.74583 26.487513 169.74583Q24.925013 169.74583 24.065638 168.93333Q23.190638 168.12083 23.190638 166.83958Q23.190638 165.58958 24.034388 164.80833Q24.878138 164.01146 26.425013 164.01146Q26.518763 164.01146 26.706263 164.01146L26.706263 168.65208Q27.737513 168.58958 28.284388 168.07396Q28.815638 167.55833 28.815638 166.77708Q28.815638 166.19896 28.518763 165.79271Q28.206263 165.37083 27.550013 165.13646ZM25.846888 168.58958L25.846888 165.12083Q25.050013 165.18333 24.659388 165.51146Q24.050013 166.02708 24.050013 166.82396Q24.050013 167.55833 24.534388 168.05833Q25.018763 168.54271 25.846888 168.58958ZM29.550013 159.30833L20.956263 159.30833L20.956263 156.07396Q20.956263 155.08958 21.221888 154.49583Q21.487513 153.90208 22.034388 153.57396Q22.565638 153.23021 23.159388 153.23021Q23.706263 153.23021 24.190638 153.52708Q24.675013 153.82396 24.971888 154.43333Q25.206263 153.65208 25.768763 153.24583Q26.315638 152.82396 27.065638 152.82396Q27.659388 152.82396 28.190638 153.07396Q28.706263 153.32396 28.987513 153.69896Q29.268763 154.07396 29.409388 154.65208Q29.550013 155.21458 29.550013 156.02708L29.550013 159.30833ZM24.565638 158.16771L24.565638 156.30833Q24.565638 155.55833 24.471888 155.23021Q24.346888 154.79271 24.050013 154.57396Q23.737513 154.35521 23.284388 154.35521Q22.862513 154.35521 22.534388 154.55833Q22.206263 154.76146 22.096888 155.15208Q21.971888 155.52708 21.971888 156.44896L21.971888 158.16771L24.565638 158.16771ZM28.534388 158.16771L28.534388 156.02708Q28.534388 155.48021 28.487513 155.26146Q28.425013 154.85521 28.268763 154.60521Q28.096888 154.33958 27.784388 154.16771Q27.471888 153.99583 27.065638 153.99583Q26.581263 153.99583 26.221888 154.24583Q25.862513 154.48021 25.721888 154.91771Q25.581263 155.35521 25.581263 156.18333L25.581263 158.16771L28.534388 158.16771ZM29.550013 147.30833L28.628138 147.30833Q29.690638 148.04271 29.690638 149.29271Q29.690638 149.83958 29.487513 150.32396Q29.268763 150.79271 28.956263 151.02708Q28.628138 151.26146 28.159388 151.35521Q27.862513 151.41771 27.175013 151.41771L23.331263 151.41771L23.331263 150.35521L26.784388 150.35521Q27.596888 150.35521 27.893763 150.29271Q28.300013 150.19896 28.550013 149.88646Q28.784388 149.55833 28.784388 149.07396Q28.784388 148.60521 28.550013 148.19896Q28.300013 147.77708 27.878138 147.60521Q27.456263 147.41771 26.659388 147.41771L23.331263 147.41771L23.331263 146.37083L29.550013 146.37083L29.550013 147.30833ZM30.065638 144.58958L30.221888 143.55833Q30.690638 143.49583 30.909388 143.19896Q31.206263 142.80833 31.206263 142.13646Q31.206263 141.40208 30.909388 141.01146Q30.612513 140.60521 30.096888 140.46458Q29.768763 140.37083 28.737513 140.38646Q29.550013 141.07396 29.550013 142.10521Q29.550013 143.38646 28.628138 144.08958Q27.690638 144.79271 26.409388 144.79271Q25.518763 144.79271 24.768763 144.48021Q24.003138 144.15208 23.596888 143.54271Q23.190638 142.93333 23.190638 142.10521Q23.190638 140.99583 24.081263 140.27708L23.331263 140.27708L23.331263 139.30833L28.706263 139.30833Q30.159388 139.30833 30.768763 139.60521Q31.378138 139.90208 31.721888 140.54271Q32.08126 141.18333 32.08126 142.12083Q32.08126 143.23021 31.581263 143.91771Q31.081263 144.60521 30.065638 144.58958ZM26.331263 143.71458Q27.550013 143.71458 28.112513 143.23021Q28.675013 142.74583 28.675013 142.01146Q28.675013 141.27708 28.112513 140.79271Q27.550013 140.29271 26.362513 140.29271Q25.221888 140.29271 24.643763 140.80833Q24.065638 141.30833 24.065638 142.02708Q24.065638 142.73021 24.643763 143.23021Q25.206263 143.71458 26.331263 143.71458ZM27.690638 137.80833L27.534388 136.77708Q28.159388 136.68333 28.487513 136.29271Q28.815638 135.88646 28.815638 135.15208Q28.815638 134.43333 28.534388 134.08958Q28.237513 133.73021 27.831263 133.73021Q27.471888 133.73021 27.268763 134.04271Q27.128138 134.26146 26.909388 135.12083Q26.612513 136.27708 26.409388 136.73021Q26.190638 137.16771 25.815638 137.40208Q25.440638 137.63646 24.971888 137.63646Q24.565638 137.63646 24.206263 137.44896Q23.846888 137.26146 23.612513 136.93333Q23.440638 136.68333 23.315638 136.26146Q23.190638 135.83958 23.190638 135.33958Q23.190638 134.62083 23.409388 134.07396Q23.612513 133.51146 23.971888 133.24583Q24.331263 132.98021 24.925013 132.88646L25.065638 133.91771Q24.596888 133.98021 24.331263 134.32396Q24.050013 134.65208 24.050013 135.27708Q24.050013 135.99583 24.300013 136.30833Q24.534388 136.62083 24.862513 136.62083Q25.065638 136.62083 25.221888 136.49583Q25.393763 136.35521 25.503138 136.08958Q25.565638 135.93333 25.768763 135.15208Q26.081263 134.02708 26.268763 133.58958Q26.456263 133.15208 26.815638 132.90208Q27.175013 132.65208 27.721888 132.65208Q28.253138 132.65208 28.721888 132.96458Q29.175013 133.26146 29.440638 133.83958Q29.690638 134.41771 29.690638 135.15208Q29.690638 136.37083 29.190638 137.01146Q28.675013 137.63646 27.690638 137.80833Z" fill-rule="nonzero"/><path fill="#000000" d="M65.05 300.21564Q65.05 298.6844 65.3625 297.7625Q65.675 296.825 66.28438 296.325Q66.90938 295.825 67.84688 295.825Q68.53438 295.825 69.05 296.10626Q69.58125 296.3875 69.925 296.91876Q70.26875 297.4344 70.45625 298.1844Q70.64375 298.9344 70.64375 300.21564Q70.64375 301.73126 70.33125 302.65314Q70.03438 303.575 69.40938 304.09064Q68.8 304.59064 67.84688 304.59064Q66.6125 304.59064 65.89375 303.7Q65.05 302.6375 65.05 300.21564ZM66.12813 300.21564Q66.12813 302.325 66.62813 303.02814Q67.12813 303.73126 67.84688 303.73126Q68.58125 303.73126 69.06563 303.02814Q69.56563 302.325 69.56563 300.21564Q69.56563 298.09064 69.06563 297.40314Q68.58125 296.7 67.83125 296.7Q67.1125 296.7 66.675 297.3094Q66.12813 298.09064 66.12813 300.21564Z" fill-rule="nonzero"/><path fill="#000000" d="M69.01875 224.93889L67.97188 224.93889L67.97188 218.22014Q67.58125 218.57951 66.95625 218.95451Q66.34688 219.31389 65.8625 219.48576L65.8625 218.47014Q66.7375 218.04826 67.39375 217.47014Q68.06563 216.87639 68.34688 216.31389L69.01875 216.31389L69.01875 224.93889Z" fill-rule="nonzero"/><path fill="#000000" d="M70.59688 144.41216L70.59688 145.42778L64.90938 145.42778Q64.90938 145.05278 65.03438 144.6934Q65.25313 144.11528 65.72188 143.55278Q66.20625 142.99028 67.1125 142.2559Q68.51875 141.09966 69.00313 140.42778Q69.50313 139.7559 69.50313 139.16216Q69.50313 138.53716 69.05 138.11528Q68.59688 137.67778 67.87813 137.67778Q67.1125 137.67778 66.65938 138.1309Q66.20625 138.58403 66.19063 139.39653L65.1125 139.28716Q65.22188 138.0684 65.94063 137.4434Q66.675 136.80278 67.90938 136.80278Q69.14375 136.80278 69.8625 137.49028Q70.58125 138.17778 70.58125 139.1934Q70.58125 139.70903 70.3625 140.20903Q70.15938 140.6934 69.65938 141.2559Q69.175 141.80278 68.05 142.7559Q67.09688 143.55278 66.81563 143.84966Q66.55 144.1309 66.37813 144.41216L70.59688 144.41216Z" fill-rule="nonzero"/><path fill="#000000" d="M65.05 63.65104L66.1125 63.510414Q66.28438 64.40104 66.72188 64.80729Q67.15938 65.197914 67.78438 65.197914Q68.53438 65.197914 69.05 64.68229Q69.56563 64.166664 69.56563 63.40104Q69.56563 62.68229 69.08125 62.21354Q68.6125 61.729164 67.87813 61.729164Q67.58125 61.729164 67.12813 61.854164L67.25313 60.916664Q67.3625 60.93229 67.425 60.93229Q68.09688 60.93229 68.62813 60.58854Q69.175 60.229164 69.175 59.49479Q69.175 58.916664 68.78438 58.541664Q68.39375 58.15104 67.76875 58.15104Q67.15938 58.15104 66.7375 58.541664Q66.33125 58.93229 66.22188 59.697914L65.15938 59.510414Q65.34688 58.46354 66.03438 57.885414Q66.72188 57.291664 67.7375 57.291664Q68.44063 57.291664 69.03438 57.604164Q69.62813 57.90104 69.94063 58.416664Q70.25313 58.93229 70.25313 59.52604Q70.25313 60.072914 69.95625 60.541664Q69.65938 60.99479 69.08125 61.260414Q69.83125 61.43229 70.25313 61.99479Q70.675 62.541664 70.675 63.385414Q70.675 64.510414 69.84688 65.291664Q69.03438 66.072914 67.78438 66.072914Q66.65938 66.072914 65.90938 65.40104Q65.15938 64.71354 65.05 63.65104Z" fill-rule="nonzero"/><path fill="#000000" d="M135.40578 314.4344L136.53078 314.73126Q136.1714 316.1219 135.24953 316.85626Q134.32765 317.59064 132.9839 317.59064Q131.59328 317.59064 130.71828 317.02814Q129.84328 316.46564 129.39015 315.40314Q128.93703 314.325 128.93703 313.09064Q128.93703 311.7469 129.45265 310.7469Q129.96828 309.7469 130.90578 309.23126Q131.8589 308.71564 132.99953 308.71564Q134.28078 308.71564 135.15578 309.3719Q136.0464 310.02814 136.39015 311.21564L135.26515 311.48126Q134.96828 310.54376 134.39015 310.1219Q133.82765 309.6844 132.96828 309.6844Q131.9839 309.6844 131.31203 310.16876Q130.65578 310.6375 130.37453 311.4344Q130.1089 312.23126 130.1089 313.09064Q130.1089 314.1844 130.4214 314.9969Q130.74953 315.8094 131.4214 316.21564Q132.09328 316.6219 132.89015 316.6219Q133.84328 316.6219 134.49953 316.075Q135.1714 315.52814 135.40578 314.4344ZM142.20265 316.6844Q141.6089 317.1844 141.06203 317.3875Q140.53078 317.59064 139.90578 317.59064Q138.87453 317.59064 138.32765 317.09064Q137.78078 316.59064 137.78078 315.8094Q137.78078 315.35626 137.9839 314.98126Q138.18703 314.59064 138.53078 314.3719Q138.87453 314.1375 139.2964 314.02814Q139.59328 313.9344 140.2339 313.85626Q141.49953 313.71564 142.1089 313.4969Q142.1089 313.27814 142.1089 313.23126Q142.1089 312.575 141.81203 312.3094Q141.40578 311.96564 140.6089 311.96564Q139.87453 311.96564 139.51515 312.23126Q139.15578 312.48126 138.9839 313.1375L137.95265 312.9969Q138.09328 312.34064 138.4214 311.9344Q138.74953 311.52814 139.3589 311.3094Q139.96828 311.09064 140.76515 311.09064Q141.56203 311.09064 142.06203 311.27814Q142.56203 311.46564 142.7964 311.7469Q143.03078 312.02814 143.12453 312.46564Q143.1714 312.73126 143.1714 313.4344L143.1714 314.84064Q143.1714 316.3094 143.2339 316.7Q143.31203 317.09064 143.51515 317.45L142.40578 317.45Q142.24953 317.1219 142.20265 316.6844ZM142.1089 314.325Q141.53078 314.5594 140.39015 314.73126Q139.7339 314.825 139.46828 314.95Q139.20265 315.0594 139.0464 315.27814Q138.90578 315.4969 138.90578 315.77814Q138.90578 316.2 139.21828 316.48126Q139.5464 316.7625 140.15578 316.7625Q140.76515 316.7625 141.2339 316.4969Q141.71828 316.23126 141.93703 315.7625Q142.1089 315.40314 142.1089 314.71564L142.1089 314.325ZM149.1714 317.45L149.1714 316.66876Q148.57765 317.59064 147.43703 317.59064Q146.68703 317.59064 146.06203 317.1844Q145.43703 316.7625 145.09328 316.02814Q144.74953 315.29376 144.74953 314.34064Q144.74953 313.41876 145.06203 312.65314Q145.37453 311.8875 145.99953 311.4969Q146.62453 311.09064 147.39015 311.09064Q147.95265 311.09064 148.39015 311.325Q148.82765 311.5594 149.1089 311.9344L149.1089 308.85626L150.15578 308.85626L150.15578 317.45L149.1714 317.45ZM145.84328 314.34064Q145.84328 315.54376 146.34328 316.1375Q146.84328 316.71564 147.53078 316.71564Q148.21828 316.71564 148.70265 316.15314Q149.18703 315.59064 149.18703 314.4344Q149.18703 313.15314 148.68703 312.5594Q148.20265 311.96564 147.4839 311.96564Q146.78078 311.96564 146.31203 312.54376Q145.84328 313.10626 145.84328 314.34064ZM156.20265 316.6844Q155.6089 317.1844 155.06203 317.3875Q154.53078 317.59064 153.90578 317.59064Q152.87453 317.59064 152.32765 317.09064Q151.78078 316.59064 151.78078 315.8094Q151.78078 315.35626 151.9839 314.98126Q152.18703 314.59064 152.53078 314.3719Q152.87453 314.1375 153.2964 314.02814Q153.59328 313.9344 154.2339 313.85626Q155.49953 313.71564 156.1089 313.4969Q156.1089 313.27814 156.1089 313.23126Q156.1089 312.575 155.81203 312.3094Q155.40578 311.96564 154.6089 311.96564Q153.87453 311.96564 153.51515 312.23126Q153.15578 312.48126 152.9839 313.1375L151.95265 312.9969Q152.09328 312.34064 152.4214 311.9344Q152.74953 311.52814 153.3589 311.3094Q153.96828 311.09064 154.76515 311.09064Q155.56203 311.09064 156.06203 311.27814Q156.56203 311.46564 156.7964 311.7469Q157.03078 312.02814 157.12453 312.46564Q157.1714 312.73126 157.1714 313.4344L157.1714 314.84064Q157.1714 316.3094 157.2339 316.7Q157.31203 317.09064 157.51515 317.45L156.40578 317.45Q156.24953 317.1219 156.20265 316.6844ZM156.1089 314.325Q155.53078 314.5594 154.39015 314.73126Q153.7339 314.825 153.46828 314.95Q153.20265 315.0594 153.0464 315.27814Q152.90578 315.4969 152.90578 315.77814Q152.90578 316.2 153.21828 316.48126Q153.5464 316.7625 154.15578 316.7625Q154.76515 316.7625 155.2339 316.4969Q155.71828 316.23126 155.93703 315.7625Q156.1089 315.40314 156.1089 314.71564L156.1089 314.325ZM158.71828 315.59064L159.74953 315.4344Q159.84328 316.0594 160.2339 316.3875Q160.64015 316.71564 161.37453 316.71564Q162.09328 316.71564 162.43703 316.4344Q162.7964 316.1375 162.7964 315.73126Q162.7964 315.3719 162.4839 315.16876Q162.26515 315.02814 161.40578 314.8094Q160.24953 314.5125 159.7964 314.3094Q159.3589 314.09064 159.12453 313.71564Q158.89015 313.34064 158.89015 312.8719Q158.89015 312.46564 159.07765 312.10626Q159.26515 311.7469 159.59328 311.5125Q159.84328 311.34064 160.26515 311.21564Q160.68703 311.09064 161.18703 311.09064Q161.90578 311.09064 162.45265 311.3094Q163.01515 311.5125 163.28078 311.8719Q163.5464 312.23126 163.64015 312.825L162.6089 312.96564Q162.5464 312.4969 162.20265 312.23126Q161.87453 311.95 161.24953 311.95Q160.53078 311.95 160.21828 312.2Q159.90578 312.4344 159.90578 312.7625Q159.90578 312.96564 160.03078 313.1219Q160.1714 313.29376 160.43703 313.40314Q160.59328 313.46564 161.37453 313.66876Q162.49953 313.98126 162.93703 314.16876Q163.37453 314.35626 163.62453 314.71564Q163.87453 315.075 163.87453 315.6219Q163.87453 316.15314 163.56203 316.6219Q163.26515 317.075 162.68703 317.34064Q162.1089 317.59064 161.37453 317.59064Q160.15578 317.59064 159.51515 317.09064Q158.89015 316.575 158.71828 315.59064ZM168.43703 316.5125L168.59328 317.4344Q168.14015 317.52814 167.7964 317.52814Q167.21828 317.52814 166.90578 317.35626Q166.59328 317.16876 166.45265 316.8719Q166.32765 316.575 166.32765 315.6219L166.32765 312.04376L165.56203 312.04376L165.56203 311.23126L166.32765 311.23126L166.32765 309.6844L167.37453 309.0594L167.37453 311.23126L168.43703 311.23126L168.43703 312.04376L167.37453 312.04376L167.37453 315.6844Q167.37453 316.1375 167.4214 316.2625Q167.4839 316.3875 167.6089 316.46564Q167.7339 316.54376 167.96828 316.54376Q168.15578 316.54376 168.43703 316.5125ZM169.12453 317.45L169.12453 311.23126L170.07765 311.23126L170.07765 312.16876Q170.43703 311.5125 170.7339 311.3094Q171.0464 311.09064 171.4214 311.09064Q171.95265 311.09064 172.49953 311.41876L172.14015 312.40314Q171.74953 312.16876 171.37453 312.16876Q171.01515 312.16876 170.7339 312.3875Q170.46828 312.59064 170.3589 312.96564Q170.1714 313.52814 170.1714 314.1844L170.1714 317.45L169.12453 317.45ZM177.20265 316.6844Q176.6089 317.1844 176.06203 317.3875Q175.53078 317.59064 174.90578 317.59064Q173.87453 317.59064 173.32765 317.09064Q172.78078 316.59064 172.78078 315.8094Q172.78078 315.35626 172.9839 314.98126Q173.18703 314.59064 173.53078 314.3719Q173.87453 314.1375 174.2964 314.02814Q174.59328 313.9344 175.2339 313.85626Q176.49953 313.71564 177.1089 313.4969Q177.1089 313.27814 177.1089 313.23126Q177.1089 312.575 176.81203 312.3094Q176.40578 311.96564 175.6089 311.96564Q174.87453 311.96564 174.51515 312.23126Q174.15578 312.48126 173.9839 313.1375L172.95265 312.9969Q173.09328 312.34064 173.4214 311.9344Q173.74953 311.52814 174.3589 311.3094Q174.96828 311.09064 175.76515 311.09064Q176.56203 311.09064 177.06203 311.27814Q177.56203 311.46564 177.7964 311.7469Q178.03078 312.02814 178.12453 312.46564Q178.1714 312.73126 178.1714 313.4344L178.1714 314.84064Q178.1714 316.3094 178.2339 316.7Q178.31203 317.09064 178.51515 317.45L177.40578 317.45Q177.24953 317.1219 177.20265 316.6844ZM177.1089 314.325Q176.53078 314.5594 175.39015 314.73126Q174.7339 314.825 174.46828 314.95Q174.20265 315.0594 174.0464 315.27814Q173.90578 315.4969 173.90578 315.77814Q173.90578 316.2 174.21828 316.48126Q174.5464 316.7625 175.15578 316.7625Q175.76515 316.7625 176.2339 316.4969Q176.71828 316.23126 176.93703 315.7625Q177.1089 315.40314 177.1089 314.71564L177.1089 314.325ZM180.12453 317.45L180.12453 311.23126L181.07765 311.23126L181.07765 312.16876Q181.43703 311.5125 181.7339 311.3094Q182.0464 311.09064 182.4214 311.09064Q182.95265 311.09064 183.49953 311.41876L183.14015 312.40314Q182.74953 312.16876 182.37453 312.16876Q182.01515 312.16876 181.7339 312.3875Q181.46828 312.59064 181.3589 312.96564Q181.1714 313.52814 181.1714 314.1844L181.1714 317.45L180.12453 317.45ZM187.14015 317.45L187.14015 311.23126L188.07765 311.23126L188.07765 312.10626Q188.76515 311.09064 190.06203 311.09064Q190.62453 311.09064 191.09328 311.29376Q191.57765 311.4969 191.81203 311.825Q192.0464 312.15314 192.14015 312.59064Q192.18703 312.8875 192.18703 313.6219L192.18703 317.45L191.14015 317.45L191.14015 313.66876Q191.14015 313.0125 191.01515 312.7Q190.89015 312.3875 190.57765 312.2Q190.26515 311.9969 189.84328 311.9969Q189.1714 311.9969 188.6714 312.4344Q188.18703 312.85626 188.18703 314.04376L188.18703 317.45L187.14015 317.45ZM193.74953 314.34064Q193.74953 312.60626 194.70265 311.77814Q195.49953 311.09064 196.65578 311.09064Q197.93703 311.09064 198.74953 311.9344Q199.57765 312.7625 199.57765 314.2469Q199.57765 315.45 199.21828 316.1375Q198.8589 316.825 198.15578 317.21564Q197.46828 317.59064 196.65578 317.59064Q195.3589 317.59064 194.5464 316.7625Q193.74953 315.91876 193.74953 314.34064ZM194.82765 314.34064Q194.82765 315.52814 195.34328 316.1219Q195.87453 316.71564 196.65578 316.71564Q197.45265 316.71564 197.96828 316.1219Q198.4839 315.52814 198.4839 314.3094Q198.4839 313.15314 197.95265 312.5594Q197.43703 311.96564 196.65578 311.96564Q195.87453 311.96564 195.34328 312.5594Q194.82765 313.1375 194.82765 314.34064ZM202.8589 317.45L200.49953 311.23126L201.6089 311.23126L202.95265 314.95Q203.15578 315.5594 203.34328 316.2Q203.4839 315.71564 203.7339 315.02814L205.12453 311.23126L206.20265 311.23126L203.84328 317.45L202.8589 317.45ZM205.74953 314.34064Q205.74953 312.60626 206.70265 311.77814Q207.49953 311.09064 208.65578 311.09064Q209.93703 311.09064 210.74953 311.9344Q211.57765 312.7625 211.57765 314.2469Q211.57765 315.45 211.21828 316.1375Q210.8589 316.825 210.15578 317.21564Q209.46828 317.59064 208.65578 317.59064Q207.3589 317.59064 206.5464 316.7625Q205.74953 315.91876 205.74953 314.34064ZM206.82765 314.34064Q206.82765 315.52814 207.34328 316.1219Q207.87453 316.71564 208.65578 316.71564Q209.45265 316.71564 209.96828 316.1219Q210.4839 315.52814 210.4839 314.3094Q210.4839 313.15314 209.95265 312.5594Q209.43703 311.96564 208.65578 311.96564Q207.87453 311.96564 207.34328 312.5594Q206.82765 313.1375 206.82765 314.34064ZM220.20265 315.16876L221.2339 315.3094Q221.06203 316.3719 220.3589 316.98126Q219.65578 317.59064 218.64015 317.59064Q217.3589 317.59064 216.57765 316.7625Q215.81203 315.91876 215.81203 314.35626Q215.81203 313.35626 216.14015 312.60626Q216.4839 311.84064 217.15578 311.46564Q217.84328 311.09064 218.65578 311.09064Q219.65578 311.09064 220.2964 311.60626Q220.95265 312.10626 221.14015 313.0594L220.1089 313.21564Q219.96828 312.59064 219.59328 312.27814Q219.21828 311.95 218.68703 311.95Q217.89015 311.95 217.39015 312.52814Q216.89015 313.09064 216.89015 314.325Q216.89015 315.59064 217.37453 316.15314Q217.8589 316.71564 218.62453 316.71564Q219.24953 316.71564 219.65578 316.34064Q220.07765 315.96564 220.20265 315.16876ZM226.21828 317.45L226.21828 316.52814Q225.4839 317.59064 224.2339 317.59064Q223.68703 317.59064 223.20265 317.3875Q222.7339 317.16876 222.49953 316.85626Q222.26515 316.52814 222.1714 316.0594Q222.1089 315.7625 222.1089 315.075L222.1089 311.23126L223.1714 311.23126L223.1714 314.6844Q223.1714 315.4969 223.2339 315.79376Q223.32765 316.2 223.64015 316.45Q223.96828 316.6844 224.45265 316.6844Q224.9214 316.6844 225.32765 316.45Q225.74953 316.2 225.9214 315.77814Q226.1089 315.35626 226.1089 314.5594L226.1089 311.23126L227.15578 311.23126L227.15578 317.45L226.21828 317.45ZM229.12453 317.45L229.12453 311.23126L230.07765 311.23126L230.07765 312.16876Q230.43703 311.5125 230.7339 311.3094Q231.0464 311.09064 231.4214 311.09064Q231.95265 311.09064 232.49953 311.41876L232.14015 312.40314Q231.74953 312.16876 231.37453 312.16876Q231.01515 312.16876 230.7339 312.3875Q230.46828 312.59064 230.3589 312.96564Q230.1714 313.52814 230.1714 314.1844L230.1714 317.45L229.12453 317.45ZM232.71828 315.59064L233.74953 315.4344Q233.84328 316.0594 234.2339 316.3875Q234.64015 316.71564 235.37453 316.71564Q236.09328 316.71564 236.43703 316.4344Q236.7964 316.1375 236.7964 315.73126Q236.7964 315.3719 236.4839 315.16876Q236.26515 315.02814 235.40578 314.8094Q234.24953 314.5125 233.7964 314.3094Q233.3589 314.09064 233.12453 313.71564Q232.89015 313.34064 232.89015 312.8719Q232.89015 312.46564 233.07765 312.10626Q233.26515 311.7469 233.59328 311.5125Q233.84328 311.34064 234.26515 311.21564Q234.68703 311.09064 235.18703 311.09064Q235.90578 311.09064 236.45265 311.3094Q237.01515 311.5125 237.28078 311.8719Q237.5464 312.23126 237.64015 312.825L236.6089 312.96564Q236.5464 312.4969 236.20265 312.23126Q235.87453 311.95 235.24953 311.95Q234.53078 311.95 234.21828 312.2Q233.90578 312.4344 233.90578 312.7625Q233.90578 312.96564 234.03078 313.1219Q234.1714 313.29376 234.43703 313.40314Q234.59328 313.46564 235.37453 313.66876Q236.49953 313.98126 236.93703 314.16876Q237.37453 314.35626 237.62453 314.71564Q237.87453 315.075 237.87453 315.6219Q237.87453 316.15314 237.56203 316.6219Q237.26515 317.075 236.68703 317.34064Q236.1089 317.59064 235.37453 317.59064Q234.15578 317.59064 233.51515 317.09064Q232.89015 316.575 232.71828 315.59064ZM239.74953 314.34064Q239.74953 312.60626 240.70265 311.77814Q241.49953 311.09064 242.65578 311.09064Q243.93703 311.09064 244.74953 311.9344Q245.57765 312.7625 245.57765 314.2469Q245.57765 315.45 245.21828 316.1375Q244.8589 316.825 244.15578 317.21564Q243.46828 317.59064 242.65578 317.59064Q241.3589 317.59064 240.5464 316.7625Q239.74953 315.91876 239.74953 314.34064ZM240.82765 314.34064Q240.82765 315.52814 241.34328 316.1219Q241.87453 316.71564 242.65578 316.71564Q243.45265 316.71564 243.96828 316.1219Q244.4839 315.52814 244.4839 314.3094Q244.4839 313.15314 243.95265 312.5594Q243.43703 311.96564 242.65578 311.96564Q241.87453 311.96564 241.34328 312.5594Q240.82765 313.1375 240.82765 314.34064Z" fill-rule="nonzero"/><path fill="#000000" d="M281.875 317.45L281.875 308.85626L283.01562 308.85626L283.01562 316.4344L287.25 316.4344L287.25 317.45L281.875 317.45ZM288.79688 310.075L288.79688 308.85626L289.85938 308.85626L289.85938 310.075L288.79688 310.075ZM288.79688 317.45L288.79688 311.23126L289.85938 311.23126L289.85938 317.45L288.79688 317.45ZM291.375 315.59064L292.40625 315.4344Q292.5 316.0594 292.89062 316.3875Q293.29688 316.71564 294.03125 316.71564Q294.75 316.71564 295.09375 316.4344Q295.45312 316.1375 295.45312 315.73126Q295.45312 315.3719 295.14062 315.16876Q294.92188 315.02814 294.0625 314.8094Q292.90625 314.5125 292.45312 314.3094Q292.01562 314.09064 291.78125 313.71564Q291.54688 313.34064 291.54688 312.8719Q291.54688 312.46564 291.73438 312.10626Q291.92188 311.7469 292.25 311.5125Q292.5 311.34064 292.92188 311.21564Q293.34375 311.09064 293.84375 311.09064Q294.5625 311.09064 295.10938 311.3094Q295.67188 311.5125 295.9375 311.8719Q296.20312 312.23126 296.29688 312.825L295.26562 312.96564Q295.20312 312.4969 294.85938 312.23126Q294.53125 311.95 293.90625 311.95Q293.1875 311.95 292.875 312.2Q292.5625 312.4344 292.5625 312.7625Q292.5625 312.96564 292.6875 313.1219Q292.82812 313.29376 293.09375 313.40314Q293.25 313.46564 294.03125 313.66876Q295.15625 313.98126 295.59375 314.16876Q296.03125 314.35626 296.28125 314.71564Q296.53125 315.075 296.53125 315.6219Q296.53125 316.15314 296.21875 316.6219Q295.92188 317.075 295.34375 317.34064Q294.76562 317.59064 294.03125 317.59064Q292.8125 317.59064 292.17188 317.09064Q291.54688 316.575 291.375 315.59064ZM301.09375 316.5125L301.25 317.4344Q300.79688 317.52814 300.45312 317.52814Q299.875 317.52814 299.5625 317.35626Q299.25 317.16876 299.10938 316.8719Q298.98438 316.575 298.98438 315.6219L298.98438 312.04376L298.21875 312.04376L298.21875 311.23126L298.98438 311.23126L298.98438 309.6844L300.03125 309.0594L300.03125 311.23126L301.09375 311.23126L301.09375 312.04376L300.03125 312.04376L300.03125 315.6844Q300.03125 316.1375 300.07812 316.2625Q300.14062 316.3875 300.26562 316.46564Q300.39062 316.54376 300.625 316.54376Q300.8125 316.54376 301.09375 316.5125ZM305.85938 316.6844Q305.26562 317.1844 304.71875 317.3875Q304.1875 317.59064 303.5625 317.59064Q302.53125 317.59064 301.98438 317.09064Q301.4375 316.59064 301.4375 315.8094Q301.4375 315.35626 301.64062 314.98126Q301.84375 314.59064 302.1875 314.3719Q302.53125 314.1375 302.95312 314.02814Q303.25 313.9344 303.89062 313.85626Q305.15625 313.71564 305.76562 313.4969Q305.76562 313.27814 305.76562 313.23126Q305.76562 312.575 305.46875 312.3094Q305.0625 311.96564 304.26562 311.96564Q303.53125 311.96564 303.17188 312.23126Q302.8125 312.48126 302.64062 313.1375L301.60938 312.9969Q301.75 312.34064 302.07812 311.9344Q302.40625 311.52814 303.01562 311.3094Q303.625 311.09064 304.42188 311.09064Q305.21875 311.09064 305.71875 311.27814Q306.21875 311.46564 306.45312 311.7469Q306.6875 312.02814 306.78125 312.46564Q306.82812 312.73126 306.82812 313.4344L306.82812 314.84064Q306.82812 316.3094 306.89062 316.7Q306.96875 317.09064 307.17188 317.45L306.0625 317.45Q305.90625 317.1219 305.85938 316.6844ZM305.76562 314.325Q305.1875 314.5594 304.04688 314.73126Q303.39062 314.825 303.125 314.95Q302.85938 315.0594 302.70312 315.27814Q302.5625 315.4969 302.5625 315.77814Q302.5625 316.2 302.875 316.48126Q303.20312 316.7625 303.8125 316.7625Q304.42188 316.7625 304.89062 316.4969Q305.375 316.23126 305.59375 315.7625Q305.76562 315.40314 305.76562 314.71564L305.76562 314.325ZM308.78125 317.45L308.78125 311.23126L309.73438 311.23126L309.73438 312.16876Q310.09375 311.5125 310.39062 311.3094Q310.70312 311.09064 311.07812 311.09064Q311.60938 311.09064 312.15625 311.41876L311.79688 312.40314Q311.40625 312.16876 311.03125 312.16876Q310.67188 312.16876 310.39062 312.3875Q310.125 312.59064 310.01562 312.96564Q309.82812 313.52814 309.82812 314.1844L309.82812 317.45L308.78125 317.45ZM319.85938 315.16876L320.89062 315.3094Q320.71875 316.3719 320.01562 316.98126Q319.3125 317.59064 318.29688 317.59064Q317.01562 317.59064 316.23438 316.7625Q315.46875 315.91876 315.46875 314.35626Q315.46875 313.35626 315.79688 312.60626Q316.14062 311.84064 316.8125 311.46564Q317.5 311.09064 318.3125 311.09064Q319.3125 311.09064 319.95312 311.60626Q320.60938 312.10626 320.79688 313.0594L319.76562 313.21564Q319.625 312.59064 319.25 312.27814Q318.875 311.95 318.34375 311.95Q317.54688 311.95 317.04688 312.52814Q316.54688 313.09064 316.54688 314.325Q316.54688 315.59064 317.03125 316.15314Q317.51562 316.71564 318.28125 316.71564Q318.90625 316.71564 319.3125 316.34064Q319.73438 315.96564 319.85938 315.16876ZM325.875 317.45L325.875 316.52814Q325.14062 317.59064 323.89062 317.59064Q323.34375 317.59064 322.85938 317.3875Q322.39062 317.16876 322.15625 316.85626Q321.92188 316.52814 321.82812 316.0594Q321.76562 315.7625 321.76562 315.075L321.76562 311.23126L322.82812 311.23126L322.82812 314.6844Q322.82812 315.4969 322.89062 315.79376Q322.98438 316.2 323.29688 316.45Q323.625 316.6844 324.10938 316.6844Q324.57812 316.6844 324.98438 316.45Q325.40625 316.2 325.57812 315.77814Q325.76562 315.35626 325.76562 314.5594L325.76562 311.23126L326.8125 311.23126L326.8125 317.45L325.875 317.45ZM328.78125 317.45L328.78125 311.23126L329.73438 311.23126L329.73438 312.16876Q330.09375 311.5125 330.39062 311.3094Q330.70312 311.09064 331.07812 311.09064Q331.60938 311.09064 332.15625 311.41876L331.79688 312.40314Q331.40625 312.16876 331.03125 312.16876Q330.67188 312.16876 330.39062 312.3875Q330.125 312.59064 330.01562 312.96564Q329.82812 313.52814 329.82812 314.1844L329.82812 317.45L328.78125 317.45ZM332.375 315.59064L333.40625 315.4344Q333.5 316.0594 333.89062 316.3875Q334.29688 316.71564 335.03125 316.71564Q335.75 316.71564 336.09375 316.4344Q336.45312 316.1375 336.45312 315.73126Q336.45312 315.3719 336.14062 315.16876Q335.92188 315.02814 335.0625 314.8094Q333.90625 314.5125 333.45312 314.3094Q333.01562 314.09064 332.78125 313.71564Q332.54688 313.34064 332.54688 312.8719Q332.54688 312.46564 332.73438 312.10626Q332.92188 311.7469 333.25 311.5125Q333.5 311.34064 333.92188 311.21564Q334.34375 311.09064 334.84375 311.09064Q335.5625 311.09064 336.10938 311.3094Q336.67188 311.5125 336.9375 311.8719Q337.20312 312.23126 337.29688 312.825L336.26562 312.96564Q336.20312 312.4969 335.85938 312.23126Q335.53125 311.95 334.90625 311.95Q334.1875 311.95 333.875 312.2Q333.5625 312.4344 333.5625 312.7625Q333.5625 312.96564 333.6875 313.1219Q333.82812 313.29376 334.09375 313.40314Q334.25 313.46564 335.03125 313.66876Q336.15625 313.98126 336.59375 314.16876Q337.03125 314.35626 337.28125 314.71564Q337.53125 315.075 337.53125 315.6219Q337.53125 316.15314 337.21875 316.6219Q336.92188 317.075 336.34375 317.34064Q335.76562 317.59064 335.03125 317.59064Q333.8125 317.59064 333.17188 317.09064Q332.54688 316.575 332.375 315.59064ZM339.40625 314.34064Q339.40625 312.60626 340.35938 311.77814Q341.15625 311.09064 342.3125 311.09064Q343.59375 311.09064 344.40625 311.9344Q345.23438 312.7625 345.23438 314.2469Q345.23438 315.45 344.875 316.1375Q344.51562 316.825 343.8125 317.21564Q343.125 317.59064 342.3125 317.59064Q341.01562 317.59064 340.20312 316.7625Q339.40625 315.91876 339.40625 314.34064ZM340.48438 314.34064Q340.48438 315.52814 341.0 316.1219Q341.53125 316.71564 342.3125 316.71564Q343.10938 316.71564 343.625 316.1219Q344.14062 315.52814 344.14062 314.3094Q344.14062 313.15314 343.60938 312.5594Q343.09375 311.96564 342.3125 311.96564Q341.53125 311.96564 341.0 312.5594Q340.48438 313.1375 340.48438 314.34064ZM346.375 315.59064L347.40625 315.4344Q347.5 316.0594 347.89062 316.3875Q348.29688 316.71564 349.03125 316.71564Q349.75 316.71564 350.09375 316.4344Q350.45312 316.1375 350.45312 315.73126Q350.45312 315.3719 350.14062 315.16876Q349.92188 315.02814 349.0625 314.8094Q347.90625 314.5125 347.45312 314.3094Q347.01562 314.09064 346.78125 313.71564Q346.54688 313.34064 346.54688 312.8719Q346.54688 312.46564 346.73438 312.10626Q346.92188 311.7469 347.25 311.5125Q347.5 311.34064 347.92188 311.21564Q348.34375 311.09064 348.84375 311.09064Q349.5625 311.09064 350.10938 311.3094Q350.67188 311.5125 350.9375 311.8719Q351.20312 312.23126 351.29688 312.825L350.26562 312.96564Q350.20312 312.4969 349.85938 312.23126Q349.53125 311.95 348.90625 311.95Q348.1875 311.95 347.875 312.2Q347.5625 312.4344 347.5625 312.7625Q347.5625 312.96564 347.6875 313.1219Q347.82812 313.29376 348.09375 313.40314Q348.25 313.46564 349.03125 313.66876Q350.15625 313.98126 350.59375 314.16876Q351.03125 314.35626 351.28125 314.71564Q351.53125 315.075 351.53125 315.6219Q351.53125 316.15314 351.21875 316.6219Q350.92188 317.075 350.34375 317.34064Q349.76562 317.59064 349.03125 317.59064Q347.8125 317.59064 347.17188 317.09064Q346.54688 316.575 346.375 315.59064ZM360.82812 317.45L360.82812 316.66876Q360.23438 317.59064 359.09375 317.59064Q358.34375 317.59064 357.71875 317.1844Q357.09375 316.7625 356.75 316.02814Q356.40625 315.29376 356.40625 314.34064Q356.40625 313.41876 356.71875 312.65314Q357.03125 311.8875 357.65625 311.4969Q358.28125 311.09064 359.04688 311.09064Q359.60938 311.09064 360.04688 311.325Q360.48438 311.5594 360.76562 311.9344L360.76562 308.85626L361.8125 308.85626L361.8125 317.45L360.82812 317.45ZM357.5 314.34064Q357.5 315.54376 358.0 316.1375Q358.5 316.71564 359.1875 316.71564Q359.875 316.71564 360.35938 316.15314Q360.84375 315.59064 360.84375 314.4344Q360.84375 313.15314 360.34375 312.5594Q359.85938 311.96564 359.14062 311.96564Q358.4375 311.96564 357.96875 312.54376Q357.5 313.10626 357.5 314.34064ZM363.79688 310.075L363.79688 308.85626L364.85938 308.85626L364.85938 310.075L363.79688 310.075ZM363.79688 317.45L363.79688 311.23126L364.85938 311.23126L364.85938 317.45L363.79688 317.45ZM366.375 315.59064L367.40625 315.4344Q367.5 316.0594 367.89062 316.3875Q368.29688 316.71564 369.03125 316.71564Q369.75 316.71564 370.09375 316.4344Q370.45312 316.1375 370.45312 315.73126Q370.45312 315.3719 370.14062 315.16876Q369.92188 315.02814 369.0625 314.8094Q367.90625 314.5125 367.45312 314.3094Q367.01562 314.09064 366.78125 313.71564Q366.54688 313.34064 366.54688 312.8719Q366.54688 312.46564 366.73438 312.10626Q366.92188 311.7469 367.25 311.5125Q367.5 311.34064 367.92188 311.21564Q368.34375 311.09064 368.84375 311.09064Q369.5625 311.09064 370.10938 311.3094Q370.67188 311.5125 370.9375 311.8719Q371.20312 312.23126 371.29688 312.825L370.26562 312.96564Q370.20312 312.4969 369.85938 312.23126Q369.53125 311.95 368.90625 311.95Q368.1875 311.95 367.875 312.2Q367.5625 312.4344 367.5625 312.7625Q367.5625 312.96564 367.6875 313.1219Q367.82812 313.29376 368.09375 313.40314Q368.25 313.46564 369.03125 313.66876Q370.15625 313.98126 370.59375 314.16876Q371.03125 314.35626 371.28125 314.71564Q371.53125 315.075 371.53125 315.6219Q371.53125 316.15314 371.21875 316.6219Q370.92188 317.075 370.34375 317.34064Q369.76562 317.59064 369.03125 317.59064Q367.8125 317.59064 367.17188 317.09064Q366.54688 316.575 366.375 315.59064ZM373.79688 319.84064L373.79688 311.23126L374.75 311.23126L374.75 312.02814Q375.09375 311.5594 375.51562 311.325Q375.95312 311.09064 376.5625 311.09064Q377.35938 311.09064 377.96875 311.4969Q378.57812 311.90314 378.875 312.65314Q379.1875 313.40314 379.1875 314.29376Q379.1875 315.2469 378.84375 316.0125Q378.51562 316.77814 377.85938 317.1844Q377.20312 317.59064 376.48438 317.59064Q375.95312 317.59064 375.53125 317.3719Q375.10938 317.1375 374.84375 316.8094L374.84375 319.84064L373.79688 319.84064ZM374.75 314.3719Q374.75 315.575 375.23438 316.15314Q375.71875 316.71564 376.40625 316.71564Q377.10938 316.71564 377.60938 316.1219Q378.10938 315.52814 378.10938 314.27814Q378.10938 313.09064 377.625 312.5125Q377.14062 311.91876 376.45312 311.91876Q375.78125 311.91876 375.26562 312.54376Q374.75 313.16876 374.75 314.3719ZM380.40625 314.34064Q380.40625 312.60626 381.35938 311.77814Q382.15625 311.09064 383.3125 311.09064Q384.59375 311.09064 385.40625 311.9344Q386.23438 312.7625 386.23438 314.2469Q386.23438 315.45 385.875 316.1375Q385.51562 316.825 384.8125 317.21564Q384.125 317.59064 383.3125 317.59064Q382.01562 317.59064 381.20312 316.7625Q380.40625 315.91876 380.40625 314.34064ZM381.48438 314.34064Q381.48438 315.52814 382.0 316.1219Q382.53125 316.71564 383.3125 316.71564Q384.10938 316.71564 384.625 316.1219Q385.14062 315.52814 385.14062 314.3094Q385.14062 313.15314 384.60938 312.5594Q384.09375 311.96564 383.3125 311.96564Q382.53125 311.96564 382.0 312.5594Q381.48438 313.1375 381.48438 314.34064ZM387.79688 317.45L387.79688 311.23126L388.73438 311.23126L388.73438 312.10626Q389.42188 311.09064 390.71875 311.09064Q391.28125 311.09064 391.75 311.29376Q392.23438 311.4969 392.46875 311.825Q392.70312 312.15314 392.79688 312.59064Q392.84375 312.8875 392.84375 313.6219L392.84375 317.45L391.79688 317.45L391.79688 313.66876Q391.79688 313.0125 391.67188 312.7Q391.54688 312.3875 391.23438 312.2Q390.92188 311.9969 390.5 311.9969Q389.82812 311.9969 389.32812 312.4344Q388.84375 312.85626 388.84375 314.04376L388.84375 317.45L387.79688 317.45ZM395.15625 317.45L395.15625 311.23126L396.21875 311.23126L396.21875 317.45L395.15625 317.45ZM395.10938 310.45L395.89062 308.8094L397.28125 308.8094L395.98438 310.45L395.10938 310.45ZM399.51562 317.45L397.15625 311.23126L398.26562 311.23126L399.60938 314.95Q399.8125 315.5594 400.0 316.2Q400.14062 315.71564 400.39062 315.02814L401.78125 311.23126L402.85938 311.23126L400.5 317.45L399.51562 317.45ZM407.04688 315.45L408.14062 315.575Q407.89062 316.52814 407.1875 317.0594Q406.48438 317.59064 405.40625 317.59064Q404.04688 317.59064 403.23438 316.7469Q402.4375 315.90314 402.4375 314.3875Q402.4375 312.825 403.25 311.96564Q404.0625 311.09064 405.34375 311.09064Q406.59375 311.09064 407.375 311.9344Q408.17188 312.77814 408.17188 314.325Q408.17188 314.41876 408.17188 314.60626L403.53125 314.60626Q403.59375 315.6375 404.10938 316.1844Q404.625 316.71564 405.40625 316.71564Q405.98438 316.71564 406.39062 316.41876Q406.8125 316.10626 407.04688 315.45ZM403.59375 313.7469L407.0625 313.7469Q407.0 312.95 406.67188 312.5594Q406.15625 311.95 405.35938 311.95Q404.625 311.95 404.125 312.4344Q403.64062 312.91876 403.59375 313.7469ZM409.79688 310.075L409.79688 308.85626L410.85938 308.85626L410.85938 310.075L409.79688 310.075ZM409.79688 317.45L409.79688 311.23126L410.85938 311.23126L410.85938 317.45L409.79688 317.45ZM412.375 315.59064L413.40625 315.4344Q413.5 316.0594 413.89062 316.3875Q414.29688 316.71564 415.03125 316.71564Q415.75 316.71564 416.09375 316.4344Q416.45312 316.1375 416.45312 315.73126Q416.45312 315.3719 416.14062 315.16876Q415.92188 315.02814 415.0625 314.8094Q413.90625 314.5125 413.45312 314.3094Q413.01562 314.09064 412.78125 313.71564Q412.54688 313.34064 412.54688 312.8719Q412.54688 312.46564 412.73438 312.10626Q412.92188 311.7469 413.25 311.5125Q413.5 311.34064 413.92188 311.21564Q414.34375 311.09064 414.84375 311.09064Q415.5625 311.09064 416.10938 311.3094Q416.67188 311.5125 416.9375 311.8719Q417.20312 312.23126 417.29688 312.825L416.26562 312.96564Q416.20312 312.4969 415.85938 312.23126Q415.53125 311.95 414.90625 311.95Q414.1875 311.95 413.875 312.2Q413.5625 312.4344 413.5625 312.7625Q413.5625 312.96564 413.6875 313.1219Q413.82812 313.29376 414.09375 313.40314Q414.25 313.46564 415.03125 313.66876Q416.15625 313.98126 416.59375 314.16876Q417.03125 314.35626 417.28125 314.71564Q417.53125 315.075 417.53125 315.6219Q417.53125 316.15314 417.21875 316.6219Q416.92188 317.075 416.34375 317.34064Q415.76562 317.59064 415.03125 317.59064Q413.8125 317.59064 413.17188 317.09064Q412.54688 316.575 412.375 315.59064Z" fill-rule="nonzero"/><path fill="#000000" d="M477.10983 317.45L477.10983 308.85626L483.31296 308.85626L483.31296 309.8719L478.25046 309.8719L478.25046 312.4969L483.00046 312.4969L483.00046 313.5125L478.25046 313.5125L478.25046 316.4344L483.51608 316.4344L483.51608 317.45L477.10983 317.45ZM484.25046 317.45L486.51608 314.21564L484.42233 311.23126L485.73483 311.23126L486.68796 312.6844Q486.95358 313.10626 487.12546 313.3875Q487.37546 312.9969 487.5942 312.7L488.64108 311.23126L489.9067 311.23126L487.75046 314.15314L490.06296 317.45L488.7817 317.45L487.50046 315.5125L487.1567 314.9969L485.51608 317.45L484.25046 317.45ZM494.01608 315.16876L495.04733 315.3094Q494.87546 316.3719 494.17233 316.98126Q493.4692 317.59064 492.45358 317.59064Q491.17233 317.59064 490.39108 316.7625Q489.62546 315.91876 489.62546 314.35626Q489.62546 313.35626 489.95358 312.60626Q490.29733 311.84064 490.9692 311.46564Q491.6567 311.09064 492.4692 311.09064Q493.4692 311.09064 494.10983 311.60626Q494.76608 312.10626 494.95358 313.0594L493.92233 313.21564Q493.7817 312.59064 493.4067 312.27814Q493.0317 311.95 492.50046 311.95Q491.70358 311.95 491.20358 312.52814Q490.70358 313.09064 490.70358 314.325Q490.70358 315.59064 491.18796 316.15314Q491.67233 316.71564 492.43796 316.71564Q493.06296 316.71564 493.4692 316.34064Q493.89108 315.96564 494.01608 315.16876ZM495.92233 317.45L495.92233 308.85626L496.98483 308.85626L496.98483 317.45L495.92233 317.45ZM503.0317 317.45L503.0317 316.52814Q502.29733 317.59064 501.04733 317.59064Q500.50046 317.59064 500.01608 317.3875Q499.54733 317.16876 499.31296 316.85626Q499.07858 316.52814 498.98483 316.0594Q498.92233 315.7625 498.92233 315.075L498.92233 311.23126L499.98483 311.23126L499.98483 314.6844Q499.98483 315.4969 500.04733 315.79376Q500.14108 316.2 500.45358 316.45Q500.7817 316.6844 501.26608 316.6844Q501.73483 316.6844 502.14108 316.45Q502.56296 316.2 502.73483 315.77814Q502.92233 315.35626 502.92233 314.5594L502.92233 311.23126L503.9692 311.23126L503.9692 317.45L503.0317 317.45ZM505.95358 310.075L505.95358 308.85626L507.01608 308.85626L507.01608 310.075L505.95358 310.075ZM505.95358 317.45L505.95358 311.23126L507.01608 311.23126L507.01608 317.45L505.95358 317.45ZM508.93796 317.45L508.93796 311.23126L509.89108 311.23126L509.89108 312.16876Q510.25046 311.5125 510.54733 311.3094Q510.85983 311.09064 511.23483 311.09064Q511.76608 311.09064 512.313 311.41876L511.95358 312.40314Q511.56296 312.16876 511.18796 312.16876Q510.82858 312.16876 510.54733 312.3875Q510.2817 312.59064 510.17233 312.96564Q509.98483 313.52814 509.98483 314.1844L509.98483 317.45L508.93796 317.45ZM522.21924 314.4344L523.34424 314.73126Q522.98486 316.1219 522.063 316.85626Q521.1411 317.59064 519.79736 317.59064Q518.40674 317.59064 517.53174 317.02814Q516.65674 316.46564 516.2036 315.40314Q515.7505 314.325 515.7505 313.09064Q515.7505 311.7469 516.2661 310.7469Q516.78174 309.7469 517.71924 309.23126Q518.67236 308.71564 519.813 308.71564Q521.09424 308.71564 521.96924 309.3719Q522.85986 310.02814 523.2036 311.21564L522.0786 311.48126Q521.78174 310.54376 521.2036 310.1219Q520.6411 309.6844 519.78174 309.6844Q518.79736 309.6844 518.1255 310.16876Q517.46924 310.6375 517.188 311.4344Q516.92236 312.23126 516.92236 313.09064Q516.92236 314.1844 517.23486 314.9969Q517.563 315.8094 518.23486 316.21564Q518.90674 316.6219 519.7036 316.6219Q520.65674 316.6219 521.313 316.075Q521.98486 315.52814 522.21924 314.4344ZM529.03174 317.45L529.03174 316.52814Q528.29736 317.59064 527.04736 317.59064Q526.5005 317.59064 526.0161 317.3875Q525.54736 317.16876 525.313 316.85626Q525.0786 316.52814 524.98486 316.0594Q524.92236 315.7625 524.92236 315.075L524.92236 311.23126L525.98486 311.23126L525.98486 314.6844Q525.98486 315.4969 526.04736 315.79376Q526.1411 316.2 526.4536 316.45Q526.78174 316.6844 527.2661 316.6844Q527.73486 316.6844 528.1411 316.45Q528.563 316.2 528.73486 315.77814Q528.92236 315.35626 528.92236 314.5594L528.92236 311.23126L529.96924 311.23126L529.96924 317.45L529.03174 317.45ZM531.938 317.45L531.938 311.23126L532.8911 311.23126L532.8911 312.16876Q533.2505 311.5125 533.54736 311.3094Q533.85986 311.09064 534.23486 311.09064Q534.7661 311.09064 535.313 311.41876L534.9536 312.40314Q534.563 312.16876 534.188 312.16876Q533.8286 312.16876 533.54736 312.3875Q533.28174 312.59064 533.17236 312.96564Q532.98486 313.52814 532.98486 314.1844L532.98486 317.45L531.938 317.45ZM535.53174 315.59064L536.563 315.4344Q536.65674 316.0594 537.04736 316.3875Q537.4536 316.71564 538.188 316.71564Q538.90674 316.71564 539.2505 316.4344Q539.60986 316.1375 539.60986 315.73126Q539.60986 315.3719 539.29736 315.16876Q539.0786 315.02814 538.21924 314.8094Q537.063 314.5125 536.60986 314.3094Q536.17236 314.09064 535.938 313.71564Q535.7036 313.34064 535.7036 312.8719Q535.7036 312.46564 535.8911 312.10626Q536.0786 311.7469 536.40674 311.5125Q536.65674 311.34064 537.0786 311.21564Q537.5005 311.09064 538.0005 311.09064Q538.71924 311.09064 539.2661 311.3094Q539.8286 311.5125 540.09424 311.8719Q540.35986 312.23126 540.4536 312.825L539.42236 312.96564Q539.35986 312.4969 539.0161 312.23126Q538.688 311.95 538.063 311.95Q537.34424 311.95 537.03174 312.2Q536.71924 312.4344 536.71924 312.7625Q536.71924 312.96564 536.84424 313.1219Q536.98486 313.29376 537.2505 313.40314Q537.40674 313.46564 538.188 313.66876Q539.313 313.98126 539.7505 314.16876Q540.188 314.35626 540.438 314.71564Q540.688 315.075 540.688 315.6219Q540.688 316.15314 540.3755 316.6219Q540.0786 317.075 539.5005 317.34064Q538.92236 317.59064 538.188 317.59064Q536.96924 317.59064 536.3286 317.09064Q535.7036 316.575 535.53174 315.59064ZM542.563 314.34064Q542.563 312.60626 543.5161 311.77814Q544.313 311.09064 545.46924 311.09064Q546.7505 311.09064 547.563 311.9344Q548.3911 312.7625 548.3911 314.2469Q548.3911 315.45 548.03174 316.1375Q547.67236 316.825 546.96924 317.21564Q546.28174 317.59064 545.46924 317.59064Q544.17236 317.59064 543.35986 316.7625Q542.563 315.91876 542.563 314.34064ZM543.6411 314.34064Q543.6411 315.52814 544.15674 316.1219Q544.688 316.71564 545.46924 316.71564Q546.2661 316.71564 546.78174 316.1219Q547.29736 315.52814 547.29736 314.3094Q547.29736 313.15314 546.7661 312.5594Q546.2505 311.96564 545.46924 311.96564Q544.688 311.96564 544.15674 312.5594Q543.6411 313.1375 543.6411 314.34064Z" fill-rule="nonzero"/><path fill="#000000" d="M31.534374 35.7375Q32.596874 36.4875 33.846874 36.940624L32.784374 38.9875Q32.128124 38.784374 31.503124 38.45625Q31.3625 38.378124 29.58125 37.175Q28.175 37.8 26.45625 37.8Q23.159374 37.8 21.284374 35.8625Q19.425 33.909374 19.425 30.39375Q19.425 26.878124 21.3 24.940624Q23.175 22.9875 26.378124 22.9875Q29.565624 22.9875 31.425 24.940624Q33.3 26.878124 33.3 30.39375Q33.3 32.253124 32.784374 33.659374Q32.39375 34.721874 31.534374 35.7375ZM29.20625 34.096874Q29.76875 33.440624 30.034374 32.51875Q30.315624 31.596874 30.315624 30.39375Q30.315624 27.909374 29.221874 26.690624Q28.128124 25.45625 26.3625 25.45625Q24.596874 25.45625 23.4875 26.690624Q22.39375 27.925 22.39375 30.39375Q22.39375 32.89375 23.4875 34.14375Q24.596874 35.39375 26.26875 35.39375Q26.89375 35.39375 27.45625 35.190624Q26.58125 34.6125 25.675 34.284374L26.4875 32.64375Q27.909374 33.128124 29.20625 34.096874ZM42.815624 37.55L42.815624 36.003124Q42.253124 36.83125 41.315624 37.315624Q40.39375 37.784374 39.378124 37.784374Q38.33125 37.784374 37.503124 37.33125Q36.675 36.8625 36.3 36.034374Q35.925 35.20625 35.925 33.7375L35.925 27.175L38.675 27.175L38.675 31.940624Q38.675 34.128124 38.815624 34.628124Q38.971874 35.1125 39.3625 35.409374Q39.76875 35.690624 40.39375 35.690624Q41.096874 35.690624 41.64375 35.315624Q42.20625 34.925 42.409374 34.3625Q42.6125 33.784374 42.6125 31.55L42.6125 27.175L45.3625 27.175L45.3625 37.55L42.815624 37.55ZM50.034374 30.346874L47.55 29.89375Q47.971874 28.39375 48.9875 27.675Q50.01875 26.940624 52.034374 26.940624Q53.878124 26.940624 54.76875 27.378124Q55.675 27.815624 56.034374 28.4875Q56.409374 29.14375 56.409374 30.940624L56.378124 34.14375Q56.378124 35.503124 56.503124 36.159374Q56.64375 36.8 57.003124 37.55L54.284374 37.55Q54.175 37.26875 54.01875 36.7375Q53.95625 36.4875 53.925 36.409374Q53.221874 37.096874 52.409374 37.440624Q51.6125 37.784374 50.70625 37.784374Q49.1125 37.784374 48.190624 36.925Q47.26875 36.05 47.26875 34.721874Q47.26875 33.83125 47.675 33.14375Q48.096874 32.45625 48.846874 32.096874Q49.6125 31.721874 51.05 31.45625Q52.971874 31.096874 53.70625 30.784374L53.70625 30.503124Q53.70625 29.721874 53.315624 29.39375Q52.925 29.05 51.846874 29.05Q51.1125 29.05 50.690624 29.33125Q50.284374 29.6125 50.034374 30.346874ZM53.70625 32.565624Q53.175 32.7375 52.034374 32.9875Q50.89375 33.2375 50.55 33.471874Q50.003124 33.846874 50.003124 34.440624Q50.003124 35.003124 50.425 35.425Q50.8625 35.846874 51.534374 35.846874Q52.26875 35.846874 52.940624 35.3625Q53.440624 34.9875 53.596874 34.45625Q53.70625 34.096874 53.70625 33.1125L53.70625 32.565624ZM68.425 37.55L65.675 37.55L65.675 32.253124Q65.675 30.58125 65.50313 30.096874Q65.33125 29.596874 64.925 29.33125Q64.53438 29.05 63.971874 29.05Q63.26875 29.05 62.690624 29.440624Q62.128124 29.83125 61.909374 30.471874Q61.70625 31.1125 61.70625 32.846874L61.70625 37.55L58.971874 37.55L58.971874 27.175L61.51875 27.175L61.51875 28.70625Q62.878124 26.940624 64.94063 26.940624Q65.84688 26.940624 66.59688 27.26875Q67.34688 27.596874 67.72188 28.1125Q68.1125 28.6125 68.26875 29.26875Q68.425 29.909374 68.425 31.096874L68.425 37.55ZM75.7375 27.175L75.7375 29.3625L73.8625 29.3625L73.8625 33.55Q73.8625 34.815624 73.90938 35.034374Q73.97188 35.2375 74.15938 35.378124Q74.3625 35.503124 74.62813 35.503124Q75.00313 35.503124 75.7375 35.2375L75.97188 37.378124Q75.00313 37.784374 73.8 37.784374Q73.05 37.784374 72.45625 37.534374Q71.8625 37.284374 71.58125 36.89375Q71.31563 36.4875 71.20625 35.815624Q71.1125 35.346874 71.1125 33.89375L71.1125 29.3625L69.84688 29.3625L69.84688 27.175L71.1125 27.175L71.1125 25.1125L73.8625 23.51875L73.8625 27.175L75.7375 27.175ZM77.9875 25.76875L77.9875 23.2375L80.7375 23.2375L80.7375 25.76875L77.9875 25.76875ZM77.9875 37.55L77.9875 27.175L80.7375 27.175L80.7375 37.55L77.9875 37.55ZM92.50313 37.55L89.95625 37.55L89.95625 36.01875Q89.31563 36.909374 88.44063 37.346874Q87.58125 37.784374 86.70625 37.784374Q84.925 37.784374 83.64375 36.346874Q82.37813 34.909374 82.37813 32.33125Q82.37813 29.690624 83.6125 28.315624Q84.84688 26.940624 86.75313 26.940624Q88.4875 26.940624 89.75313 28.39375L89.75313 23.2375L92.50313 23.2375L92.50313 37.55ZM85.175 32.14375Q85.175 33.8 85.62813 34.534374Q86.3 35.6125 87.4875 35.6125Q88.44063 35.6125 89.09688 34.815624Q89.76875 34.003124 89.76875 32.409374Q89.76875 30.6125 89.1125 29.83125Q88.47188 29.05 87.47188 29.05Q86.4875 29.05 85.83125 29.83125Q85.175 30.596874 85.175 32.14375ZM97.03438 30.346874L94.55 29.89375Q94.97188 28.39375 95.9875 27.675Q97.01875 26.940624 99.03438 26.940624Q100.87813 26.940624 101.76875 27.378124Q102.675 27.815624 103.03438 28.4875Q103.40938 29.14375 103.40938 30.940624L103.37813 34.14375Q103.37813 35.503124 103.50313 36.159374Q103.64375 36.8 104.00313 37.55L101.28438 37.55Q101.175 37.26875 101.01875 36.7375Q100.95625 36.4875 100.925 36.409374Q100.22188 37.096874 99.40938 37.440624Q98.6125 37.784374 97.70625 37.784374Q96.1125 37.784374 95.19063 36.925Q94.26875 36.05 94.26875 34.721874Q94.26875 33.83125 94.675 33.14375Q95.09688 32.45625 95.84688 32.096874Q96.6125 31.721874 98.05 31.45625Q99.97188 31.096874 100.70625 30.784374L100.70625 30.503124Q100.70625 29.721874 100.31563 29.39375Q99.925 29.05 98.84688 29.05Q98.1125 29.05 97.69063 29.33125Q97.28438 29.6125 97.03438 30.346874ZM100.70625 32.565624Q100.175 32.7375 99.03438 32.9875Q97.89375 33.2375 97.55 33.471874Q97.00313 33.846874 97.00313 34.440624Q97.00313 35.003124 97.425 35.425Q97.8625 35.846874 98.53438 35.846874Q99.26875 35.846874 99.94063 35.3625Q100.44063 34.9875 100.59688 34.45625Q100.70625 34.096874 100.70625 33.1125L100.70625 32.565624ZM115.50313 37.55L112.95625 37.55L112.95625 36.01875Q112.31563 36.909374 111.44063 37.346874Q110.58125 37.784374 109.70625 37.784374Q107.925 37.784374 106.64375 36.346874Q105.37813 34.909374 105.37813 32.33125Q105.37813 29.690624 106.6125 28.315624Q107.84688 26.940624 109.75313 26.940624Q111.4875 26.940624 112.75313 28.39375L112.75313 23.2375L115.50313 23.2375L115.50313 37.55ZM108.175 32.14375Q108.175 33.8 108.62813 34.534374Q109.3 35.6125 110.4875 35.6125Q111.44063 35.6125 112.09688 34.815624Q112.76875 34.003124 112.76875 32.409374Q112.76875 30.6125 112.1125 29.83125Q111.47188 29.05 110.47188 29.05Q109.4875 29.05 108.83125 29.83125Q108.175 30.596874 108.175 32.14375ZM123.9875 34.253124L126.72188 34.70625Q126.20625 36.20625 125.06563 37.003124Q123.925 37.784374 122.22188 37.784374Q119.50313 37.784374 118.20625 36.01875Q117.19063 34.596874 117.19063 32.440624Q117.19063 29.8625 118.53438 28.409374Q119.87813 26.940624 121.94063 26.940624Q124.25313 26.940624 125.58125 28.471874Q126.925 30.003124 126.87813 33.159374L120.00313 33.159374Q120.03438 34.378124 120.65938 35.065624Q121.3 35.7375 122.2375 35.7375Q122.89375 35.7375 123.33125 35.39375Q123.76875 35.034374 123.9875 34.253124ZM124.14375 31.471874Q124.1125 30.284374 123.51875 29.675Q122.94063 29.05 122.1125 29.05Q121.20625 29.05 120.62813 29.690624Q120.03438 30.346874 120.05 31.471874L124.14375 31.471874ZM144.50313 37.55L141.95625 37.55L141.95625 36.01875Q141.31563 36.909374 140.44063 37.346874Q139.58125 37.784374 138.70625 37.784374Q136.925 37.784374 135.64375 36.346874Q134.37813 34.909374 134.37813 32.33125Q134.37813 29.690624 135.6125 28.315624Q136.84688 26.940624 138.75313 26.940624Q140.4875 26.940624 141.75313 28.39375L141.75313 23.2375L144.50313 23.2375L144.50313 37.55ZM137.175 32.14375Q137.175 33.8 137.62813 34.534374Q138.3 35.6125 139.4875 35.6125Q140.44063 35.6125 141.09688 34.815624Q141.76875 34.003124 141.76875 32.409374Q141.76875 30.6125 141.1125 29.83125Q140.47188 29.05 139.47188 29.05Q138.4875 29.05 137.83125 29.83125Q137.175 30.596874 137.175 32.14375ZM152.9875 34.253124L155.72188 34.70625Q155.20625 36.20625 154.06563 37.003124Q152.925 37.784374 151.22188 37.784374Q148.50313 37.784374 147.20625 36.01875Q146.19063 34.596874 146.19063 32.440624Q146.19063 29.8625 147.53438 28.409374Q148.87813 26.940624 150.94063 26.940624Q153.25313 26.940624 154.58125 28.471874Q155.925 30.003124 155.87813 33.159374L149.00313 33.159374Q149.03438 34.378124 149.65938 35.065624Q150.3 35.7375 151.2375 35.7375Q151.89375 35.7375 152.33125 35.39375Q152.76875 35.034374 152.9875 34.253124ZM153.14375 31.471874Q153.1125 30.284374 152.51875 29.675Q151.94063 29.05 151.1125 29.05Q150.20625 29.05 149.62813 29.690624Q149.03438 30.346874 149.05 31.471874L153.14375 31.471874ZM164.01875 23.2375L169.7375 23.2375Q171.44063 23.2375 172.26875 23.378124Q173.1125 23.51875 173.76875 23.971874Q174.425 24.409374 174.8625 25.159374Q175.3 25.909374 175.3 26.83125Q175.3 27.846874 174.75313 28.690624Q174.22188 29.51875 173.3 29.940624Q174.59688 30.315624 175.3 31.2375Q176.00313 32.159374 176.00313 33.39375Q176.00313 34.378124 175.55 35.3Q175.09688 36.221874 174.31563 36.784374Q173.53438 37.33125 172.37813 37.45625Q171.65938 37.534374 168.89375 37.55L164.01875 37.55L164.01875 23.2375ZM166.90938 25.6125L166.90938 28.925L168.8 28.925Q170.4875 28.925 170.89375 28.878124Q171.64375 28.784374 172.06563 28.3625Q172.4875 27.940624 172.4875 27.253124Q172.4875 26.58125 172.1125 26.175Q171.75313 25.753124 171.03438 25.659374Q170.6125 25.6125 168.56563 25.6125L166.90938 25.6125ZM166.90938 31.315624L166.90938 35.14375L169.58125 35.14375Q171.14375 35.14375 171.56563 35.05Q172.20625 34.925 172.6125 34.471874Q173.01875 34.01875 173.01875 33.26875Q173.01875 32.6125 172.70625 32.175Q172.39375 31.721874 171.8 31.51875Q171.20625 31.315624 169.2375 31.315624L166.90938 31.315624ZM184.81563 37.55L184.81563 36.003124Q184.25313 36.83125 183.31563 37.315624Q182.39375 37.784374 181.37813 37.784374Q180.33125 37.784374 179.50313 37.33125Q178.675 36.8625 178.3 36.034374Q177.925 35.20625 177.925 33.7375L177.925 27.175L180.675 27.175L180.675 31.940624Q180.675 34.128124 180.81563 34.628124Q180.97188 35.1125 181.3625 35.409374Q181.76875 35.690624 182.39375 35.690624Q183.09688 35.690624 183.64375 35.315624Q184.20625 34.925 184.40938 34.3625Q184.6125 33.784374 184.6125 31.55L184.6125 27.175L187.3625 27.175L187.3625 37.55L184.81563 37.55ZM189.7375 38.2375L192.8625 38.6125Q192.94063 39.159374 193.22188 39.3625Q193.6125 39.659374 194.45625 39.659374Q195.53438 39.659374 196.06563 39.33125Q196.425 39.128124 196.6125 38.64375Q196.7375 38.3 196.7375 37.378124L196.7375 35.8625Q195.51875 37.55 193.64375 37.55Q191.55 37.55 190.33125 35.784374Q189.37813 34.378124 189.37813 32.3Q189.37813 29.690624 190.62813 28.315624Q191.87813 26.940624 193.75313 26.940624Q195.675 26.940624 196.925 28.628124L196.925 27.175L199.4875 27.175L199.4875 36.4875Q199.4875 38.315624 199.175 39.221874Q198.87813 40.14375 198.33125 40.659374Q197.78438 41.175 196.8625 41.45625Q195.95625 41.753124 194.56563 41.753124Q191.925 41.753124 190.81563 40.846874Q189.72188 39.95625 189.72188 38.565624Q189.72188 38.425 189.7375 38.2375ZM192.19063 32.14375Q192.19063 33.8 192.81563 34.565624Q193.45625 35.33125 194.39375 35.33125Q195.40938 35.33125 196.09688 34.55Q196.8 33.753124 196.8 32.221874Q196.8 30.6125 196.12813 29.83125Q195.47188 29.05 194.45625 29.05Q193.45625 29.05 192.81563 29.815624Q192.19063 30.58125 192.19063 32.14375ZM201.01875 34.596874L203.76875 34.175Q203.95625 34.971874 204.4875 35.39375Q205.01875 35.8 205.9875 35.8Q207.05 35.8 207.59688 35.409374Q207.95625 35.14375 207.95625 34.675Q207.95625 34.3625 207.75313 34.159374Q207.55 33.971874 206.84688 33.8Q203.51875 33.065624 202.62813 32.45625Q201.39375 31.628124 201.39375 30.128124Q201.39375 28.784374 202.45625 27.8625Q203.53438 26.940624 205.76875 26.940624Q207.89375 26.940624 208.925 27.64375Q209.97188 28.33125 210.3625 29.690624L207.76875 30.159374Q207.59688 29.565624 207.12813 29.2375Q206.675 28.909374 205.81563 28.909374Q204.7375 28.909374 204.26875 29.221874Q203.95625 29.440624 203.95625 29.76875Q203.95625 30.065624 204.22188 30.26875Q204.59688 30.55 206.78438 31.05Q208.97188 31.55 209.84688 32.26875Q210.70625 33.003124 210.70625 34.3Q210.70625 35.7375 209.51875 36.76875Q208.33125 37.784374 205.9875 37.784374Q203.87813 37.784374 202.62813 36.925Q201.39375 36.065624 201.01875 34.596874ZM218.90938 27.175L221.47188 27.175L221.47188 28.70625Q221.97188 27.925 222.81563 27.440624Q223.65938 26.940624 224.70625 26.940624Q226.50313 26.940624 227.75313 28.3625Q229.01875 29.76875 229.01875 32.3Q229.01875 34.909374 227.75313 36.346874Q226.4875 37.784374 224.675 37.784374Q223.81563 37.784374 223.1125 37.440624Q222.425 37.096874 221.65938 36.26875L221.65938 41.503124L218.90938 41.503124L218.90938 27.175ZM221.62813 32.190624Q221.62813 33.940624 222.31563 34.784374Q223.00313 35.6125 224.00313 35.6125Q224.95625 35.6125 225.59688 34.846874Q226.2375 34.065624 226.2375 32.33125Q226.2375 30.690624 225.58125 29.909374Q224.925 29.1125 223.95625 29.1125Q222.95625 29.1125 222.28438 29.89375Q221.62813 30.659374 221.62813 32.190624ZM230.34688 32.221874Q230.34688 30.846874 231.01875 29.565624Q231.70625 28.284374 232.94063 27.6125Q234.175 26.940624 235.69063 26.940624Q238.05 26.940624 239.55 28.471874Q241.05 30.003124 241.05 32.33125Q241.05 34.690624 239.53438 36.2375Q238.01875 37.784374 235.70625 37.784374Q234.28438 37.784374 232.9875 37.14375Q231.70625 36.4875 231.01875 35.253124Q230.34688 34.003124 230.34688 32.221874ZM233.15938 32.3625Q233.15938 33.909374 233.89375 34.7375Q234.62813 35.55 235.70625 35.55Q236.78438 35.55 237.50313 34.7375Q238.2375 33.909374 238.2375 32.346874Q238.2375 30.815624 237.50313 30.003124Q236.78438 29.175 235.70625 29.175Q234.62813 29.175 233.89375 30.003124Q233.15938 30.815624 233.15938 32.3625ZM245.6125 37.55L242.8625 37.55L242.8625 27.175L245.425 27.175L245.425 28.659374Q246.06563 27.6125 246.58125 27.284374Q247.1125 26.940624 247.78438 26.940624Q248.72188 26.940624 249.58125 27.45625L248.7375 29.846874Q248.05 29.409374 247.45625 29.409374Q246.87813 29.409374 246.47188 29.721874Q246.06563 30.034374 245.83125 30.878124Q245.6125 31.70625 245.6125 34.346874L245.6125 37.55ZM266.15936 32.284374L268.97186 33.175Q268.33124 35.51875 266.83124 36.659374Q265.33124 37.8 263.01874 37.8Q260.175 37.8 258.33124 35.846874Q256.5031 33.89375 256.5031 30.51875Q256.5031 26.940624 258.34686 24.971874Q260.1906 22.9875 263.1906 22.9875Q265.83124 22.9875 267.47186 24.534374Q268.4406 25.45625 268.925 27.175L266.0656 27.8625Q265.8156 26.753124 265.0031 26.1125Q264.20624 25.45625 263.05 25.45625Q261.45624 25.45625 260.45624 26.596874Q259.47186 27.7375 259.47186 30.3Q259.47186 33.01875 260.4406 34.175Q261.425 35.315624 262.9875 35.315624Q264.14374 35.315624 264.97186 34.596874Q265.8 33.8625 266.15936 32.284374ZM276.9875 34.253124L279.72186 34.70625Q279.20624 36.20625 278.0656 37.003124Q276.925 37.784374 275.22186 37.784374Q272.5031 37.784374 271.20624 36.01875Q270.1906 34.596874 270.1906 32.440624Q270.1906 29.8625 271.53436 28.409374Q272.8781 26.940624 274.9406 26.940624Q277.2531 26.940624 278.58124 28.471874Q279.925 30.003124 279.8781 33.159374L273.0031 33.159374Q273.03436 34.378124 273.65936 35.065624Q274.3 35.7375 275.2375 35.7375Q275.89374 35.7375 276.33124 35.39375Q276.76874 35.034374 276.9875 34.253124ZM277.14374 31.471874Q277.1125 30.284374 276.51874 29.675Q275.9406 29.05 275.1125 29.05Q274.20624 29.05 273.6281 29.690624Q273.03436 30.346874 273.05 31.471874L277.14374 31.471874ZM291.425 37.55L288.675 37.55L288.675 32.253124Q288.675 30.58125 288.5031 30.096874Q288.33124 29.596874 287.925 29.33125Q287.53436 29.05 286.97186 29.05Q286.26874 29.05 285.6906 29.440624Q285.1281 29.83125 284.90936 30.471874Q284.70624 31.1125 284.70624 32.846874L284.70624 37.55L281.97186 37.55L281.97186 27.175L284.51874 27.175L284.51874 28.70625Q285.8781 26.940624 287.9406 26.940624Q288.84686 26.940624 289.59686 27.26875Q290.34686 27.596874 290.72186 28.1125Q291.1125 28.6125 291.26874 29.26875Q291.425 29.909374 291.425 31.096874L291.425 37.55ZM296.03436 30.346874L293.55 29.89375Q293.97186 28.39375 294.9875 27.675Q296.01874 26.940624 298.03436 26.940624Q299.8781 26.940624 300.76874 27.378124Q301.675 27.815624 302.03436 28.4875Q302.40936 29.14375 302.40936 30.940624L302.3781 34.14375Q302.3781 35.503124 302.5031 36.159374Q302.64374 36.8 303.0031 37.55L300.28436 37.55Q300.175 37.26875 300.01874 36.7375Q299.95624 36.4875 299.925 36.409374Q299.22186 37.096874 298.40936 37.440624Q297.6125 37.784374 296.70624 37.784374Q295.1125 37.784374 294.1906 36.925Q293.26874 36.05 293.26874 34.721874Q293.26874 33.83125 293.675 33.14375Q294.09686 32.45625 294.84686 32.096874Q295.6125 31.721874 297.05 31.45625Q298.97186 31.096874 299.70624 30.784374L299.70624 30.503124Q299.70624 29.721874 299.3156 29.39375Q298.925 29.05 297.84686 29.05Q297.1125 29.05 296.6906 29.33125Q296.28436 29.6125 296.03436 30.346874ZM299.70624 32.565624Q299.175 32.7375 298.03436 32.9875Q296.89374 33.2375 296.55 33.471874Q296.0031 33.846874 296.0031 34.440624Q296.0031 35.003124 296.425 35.425Q296.8625 35.846874 297.53436 35.846874Q298.26874 35.846874 298.9406 35.3625Q299.4406 34.9875 299.59686 34.45625Q299.70624 34.096874 299.70624 33.1125L299.70624 32.565624ZM296.7375 25.909374L298.08124 22.9875L301.15936 22.9875L298.47186 25.909374L296.7375 25.909374ZM307.6125 37.55L304.8625 37.55L304.8625 27.175L307.425 27.175L307.425 28.659374Q308.0656 27.6125 308.58124 27.284374Q309.1125 26.940624 309.78436 26.940624Q310.72186 26.940624 311.58124 27.45625L310.7375 29.846874Q310.05 29.409374 309.45624 29.409374Q308.8781 29.409374 308.47186 29.721874Q308.0656 30.034374 307.83124 30.878124Q307.6125 31.70625 307.6125 34.346874L307.6125 37.55ZM312.9875 25.76875L312.9875 23.2375L315.7375 23.2375L315.7375 25.76875L312.9875 25.76875ZM312.9875 37.55L312.9875 27.175L315.7375 27.175L315.7375 37.55L312.9875 37.55ZM317.34686 32.221874Q317.34686 30.846874 318.01874 29.565624Q318.70624 28.284374 319.9406 27.6125Q321.175 26.940624 322.6906 26.940624Q325.05 26.940624 326.55 28.471874Q328.05 30.003124 328.05 32.33125Q328.05 34.690624 326.53436 36.2375Q325.01874 37.784374 322.70624 37.784374Q321.28436 37.784374 319.9875 37.14375Q318.70624 36.4875 318.01874 35.253124Q317.34686 34.003124 317.34686 32.221874ZM320.15936 32.3625Q320.15936 33.909374 320.89374 34.7375Q321.6281 35.55 322.70624 35.55Q323.78436 35.55 324.5031 34.7375Q325.2375 33.909374 325.2375 32.346874Q325.2375 30.815624 324.5031 30.003124Q323.78436 29.175 322.70624 29.175Q321.6281 29.175 320.89374 30.003124Q320.15936 30.815624 320.15936 32.3625ZM345.5031 37.55L342.95624 37.55L342.95624 36.01875Q342.3156 36.909374 341.4406 37.346874Q340.58124 37.784374 339.70624 37.784374Q337.925 37.784374 336.64374 36.346874Q335.3781 34.909374 335.3781 32.33125Q335.3781 29.690624 336.6125 28.315624Q337.84686 26.940624 339.7531 26.940624Q341.4875 26.940624 342.7531 28.39375L342.7531 23.2375L345.5031 23.2375L345.5031 37.55ZM338.175 32.14375Q338.175 33.8 338.6281 34.534374Q339.3 35.6125 340.4875 35.6125Q341.4406 35.6125 342.09686 34.815624Q342.76874 34.003124 342.76874 32.409374Q342.76874 30.6125 342.1125 29.83125Q341.47186 29.05 340.47186 29.05Q339.4875 29.05 338.83124 29.83125Q338.175 30.596874 338.175 32.14375ZM353.9875 34.253124L356.72186 34.70625Q356.20624 36.20625 355.0656 37.003124Q353.925 37.784374 352.22186 37.784374Q349.5031 37.784374 348.20624 36.01875Q347.1906 34.596874 347.1906 32.440624Q347.1906 29.8625 348.53436 28.409374Q349.8781 26.940624 351.9406 26.940624Q354.2531 26.940624 355.58124 28.471874Q356.925 30.003124 356.8781 33.159374L350.0031 33.159374Q350.03436 34.378124 350.65936 35.065624Q351.3 35.7375 352.2375 35.7375Q352.89374 35.7375 353.33124 35.39375Q353.76874 35.034374 353.9875 34.253124ZM354.14374 31.471874Q354.1125 30.284374 353.51874 29.675Q352.9406 29.05 352.1125 29.05Q351.20624 29.05 350.6281 29.690624Q350.03436 30.346874 350.05 31.471874L354.14374 31.471874ZM368.22186 37.55L368.22186 25.659374L363.9875 25.659374L363.9875 23.2375L375.3625 23.2375L375.3625 25.659374L371.1125 25.659374L371.1125 37.55L368.22186 37.55ZM383.9875 34.253124L386.72186 34.70625Q386.20624 36.20625 385.0656 37.003124Q383.925 37.784374 382.22186 37.784374Q379.5031 37.784374 378.20624 36.01875Q377.1906 34.596874 377.1906 32.440624Q377.1906 29.8625 378.53436 28.409374Q379.8781 26.940624 381.9406 26.940624Q384.2531 26.940624 385.58124 28.471874Q386.925 30.003124 386.8781 33.159374L380.0031 33.159374Q380.03436 34.378124 380.65936 35.065624Q381.3 35.7375 382.2375 35.7375Q382.89374 35.7375 383.33124 35.39375Q383.76874 35.034374 383.9875 34.253124ZM384.14374 31.471874Q384.1125 30.284374 383.51874 29.675Q382.9406 29.05 382.1125 29.05Q381.20624 29.05 380.6281 29.690624Q380.03436 30.346874 380.05 31.471874L384.14374 31.471874ZM388.01874 34.596874L390.76874 34.175Q390.95624 34.971874 391.4875 35.39375Q392.01874 35.8 392.9875 35.8Q394.05 35.8 394.59686 35.409374Q394.95624 35.14375 394.95624 34.675Q394.95624 34.3625 394.7531 34.159374Q394.55 33.971874 393.84686 33.8Q390.51874 33.065624 389.6281 32.45625Q388.39374 31.628124 388.39374 30.128124Q388.39374 28.784374 389.45624 27.8625Q390.53436 26.940624 392.76874 26.940624Q394.89374 26.940624 395.925 27.64375Q396.97186 28.33125 397.3625 29.690624L394.76874 30.159374Q394.59686 29.565624 394.1281 29.2375Q393.675 28.909374 392.8156 28.909374Q391.7375 28.909374 391.26874 29.221874Q390.95624 29.440624 390.95624 29.76875Q390.95624 30.065624 391.22186 30.26875Q391.59686 30.55 393.78436 31.05Q395.97186 31.55 396.84686 32.26875Q397.70624 33.003124 397.70624 34.3Q397.70624 35.7375 396.51874 36.76875Q395.33124 37.784374 392.9875 37.784374Q390.8781 37.784374 389.6281 36.925Q388.39374 36.065624 388.01874 34.596874ZM404.7375 27.175L404.7375 29.3625L402.8625 29.3625L402.8625 33.55Q402.8625 34.815624 402.90936 35.034374Q402.97186 35.2375 403.15936 35.378124Q403.3625 35.503124 403.6281 35.503124Q404.0031 35.503124 404.7375 35.2375L404.97186 37.378124Q404.0031 37.784374 402.8 37.784374Q402.05 37.784374 401.45624 37.534374Q400.8625 37.284374 400.58124 36.89375Q400.3156 36.4875 400.20624 35.815624Q400.1125 35.346874 400.1125 33.89375L400.1125 29.3625L398.84686 29.3625L398.84686 27.175L400.1125 27.175L400.1125 25.1125L402.8625 23.51875L402.8625 27.175L404.7375 27.175ZM412.9875 34.253124L415.72186 34.70625Q415.20624 36.20625 414.0656 37.003124Q412.925 37.784374 411.22186 37.784374Q408.5031 37.784374 407.20624 36.01875Q406.1906 34.596874 406.1906 32.440624Q406.1906 29.8625 407.53436 28.409374Q408.8781 26.940624 410.9406 26.940624Q413.2531 26.940624 414.58124 28.471874Q415.925 30.003124 415.8781 33.159374L409.0031 33.159374Q409.03436 34.378124 409.65936 35.065624Q410.3 35.7375 411.2375 35.7375Q411.89374 35.7375 412.33124 35.39375Q412.76874 35.034374 412.9875 34.253124ZM413.14374 31.471874Q413.1125 30.284374 412.51874 29.675Q411.9406 29.05 411.1125 29.05Q410.20624 29.05 409.6281 29.690624Q409.03436 30.346874 409.05 31.471874L413.14374 31.471874Z" fill-rule="nonzero"/></svg>