<svg version="1.1" viewBox="0.0 0.0 600.0 371.0" fill="none" stroke="none" stroke-linecap="square" stroke-miterlimit="10" width="600" height="371" xmlns:xlink="http://www.w3.org/1999/xlink" xmlns="http://www.w3.org/2000/svg"><path fill="#ffffff" d="M0 0L600.0 0L600.0 371.0L0 371.0L0 0Z" fill-rule="nonzero"/><path stroke="#333333" stroke-width="1.0" stroke-linecap="butt" d="M77.5 300.5L581.5 300.5" fill-rule="nonzero"/><path stroke="#cccccc" stroke-width="1.0" stroke-linecap="butt" d="M77.5 240.5L581.5 240.5" fill-rule="nonzero"/><path stroke="#cccccc" stroke-width="1.0" stroke-linecap="butt" d="M77.5 181.5L581.5 181.5" fill-rule="nonzero"/><path stroke="#cccccc" stroke-width="1.0" stroke-linecap="butt" d="M77.5 121.5L581.5 121.5" fill-rule="nonzero"/><path stroke="#cccccc" stroke-width="1.0" stroke-linecap="butt" d="M77.5 61.5L581.5 61.5" fill-rule="nonzero"/><clipPath id="id_0"><path d="M77.55 61.916668L581.45 61.916668L581.45 300.45L77.55 300.45L77.55 61.916668Z" clip-rule="nonzero"/></clipPath><path stroke="#000000" stroke-width="2.0" stroke-linecap="butt" stroke-opacity="0.0" clip-path="url(#id_0)" d="M228.0 300.0L130.0 300.0L130.0 94.0C130.0 92.89543 130.89543 92.0 132.0 92.0L226.0 92.0C227.10457 92.0 228.0 92.89543 228.0 94.0Z" fill-rule="nonzero"/><path fill="#ff9900" clip-path="url(#id_0)" d="M228.0 300.0L130.0 300.0L130.0 94.0C130.0 92.89543 130.89543 92.0 132.0 92.0L226.0 92.0C227.10457 92.0 228.0 92.89543 228.0 94.0Z" fill-rule="nonzero"/><path stroke="#000000" stroke-width="2.0" stroke-linecap="butt" stroke-opacity="0.0" clip-path="url(#id_0)" d="M379.0 300.0L281.0 300.0L281.0 213.0C281.0 211.89543 281.89542 211.0 283.0 211.0L377.0 211.0C378.10458 211.0 379.0 211.89543 379.0 213.0Z" fill-rule="nonzero"/><path fill="#ff9900" clip-path="url(#id_0)" d="M379.0 300.0L281.0 300.0L281.0 213.0C281.0 211.89543 281.89542 211.0 283.0 211.0L377.0 211.0C378.10458 211.0 379.0 211.89543 379.0 213.0Z" fill-rule="nonzero"/><path stroke="#000000" stroke-width="2.0" stroke-linecap="butt" stroke-opacity="0.0" clip-path="url(#id_0)" d="M529.0 300.0L431.0 300.0L431.0 243.0C431.0 241.89543 431.89542 241.0 433.0 241.0L527.0 241.0C528.10455 241.0 529.0 241.89543 529.0 243.0Z" fill-rule="nonzero"/><path fill="#ff9900" clip-path="url(#id_0)" d="M529.0 300.0L431.0 300.0L431.0 243.0C431.0 241.89543 431.89542 241.0 433.0 241.0L527.0 241.0C528.10455 241.0 529.0 241.89543 529.0 243.0Z" fill-rule="nonzero"/><path stroke="#ff9900" stroke-width="3.0" stroke-linejoin="round" stroke-linecap="round" d="M182.25 102.54896L178.29688 109.53333L175.79688 109.53333L179.89062 102.47083L175.42188 102.47083L175.42188 100.81458L182.25 100.81458L182.25 102.54896Z" fill-rule="nonzero"/><path fill="#000000" d="M182.25 102.54896L178.29688 109.53333L175.79688 109.53333L179.89062 102.47083L175.42188 102.47083L175.42188 100.81458L182.25 100.81458L182.25 102.54896Z" fill-rule="nonzero"/><path stroke="#ff9900" stroke-width="3.0" stroke-linejoin="round" stroke-linecap="round" d="M332.57812 224.70625Q332.85938 224.95625 333.03125 225.28438Q333.20312 225.6125 333.20312 226.15938Q333.20312 226.76875 332.95312 227.3Q332.71875 227.83125 332.21875 228.22188Q331.71875 228.58125 331.04688 228.78438Q330.39062 228.9875 329.4375 228.9875Q328.35938 228.9875 327.57812 228.81563Q326.8125 228.64375 326.32812 228.425L326.32812 226.51875L326.54688 226.51875Q327.04688 226.81563 327.75 227.05Q328.45312 227.26875 329.03125 227.26875Q329.375 227.26875 329.76562 227.22188Q330.17188 227.15938 330.45312 226.97188Q330.65625 226.81563 330.78125 226.6125Q330.92188 226.40938 330.92188 226.00313Q330.92188 225.62813 330.73438 225.425Q330.5625 225.20625 330.28125 225.12813Q330.0 225.03438 329.59375 225.03438Q329.1875 225.01875 328.84375 225.01875L328.35938 225.01875L328.35938 223.45625L328.85938 223.45625Q329.3125 223.45625 329.65625 223.425Q330.01562 223.39375 330.26562 223.28438Q330.51562 223.175 330.64062 223.00313Q330.78125 222.81563 330.78125 222.45625Q330.78125 222.19063 330.64062 222.03438Q330.51562 221.8625 330.3125 221.76875Q330.07812 221.675 329.76562 221.64375Q329.45312 221.59688 329.23438 221.59688Q328.6875 221.59688 328.03125 221.78438Q327.39062 221.97188 326.79688 222.33125L326.57812 222.33125L326.57812 220.44063Q327.04688 220.25313 327.875 220.08125Q328.70312 219.89375 329.5625 219.89375Q330.375 219.89375 331.0 220.03438Q331.625 220.175 332.03125 220.425Q332.51562 220.70625 332.75 221.12813Q332.98438 221.53438 332.98438 222.08125Q332.98438 222.8 332.53125 223.37813Q332.07812 223.94063 331.34375 224.1125L331.34375 224.19063Q331.64062 224.22188 331.96875 224.34688Q332.29688 224.47188 332.57812 224.70625Z" fill-rule="nonzero"/><path fill="#000000" d="M332.57812 224.70625Q332.85938 224.95625 333.03125 225.28438Q333.20312 225.6125 333.20312 226.15938Q333.20312 226.76875 332.95312 227.3Q332.71875 227.83125 332.21875 228.22188Q331.71875 228.58125 331.04688 228.78438Q330.39062 228.9875 329.4375 228.9875Q328.35938 228.9875 327.57812 228.81563Q326.8125 228.64375 326.32812 228.425L326.32812 226.51875L326.54688 226.51875Q327.04688 226.81563 327.75 227.05Q328.45312 227.26875 329.03125 227.26875Q329.375 227.26875 329.76562 227.22188Q330.17188 227.15938 330.45312 226.97188Q330.65625 226.81563 330.78125 226.6125Q330.92188 226.40938 330.92188 226.00313Q330.92188 225.62813 330.73438 225.425Q330.5625 225.20625 330.28125 225.12813Q330.0 225.03438 329.59375 225.03438Q329.1875 225.01875 328.84375 225.01875L328.35938 225.01875L328.35938 223.45625L328.85938 223.45625Q329.3125 223.45625 329.65625 223.425Q330.01562 223.39375 330.26562 223.28438Q330.51562 223.175 330.64062 223.00313Q330.78125 222.81563 330.78125 222.45625Q330.78125 222.19063 330.64062 222.03438Q330.51562 221.8625 330.3125 221.76875Q330.07812 221.675 329.76562 221.64375Q329.45312 221.59688 329.23438 221.59688Q328.6875 221.59688 328.03125 221.78438Q327.39062 221.97188 326.79688 222.33125L326.57812 222.33125L326.57812 220.44063Q327.04688 220.25313 327.875 220.08125Q328.70312 219.89375 329.5625 219.89375Q330.375 219.89375 331.0 220.03438Q331.625 220.175 332.03125 220.425Q332.51562 220.70625 332.75 221.12813Q332.98438 221.53438 332.98438 222.08125Q332.98438 222.8 332.53125 223.37813Q332.07812 223.94063 331.34375 224.1125L331.34375 224.19063Q331.64062 224.22188 331.96875 224.34688Q332.29688 224.47188 332.57812 224.70625Z" fill-rule="nonzero"/><path stroke="#ff9900" stroke-width="3.0" stroke-linejoin="round" stroke-linecap="round" d="M483.4375 258.61667L476.57812 258.61667L476.57812 257.17917Q477.375 256.60104 478.15625 255.97604Q478.95312 255.33542 479.42188 254.86667Q480.125 254.17917 480.42188 253.67917Q480.73438 253.16354 480.73438 252.66354Q480.73438 252.0698 480.34375 251.74167Q479.95312 251.41354 479.23438 251.41354Q478.70312 251.41354 478.10938 251.64792Q477.51562 251.86667 477.0 252.21042L476.8125 252.21042L476.8125 250.27292Q477.23438 250.08542 478.04688 249.91354Q478.85938 249.72604 479.67188 249.72604Q481.3125 249.72604 482.17188 250.41354Q483.03125 251.10104 483.03125 252.35104Q483.03125 253.17917 482.60938 253.92917Q482.20312 254.67917 481.35938 255.46042Q480.82812 255.96042 480.28125 256.3823Q479.75 256.78854 479.51562 256.9448L483.4375 256.9448L483.4375 258.61667Z" fill-rule="nonzero"/><path fill="#000000" d="M483.4375 258.61667L476.57812 258.61667L476.57812 257.17917Q477.375 256.60104 478.15625 255.97604Q478.95312 255.33542 479.42188 254.86667Q480.125 254.17917 480.42188 253.67917Q480.73438 253.16354 480.73438 252.66354Q480.73438 252.0698 480.34375 251.74167Q479.95312 251.41354 479.23438 251.41354Q478.70312 251.41354 478.10938 251.64792Q477.51562 251.86667 477.0 252.21042L476.8125 252.21042L476.8125 250.27292Q477.23438 250.08542 478.04688 249.91354Q478.85938 249.72604 479.67188 249.72604Q481.3125 249.72604 482.17188 250.41354Q483.03125 251.10104 483.03125 252.35104Q483.03125 253.17917 482.60938 253.92917Q482.20312 254.67917 481.35938 255.46042Q480.82812 255.96042 480.28125 256.3823Q479.75 256.78854 479.51562 256.9448L483.4375 256.9448L483.4375 258.61667Z" fill-rule="nonzero"/><path fill="#000000" d="M282.0625 346.4344L283.1875 346.73126Q282.82812 348.1219 281.90625 348.85626Q280.98438 349.59064 279.64062 349.59064Q278.25 349.59064 277.375 349.02814Q276.5 348.46564 276.04688 347.40314Q275.59375 346.325 275.59375 345.09064Q275.59375 343.7469 276.10938 342.7469Q276.625 341.7469 277.5625 341.23126Q278.51562 340.71564 279.65625 340.71564Q280.9375 340.71564 281.8125 341.3719Q282.70312 342.02814 283.04688 343.21564L281.92188 343.48126Q281.625 342.54376 281.04688 342.1219Q280.48438 341.6844 279.625 341.6844Q278.64062 341.6844 277.96875 342.16876Q277.3125 342.6375 277.03125 343.4344Q276.76562 344.23126 276.76562 345.09064Q276.76562 346.1844 277.07812 346.9969Q277.40625 347.8094 278.07812 348.21564Q278.75 348.6219 279.54688 348.6219Q280.5 348.6219 281.15625 348.075Q281.82812 347.52814 282.0625 346.4344ZM289.04688 347.45L290.14062 347.575Q289.89062 348.52814 289.1875 349.0594Q288.48438 349.59064 287.40625 349.59064Q286.04688 349.59064 285.23438 348.7469Q284.4375 347.90314 284.4375 346.3875Q284.4375 344.825 285.25 343.96564Q286.0625 343.09064 287.34375 343.09064Q288.59375 343.09064 289.375 343.9344Q290.17188 344.77814 290.17188 346.325Q290.17188 346.41876 290.17188 346.60626L285.53125 346.60626Q285.59375 347.6375 286.10938 348.1844Q286.625 348.71564 287.40625 348.71564Q287.98438 348.71564 288.39062 348.41876Q288.8125 348.10626 289.04688 347.45ZM285.59375 345.7469L289.0625 345.7469Q289.0 344.95 288.67188 344.5594Q288.15625 343.95 287.35938 343.95Q286.625 343.95 286.125 344.4344Q285.64062 344.91876 285.59375 345.7469ZM291.79688 349.45L291.79688 343.23126L292.73438 343.23126L292.73438 344.10626Q293.42188 343.09064 294.71875 343.09064Q295.28125 343.09064 295.75 343.29376Q296.23438 343.4969 296.46875 343.825Q296.70312 344.15314 296.79688 344.59064Q296.84375 344.8875 296.84375 345.6219L296.84375 349.45L295.79688 349.45L295.79688 345.66876Q295.79688 345.0125 295.67188 344.7Q295.54688 344.3875 295.23438 344.2Q294.92188 343.9969 294.5 343.9969Q293.82812 343.9969 293.32812 344.4344Q292.84375 344.85626 292.84375 346.04376L292.84375 349.45L291.79688 349.45ZM302.85938 348.6844Q302.26562 349.1844 301.71875 349.3875Q301.1875 349.59064 300.5625 349.59064Q299.53125 349.59064 298.98438 349.09064Q298.4375 348.59064 298.4375 347.8094Q298.4375 347.35626 298.64062 346.98126Q298.84375 346.59064 299.1875 346.3719Q299.53125 346.1375 299.95312 346.02814Q300.25 345.9344 300.89062 345.85626Q302.15625 345.71564 302.76562 345.4969Q302.76562 345.27814 302.76562 345.23126Q302.76562 344.575 302.46875 344.3094Q302.0625 343.96564 301.26562 343.96564Q300.53125 343.96564 300.17188 344.23126Q299.8125 344.48126 299.64062 345.1375L298.60938 344.9969Q298.75 344.34064 299.07812 343.9344Q299.40625 343.52814 300.01562 343.3094Q300.625 343.09064 301.42188 343.09064Q302.21875 343.09064 302.71875 343.27814Q303.21875 343.46564 303.45312 343.7469Q303.6875 344.02814 303.78125 344.46564Q303.82812 344.73126 303.82812 345.4344L303.82812 346.84064Q303.82812 348.3094 303.89062 348.7Q303.96875 349.09064 304.17188 349.45L303.0625 349.45Q302.90625 349.1219 302.85938 348.6844ZM302.76562 346.325Q302.1875 346.5594 301.04688 346.73126Q300.39062 346.825 300.125 346.95Q299.85938 347.0594 299.70312 347.27814Q299.5625 347.4969 299.5625 347.77814Q299.5625 348.2 299.875 348.48126Q300.20312 348.7625 300.8125 348.7625Q301.42188 348.7625 301.89062 348.4969Q302.375 348.23126 302.59375 347.7625Q302.76562 347.40314 302.76562 346.71564L302.76562 346.325ZM300.70312 342.45L301.48438 340.8094L302.875 340.8094L301.57812 342.45L300.70312 342.45ZM305.78125 349.45L305.78125 343.23126L306.73438 343.23126L306.73438 344.16876Q307.09375 343.5125 307.39062 343.3094Q307.70312 343.09064 308.07812 343.09064Q308.60938 343.09064 309.15625 343.41876L308.79688 344.40314Q308.40625 344.16876 308.03125 344.16876Q307.67188 344.16876 307.39062 344.3875Q307.125 344.59064 307.01562 344.96564Q306.82812 345.52814 306.82812 346.1844L306.82812 349.45L305.78125 349.45ZM309.79688 342.075L309.79688 340.85626L310.85938 340.85626L310.85938 342.075L309.79688 342.075ZM309.79688 349.45L309.79688 343.23126L310.85938 343.23126L310.85938 349.45L309.79688 349.45ZM312.40625 346.34064Q312.40625 344.60626 313.35938 343.77814Q314.15625 343.09064 315.3125 343.09064Q316.59375 343.09064 317.40625 343.9344Q318.23438 344.7625 318.23438 346.2469Q318.23438 347.45 317.875 348.1375Q317.51562 348.825 316.8125 349.21564Q316.125 349.59064 315.3125 349.59064Q314.01562 349.59064 313.20312 348.7625Q312.40625 347.91876 312.40625 346.34064ZM313.48438 346.34064Q313.48438 347.52814 314.0 348.1219Q314.53125 348.71564 315.3125 348.71564Q316.10938 348.71564 316.625 348.1219Q317.14062 347.52814 317.14062 346.3094Q317.14062 345.15314 316.60938 344.5594Q316.09375 343.96564 315.3125 343.96564Q314.53125 343.96564 314.0 344.5594Q313.48438 345.1375 313.48438 346.34064ZM319.375 347.59064L320.40625 347.4344Q320.5 348.0594 320.89062 348.3875Q321.29688 348.71564 322.03125 348.71564Q322.75 348.71564 323.09375 348.4344Q323.45312 348.1375 323.45312 347.73126Q323.45312 347.3719 323.14062 347.16876Q322.92188 347.02814 322.0625 346.8094Q320.90625 346.5125 320.45312 346.3094Q320.01562 346.09064 319.78125 345.71564Q319.54688 345.34064 319.54688 344.8719Q319.54688 344.46564 319.73438 344.10626Q319.92188 343.7469 320.25 343.5125Q320.5 343.34064 320.92188 343.21564Q321.34375 343.09064 321.84375 343.09064Q322.5625 343.09064 323.10938 343.3094Q323.67188 343.5125 323.9375 343.8719Q324.20312 344.23126 324.29688 344.825L323.26562 344.96564Q323.20312 344.4969 322.85938 344.23126Q322.53125 343.95 321.90625 343.95Q321.1875 343.95 320.875 344.2Q320.5625 344.4344 320.5625 344.7625Q320.5625 344.96564 320.6875 345.1219Q320.82812 345.29376 321.09375 345.40314Q321.25 345.46564 322.03125 345.66876Q323.15625 345.98126 323.59375 346.16876Q324.03125 346.35626 324.28125 346.71564Q324.53125 347.075 324.53125 347.6219Q324.53125 348.15314 324.21875 348.6219Q323.92188 349.075 323.34375 349.34064Q322.76562 349.59064 322.03125 349.59064Q320.8125 349.59064 320.17188 349.09064Q319.54688 348.575 319.375 347.59064ZM333.82812 349.45L333.82812 348.66876Q333.23438 349.59064 332.09375 349.59064Q331.34375 349.59064 330.71875 349.1844Q330.09375 348.7625 329.75 348.02814Q329.40625 347.29376 329.40625 346.34064Q329.40625 345.41876 329.71875 344.65314Q330.03125 343.8875 330.65625 343.4969Q331.28125 343.09064 332.04688 343.09064Q332.60938 343.09064 333.04688 343.325Q333.48438 343.5594 333.76562 343.9344L333.76562 340.85626L334.8125 340.85626L334.8125 349.45L333.82812 349.45ZM330.5 346.34064Q330.5 347.54376 331.0 348.1375Q331.5 348.71564 332.1875 348.71564Q332.875 348.71564 333.35938 348.15314Q333.84375 347.59064 333.84375 346.4344Q333.84375 345.15314 333.34375 344.5594Q332.85938 343.96564 332.14062 343.96564Q331.4375 343.96564 330.96875 344.54376Q330.5 345.10626 330.5 346.34064ZM341.04688 347.45L342.14062 347.575Q341.89062 348.52814 341.1875 349.0594Q340.48438 349.59064 339.40625 349.59064Q338.04688 349.59064 337.23438 348.7469Q336.4375 347.90314 336.4375 346.3875Q336.4375 344.825 337.25 343.96564Q338.0625 343.09064 339.34375 343.09064Q340.59375 343.09064 341.375 343.9344Q342.17188 344.77814 342.17188 346.325Q342.17188 346.41876 342.17188 346.60626L337.53125 346.60626Q337.59375 347.6375 338.10938 348.1844Q338.625 348.71564 339.40625 348.71564Q339.98438 348.71564 340.39062 348.41876Q340.8125 348.10626 341.04688 347.45ZM337.59375 345.7469L341.0625 345.7469Q341.0 344.95 340.67188 344.5594Q340.15625 343.95 339.35938 343.95Q338.625 343.95 338.125 344.4344Q337.64062 344.91876 337.59375 345.7469ZM349.10938 349.45L349.10938 341.8719L346.28125 341.8719L346.28125 340.85626L353.09375 340.85626L353.09375 341.8719L350.25 341.8719L350.25 349.45L349.10938 349.45ZM358.04688 347.45L359.14062 347.575Q358.89062 348.52814 358.1875 349.0594Q357.48438 349.59064 356.40625 349.59064Q355.04688 349.59064 354.23438 348.7469Q353.4375 347.90314 353.4375 346.3875Q353.4375 344.825 354.25 343.96564Q355.0625 343.09064 356.34375 343.09064Q357.59375 343.09064 358.375 343.9344Q359.17188 344.77814 359.17188 346.325Q359.17188 346.41876 359.17188 346.60626L354.53125 346.60626Q354.59375 347.6375 355.10938 348.1844Q355.625 348.71564 356.40625 348.71564Q356.98438 348.71564 357.39062 348.41876Q357.8125 348.10626 358.04688 347.45ZM354.59375 345.7469L358.0625 345.7469Q358.0 344.95 357.67188 344.5594Q357.15625 343.95 356.35938 343.95Q355.625 343.95 355.125 344.4344Q354.64062 344.91876 354.59375 345.7469ZM360.375 347.59064L361.40625 347.4344Q361.5 348.0594 361.89062 348.3875Q362.29688 348.71564 363.03125 348.71564Q363.75 348.71564 364.09375 348.4344Q364.45312 348.1375 364.45312 347.73126Q364.45312 347.3719 364.14062 347.16876Q363.92188 347.02814 363.0625 346.8094Q361.90625 346.5125 361.45312 346.3094Q361.01562 346.09064 360.78125 345.71564Q360.54688 345.34064 360.54688 344.8719Q360.54688 344.46564 360.73438 344.10626Q360.92188 343.7469 361.25 343.5125Q361.5 343.34064 361.92188 343.21564Q362.34375 343.09064 362.84375 343.09064Q363.5625 343.09064 364.10938 343.3094Q364.67188 343.5125 364.9375 343.8719Q365.20312 344.23126 365.29688 344.825L364.26562 344.96564Q364.20312 344.4969 363.85938 344.23126Q363.53125 343.95 362.90625 343.95Q362.1875 343.95 361.875 344.2Q361.5625 344.4344 361.5625 344.7625Q361.5625 344.96564 361.6875 345.1219Q361.82812 345.29376 362.09375 345.40314Q362.25 345.46564 363.03125 345.66876Q364.15625 345.98126 364.59375 346.16876Q365.03125 346.35626 365.28125 346.71564Q365.53125 347.075 365.53125 347.6219Q365.53125 348.15314 365.21875 348.6219Q364.92188 349.075 364.34375 349.34064Q363.76562 349.59064 363.03125 349.59064Q361.8125 349.59064 361.17188 349.09064Q360.54688 348.575 360.375 347.59064ZM370.09375 348.5125L370.25 349.4344Q369.79688 349.52814 369.45312 349.52814Q368.875 349.52814 368.5625 349.35626Q368.25 349.16876 368.10938 348.8719Q367.98438 348.575 367.98438 347.6219L367.98438 344.04376L367.21875 344.04376L367.21875 343.23126L367.98438 343.23126L367.98438 341.6844L369.03125 341.0594L369.03125 343.23126L370.09375 343.23126L370.09375 344.04376L369.03125 344.04376L369.03125 347.6844Q369.03125 348.1375 369.07812 348.2625Q369.14062 348.3875 369.26562 348.46564Q369.39062 348.54376 369.625 348.54376Q369.8125 348.54376 370.09375 348.5125ZM375.04688 347.45L376.14062 347.575Q375.89062 348.52814 375.1875 349.0594Q374.48438 349.59064 373.40625 349.59064Q372.04688 349.59064 371.23438 348.7469Q370.4375 347.90314 370.4375 346.3875Q370.4375 344.825 371.25 343.96564Q372.0625 343.09064 373.34375 343.09064Q374.59375 343.09064 375.375 343.9344Q376.17188 344.77814 376.17188 346.325Q376.17188 346.41876 376.17188 346.60626L371.53125 346.60626Q371.59375 347.6375 372.10938 348.1844Q372.625 348.71564 373.40625 348.71564Q373.98438 348.71564 374.39062 348.41876Q374.8125 348.10626 375.04688 347.45ZM371.59375 345.7469L375.0625 345.7469Q375.0 344.95 374.67188 344.5594Q374.15625 343.95 373.35938 343.95Q372.625 343.95 372.125 344.4344Q371.64062 344.91876 371.59375 345.7469ZM377.375 347.59064L378.40625 347.4344Q378.5 348.0594 378.89062 348.3875Q379.29688 348.71564 380.03125 348.71564Q380.75 348.71564 381.09375 348.4344Q381.45312 348.1375 381.45312 347.73126Q381.45312 347.3719 381.14062 347.16876Q380.92188 347.02814 380.0625 346.8094Q378.90625 346.5125 378.45312 346.3094Q378.01562 346.09064 377.78125 345.71564Q377.54688 345.34064 377.54688 344.8719Q377.54688 344.46564 377.73438 344.10626Q377.92188 343.7469 378.25 343.5125Q378.5 343.34064 378.92188 343.21564Q379.34375 343.09064 379.84375 343.09064Q380.5625 343.09064 381.10938 343.3094Q381.67188 343.5125 381.9375 343.8719Q382.20312 344.23126 382.29688 344.825L381.26562 344.96564Q381.20312 344.4969 380.85938 344.23126Q380.53125 343.95 379.90625 343.95Q379.1875 343.95 378.875 344.2Q378.5625 344.4344 378.5625 344.7625Q378.5625 344.96564 378.6875 345.1219Q378.82812 345.29376 379.09375 345.40314Q379.25 345.46564 380.03125 345.66876Q381.15625 345.98126 381.59375 346.16876Q382.03125 346.35626 382.28125 346.71564Q382.53125 347.075 382.53125 347.6219Q382.53125 348.15314 382.21875 348.6219Q381.92188 349.075 381.34375 349.34064Q380.76562 349.59064 380.03125 349.59064Q378.8125 349.59064 378.17188 349.09064Q377.54688 348.575 377.375 347.59064Z" fill-rule="nonzero"/><path fill="#000000" d="M26.534388 224.62083L26.831263 223.49583Q28.221888 223.85521 28.956263 224.77708Q29.690638 225.69896 29.690638 227.04271Q29.690638 228.43333 29.128138 229.30833Q28.565638 230.18333 27.503138 230.63646Q26.425013 231.08958 25.190638 231.08958Q23.846888 231.08958 22.846888 230.57396Q21.846888 230.05833 21.331263 229.12083Q20.815638 228.16771 20.815638 227.02708Q20.815638 225.74583 21.471888 224.87083Q22.128138 223.98021 23.315638 223.63646L23.581263 224.76146Q22.643763 225.05833 22.221888 225.63646Q21.784388 226.19896 21.784388 227.05833Q21.784388 228.04271 22.268763 228.71458Q22.737513 229.37083 23.534388 229.65208Q24.331263 229.91771 25.190638 229.91771Q26.284388 229.91771 27.096888 229.60521Q27.909388 229.27708 28.315638 228.60521Q28.721888 227.93333 28.721888 227.13646Q28.721888 226.18333 28.175013 225.52708Q27.628138 224.85521 26.534388 224.62083ZM28.784388 217.82396Q29.284388 218.41771 29.487513 218.96458Q29.690638 219.49583 29.690638 220.12083Q29.690638 221.15208 29.190638 221.69896Q28.690638 222.24583 27.909388 222.24583Q27.456263 222.24583 27.081263 222.04271Q26.690638 221.83958 26.471888 221.49583Q26.237513 221.15208 26.128138 220.73021Q26.034388 220.43333 25.956263 219.79271Q25.815638 218.52708 25.596888 217.91771Q25.378138 217.91771 25.331263 217.91771Q24.675013 217.91771 24.409388 218.21458Q24.065638 218.62083 24.065638 219.41771Q24.065638 220.15208 24.331263 220.51146Q24.581263 220.87083 25.237513 221.04271L25.096888 222.07396Q24.440638 221.93333 24.034388 221.60521Q23.628138 221.27708 23.409388 220.66771Q23.190638 220.05833 23.190638 219.26146Q23.190638 218.46458 23.378138 217.96458Q23.565638 217.46458 23.846888 217.23021Q24.128138 216.99583 24.565638 216.90208Q24.831263 216.85521 25.534388 216.85521L26.940638 216.85521Q28.409388 216.85521 28.800013 216.79271Q29.190638 216.71458 29.550013 216.51146L29.550013 217.62083Q29.221888 217.77708 28.784388 217.82396ZM26.425013 217.91771Q26.659388 218.49583 26.831263 219.63646Q26.925013 220.29271 27.050013 220.55833Q27.159388 220.82396 27.378138 220.98021Q27.596888 221.12083 27.878138 221.12083Q28.300013 221.12083 28.581263 220.80833Q28.862513 220.48021 28.862513 219.87083Q28.862513 219.26146 28.596888 218.79271Q28.331263 218.30833 27.862513 218.08958Q27.503138 217.91771 26.815638 217.91771L26.425013 217.91771ZM27.690638 215.30833L27.534388 214.27708Q28.159388 214.18333 28.487513 213.79271Q28.815638 213.38646 28.815638 212.65208Q28.815638 211.93333 28.534388 211.58958Q28.237513 211.23021 27.831263 211.23021Q27.471888 211.23021 27.268763 211.54271Q27.128138 211.76146 26.909388 212.62083Q26.612513 213.77708 26.409388 214.23021Q26.190638 214.66771 25.815638 214.90208Q25.440638 215.13646 24.971888 215.13646Q24.565638 215.13646 24.206263 214.94896Q23.846888 214.76146 23.612513 214.43333Q23.440638 214.18333 23.315638 213.76146Q23.190638 213.33958 23.190638 212.83958Q23.190638 212.12083 23.409388 211.57396Q23.612513 211.01146 23.971888 210.74583Q24.331263 210.48021 24.925013 210.38646L25.065638 211.41771Q24.596888 211.48021 24.331263 211.82396Q24.050013 212.15208 24.050013 212.77708Q24.050013 213.49583 24.300013 213.80833Q24.534388 214.12083 24.862513 214.12083Q25.065638 214.12083 25.221888 213.99583Q25.393763 213.85521 25.503138 213.58958Q25.565638 213.43333 25.768763 212.65208Q26.081263 211.52708 26.268763 211.08958Q26.456263 210.65208 26.815638 210.40208Q27.175013 210.15208 27.721888 210.15208Q28.253138 210.15208 28.721888 210.46458Q29.175013 210.76146 29.440638 211.33958Q29.690638 211.91771 29.690638 212.65208Q29.690638 213.87083 29.190638 214.51146Q28.675013 215.13646 27.690638 215.30833ZM26.440638 208.27708Q24.706263 208.27708 23.878138 207.32396Q23.190638 206.52708 23.190638 205.37083Q23.190638 204.08958 24.034388 203.27708Q24.862513 202.44896 26.346888 202.44896Q27.550013 202.44896 28.237513 202.80833Q28.925013 203.16771 29.315638 203.87083Q29.690638 204.55833 29.690638 205.37083Q29.690638 206.66771 28.862513 207.48021Q28.018763 208.27708 26.440638 208.27708ZM26.440638 207.19896Q27.628138 207.19896 28.221888 206.68333Q28.815638 206.15208 28.815638 205.37083Q28.815638 204.57396 28.221888 204.05833Q27.628138 203.54271 26.409388 203.54271Q25.253138 203.54271 24.659388 204.07396Q24.065638 204.58958 24.065638 205.37083Q24.065638 206.15208 24.659388 206.68333Q25.237513 207.19896 26.440638 207.19896ZM27.690638 201.30833L27.534388 200.27708Q28.159388 200.18333 28.487513 199.79271Q28.815638 199.38646 28.815638 198.65208Q28.815638 197.93333 28.534388 197.58958Q28.237513 197.23021 27.831263 197.23021Q27.471888 197.23021 27.268763 197.54271Q27.128138 197.76146 26.909388 198.62083Q26.612513 199.77708 26.409388 200.23021Q26.190638 200.66771 25.815638 200.90208Q25.440638 201.13646 24.971888 201.13646Q24.565638 201.13646 24.206263 200.94896Q23.846888 200.76146 23.612513 200.43333Q23.440638 200.18333 23.315638 199.76146Q23.190638 199.33958 23.190638 198.83958Q23.190638 198.12083 23.409388 197.57396Q23.612513 197.01146 23.971888 196.74583Q24.331263 196.48021 24.925013 196.38646L25.065638 197.41771Q24.596888 197.48021 24.331263 197.82396Q24.050013 198.15208 24.050013 198.77708Q24.050013 199.49583 24.300013 199.80833Q24.534388 200.12083 24.862513 200.12083Q25.065638 200.12083 25.221888 199.99583Q25.393763 199.85521 25.503138 199.58958Q25.565638 199.43333 25.768763 198.65208Q26.081263 197.52708 26.268763 197.08958Q26.456263 196.65208 26.815638 196.40208Q27.175013 196.15208 27.721888 196.15208Q28.253138 196.15208 28.721888 196.46458Q29.175013 196.76146 29.440638 197.33958Q29.690638 197.91771 29.690638 198.65208Q29.690638 199.87083 29.190638 200.51146Q28.675013 201.13646 27.690638 201.30833ZM29.550013 186.85521L28.768763 186.85521Q29.690638 187.44896 29.690638 188.58958Q29.690638 189.33958 29.284388 189.96458Q28.862513 190.58958 28.128138 190.93333Q27.393763 191.27708 26.440638 191.27708Q25.518763 191.27708 24.753138 190.96458Q23.987513 190.65208 23.596888 190.02708Q23.190638 189.40208 23.190638 188.63646Q23.190638 188.07396 23.425013 187.63646Q23.659388 187.19896 24.034388 186.91771L20.956263 186.91771L20.956263 185.87083L29.550013 185.87083L29.550013 186.85521ZM26.440638 190.18333Q27.643763 190.18333 28.237513 189.68333Q28.815638 189.18333 28.815638 188.49583Q28.815638 187.80833 28.253138 187.32396Q27.690638 186.83958 26.534388 186.83958Q25.253138 186.83958 24.659388 187.33958Q24.065638 187.82396 24.065638 188.54271Q24.065638 189.24583 24.643763 189.71458Q25.206263 190.18333 26.440638 190.18333ZM27.550013 179.63646L27.675013 178.54271Q28.628138 178.79271 29.159388 179.49583Q29.690638 180.19896 29.690638 181.27708Q29.690638 182.63646 28.846888 183.44896Q28.003138 184.24583 26.487513 184.24583Q24.925013 184.24583 24.065638 183.43333Q23.190638 182.62083 23.190638 181.33958Q23.190638 180.08958 24.034388 179.30833Q24.878138 178.51146 26.425013 178.51146Q26.518763 178.51146 26.706263 178.51146L26.706263 183.15208Q27.737513 183.08958 28.284388 182.57396Q28.815638 182.05833 28.815638 181.27708Q28.815638 180.69896 28.518763 180.29271Q28.206263 179.87083 27.550013 179.63646ZM25.846888 183.08958L25.846888 179.62083Q25.050013 179.68333 24.659388 180.01146Q24.050013 180.52708 24.050013 181.32396Q24.050013 182.05833 24.534388 182.55833Q25.018763 183.04271 25.846888 183.08958ZM29.550013 171.57396L21.971888 171.57396L21.971888 174.40208L20.956263 174.40208L20.956263 167.58958L21.971888 167.58958L21.971888 170.43333L29.550013 170.43333L29.550013 171.57396ZM27.550013 162.63646L27.675013 161.54271Q28.628138 161.79271 29.159388 162.49583Q29.690638 163.19896 29.690638 164.27708Q29.690638 165.63646 28.846888 166.44896Q28.003138 167.24583 26.487513 167.24583Q24.925013 167.24583 24.065638 166.43333Q23.190638 165.62083 23.190638 164.33958Q23.190638 163.08958 24.034388 162.30833Q24.878138 161.51146 26.425013 161.51146Q26.518763 161.51146 26.706263 161.51146L26.706263 166.15208Q27.737513 166.08958 28.284388 165.57396Q28.815638 165.05833 28.815638 164.27708Q28.815638 163.69896 28.518763 163.29271Q28.206263 162.87083 27.550013 162.63646ZM25.846888 166.08958L25.846888 162.62083Q25.050013 162.68333 24.659388 163.01146Q24.050013 163.52708 24.050013 164.32396Q24.050013 165.05833 24.534388 165.55833Q25.018763 166.04271 25.846888 166.08958ZM27.690638 160.30833L27.534388 159.27708Q28.159388 159.18333 28.487513 158.79271Q28.815638 158.38646 28.815638 157.65208Q28.815638 156.93333 28.534388 156.58958Q28.237513 156.23021 27.831263 156.23021Q27.471888 156.23021 27.268763 156.54271Q27.128138 156.76146 26.909388 157.62083Q26.612513 158.77708 26.409388 159.23021Q26.190638 159.66771 25.815638 159.90208Q25.440638 160.13646 24.971888 160.13646Q24.565638 160.13646 24.206263 159.94896Q23.846888 159.76146 23.612513 159.43333Q23.440638 159.18333 23.315638 158.76146Q23.190638 158.33958 23.190638 157.83958Q23.190638 157.12083 23.409388 156.57396Q23.612513 156.01146 23.971888 155.74583Q24.331263 155.48021 24.925013 155.38646L25.065638 156.41771Q24.596888 156.48021 24.331263 156.82396Q24.050013 157.15208 24.050013 157.77708Q24.050013 158.49583 24.300013 158.80833Q24.534388 159.12083 24.862513 159.12083Q25.065638 159.12083 25.221888 158.99583Q25.393763 158.85521 25.503138 158.58958Q25.565638 158.43333 25.768763 157.65208Q26.081263 156.52708 26.268763 156.08958Q26.456263 155.65208 26.815638 155.40208Q27.175013 155.15208 27.721888 155.15208Q28.253138 155.15208 28.721888 155.46458Q29.175013 155.76146 29.440638 156.33958Q29.690638 156.91771 29.690638 157.65208Q29.690638 158.87083 29.190638 159.51146Q28.675013 160.13646 27.690638 160.30833ZM28.612513 150.58958L29.534388 150.43333Q29.628138 150.88646 29.628138 151.23021Q29.628138 151.80833 29.456263 152.12083Q29.268763 152.43333 28.971888 152.57396Q28.675013 152.69896 27.721888 152.69896L24.143763 152.69896L24.143763 153.46458L23.331263 153.46458L23.331263 152.69896L21.784388 152.69896L21.159388 151.65208L23.331263 151.65208L23.331263 150.58958L24.143763 150.58958L24.143763 151.65208L27.784388 151.65208Q28.237513 151.65208 28.362513 151.60521Q28.487513 151.54271 28.565638 151.41771Q28.643763 151.29271 28.643763 151.05833Q28.643763 150.87083 28.612513 150.58958ZM27.550013 145.63646L27.675013 144.54271Q28.628138 144.79271 29.159388 145.49583Q29.690638 146.19896 29.690638 147.27708Q29.690638 148.63646 28.846888 149.44896Q28.003138 150.24583 26.487513 150.24583Q24.925013 150.24583 24.065638 149.43333Q23.190638 148.62083 23.190638 147.33958Q23.190638 146.08958 24.034388 145.30833Q24.878138 144.51146 26.425013 144.51146Q26.518763 144.51146 26.706263 144.51146L26.706263 149.15208Q27.737513 149.08958 28.284388 148.57396Q28.815638 148.05833 28.815638 147.27708Q28.815638 146.69896 28.518763 146.29271Q28.206263 145.87083 27.550013 145.63646ZM25.846888 149.08958L25.846888 145.62083Q25.050013 145.68333 24.659388 146.01146Q24.050013 146.52708 24.050013 147.32396Q24.050013 148.05833 24.534388 148.55833Q25.018763 149.04271 25.846888 149.08958Z" fill-rule="nonzero"/><path fill="#000000" d="M65.05 300.21564Q65.05 298.6844 65.3625 297.7625Q65.675 296.825 66.28438 296.325Q66.90938 295.825 67.84688 295.825Q68.53438 295.825 69.05 296.10626Q69.58125 296.3875 69.925 296.91876Q70.26875 297.4344 70.45625 298.1844Q70.64375 298.9344 70.64375 300.21564Q70.64375 301.73126 70.33125 302.65314Q70.03438 303.575 69.40938 304.09064Q68.8 304.59064 67.84688 304.59064Q66.6125 304.59064 65.89375 303.7Q65.05 302.6375 65.05 300.21564ZM66.12813 300.21564Q66.12813 302.325 66.62813 303.02814Q67.12813 303.73126 67.84688 303.73126Q68.58125 303.73126 69.06563 303.02814Q69.56563 302.325 69.56563 300.21564Q69.56563 298.09064 69.06563 297.40314Q68.58125 296.7 67.83125 296.7Q67.1125 296.7 66.675 297.3094Q66.12813 298.09064 66.12813 300.21564Z" fill-rule="nonzero"/><path fill="#000000" d="M70.59688 243.80104L70.59688 244.81667L64.90938 244.81667Q64.90938 244.44167 65.03438 244.08229Q65.25313 243.50417 65.72188 242.94167Q66.20625 242.37917 67.1125 241.64479Q68.51875 240.48854 69.00313 239.81667Q69.50313 239.14479 69.50313 238.55104Q69.50313 237.92604 69.05 237.50417Q68.59688 237.06667 67.87813 237.06667Q67.1125 237.06667 66.65938 237.51979Q66.20625 237.97292 66.19063 238.78542L65.1125 238.67604Q65.22188 237.45729 65.94063 236.83229Q66.675 236.19167 67.90938 236.19167Q69.14375 236.19167 69.8625 236.87917Q70.58125 237.56667 70.58125 238.58229Q70.58125 239.09792 70.3625 239.59792Q70.15938 240.08229 69.65938 240.64479Q69.175 241.19167 68.05 242.14479Q67.09688 242.94167 66.81563 243.23854Q66.55 243.51979 66.37813 243.80104L70.59688 243.80104Z" fill-rule="nonzero"/><path fill="#000000" d="M68.425 185.18333L68.425 183.12083L64.70625 183.12083L64.70625 182.15208L68.62813 176.58958L69.4875 176.58958L69.4875 182.15208L70.64375 182.15208L70.64375 183.12083L69.4875 183.12083L69.4875 185.18333L68.425 185.18333ZM68.425 182.15208L68.425 178.29271L65.7375 182.15208L68.425 182.15208Z" fill-rule="nonzero"/><path fill="#000000" d="M70.51875 119.06563L69.47188 119.14375Q69.33125 118.51875 69.08125 118.2375Q68.64375 117.78438 68.01875 117.78438Q67.51875 117.78438 67.12813 118.06563Q66.64375 118.44063 66.34688 119.14375Q66.06563 119.83125 66.05 121.1125Q66.425 120.53438 66.97188 120.25313Q67.53438 119.97188 68.14375 119.97188Q69.19063 119.97188 69.925 120.75313Q70.675 121.53438 70.675 122.75313Q70.675 123.56563 70.31563 124.26875Q69.97188 124.95625 69.3625 125.33125Q68.75313 125.69063 67.9875 125.69063Q66.65938 125.69063 65.83125 124.72188Q65.00313 123.75313 65.00313 121.53438Q65.00313 119.03438 65.925 117.90938Q66.72188 116.925 68.08125 116.925Q69.09688 116.925 69.7375 117.50313Q70.39375 118.06563 70.51875 119.06563ZM66.22188 122.76875Q66.22188 123.31563 66.44063 123.81563Q66.675 124.3 67.08125 124.56563Q67.50313 124.83125 67.97188 124.83125Q68.62813 124.83125 69.1125 124.3Q69.59688 123.75313 69.59688 122.83125Q69.59688 121.94063 69.1125 121.425Q68.64375 120.90938 67.925 120.90938Q67.20625 120.90938 66.70625 121.425Q66.22188 121.94063 66.22188 122.76875Z" fill-rule="nonzero"/><path fill="#000000" d="M66.675 61.260414Q66.01875 61.010414 65.69063 60.572914Q65.37813 60.11979 65.37813 59.510414Q65.37813 58.572914 66.05 57.93229Q66.7375 57.291664 67.84688 57.291664Q68.97188 57.291664 69.65938 57.947914Q70.34688 58.604164 70.34688 59.541664Q70.34688 60.135414 70.03438 60.572914Q69.72188 61.010414 69.08125 61.260414Q69.87813 61.510414 70.28438 62.08854Q70.69063 62.666664 70.69063 63.46354Q70.69063 64.55729 69.90938 65.30729Q69.14375 66.05729 67.8625 66.05729Q66.59688 66.05729 65.81563 65.30729Q65.03438 64.55729 65.03438 63.43229Q65.03438 62.58854 65.45625 62.02604Q65.89375 61.46354 66.675 61.260414ZM66.45625 59.46354Q66.45625 60.072914 66.84688 60.46354Q67.25313 60.854164 67.87813 60.854164Q68.4875 60.854164 68.87813 60.479164Q69.26875 60.08854 69.26875 59.52604Q69.26875 58.947914 68.8625 58.55729Q68.45625 58.15104 67.8625 58.15104Q67.25313 58.15104 66.84688 58.541664Q66.45625 58.93229 66.45625 59.46354ZM66.12813 63.43229Q66.12813 63.885414 66.33125 64.30729Q66.55 64.729164 66.97188 64.96354Q67.39375 65.197914 67.87813 65.197914Q68.62813 65.197914 69.1125 64.71354Q69.6125 64.229164 69.6125 63.479164Q69.6125 62.71354 69.1125 62.21354Q68.6125 61.71354 67.84688 61.71354Q67.09688 61.71354 66.6125 62.21354Q66.12813 62.697914 66.12813 63.43229Z" fill-rule="nonzero"/><path fill="#000000" d="M127.14459 314.4344L128.26959 314.73126Q127.91022 316.1219 126.98834 316.85626Q126.06647 317.59064 124.72272 317.59064Q123.33209 317.59064 122.45709 317.02814Q121.58209 316.46564 121.12897 315.40314Q120.67584 314.325 120.67584 313.09064Q120.67584 311.7469 121.19147 310.7469Q121.70709 309.7469 122.64459 309.23126Q123.59772 308.71564 124.73834 308.71564Q126.01959 308.71564 126.89459 309.3719Q127.78522 310.02814 128.12897 311.21564L127.00397 311.48126Q126.70709 310.54376 126.12897 310.1219Q125.56647 309.6844 124.70709 309.6844Q123.72272 309.6844 123.05084 310.16876Q122.39459 310.6375 122.11334 311.4344Q121.84772 312.23126 121.84772 313.09064Q121.84772 314.1844 122.16022 314.9969Q122.48834 315.8094 123.16022 316.21564Q123.83209 316.6219 124.62897 316.6219Q125.58209 316.6219 126.23834 316.075Q126.91022 315.52814 127.14459 314.4344ZM133.94147 316.6844Q133.34772 317.1844 132.80084 317.3875Q132.26959 317.59064 131.64459 317.59064Q130.61334 317.59064 130.06647 317.09064Q129.51959 316.59064 129.51959 315.8094Q129.51959 315.35626 129.72272 314.98126Q129.92584 314.59064 130.26959 314.3719Q130.61334 314.1375 131.03522 314.02814Q131.33209 313.9344 131.97272 313.85626Q133.23834 313.71564 133.84772 313.4969Q133.84772 313.27814 133.84772 313.23126Q133.84772 312.575 133.55084 312.3094Q133.14459 311.96564 132.34772 311.96564Q131.61334 311.96564 131.25397 312.23126Q130.89459 312.48126 130.72272 313.1375L129.69147 312.9969Q129.83209 312.34064 130.16022 311.9344Q130.48834 311.52814 131.09772 311.3094Q131.70709 311.09064 132.50397 311.09064Q133.30084 311.09064 133.80084 311.27814Q134.30084 311.46564 134.53522 311.7469Q134.76959 312.02814 134.86334 312.46564Q134.91022 312.73126 134.91022 313.4344L134.91022 314.84064Q134.91022 316.3094 134.97272 316.7Q135.05084 317.09064 135.25397 317.45L134.14459 317.45Q133.98834 317.1219 133.94147 316.6844ZM133.84772 314.325Q133.26959 314.5594 132.12897 314.73126Q131.47272 314.825 131.20709 314.95Q130.94147 315.0594 130.78522 315.27814Q130.64459 315.4969 130.64459 315.77814Q130.64459 316.2 130.95709 316.48126Q131.28522 316.7625 131.89459 316.7625Q132.50397 316.7625 132.97272 316.4969Q133.45709 316.23126 133.67584 315.7625Q133.84772 315.40314 133.84772 314.71564L133.84772 314.325ZM140.91022 317.45L140.91022 316.66876Q140.31647 317.59064 139.17584 317.59064Q138.42584 317.59064 137.80084 317.1844Q137.17584 316.7625 136.83209 316.02814Q136.48834 315.29376 136.48834 314.34064Q136.48834 313.41876 136.80084 312.65314Q137.11334 311.8875 137.73834 311.4969Q138.36334 311.09064 139.12897 311.09064Q139.69147 311.09064 140.12897 311.325Q140.56647 311.5594 140.84772 311.9344L140.84772 308.85626L141.89459 308.85626L141.89459 317.45L140.91022 317.45ZM137.58209 314.34064Q137.58209 315.54376 138.08209 316.1375Q138.58209 316.71564 139.26959 316.71564Q139.95709 316.71564 140.44147 316.15314Q140.92584 315.59064 140.92584 314.4344Q140.92584 313.15314 140.42584 312.5594Q139.94147 311.96564 139.22272 311.96564Q138.51959 311.96564 138.05084 312.54376Q137.58209 313.10626 137.58209 314.34064ZM147.94147 316.6844Q147.34772 317.1844 146.80084 317.3875Q146.26959 317.59064 145.64459 317.59064Q144.61334 317.59064 144.06647 317.09064Q143.51959 316.59064 143.51959 315.8094Q143.51959 315.35626 143.72272 314.98126Q143.92584 314.59064 144.26959 314.3719Q144.61334 314.1375 145.03522 314.02814Q145.33209 313.9344 145.97272 313.85626Q147.23834 313.71564 147.84772 313.4969Q147.84772 313.27814 147.84772 313.23126Q147.84772 312.575 147.55084 312.3094Q147.14459 311.96564 146.34772 311.96564Q145.61334 311.96564 145.25397 312.23126Q144.89459 312.48126 144.72272 313.1375L143.69147 312.9969Q143.83209 312.34064 144.16022 311.9344Q144.48834 311.52814 145.09772 311.3094Q145.70709 311.09064 146.50397 311.09064Q147.30084 311.09064 147.80084 311.27814Q148.30084 311.46564 148.53522 311.7469Q148.76959 312.02814 148.86334 312.46564Q148.91022 312.73126 148.91022 313.4344L148.91022 314.84064Q148.91022 316.3094 148.97272 316.7Q149.05084 317.09064 149.25397 317.45L148.14459 317.45Q147.98834 317.1219 147.94147 316.6844ZM147.84772 314.325Q147.26959 314.5594 146.12897 314.73126Q145.47272 314.825 145.20709 314.95Q144.94147 315.0594 144.78522 315.27814Q144.64459 315.4969 144.64459 315.77814Q144.64459 316.2 144.95709 316.48126Q145.28522 316.7625 145.89459 316.7625Q146.50397 316.7625 146.97272 316.4969Q147.45709 316.23126 147.67584 315.7625Q147.84772 315.40314 147.84772 314.71564L147.84772 314.325ZM150.45709 315.59064L151.48834 315.4344Q151.58209 316.0594 151.97272 316.3875Q152.37897 316.71564 153.11334 316.71564Q153.83209 316.71564 154.17584 316.4344Q154.53522 316.1375 154.53522 315.73126Q154.53522 315.3719 154.22272 315.16876Q154.00397 315.02814 153.14459 314.8094Q151.98834 314.5125 151.53522 314.3094Q151.09772 314.09064 150.86334 313.71564Q150.62897 313.34064 150.62897 312.8719Q150.62897 312.46564 150.81647 312.10626Q151.00397 311.7469 151.33209 311.5125Q151.58209 311.34064 152.00397 311.21564Q152.42584 311.09064 152.92584 311.09064Q153.64459 311.09064 154.19147 311.3094Q154.75397 311.5125 155.01959 311.8719Q155.28522 312.23126 155.37897 312.825L154.34772 312.96564Q154.28522 312.4969 153.94147 312.23126Q153.61334 311.95 152.98834 311.95Q152.26959 311.95 151.95709 312.2Q151.64459 312.4344 151.64459 312.7625Q151.64459 312.96564 151.76959 313.1219Q151.91022 313.29376 152.17584 313.40314Q152.33209 313.46564 153.11334 313.66876Q154.23834 313.98126 154.67584 314.16876Q155.11334 314.35626 155.36334 314.71564Q155.61334 315.075 155.61334 315.6219Q155.61334 316.15314 155.30084 316.6219Q155.00397 317.075 154.42584 317.34064Q153.84772 317.59064 153.11334 317.59064Q151.89459 317.59064 151.25397 317.09064Q150.62897 316.575 150.45709 315.59064ZM160.17584 316.5125L160.33209 317.4344Q159.87897 317.52814 159.53522 317.52814Q158.95709 317.52814 158.64459 317.35626Q158.33209 317.16876 158.19147 316.8719Q158.06647 316.575 158.06647 315.6219L158.06647 312.04376L157.30084 312.04376L157.30084 311.23126L158.06647 311.23126L158.06647 309.6844L159.11334 309.0594L159.11334 311.23126L160.17584 311.23126L160.17584 312.04376L159.11334 312.04376L159.11334 315.6844Q159.11334 316.1375 159.16022 316.2625Q159.22272 316.3875 159.34772 316.46564Q159.47272 316.54376 159.70709 316.54376Q159.89459 316.54376 160.17584 316.5125ZM160.86334 317.45L160.86334 311.23126L161.81647 311.23126L161.81647 312.16876Q162.17584 311.5125 162.47272 311.3094Q162.78522 311.09064 163.16022 311.09064Q163.69147 311.09064 164.23834 311.41876L163.87897 312.40314Q163.48834 312.16876 163.11334 312.16876Q162.75397 312.16876 162.47272 312.3875Q162.20709 312.59064 162.09772 312.96564Q161.91022 313.52814 161.91022 314.1844L161.91022 317.45L160.86334 317.45ZM168.94147 316.6844Q168.34772 317.1844 167.80084 317.3875Q167.26959 317.59064 166.64459 317.59064Q165.61334 317.59064 165.06647 317.09064Q164.51959 316.59064 164.51959 315.8094Q164.51959 315.35626 164.72272 314.98126Q164.92584 314.59064 165.26959 314.3719Q165.61334 314.1375 166.03522 314.02814Q166.33209 313.9344 166.97272 313.85626Q168.23834 313.71564 168.84772 313.4969Q168.84772 313.27814 168.84772 313.23126Q168.84772 312.575 168.55084 312.3094Q168.14459 311.96564 167.34772 311.96564Q166.61334 311.96564 166.25397 312.23126Q165.89459 312.48126 165.72272 313.1375L164.69147 312.9969Q164.83209 312.34064 165.16022 311.9344Q165.48834 311.52814 166.09772 311.3094Q166.70709 311.09064 167.50397 311.09064Q168.30084 311.09064 168.80084 311.27814Q169.30084 311.46564 169.53522 311.7469Q169.76959 312.02814 169.86334 312.46564Q169.91022 312.73126 169.91022 313.4344L169.91022 314.84064Q169.91022 316.3094 169.97272 316.7Q170.05084 317.09064 170.25397 317.45L169.14459 317.45Q168.98834 317.1219 168.94147 316.6844ZM168.84772 314.325Q168.26959 314.5594 167.12897 314.73126Q166.47272 314.825 166.20709 314.95Q165.94147 315.0594 165.78522 315.27814Q165.64459 315.4969 165.64459 315.77814Q165.64459 316.2 165.95709 316.48126Q166.28522 316.7625 166.89459 316.7625Q167.50397 316.7625 167.97272 316.4969Q168.45709 316.23126 168.67584 315.7625Q168.84772 315.40314 168.84772 314.71564L168.84772 314.325ZM171.86334 317.45L171.86334 311.23126L172.81647 311.23126L172.81647 312.16876Q173.17584 311.5125 173.47272 311.3094Q173.78522 311.09064 174.16022 311.09064Q174.69147 311.09064 175.23834 311.41876L174.87897 312.40314Q174.48834 312.16876 174.11334 312.16876Q173.75397 312.16876 173.47272 312.3875Q173.20709 312.59064 173.09772 312.96564Q172.91022 313.52814 172.91022 314.1844L172.91022 317.45L171.86334 317.45ZM178.87897 317.45L178.87897 311.23126L179.81647 311.23126L179.81647 312.10626Q180.50397 311.09064 181.80084 311.09064Q182.36334 311.09064 182.83209 311.29376Q183.31647 311.4969 183.55084 311.825Q183.78522 312.15314 183.87897 312.59064Q183.92584 312.8875 183.92584 313.6219L183.92584 317.45L182.87897 317.45L182.87897 313.66876Q182.87897 313.0125 182.75397 312.7Q182.62897 312.3875 182.31647 312.2Q182.00397 311.9969 181.58209 311.9969Q180.91022 311.9969 180.41022 312.4344Q179.92584 312.85626 179.92584 314.04376L179.92584 317.45L178.87897 317.45ZM185.48834 314.34064Q185.48834 312.60626 186.44147 311.77814Q187.23834 311.09064 188.39459 311.09064Q189.67584 311.09064 190.48834 311.9344Q191.31647 312.7625 191.31647 314.2469Q191.31647 315.45 190.95709 316.1375Q190.59772 316.825 189.89459 317.21564Q189.20709 317.59064 188.39459 317.59064Q187.09772 317.59064 186.28522 316.7625Q185.48834 315.91876 185.48834 314.34064ZM186.56647 314.34064Q186.56647 315.52814 187.08209 316.1219Q187.61334 316.71564 188.39459 316.71564Q189.19147 316.71564 189.70709 316.1219Q190.22272 315.52814 190.22272 314.3094Q190.22272 313.15314 189.69147 312.5594Q189.17584 311.96564 188.39459 311.96564Q187.61334 311.96564 187.08209 312.5594Q186.56647 313.1375 186.56647 314.34064ZM194.59772 317.45L192.23834 311.23126L193.34772 311.23126L194.69147 314.95Q194.89459 315.5594 195.08209 316.2Q195.22272 315.71564 195.47272 315.02814L196.86334 311.23126L197.94147 311.23126L195.58209 317.45L194.59772 317.45ZM197.48834 314.34064Q197.48834 312.60626 198.44147 311.77814Q199.23834 311.09064 200.39459 311.09064Q201.67584 311.09064 202.48834 311.9344Q203.31647 312.7625 203.31647 314.2469Q203.31647 315.45 202.95709 316.1375Q202.59772 316.825 201.89459 317.21564Q201.20709 317.59064 200.39459 317.59064Q199.09772 317.59064 198.28522 316.7625Q197.48834 315.91876 197.48834 314.34064ZM198.56647 314.34064Q198.56647 315.52814 199.08209 316.1219Q199.61334 316.71564 200.39459 316.71564Q201.19147 316.71564 201.70709 316.1219Q202.22272 315.52814 202.22272 314.3094Q202.22272 313.15314 201.69147 312.5594Q201.17584 311.96564 200.39459 311.96564Q199.61334 311.96564 199.08209 312.5594Q198.56647 313.1375 198.56647 314.34064ZM211.94147 315.16876L212.97272 315.3094Q212.80084 316.3719 212.09772 316.98126Q211.39459 317.59064 210.37897 317.59064Q209.09772 317.59064 208.31647 316.7625Q207.55084 315.91876 207.55084 314.35626Q207.55084 313.35626 207.87897 312.60626Q208.22272 311.84064 208.89459 311.46564Q209.58209 311.09064 210.39459 311.09064Q211.39459 311.09064 212.03522 311.60626Q212.69147 312.10626 212.87897 313.0594L211.84772 313.21564Q211.70709 312.59064 211.33209 312.27814Q210.95709 311.95 210.42584 311.95Q209.62897 311.95 209.12897 312.52814Q208.62897 313.09064 208.62897 314.325Q208.62897 315.59064 209.11334 316.15314Q209.59772 316.71564 210.36334 316.71564Q210.98834 316.71564 211.39459 316.34064Q211.81647 315.96564 211.94147 315.16876ZM217.95709 317.45L217.95709 316.52814Q217.22272 317.59064 215.97272 317.59064Q215.42584 317.59064 214.94147 317.3875Q214.47272 317.16876 214.23834 316.85626Q214.00397 316.52814 213.91022 316.0594Q213.84772 315.7625 213.84772 315.075L213.84772 311.23126L214.91022 311.23126L214.91022 314.6844Q214.91022 315.4969 214.97272 315.79376Q215.06647 316.2 215.37897 316.45Q215.70709 316.6844 216.19147 316.6844Q216.66022 316.6844 217.06647 316.45Q217.48834 316.2 217.66022 315.77814Q217.84772 315.35626 217.84772 314.5594L217.84772 311.23126L218.89459 311.23126L218.89459 317.45L217.95709 317.45ZM220.86334 317.45L220.86334 311.23126L221.81647 311.23126L221.81647 312.16876Q222.17584 311.5125 222.47272 311.3094Q222.78522 311.09064 223.16022 311.09064Q223.69147 311.09064 224.23834 311.41876L223.87897 312.40314Q223.48834 312.16876 223.11334 312.16876Q222.75397 312.16876 222.47272 312.3875Q222.20709 312.59064 222.09772 312.96564Q221.91022 313.52814 221.91022 314.1844L221.91022 317.45L220.86334 317.45ZM224.45709 315.59064L225.48834 315.4344Q225.58209 316.0594 225.97272 316.3875Q226.37897 316.71564 227.11334 316.71564Q227.83209 316.71564 228.17584 316.4344Q228.53522 316.1375 228.53522 315.73126Q228.53522 315.3719 228.22272 315.16876Q228.00397 315.02814 227.14459 314.8094Q225.98834 314.5125 225.53522 314.3094Q225.09772 314.09064 224.86334 313.71564Q224.62897 313.34064 224.62897 312.8719Q224.62897 312.46564 224.81647 312.10626Q225.00397 311.7469 225.33209 311.5125Q225.58209 311.34064 226.00397 311.21564Q226.42584 311.09064 226.92584 311.09064Q227.64459 311.09064 228.19147 311.3094Q228.75397 311.5125 229.01959 311.8719Q229.28522 312.23126 229.37897 312.825L228.34772 312.96564Q228.28522 312.4969 227.94147 312.23126Q227.61334 311.95 226.98834 311.95Q226.26959 311.95 225.95709 312.2Q225.64459 312.4344 225.64459 312.7625Q225.64459 312.96564 225.76959 313.1219Q225.91022 313.29376 226.17584 313.40314Q226.33209 313.46564 227.11334 313.66876Q228.23834 313.98126 228.67584 314.16876Q229.11334 314.35626 229.36334 314.71564Q229.61334 315.075 229.61334 315.6219Q229.61334 316.15314 229.30084 316.6219Q229.00397 317.075 228.42584 317.34064Q227.84772 317.59064 227.11334 317.59064Q225.89459 317.59064 225.25397 317.09064Q224.62897 316.575 224.45709 315.59064ZM231.48834 314.34064Q231.48834 312.60626 232.44147 311.77814Q233.23834 311.09064 234.39459 311.09064Q235.67584 311.09064 236.48834 311.9344Q237.31647 312.7625 237.31647 314.2469Q237.31647 315.45 236.95709 316.1375Q236.59772 316.825 235.89459 317.21564Q235.20709 317.59064 234.39459 317.59064Q233.09772 317.59064 232.28522 316.7625Q231.48834 315.91876 231.48834 314.34064ZM232.56647 314.34064Q232.56647 315.52814 233.08209 316.1219Q233.61334 316.71564 234.39459 316.71564Q235.19147 316.71564 235.70709 316.1219Q236.22272 315.52814 236.22272 314.3094Q236.22272 313.15314 235.69147 312.5594Q235.17584 311.96564 234.39459 311.96564Q233.61334 311.96564 233.08209 312.5594Q232.56647 313.1375 232.56647 314.34064Z" fill-rule="nonzero"/><path fill="#000000" d="M261.375 317.45L261.375 308.85626L262.51562 308.85626L262.51562 316.4344L266.75 316.4344L266.75 317.45L261.375 317.45ZM268.29688 310.075L268.29688 308.85626L269.35938 308.85626L269.35938 310.075L268.29688 310.075ZM268.29688 317.45L268.29688 311.23126L269.35938 311.23126L269.35938 317.45L268.29688 317.45ZM270.875 315.59064L271.90625 315.4344Q272.0 316.0594 272.39062 316.3875Q272.79688 316.71564 273.53125 316.71564Q274.25 316.71564 274.59375 316.4344Q274.95312 316.1375 274.95312 315.73126Q274.95312 315.3719 274.64062 315.16876Q274.42188 315.02814 273.5625 314.8094Q272.40625 314.5125 271.95312 314.3094Q271.51562 314.09064 271.28125 313.71564Q271.04688 313.34064 271.04688 312.8719Q271.04688 312.46564 271.23438 312.10626Q271.42188 311.7469 271.75 311.5125Q272.0 311.34064 272.42188 311.21564Q272.84375 311.09064 273.34375 311.09064Q274.0625 311.09064 274.60938 311.3094Q275.17188 311.5125 275.4375 311.8719Q275.70312 312.23126 275.79688 312.825L274.76562 312.96564Q274.70312 312.4969 274.35938 312.23126Q274.03125 311.95 273.40625 311.95Q272.6875 311.95 272.375 312.2Q272.0625 312.4344 272.0625 312.7625Q272.0625 312.96564 272.1875 313.1219Q272.32812 313.29376 272.59375 313.40314Q272.75 313.46564 273.53125 313.66876Q274.65625 313.98126 275.09375 314.16876Q275.53125 314.35626 275.78125 314.71564Q276.03125 315.075 276.03125 315.6219Q276.03125 316.15314 275.71875 316.6219Q275.42188 317.075 274.84375 317.34064Q274.26562 317.59064 273.53125 317.59064Q272.3125 317.59064 271.67188 317.09064Q271.04688 316.575 270.875 315.59064ZM280.59375 316.5125L280.75 317.4344Q280.29688 317.52814 279.95312 317.52814Q279.375 317.52814 279.0625 317.35626Q278.75 317.16876 278.60938 316.8719Q278.48438 316.575 278.48438 315.6219L278.48438 312.04376L277.71875 312.04376L277.71875 311.23126L278.48438 311.23126L278.48438 309.6844L279.53125 309.0594L279.53125 311.23126L280.59375 311.23126L280.59375 312.04376L279.53125 312.04376L279.53125 315.6844Q279.53125 316.1375 279.57812 316.2625Q279.64062 316.3875 279.76562 316.46564Q279.89062 316.54376 280.125 316.54376Q280.3125 316.54376 280.59375 316.5125ZM285.35938 316.6844Q284.76562 317.1844 284.21875 317.3875Q283.6875 317.59064 283.0625 317.59064Q282.03125 317.59064 281.48438 317.09064Q280.9375 316.59064 280.9375 315.8094Q280.9375 315.35626 281.14062 314.98126Q281.34375 314.59064 281.6875 314.3719Q282.03125 314.1375 282.45312 314.02814Q282.75 313.9344 283.39062 313.85626Q284.65625 313.71564 285.26562 313.4969Q285.26562 313.27814 285.26562 313.23126Q285.26562 312.575 284.96875 312.3094Q284.5625 311.96564 283.76562 311.96564Q283.03125 311.96564 282.67188 312.23126Q282.3125 312.48126 282.14062 313.1375L281.10938 312.9969Q281.25 312.34064 281.57812 311.9344Q281.90625 311.52814 282.51562 311.3094Q283.125 311.09064 283.92188 311.09064Q284.71875 311.09064 285.21875 311.27814Q285.71875 311.46564 285.95312 311.7469Q286.1875 312.02814 286.28125 312.46564Q286.32812 312.73126 286.32812 313.4344L286.32812 314.84064Q286.32812 316.3094 286.39062 316.7Q286.46875 317.09064 286.67188 317.45L285.5625 317.45Q285.40625 317.1219 285.35938 316.6844ZM285.26562 314.325Q284.6875 314.5594 283.54688 314.73126Q282.89062 314.825 282.625 314.95Q282.35938 315.0594 282.20312 315.27814Q282.0625 315.4969 282.0625 315.77814Q282.0625 316.2 282.375 316.48126Q282.70312 316.7625 283.3125 316.7625Q283.92188 316.7625 284.39062 316.4969Q284.875 316.23126 285.09375 315.7625Q285.26562 315.40314 285.26562 314.71564L285.26562 314.325ZM288.28125 317.45L288.28125 311.23126L289.23438 311.23126L289.23438 312.16876Q289.59375 311.5125 289.89062 311.3094Q290.20312 311.09064 290.57812 311.09064Q291.10938 311.09064 291.65625 311.41876L291.29688 312.40314Q290.90625 312.16876 290.53125 312.16876Q290.17188 312.16876 289.89062 312.3875Q289.625 312.59064 289.51562 312.96564Q289.32812 313.52814 289.32812 314.1844L289.32812 317.45L288.28125 317.45ZM299.35938 315.16876L300.39062 315.3094Q300.21875 316.3719 299.51562 316.98126Q298.8125 317.59064 297.79688 317.59064Q296.51562 317.59064 295.73438 316.7625Q294.96875 315.91876 294.96875 314.35626Q294.96875 313.35626 295.29688 312.60626Q295.64062 311.84064 296.3125 311.46564Q297.0 311.09064 297.8125 311.09064Q298.8125 311.09064 299.45312 311.60626Q300.10938 312.10626 300.29688 313.0594L299.26562 313.21564Q299.125 312.59064 298.75 312.27814Q298.375 311.95 297.84375 311.95Q297.04688 311.95 296.54688 312.52814Q296.04688 313.09064 296.04688 314.325Q296.04688 315.59064 296.53125 316.15314Q297.01562 316.71564 297.78125 316.71564Q298.40625 316.71564 298.8125 316.34064Q299.23438 315.96564 299.35938 315.16876ZM305.375 317.45L305.375 316.52814Q304.64062 317.59064 303.39062 317.59064Q302.84375 317.59064 302.35938 317.3875Q301.89062 317.16876 301.65625 316.85626Q301.42188 316.52814 301.32812 316.0594Q301.26562 315.7625 301.26562 315.075L301.26562 311.23126L302.32812 311.23126L302.32812 314.6844Q302.32812 315.4969 302.39062 315.79376Q302.48438 316.2 302.79688 316.45Q303.125 316.6844 303.60938 316.6844Q304.07812 316.6844 304.48438 316.45Q304.90625 316.2 305.07812 315.77814Q305.26562 315.35626 305.26562 314.5594L305.26562 311.23126L306.3125 311.23126L306.3125 317.45L305.375 317.45ZM308.28125 317.45L308.28125 311.23126L309.23438 311.23126L309.23438 312.16876Q309.59375 311.5125 309.89062 311.3094Q310.20312 311.09064 310.57812 311.09064Q311.10938 311.09064 311.65625 311.41876L311.29688 312.40314Q310.90625 312.16876 310.53125 312.16876Q310.17188 312.16876 309.89062 312.3875Q309.625 312.59064 309.51562 312.96564Q309.32812 313.52814 309.32812 314.1844L309.32812 317.45L308.28125 317.45ZM311.875 315.59064L312.90625 315.4344Q313.0 316.0594 313.39062 316.3875Q313.79688 316.71564 314.53125 316.71564Q315.25 316.71564 315.59375 316.4344Q315.95312 316.1375 315.95312 315.73126Q315.95312 315.3719 315.64062 315.16876Q315.42188 315.02814 314.5625 314.8094Q313.40625 314.5125 312.95312 314.3094Q312.51562 314.09064 312.28125 313.71564Q312.04688 313.34064 312.04688 312.8719Q312.04688 312.46564 312.23438 312.10626Q312.42188 311.7469 312.75 311.5125Q313.0 311.34064 313.42188 311.21564Q313.84375 311.09064 314.34375 311.09064Q315.0625 311.09064 315.60938 311.3094Q316.17188 311.5125 316.4375 311.8719Q316.70312 312.23126 316.79688 312.825L315.76562 312.96564Q315.70312 312.4969 315.35938 312.23126Q315.03125 311.95 314.40625 311.95Q313.6875 311.95 313.375 312.2Q313.0625 312.4344 313.0625 312.7625Q313.0625 312.96564 313.1875 313.1219Q313.32812 313.29376 313.59375 313.40314Q313.75 313.46564 314.53125 313.66876Q315.65625 313.98126 316.09375 314.16876Q316.53125 314.35626 316.78125 314.71564Q317.03125 315.075 317.03125 315.6219Q317.03125 316.15314 316.71875 316.6219Q316.42188 317.075 315.84375 317.34064Q315.26562 317.59064 314.53125 317.59064Q313.3125 317.59064 312.67188 317.09064Q312.04688 316.575 311.875 315.59064ZM318.90625 314.34064Q318.90625 312.60626 319.85938 311.77814Q320.65625 311.09064 321.8125 311.09064Q323.09375 311.09064 323.90625 311.9344Q324.73438 312.7625 324.73438 314.2469Q324.73438 315.45 324.375 316.1375Q324.01562 316.825 323.3125 317.21564Q322.625 317.59064 321.8125 317.59064Q320.51562 317.59064 319.70312 316.7625Q318.90625 315.91876 318.90625 314.34064ZM319.98438 314.34064Q319.98438 315.52814 320.5 316.1219Q321.03125 316.71564 321.8125 316.71564Q322.60938 316.71564 323.125 316.1219Q323.64062 315.52814 323.64062 314.3094Q323.64062 313.15314 323.10938 312.5594Q322.59375 311.96564 321.8125 311.96564Q321.03125 311.96564 320.5 312.5594Q319.98438 313.1375 319.98438 314.34064ZM325.875 315.59064L326.90625 315.4344Q327.0 316.0594 327.39062 316.3875Q327.79688 316.71564 328.53125 316.71564Q329.25 316.71564 329.59375 316.4344Q329.95312 316.1375 329.95312 315.73126Q329.95312 315.3719 329.64062 315.16876Q329.42188 315.02814 328.5625 314.8094Q327.40625 314.5125 326.95312 314.3094Q326.51562 314.09064 326.28125 313.71564Q326.04688 313.34064 326.04688 312.8719Q326.04688 312.46564 326.23438 312.10626Q326.42188 311.7469 326.75 311.5125Q327.0 311.34064 327.42188 311.21564Q327.84375 311.09064 328.34375 311.09064Q329.0625 311.09064 329.60938 311.3094Q330.17188 311.5125 330.4375 311.8719Q330.70312 312.23126 330.79688 312.825L329.76562 312.96564Q329.70312 312.4969 329.35938 312.23126Q329.03125 311.95 328.40625 311.95Q327.6875 311.95 327.375 312.2Q327.0625 312.4344 327.0625 312.7625Q327.0625 312.96564 327.1875 313.1219Q327.32812 313.29376 327.59375 313.40314Q327.75 313.46564 328.53125 313.66876Q329.65625 313.98126 330.09375 314.16876Q330.53125 314.35626 330.78125 314.71564Q331.03125 315.075 331.03125 315.6219Q331.03125 316.15314 330.71875 316.6219Q330.42188 317.075 329.84375 317.34064Q329.26562 317.59064 328.53125 317.59064Q327.3125 317.59064 326.67188 317.09064Q326.04688 316.575 325.875 315.59064ZM340.32812 317.45L340.32812 316.66876Q339.73438 317.59064 338.59375 317.59064Q337.84375 317.59064 337.21875 317.1844Q336.59375 316.7625 336.25 316.02814Q335.90625 315.29376 335.90625 314.34064Q335.90625 313.41876 336.21875 312.65314Q336.53125 311.8875 337.15625 311.4969Q337.78125 311.09064 338.54688 311.09064Q339.10938 311.09064 339.54688 311.325Q339.98438 311.5594 340.26562 311.9344L340.26562 308.85626L341.3125 308.85626L341.3125 317.45L340.32812 317.45ZM337.0 314.34064Q337.0 315.54376 337.5 316.1375Q338.0 316.71564 338.6875 316.71564Q339.375 316.71564 339.85938 316.15314Q340.34375 315.59064 340.34375 314.4344Q340.34375 313.15314 339.84375 312.5594Q339.35938 311.96564 338.64062 311.96564Q337.9375 311.96564 337.46875 312.54376Q337.0 313.10626 337.0 314.34064ZM343.29688 310.075L343.29688 308.85626L344.35938 308.85626L344.35938 310.075L343.29688 310.075ZM343.29688 317.45L343.29688 311.23126L344.35938 311.23126L344.35938 317.45L343.29688 317.45ZM345.875 315.59064L346.90625 315.4344Q347.0 316.0594 347.39062 316.3875Q347.79688 316.71564 348.53125 316.71564Q349.25 316.71564 349.59375 316.4344Q349.95312 316.1375 349.95312 315.73126Q349.95312 315.3719 349.64062 315.16876Q349.42188 315.02814 348.5625 314.8094Q347.40625 314.5125 346.95312 314.3094Q346.51562 314.09064 346.28125 313.71564Q346.04688 313.34064 346.04688 312.8719Q346.04688 312.46564 346.23438 312.10626Q346.42188 311.7469 346.75 311.5125Q347.0 311.34064 347.42188 311.21564Q347.84375 311.09064 348.34375 311.09064Q349.0625 311.09064 349.60938 311.3094Q350.17188 311.5125 350.4375 311.8719Q350.70312 312.23126 350.79688 312.825L349.76562 312.96564Q349.70312 312.4969 349.35938 312.23126Q349.03125 311.95 348.40625 311.95Q347.6875 311.95 347.375 312.2Q347.0625 312.4344 347.0625 312.7625Q347.0625 312.96564 347.1875 313.1219Q347.32812 313.29376 347.59375 313.40314Q347.75 313.46564 348.53125 313.66876Q349.65625 313.98126 350.09375 314.16876Q350.53125 314.35626 350.78125 314.71564Q351.03125 315.075 351.03125 315.6219Q351.03125 316.15314 350.71875 316.6219Q350.42188 317.075 349.84375 317.34064Q349.26562 317.59064 348.53125 317.59064Q347.3125 317.59064 346.67188 317.09064Q346.04688 316.575 345.875 315.59064ZM353.29688 319.84064L353.29688 311.23126L354.25 311.23126L354.25 312.02814Q354.59375 311.5594 355.01562 311.325Q355.45312 311.09064 356.0625 311.09064Q356.85938 311.09064 357.46875 311.4969Q358.07812 311.90314 358.375 312.65314Q358.6875 313.40314 358.6875 314.29376Q358.6875 315.2469 358.34375 316.0125Q358.01562 316.77814 357.35938 317.1844Q356.70312 317.59064 355.98438 317.59064Q355.45312 317.59064 355.03125 317.3719Q354.60938 317.1375 354.34375 316.8094L354.34375 319.84064L353.29688 319.84064ZM354.25 314.3719Q354.25 315.575 354.73438 316.15314Q355.21875 316.71564 355.90625 316.71564Q356.60938 316.71564 357.10938 316.1219Q357.60938 315.52814 357.60938 314.27814Q357.60938 313.09064 357.125 312.5125Q356.64062 311.91876 355.95312 311.91876Q355.28125 311.91876 354.76562 312.54376Q354.25 313.16876 354.25 314.3719ZM359.90625 314.34064Q359.90625 312.60626 360.85938 311.77814Q361.65625 311.09064 362.8125 311.09064Q364.09375 311.09064 364.90625 311.9344Q365.73438 312.7625 365.73438 314.2469Q365.73438 315.45 365.375 316.1375Q365.01562 316.825 364.3125 317.21564Q363.625 317.59064 362.8125 317.59064Q361.51562 317.59064 360.70312 316.7625Q359.90625 315.91876 359.90625 314.34064ZM360.98438 314.34064Q360.98438 315.52814 361.5 316.1219Q362.03125 316.71564 362.8125 316.71564Q363.60938 316.71564 364.125 316.1219Q364.64062 315.52814 364.64062 314.3094Q364.64062 313.15314 364.10938 312.5594Q363.59375 311.96564 362.8125 311.96564Q362.03125 311.96564 361.5 312.5594Q360.98438 313.1375 360.98438 314.34064ZM367.29688 317.45L367.29688 311.23126L368.23438 311.23126L368.23438 312.10626Q368.92188 311.09064 370.21875 311.09064Q370.78125 311.09064 371.25 311.29376Q371.73438 311.4969 371.96875 311.825Q372.20312 312.15314 372.29688 312.59064Q372.34375 312.8875 372.34375 313.6219L372.34375 317.45L371.29688 317.45L371.29688 313.66876Q371.29688 313.0125 371.17188 312.7Q371.04688 312.3875 370.73438 312.2Q370.42188 311.9969 370.0 311.9969Q369.32812 311.9969 368.82812 312.4344Q368.34375 312.85626 368.34375 314.04376L368.34375 317.45L367.29688 317.45ZM374.65625 317.45L374.65625 311.23126L375.71875 311.23126L375.71875 317.45L374.65625 317.45ZM374.60938 310.45L375.39062 308.8094L376.78125 308.8094L375.48438 310.45L374.60938 310.45ZM379.01562 317.45L376.65625 311.23126L377.76562 311.23126L379.10938 314.95Q379.3125 315.5594 379.5 316.2Q379.64062 315.71564 379.89062 315.02814L381.28125 311.23126L382.35938 311.23126L380.0 317.45L379.01562 317.45ZM386.54688 315.45L387.64062 315.575Q387.39062 316.52814 386.6875 317.0594Q385.98438 317.59064 384.90625 317.59064Q383.54688 317.59064 382.73438 316.7469Q381.9375 315.90314 381.9375 314.3875Q381.9375 312.825 382.75 311.96564Q383.5625 311.09064 384.84375 311.09064Q386.09375 311.09064 386.875 311.9344Q387.67188 312.77814 387.67188 314.325Q387.67188 314.41876 387.67188 314.60626L383.03125 314.60626Q383.09375 315.6375 383.60938 316.1844Q384.125 316.71564 384.90625 316.71564Q385.48438 316.71564 385.89062 316.41876Q386.3125 316.10626 386.54688 315.45ZM383.09375 313.7469L386.5625 313.7469Q386.5 312.95 386.17188 312.5594Q385.65625 311.95 384.85938 311.95Q384.125 311.95 383.625 312.4344Q383.14062 312.91876 383.09375 313.7469ZM389.29688 310.075L389.29688 308.85626L390.35938 308.85626L390.35938 310.075L389.29688 310.075ZM389.29688 317.45L389.29688 311.23126L390.35938 311.23126L390.35938 317.45L389.29688 317.45ZM391.875 315.59064L392.90625 315.4344Q393.0 316.0594 393.39062 316.3875Q393.79688 316.71564 394.53125 316.71564Q395.25 316.71564 395.59375 316.4344Q395.95312 316.1375 395.95312 315.73126Q395.95312 315.3719 395.64062 315.16876Q395.42188 315.02814 394.5625 314.8094Q393.40625 314.5125 392.95312 314.3094Q392.51562 314.09064 392.28125 313.71564Q392.04688 313.34064 392.04688 312.8719Q392.04688 312.46564 392.23438 312.10626Q392.42188 311.7469 392.75 311.5125Q393.0 311.34064 393.42188 311.21564Q393.84375 311.09064 394.34375 311.09064Q395.0625 311.09064 395.60938 311.3094Q396.17188 311.5125 396.4375 311.8719Q396.70312 312.23126 396.79688 312.825L395.76562 312.96564Q395.70312 312.4969 395.35938 312.23126Q395.03125 311.95 394.40625 311.95Q393.6875 311.95 393.375 312.2Q393.0625 312.4344 393.0625 312.7625Q393.0625 312.96564 393.1875 313.1219Q393.32812 313.29376 393.59375 313.40314Q393.75 313.46564 394.53125 313.66876Q395.65625 313.98126 396.09375 314.16876Q396.53125 314.35626 396.78125 314.71564Q397.03125 315.075 397.03125 315.6219Q397.03125 316.15314 396.71875 316.6219Q396.42188 317.075 395.84375 317.34064Q395.26562 317.59064 394.53125 317.59064Q393.3125 317.59064 392.67188 317.09064Q392.04688 316.575 391.875 315.59064Z" fill-rule="nonzero"/><path fill="#000000" d="M444.37103 317.45L444.37103 308.85626L450.57416 308.85626L450.57416 309.8719L445.51166 309.8719L445.51166 312.4969L450.26166 312.4969L450.26166 313.5125L445.51166 313.5125L445.51166 316.4344L450.77728 316.4344L450.77728 317.45L444.37103 317.45ZM451.51166 317.45L453.77728 314.21564L451.68353 311.23126L452.99603 311.23126L453.94916 312.6844Q454.21478 313.10626 454.38666 313.3875Q454.63666 312.9969 454.8554 312.7L455.90228 311.23126L457.1679 311.23126L455.01166 314.15314L457.32416 317.45L456.0429 317.45L454.76166 315.5125L454.4179 314.9969L452.77728 317.45L451.51166 317.45ZM461.27728 315.16876L462.30853 315.3094Q462.13666 316.3719 461.43353 316.98126Q460.7304 317.59064 459.71478 317.59064Q458.43353 317.59064 457.65228 316.7625Q456.88666 315.91876 456.88666 314.35626Q456.88666 313.35626 457.21478 312.60626Q457.55853 311.84064 458.2304 311.46564Q458.9179 311.09064 459.7304 311.09064Q460.7304 311.09064 461.37103 311.60626Q462.02728 312.10626 462.21478 313.0594L461.18353 313.21564Q461.0429 312.59064 460.6679 312.27814Q460.2929 311.95 459.76166 311.95Q458.96478 311.95 458.46478 312.52814Q457.96478 313.09064 457.96478 314.325Q457.96478 315.59064 458.44916 316.15314Q458.93353 316.71564 459.69916 316.71564Q460.32416 316.71564 460.7304 316.34064Q461.15228 315.96564 461.27728 315.16876ZM463.18353 317.45L463.18353 308.85626L464.24603 308.85626L464.24603 317.45L463.18353 317.45ZM470.2929 317.45L470.2929 316.52814Q469.55853 317.59064 468.30853 317.59064Q467.76166 317.59064 467.27728 317.3875Q466.80853 317.16876 466.57416 316.85626Q466.33978 316.52814 466.24603 316.0594Q466.18353 315.7625 466.18353 315.075L466.18353 311.23126L467.24603 311.23126L467.24603 314.6844Q467.24603 315.4969 467.30853 315.79376Q467.40228 316.2 467.71478 316.45Q468.0429 316.6844 468.52728 316.6844Q468.99603 316.6844 469.40228 316.45Q469.82416 316.2 469.99603 315.77814Q470.18353 315.35626 470.18353 314.5594L470.18353 311.23126L471.2304 311.23126L471.2304 317.45L470.2929 317.45ZM473.21478 310.075L473.21478 308.85626L474.27728 308.85626L474.27728 310.075L473.21478 310.075ZM473.21478 317.45L473.21478 311.23126L474.27728 311.23126L474.27728 317.45L473.21478 317.45ZM476.19916 317.45L476.19916 311.23126L477.15228 311.23126L477.15228 312.16876Q477.51166 311.5125 477.80853 311.3094Q478.12103 311.09064 478.49603 311.09064Q479.02728 311.09064 479.57416 311.41876L479.21478 312.40314Q478.82416 312.16876 478.44916 312.16876Q478.08978 312.16876 477.80853 312.3875Q477.5429 312.59064 477.43353 312.96564Q477.24603 313.52814 477.24603 314.1844L477.24603 317.45L476.19916 317.45ZM489.4804 314.4344L490.6054 314.73126Q490.24603 316.1219 489.32416 316.85626Q488.40228 317.59064 487.05853 317.59064Q485.6679 317.59064 484.7929 317.02814Q483.9179 316.46564 483.46478 315.40314Q483.01166 314.325 483.01166 313.09064Q483.01166 311.7469 483.52728 310.7469Q484.0429 309.7469 484.9804 309.23126Q485.93353 308.71564 487.07416 308.71564Q488.3554 308.71564 489.2304 309.3719Q490.12103 310.02814 490.46478 311.21564L489.33978 311.48126Q489.0429 310.54376 488.46478 310.1219Q487.90228 309.6844 487.0429 309.6844Q486.05853 309.6844 485.38666 310.16876Q484.7304 310.6375 484.44916 311.4344Q484.18353 312.23126 484.18353 313.09064Q484.18353 314.1844 484.49603 314.9969Q484.82416 315.8094 485.49603 316.21564Q486.1679 316.6219 486.96478 316.6219Q487.9179 316.6219 488.57416 316.075Q489.24603 315.52814 489.4804 314.4344ZM496.2929 317.45L496.2929 316.52814Q495.55853 317.59064 494.30853 317.59064Q493.76166 317.59064 493.27728 317.3875Q492.80853 317.16876 492.57416 316.85626Q492.33978 316.52814 492.24603 316.0594Q492.18353 315.7625 492.18353 315.075L492.18353 311.23126L493.24603 311.23126L493.24603 314.6844Q493.24603 315.4969 493.30853 315.79376Q493.40228 316.2 493.71478 316.45Q494.0429 316.6844 494.52728 316.6844Q494.99603 316.6844 495.40228 316.45Q495.82416 316.2 495.99603 315.77814Q496.18353 315.35626 496.18353 314.5594L496.18353 311.23126L497.2304 311.23126L497.2304 317.45L496.2929 317.45ZM499.19916 317.45L499.19916 311.23126L500.15228 311.23126L500.15228 312.16876Q500.51166 311.5125 500.80853 311.3094Q501.12103 311.09064 501.49603 311.09064Q502.02728 311.09064 502.57416 311.41876L502.21478 312.40314Q501.82416 312.16876 501.44916 312.16876Q501.08978 312.16876 500.80853 312.3875Q500.5429 312.59064 500.43353 312.96564Q500.24603 313.52814 500.24603 314.1844L500.24603 317.45L499.19916 317.45ZM502.7929 315.59064L503.82416 315.4344Q503.9179 316.0594 504.30853 316.3875Q504.71478 316.71564 505.44916 316.71564Q506.1679 316.71564 506.51166 316.4344Q506.87103 316.1375 506.87103 315.73126Q506.87103 315.3719 506.55853 315.16876Q506.33978 315.02814 505.4804 314.8094Q504.32416 314.5125 503.87103 314.3094Q503.43353 314.09064 503.19916 313.71564Q502.96478 313.34064 502.96478 312.8719Q502.96478 312.46564 503.15228 312.10626Q503.33978 311.7469 503.6679 311.5125Q503.9179 311.34064 504.33978 311.21564Q504.76166 311.09064 505.26166 311.09064Q505.9804 311.09064 506.52728 311.3094Q507.08978 311.5125 507.3554 311.8719Q507.62103 312.23126 507.71478 312.825L506.68353 312.96564Q506.62103 312.4969 506.27728 312.23126Q505.94916 311.95 505.32416 311.95Q504.6054 311.95 504.2929 312.2Q503.9804 312.4344 503.9804 312.7625Q503.9804 312.96564 504.1054 313.1219Q504.24603 313.29376 504.51166 313.40314Q504.6679 313.46564 505.44916 313.66876Q506.57416 313.98126 507.01166 314.16876Q507.44916 314.35626 507.69916 314.71564Q507.94916 315.075 507.94916 315.6219Q507.94916 316.15314 507.63666 316.6219Q507.33978 317.075 506.76166 317.34064Q506.18353 317.59064 505.44916 317.59064Q504.2304 317.59064 503.58978 317.09064Q502.96478 316.575 502.7929 315.59064ZM509.82416 314.34064Q509.82416 312.60626 510.77728 311.77814Q511.57416 311.09064 512.7304 311.09064Q514.01166 311.09064 514.82416 311.9344Q515.6523 312.7625 515.6523 314.2469Q515.6523 315.45 515.2929 316.1375Q514.93353 316.825 514.2304 317.21564Q513.5429 317.59064 512.7304 317.59064Q511.43353 317.59064 510.62103 316.7625Q509.82416 315.91876 509.82416 314.34064ZM510.90228 314.34064Q510.90228 315.52814 511.4179 316.1219Q511.94916 316.71564 512.7304 316.71564Q513.5273 316.71564 514.0429 316.1219Q514.55853 315.52814 514.55853 314.3094Q514.55853 313.15314 514.0273 312.5594Q513.51166 311.96564 512.7304 311.96564Q511.94916 311.96564 511.4179 312.5594Q510.90228 313.1375 510.90228 314.34064Z" fill-rule="nonzero"/><path fill="#000000" d="M29.159374 32.284374L31.971874 33.175Q31.33125 35.51875 29.83125 36.659374Q28.33125 37.8 26.01875 37.8Q23.175 37.8 21.33125 35.846874Q19.503124 33.89375 19.503124 30.51875Q19.503124 26.940624 21.346874 24.971874Q23.190624 22.9875 26.190624 22.9875Q28.83125 22.9875 30.471874 24.534374Q31.440624 25.45625 31.925 27.175L29.065624 27.8625Q28.815624 26.753124 28.003124 26.1125Q27.20625 25.45625 26.05 25.45625Q24.45625 25.45625 23.45625 26.596874Q22.471874 27.7375 22.471874 30.3Q22.471874 33.01875 23.440624 34.175Q24.425 35.315624 25.9875 35.315624Q27.14375 35.315624 27.971874 34.596874Q28.8 33.8625 29.159374 32.284374ZM36.034374 30.346874L33.55 29.89375Q33.971874 28.39375 34.9875 27.675Q36.01875 26.940624 38.034374 26.940624Q39.878124 26.940624 40.76875 27.378124Q41.675 27.815624 42.034374 28.4875Q42.409374 29.14375 42.409374 30.940624L42.378124 34.14375Q42.378124 35.503124 42.503124 36.159374Q42.64375 36.8 43.003124 37.55L40.284374 37.55Q40.175 37.26875 40.01875 36.7375Q39.95625 36.4875 39.925 36.409374Q39.221874 37.096874 38.409374 37.440624Q37.6125 37.784374 36.70625 37.784374Q35.1125 37.784374 34.190624 36.925Q33.26875 36.05 33.26875 34.721874Q33.26875 33.83125 33.675 33.14375Q34.096874 32.45625 34.846874 32.096874Q35.6125 31.721874 37.05 31.45625Q38.971874 31.096874 39.70625 30.784374L39.70625 30.503124Q39.70625 29.721874 39.315624 29.39375Q38.925 29.05 37.846874 29.05Q37.1125 29.05 36.690624 29.33125Q36.284374 29.6125 36.034374 30.346874ZM39.70625 32.565624Q39.175 32.7375 38.034374 32.9875Q36.89375 33.2375 36.55 33.471874Q36.003124 33.846874 36.003124 34.440624Q36.003124 35.003124 36.425 35.425Q36.8625 35.846874 37.534374 35.846874Q38.26875 35.846874 38.940624 35.3625Q39.440624 34.9875 39.596874 34.45625Q39.70625 34.096874 39.70625 33.1125L39.70625 32.565624ZM44.01875 34.596874L46.76875 34.175Q46.95625 34.971874 47.4875 35.39375Q48.01875 35.8 48.9875 35.8Q50.05 35.8 50.596874 35.409374Q50.95625 35.14375 50.95625 34.675Q50.95625 34.3625 50.753124 34.159374Q50.55 33.971874 49.846874 33.8Q46.51875 33.065624 45.628124 32.45625Q44.39375 31.628124 44.39375 30.128124Q44.39375 28.784374 45.45625 27.8625Q46.534374 26.940624 48.76875 26.940624Q50.89375 26.940624 51.925 27.64375Q52.971874 28.33125 53.3625 29.690624L50.76875 30.159374Q50.596874 29.565624 50.128124 29.2375Q49.675 28.909374 48.815624 28.909374Q47.7375 28.909374 47.26875 29.221874Q46.95625 29.440624 46.95625 29.76875Q46.95625 30.065624 47.221874 30.26875Q47.596874 30.55 49.784374 31.05Q51.971874 31.55 52.846874 32.26875Q53.70625 33.003124 53.70625 34.3Q53.70625 35.7375 52.51875 36.76875Q51.33125 37.784374 48.9875 37.784374Q46.878124 37.784374 45.628124 36.925Q44.39375 36.065624 44.01875 34.596874ZM55.346874 32.221874Q55.346874 30.846874 56.01875 29.565624Q56.70625 28.284374 57.940624 27.6125Q59.175 26.940624 60.690624 26.940624Q63.05 26.940624 64.55 28.471874Q66.05 30.003124 66.05 32.33125Q66.05 34.690624 64.53438 36.2375Q63.01875 37.784374 60.70625 37.784374Q59.284374 37.784374 57.9875 37.14375Q56.70625 36.4875 56.01875 35.253124Q55.346874 34.003124 55.346874 32.221874ZM58.159374 32.3625Q58.159374 33.909374 58.89375 34.7375Q59.628124 35.55 60.70625 35.55Q61.784374 35.55 62.503124 34.7375Q63.2375 33.909374 63.2375 32.346874Q63.2375 30.815624 62.503124 30.003124Q61.784374 29.175 60.70625 29.175Q59.628124 29.175 58.89375 30.003124Q58.159374 30.815624 58.159374 32.3625ZM67.01875 34.596874L69.76875 34.175Q69.95625 34.971874 70.4875 35.39375Q71.01875 35.8 71.9875 35.8Q73.05 35.8 73.59688 35.409374Q73.95625 35.14375 73.95625 34.675Q73.95625 34.3625 73.75313 34.159374Q73.55 33.971874 72.84688 33.8Q69.51875 33.065624 68.62813 32.45625Q67.39375 31.628124 67.39375 30.128124Q67.39375 28.784374 68.45625 27.8625Q69.53438 26.940624 71.76875 26.940624Q73.89375 26.940624 74.925 27.64375Q75.97188 28.33125 76.3625 29.690624L73.76875 30.159374Q73.59688 29.565624 73.12813 29.2375Q72.675 28.909374 71.81563 28.909374Q70.7375 28.909374 70.26875 29.221874Q69.95625 29.440624 69.95625 29.76875Q69.95625 30.065624 70.22188 30.26875Q70.59688 30.55 72.78438 31.05Q74.97188 31.55 75.84688 32.26875Q76.70625 33.003124 76.70625 34.3Q76.70625 35.7375 75.51875 36.76875Q74.33125 37.784374 71.9875 37.784374Q69.87813 37.784374 68.62813 36.925Q67.39375 36.065624 67.01875 34.596874ZM94.50313 37.55L91.95625 37.55L91.95625 36.01875Q91.31563 36.909374 90.44063 37.346874Q89.58125 37.784374 88.70625 37.784374Q86.925 37.784374 85.64375 36.346874Q84.37813 34.909374 84.37813 32.33125Q84.37813 29.690624 85.6125 28.315624Q86.84688 26.940624 88.75313 26.940624Q90.4875 26.940624 91.75313 28.39375L91.75313 23.2375L94.50313 23.2375L94.50313 37.55ZM87.175 32.14375Q87.175 33.8 87.62813 34.534374Q88.3 35.6125 89.4875 35.6125Q90.44063 35.6125 91.09688 34.815624Q91.76875 34.003124 91.76875 32.409374Q91.76875 30.6125 91.1125 29.83125Q90.47188 29.05 89.47188 29.05Q88.4875 29.05 87.83125 29.83125Q87.175 30.596874 87.175 32.14375ZM102.9875 34.253124L105.72188 34.70625Q105.20625 36.20625 104.06563 37.003124Q102.925 37.784374 101.22188 37.784374Q98.50313 37.784374 97.20625 36.01875Q96.19063 34.596874 96.19063 32.440624Q96.19063 29.8625 97.53438 28.409374Q98.87813 26.940624 100.94063 26.940624Q103.25313 26.940624 104.58125 28.471874Q105.925 30.003124 105.87813 33.159374L99.00313 33.159374Q99.03438 34.378124 99.65938 35.065624Q100.3 35.7375 101.2375 35.7375Q101.89375 35.7375 102.33125 35.39375Q102.76875 35.034374 102.9875 34.253124ZM103.14375 31.471874Q103.1125 30.284374 102.51875 29.675Q101.94063 29.05 101.1125 29.05Q100.20625 29.05 99.62813 29.690624Q99.03438 30.346874 99.05 31.471874L103.14375 31.471874ZM117.22188 37.55L117.22188 25.659374L112.9875 25.659374L112.9875 23.2375L124.3625 23.2375L124.3625 25.659374L120.1125 25.659374L120.1125 37.55L117.22188 37.55ZM132.9875 34.253124L135.72188 34.70625Q135.20625 36.20625 134.06563 37.003124Q132.925 37.784374 131.22188 37.784374Q128.50313 37.784374 127.20625 36.01875Q126.19063 34.596874 126.19063 32.440624Q126.19063 29.8625 127.53438 28.409374Q128.87813 26.940624 130.94063 26.940624Q133.25313 26.940624 134.58125 28.471874Q135.925 30.003124 135.87813 33.159374L129.00313 33.159374Q129.03438 34.378124 129.65938 35.065624Q130.3 35.7375 131.2375 35.7375Q131.89375 35.7375 132.33125 35.39375Q132.76875 35.034374 132.9875 34.253124ZM133.14375 31.471874Q133.1125 30.284374 132.51875 29.675Q131.94063 29.05 131.1125 29.05Q130.20625 29.05 129.62813 29.690624Q129.03438 30.346874 129.05 31.471874L133.14375 31.471874ZM137.01875 34.596874L139.76875 34.175Q139.95625 34.971874 140.4875 35.39375Q141.01875 35.8 141.9875 35.8Q143.05 35.8 143.59688 35.409374Q143.95625 35.14375 143.95625 34.675Q143.95625 34.3625 143.75313 34.159374Q143.55 33.971874 142.84688 33.8Q139.51875 33.065624 138.62813 32.45625Q137.39375 31.628124 137.39375 30.128124Q137.39375 28.784374 138.45625 27.8625Q139.53438 26.940624 141.76875 26.940624Q143.89375 26.940624 144.925 27.64375Q145.97188 28.33125 146.3625 29.690624L143.76875 30.159374Q143.59688 29.565624 143.12813 29.2375Q142.675 28.909374 141.81563 28.909374Q140.7375 28.909374 140.26875 29.221874Q139.95625 29.440624 139.95625 29.76875Q139.95625 30.065624 140.22188 30.26875Q140.59688 30.55 142.78438 31.05Q144.97188 31.55 145.84688 32.26875Q146.70625 33.003124 146.70625 34.3Q146.70625 35.7375 145.51875 36.76875Q144.33125 37.784374 141.9875 37.784374Q139.87813 37.784374 138.62813 36.925Q137.39375 36.065624 137.01875 34.596874ZM153.7375 27.175L153.7375 29.3625L151.8625 29.3625L151.8625 33.55Q151.8625 34.815624 151.90938 35.034374Q151.97188 35.2375 152.15938 35.378124Q152.3625 35.503124 152.62813 35.503124Q153.00313 35.503124 153.7375 35.2375L153.97188 37.378124Q153.00313 37.784374 151.8 37.784374Q151.05 37.784374 150.45625 37.534374Q149.8625 37.284374 149.58125 36.89375Q149.31563 36.4875 149.20625 35.815624Q149.1125 35.346874 149.1125 33.89375L149.1125 29.3625L147.84688 29.3625L147.84688 27.175L149.1125 27.175L149.1125 25.1125L151.8625 23.51875L151.8625 27.175L153.7375 27.175ZM161.9875 34.253124L164.72188 34.70625Q164.20625 36.20625 163.06563 37.003124Q161.925 37.784374 160.22188 37.784374Q157.50313 37.784374 156.20625 36.01875Q155.19063 34.596874 155.19063 32.440624Q155.19063 29.8625 156.53438 28.409374Q157.87813 26.940624 159.94063 26.940624Q162.25313 26.940624 163.58125 28.471874Q164.925 30.003124 164.87813 33.159374L158.00313 33.159374Q158.03438 34.378124 158.65938 35.065624Q159.3 35.7375 160.2375 35.7375Q160.89375 35.7375 161.33125 35.39375Q161.76875 35.034374 161.9875 34.253124ZM162.14375 31.471874Q162.1125 30.284374 161.51875 29.675Q160.94063 29.05 160.1125 29.05Q159.20625 29.05 158.62813 29.690624Q158.03438 30.346874 158.05 31.471874L162.14375 31.471874ZM166.01875 34.596874L168.76875 34.175Q168.95625 34.971874 169.4875 35.39375Q170.01875 35.8 170.9875 35.8Q172.05 35.8 172.59688 35.409374Q172.95625 35.14375 172.95625 34.675Q172.95625 34.3625 172.75313 34.159374Q172.55 33.971874 171.84688 33.8Q168.51875 33.065624 167.62813 32.45625Q166.39375 31.628124 166.39375 30.128124Q166.39375 28.784374 167.45625 27.8625Q168.53438 26.940624 170.76875 26.940624Q172.89375 26.940624 173.925 27.64375Q174.97188 28.33125 175.3625 29.690624L172.76875 30.159374Q172.59688 29.565624 172.12813 29.2375Q171.675 28.909374 170.81563 28.909374Q169.7375 28.909374 169.26875 29.221874Q168.95625 29.440624 168.95625 29.76875Q168.95625 30.065624 169.22188 30.26875Q169.59688 30.55 171.78438 31.05Q173.97188 31.55 174.84688 32.26875Q175.70625 33.003124 175.70625 34.3Q175.70625 35.7375 174.51875 36.76875Q173.33125 37.784374 170.9875 37.784374Q168.87813 37.784374 167.62813 36.925Q166.39375 36.065624 166.01875 34.596874ZM183.90938 27.175L186.47188 27.175L186.47188 28.70625Q186.97188 27.925 187.81563 27.440624Q188.65938 26.940624 189.70625 26.940624Q191.50313 26.940624 192.75313 28.3625Q194.01875 29.76875 194.01875 32.3Q194.01875 34.909374 192.75313 36.346874Q191.4875 37.784374 189.675 37.784374Q188.81563 37.784374 188.1125 37.440624Q187.425 37.096874 186.65938 36.26875L186.65938 41.503124L183.90938 41.503124L183.90938 27.175ZM186.62813 32.190624Q186.62813 33.940624 187.31563 34.784374Q188.00313 35.6125 189.00313 35.6125Q189.95625 35.6125 190.59688 34.846874Q191.2375 34.065624 191.2375 32.33125Q191.2375 30.690624 190.58125 29.909374Q189.925 29.1125 188.95625 29.1125Q187.95625 29.1125 187.28438 29.89375Q186.62813 30.659374 186.62813 32.190624ZM195.34688 32.221874Q195.34688 30.846874 196.01875 29.565624Q196.70625 28.284374 197.94063 27.6125Q199.175 26.940624 200.69063 26.940624Q203.05 26.940624 204.55 28.471874Q206.05 30.003124 206.05 32.33125Q206.05 34.690624 204.53438 36.2375Q203.01875 37.784374 200.70625 37.784374Q199.28438 37.784374 197.9875 37.14375Q196.70625 36.4875 196.01875 35.253124Q195.34688 34.003124 195.34688 32.221874ZM198.15938 32.3625Q198.15938 33.909374 198.89375 34.7375Q199.62813 35.55 200.70625 35.55Q201.78438 35.55 202.50313 34.7375Q203.2375 33.909374 203.2375 32.346874Q203.2375 30.815624 202.50313 30.003124Q201.78438 29.175 200.70625 29.175Q199.62813 29.175 198.89375 30.003124Q198.15938 30.815624 198.15938 32.3625ZM210.6125 37.55L207.8625 37.55L207.8625 27.175L210.425 27.175L210.425 28.659374Q211.06563 27.6125 211.58125 27.284374Q212.1125 26.940624 212.78438 26.940624Q213.72188 26.940624 214.58125 27.45625L213.7375 29.846874Q213.05 29.409374 212.45625 29.409374Q211.87813 29.409374 211.47188 29.721874Q211.06563 30.034374 210.83125 30.878124Q210.6125 31.70625 210.6125 34.346874L210.6125 37.55ZM231.15938 32.284374L233.97188 33.175Q233.33125 35.51875 231.83125 36.659374Q230.33125 37.8 228.01875 37.8Q225.175 37.8 223.33125 35.846874Q221.50313 33.89375 221.50313 30.51875Q221.50313 26.940624 223.34688 24.971874Q225.19063 22.9875 228.19063 22.9875Q230.83125 22.9875 232.47188 24.534374Q233.44063 25.45625 233.925 27.175L231.06563 27.8625Q230.81563 26.753124 230.00313 26.1125Q229.20625 25.45625 228.05 25.45625Q226.45625 25.45625 225.45625 26.596874Q224.47188 27.7375 224.47188 30.3Q224.47188 33.01875 225.44063 34.175Q226.425 35.315624 227.9875 35.315624Q229.14375 35.315624 229.97188 34.596874Q230.8 33.8625 231.15938 32.284374ZM241.9875 34.253124L244.72188 34.70625Q244.20625 36.20625 243.06563 37.003124Q241.925 37.784374 240.22188 37.784374Q237.50313 37.784374 236.20625 36.01875Q235.19063 34.596874 235.19063 32.440624Q235.19063 29.8625 236.53438 28.409374Q237.87813 26.940624 239.94063 26.940624Q242.25313 26.940624 243.58125 28.471874Q244.925 30.003124 244.87813 33.159374L238.00313 33.159374Q238.03438 34.378124 238.65938 35.065624Q239.3 35.7375 240.2375 35.7375Q240.89375 35.7375 241.33125 35.39375Q241.76875 35.034374 241.9875 34.253124ZM242.14375 31.471874Q242.1125 30.284374 241.51875 29.675Q240.94063 29.05 240.1125 29.05Q239.20625 29.05 238.62813 29.690624Q238.03438 30.346874 238.05 31.471874L242.14375 31.471874ZM256.425 37.55L253.675 37.55L253.675 32.253124Q253.675 30.58125 253.50313 30.096874Q253.33125 29.596874 252.925 29.33125Q252.53438 29.05 251.97188 29.05Q251.26875 29.05 250.69063 29.440624Q250.12813 29.83125 249.90938 30.471874Q249.70625 31.1125 249.70625 32.846874L249.70625 37.55L246.97188 37.55L246.97188 27.175L249.51875 27.175L249.51875 28.70625Q250.87813 26.940624 252.94063 26.940624Q253.84688 26.940624 254.59688 27.26875Q255.34688 27.596874 255.72188 28.1125Q256.1125 28.6125 256.26874 29.26875Q256.425 29.909374 256.425 31.096874L256.425 37.55ZM261.03436 30.346874L258.55 29.89375Q258.97186 28.39375 259.9875 27.675Q261.01874 26.940624 263.03436 26.940624Q264.8781 26.940624 265.76874 27.378124Q266.675 27.815624 267.03436 28.4875Q267.40936 29.14375 267.40936 30.940624L267.3781 34.14375Q267.3781 35.503124 267.5031 36.159374Q267.64374 36.8 268.0031 37.55L265.28436 37.55Q265.175 37.26875 265.01874 36.7375Q264.95624 36.4875 264.925 36.409374Q264.22186 37.096874 263.40936 37.440624Q262.6125 37.784374 261.70624 37.784374Q260.1125 37.784374 259.1906 36.925Q258.26874 36.05 258.26874 34.721874Q258.26874 33.83125 258.675 33.14375Q259.09686 32.45625 259.84686 32.096874Q260.6125 31.721874 262.05 31.45625Q263.97186 31.096874 264.70624 30.784374L264.70624 30.503124Q264.70624 29.721874 264.3156 29.39375Q263.925 29.05 262.84686 29.05Q262.1125 29.05 261.6906 29.33125Q261.28436 29.6125 261.03436 30.346874ZM264.70624 32.565624Q264.175 32.7375 263.03436 32.9875Q261.89374 33.2375 261.55 33.471874Q261.0031 33.846874 261.0031 34.440624Q261.0031 35.003124 261.425 35.425Q261.8625 35.846874 262.53436 35.846874Q263.26874 35.846874 263.9406 35.3625Q264.4406 34.9875 264.59686 34.45625Q264.70624 34.096874 264.70624 33.1125L264.70624 32.565624ZM261.7375 25.909374L263.08124 22.9875L266.15936 22.9875L263.47186 25.909374L261.7375 25.909374ZM272.6125 37.55L269.8625 37.55L269.8625 27.175L272.425 27.175L272.425 28.659374Q273.0656 27.6125 273.58124 27.284374Q274.1125 26.940624 274.78436 26.940624Q275.72186 26.940624 276.58124 27.45625L275.7375 29.846874Q275.05 29.409374 274.45624 29.409374Q273.8781 29.409374 273.47186 29.721874Q273.0656 30.034374 272.83124 30.878124Q272.6125 31.70625 272.6125 34.346874L272.6125 37.55ZM277.9875 25.76875L277.9875 23.2375L280.7375 23.2375L280.7375 25.76875L277.9875 25.76875ZM277.9875 37.55L277.9875 27.175L280.7375 27.175L280.7375 37.55L277.9875 37.55ZM282.34686 32.221874Q282.34686 30.846874 283.01874 29.565624Q283.70624 28.284374 284.9406 27.6125Q286.175 26.940624 287.6906 26.940624Q290.05 26.940624 291.55 28.471874Q293.05 30.003124 293.05 32.33125Q293.05 34.690624 291.53436 36.2375Q290.01874 37.784374 287.70624 37.784374Q286.28436 37.784374 284.9875 37.14375Q283.70624 36.4875 283.01874 35.253124Q282.34686 34.003124 282.34686 32.221874ZM285.15936 32.3625Q285.15936 33.909374 285.89374 34.7375Q286.6281 35.55 287.70624 35.55Q288.78436 35.55 289.5031 34.7375Q290.2375 33.909374 290.2375 32.346874Q290.2375 30.815624 289.5031 30.003124Q288.78436 29.175 287.70624 29.175Q286.6281 29.175 285.89374 30.003124Q285.15936 30.815624 285.15936 32.3625ZM310.5031 37.55L307.95624 37.55L307.95624 36.01875Q307.3156 36.909374 306.4406 37.346874Q305.58124 37.784374 304.70624 37.784374Q302.925 37.784374 301.64374 36.346874Q300.3781 34.909374 300.3781 32.33125Q300.3781 29.690624 301.6125 28.315624Q302.84686 26.940624 304.7531 26.940624Q306.4875 26.940624 307.7531 28.39375L307.7531 23.2375L310.5031 23.2375L310.5031 37.55ZM303.175 32.14375Q303.175 33.8 303.6281 34.534374Q304.3 35.6125 305.4875 35.6125Q306.4406 35.6125 307.09686 34.815624Q307.76874 34.003124 307.76874 32.409374Q307.76874 30.6125 307.1125 29.83125Q306.47186 29.05 305.47186 29.05Q304.4875 29.05 303.83124 29.83125Q303.175 30.596874 303.175 32.14375ZM318.9875 34.253124L321.72186 34.70625Q321.20624 36.20625 320.0656 37.003124Q318.925 37.784374 317.22186 37.784374Q314.5031 37.784374 313.20624 36.01875Q312.1906 34.596874 312.1906 32.440624Q312.1906 29.8625 313.53436 28.409374Q314.8781 26.940624 316.9406 26.940624Q319.2531 26.940624 320.58124 28.471874Q321.925 30.003124 321.8781 33.159374L315.0031 33.159374Q315.03436 34.378124 315.65936 35.065624Q316.3 35.7375 317.2375 35.7375Q317.89374 35.7375 318.33124 35.39375Q318.76874 35.034374 318.9875 34.253124ZM319.14374 31.471874Q319.1125 30.284374 318.51874 29.675Q317.9406 29.05 317.1125 29.05Q316.20624 29.05 315.6281 29.690624Q315.03436 30.346874 315.05 31.471874L319.14374 31.471874ZM333.22186 37.55L333.22186 25.659374L328.9875 25.659374L328.9875 23.2375L340.3625 23.2375L340.3625 25.659374L336.1125 25.659374L336.1125 37.55L333.22186 37.55ZM348.9875 34.253124L351.72186 34.70625Q351.20624 36.20625 350.0656 37.003124Q348.925 37.784374 347.22186 37.784374Q344.5031 37.784374 343.20624 36.01875Q342.1906 34.596874 342.1906 32.440624Q342.1906 29.8625 343.53436 28.409374Q344.8781 26.940624 346.9406 26.940624Q349.2531 26.940624 350.58124 28.471874Q351.925 30.003124 351.8781 33.159374L345.0031 33.159374Q345.03436 34.378124 345.65936 35.065624Q346.3 35.7375 347.2375 35.7375Q347.89374 35.7375 348.33124 35.39375Q348.76874 35.034374 348.9875 34.253124ZM349.14374 31.471874Q349.1125 30.284374 348.51874 29.675Q347.9406 29.05 347.1125 29.05Q346.20624 29.05 345.6281 29.690624Q345.03436 30.346874 345.05 31.471874L349.14374 31.471874ZM353.01874 34.596874L355.76874 34.175Q355.95624 34.971874 356.4875 35.39375Q357.01874 35.8 357.9875 35.8Q359.05 35.8 359.59686 35.409374Q359.95624 35.14375 359.95624 34.675Q359.95624 34.3625 359.7531 34.159374Q359.55 33.971874 358.84686 33.8Q355.51874 33.065624 354.6281 32.45625Q353.39374 31.628124 353.39374 30.128124Q353.39374 28.784374 354.45624 27.8625Q355.53436 26.940624 357.76874 26.940624Q359.89374 26.940624 360.925 27.64375Q361.97186 28.33125 362.3625 29.690624L359.76874 30.159374Q359.59686 29.565624 359.1281 29.2375Q358.675 28.909374 357.8156 28.909374Q356.7375 28.909374 356.26874 29.221874Q355.95624 29.440624 355.95624 29.76875Q355.95624 30.065624 356.22186 30.26875Q356.59686 30.55 358.78436 31.05Q360.97186 31.55 361.84686 32.26875Q362.70624 33.003124 362.70624 34.3Q362.70624 35.7375 361.51874 36.76875Q360.33124 37.784374 357.9875 37.784374Q355.8781 37.784374 354.6281 36.925Q353.39374 36.065624 353.01874 34.596874ZM369.7375 27.175L369.7375 29.3625L367.8625 29.3625L367.8625 33.55Q367.8625 34.815624 367.90936 35.034374Q367.97186 35.2375 368.15936 35.378124Q368.3625 35.503124 368.6281 35.503124Q369.0031 35.503124 369.7375 35.2375L369.97186 37.378124Q369.0031 37.784374 367.8 37.784374Q367.05 37.784374 366.45624 37.534374Q365.8625 37.284374 365.58124 36.89375Q365.3156 36.4875 365.20624 35.815624Q365.1125 35.346874 365.1125 33.89375L365.1125 29.3625L363.84686 29.3625L363.84686 27.175L365.1125 27.175L365.1125 25.1125L367.8625 23.51875L367.8625 27.175L369.7375 27.175ZM377.9875 34.253124L380.72186 34.70625Q380.20624 36.20625 379.0656 37.003124Q377.925 37.784374 376.22186 37.784374Q373.5031 37.784374 372.20624 36.01875Q371.1906 34.596874 371.1906 32.440624Q371.1906 29.8625 372.53436 28.409374Q373.8781 26.940624 375.9406 26.940624Q378.2531 26.940624 379.58124 28.471874Q380.925 30.003124 380.8781 33.159374L374.0031 33.159374Q374.03436 34.378124 374.65936 35.065624Q375.3 35.7375 376.2375 35.7375Q376.89374 35.7375 377.33124 35.39375Q377.76874 35.034374 377.9875 34.253124ZM378.14374 31.471874Q378.1125 30.284374 377.51874 29.675Q376.9406 29.05 376.1125 29.05Q375.20624 29.05 374.6281 29.690624Q374.03436 30.346874 374.05 31.471874L378.14374 31.471874Z" fill-rule="nonzero"/></svg>