<svg version="1.1" viewBox="0.0 0.0 675.0 418.0" fill="none" stroke="none" stroke-linecap="square" stroke-miterlimit="10" width="675" height="418" xmlns:xlink="http://www.w3.org/1999/xlink" xmlns="http://www.w3.org/2000/svg"><path fill="#ffffff" d="M0 0L675.0 0L675.0 418.0L0 418.0L0 0Z" fill-rule="nonzero"/><path fill="#b30000" d="M502.23038 214.03159C502.23038 228.40024 497.6987 242.59169 488.9589 255.59283L488.9589 234.67593C497.6987 221.67479 502.23038 207.48334 502.23038 193.11469Z" fill-rule="nonzero"/><path fill="#ff0000" d="M362.78436 95.50249C410.52258 95.50249 454.9431 112.59677 480.52252 140.81145C506.10193 169.02614 509.28482 204.43958 488.9589 234.67593L362.78436 193.11469Z" fill-rule="nonzero"/><path fill="#f1c232" d="M267.32703 121.95845C293.18182 104.96295 327.3167 95.50249 362.78436 95.50249L362.78436 193.11469Z" fill-rule="nonzero"/><path fill="#b36b00" d="M311.45087 304.78912C258.26868 290.04968 223.33838 254.07083 223.33838 214.03159L223.33838 193.11469C223.33838 233.15393 258.26868 269.13278 311.45087 283.87222Z" fill-rule="nonzero"/><path fill="#ff9900" d="M311.45087 283.87222C267.06503 271.57068 234.75359 244.23022 225.80835 211.4054C216.8631 178.58055 232.52737 144.83379 267.32703 121.95845L362.78436 193.11469Z" fill-rule="nonzero"/><path fill="#345ea2" d="M488.9589 255.59283C457.61554 302.21848 379.89554 323.7585 311.45087 304.78912L311.45087 283.87222C379.89554 302.8416 457.61554 281.30157 488.9589 234.67593Z" fill-rule="nonzero"/><path fill="#4a86e8" d="M488.9589 234.67593C457.61554 281.30157 379.89554 302.8416 311.45087 283.87222L362.78436 193.11469Z" fill-rule="nonzero"/><path fill="#ffffff" d="M450.93396 152.77202Q450.18396 152.45952 449.8402 151.91264Q449.5121 151.35014 449.5121 150.6939Q449.5121 149.58452 450.29333 148.85014Q451.0746 148.11577 452.5121 148.11577Q453.93396 148.11577 454.73083 148.85014Q455.5277 149.58452 455.5277 150.6939Q455.5277 151.39702 455.1527 151.9439Q454.79333 152.49077 454.1371 152.77202Q454.98083 153.10014 455.4027 153.7564Q455.8402 154.39702 455.8402 155.22514Q455.8402 156.61577 454.9496 157.49077Q454.0746 158.35014 452.60583 158.35014Q451.23083 158.35014 450.3246 157.6314Q449.24646 156.78764 449.24646 155.3189Q449.24646 154.5064 449.6527 153.83452Q450.05896 153.14702 450.93396 152.77202ZM451.3246 150.83452Q451.3246 151.41264 451.6371 151.74077Q451.9652 152.05327 452.5121 152.05327Q453.05896 152.05327 453.3871 151.72514Q453.7152 151.39702 453.7152 150.83452Q453.7152 150.28764 453.3871 149.97514Q453.05896 149.64702 452.5277 149.64702Q451.98083 149.64702 451.6527 149.97514Q451.3246 150.30327 451.3246 150.83452ZM451.1527 155.1314Q451.1527 155.92827 451.55896 156.36577Q451.9652 156.80327 452.5746 156.80327Q453.16833 156.80327 453.54333 156.3814Q453.93396 155.95952 453.93396 155.14702Q453.93396 154.4439 453.54333 154.02202Q453.1527 153.58452 452.54333 153.58452Q451.8402 153.58452 451.49646 154.08452Q451.1527 154.5689 451.1527 155.1314Z" fill-rule="nonzero"/><path fill="#ffffff" d="M404.03046 257.9778L402.17108 258.18094Q402.09296 257.6028 401.79608 257.3372Q401.51483 257.05594 401.0617 257.05594Q400.45233 257.05594 400.03046 257.6028Q399.60858 258.1497 399.4992 259.88406Q400.21796 259.0247 401.29608 259.0247Q402.4992 259.0247 403.34296 259.94656Q404.20233 260.86844 404.20233 262.30594Q404.20233 263.8528 403.29608 264.7903Q402.40546 265.7122 400.98358 265.7122Q399.46796 265.7122 398.48358 264.5403Q397.51483 263.3528 397.51483 260.6653Q397.51483 257.9153 398.53046 256.69656Q399.54608 255.47781 401.1867 255.47781Q402.32733 255.47781 403.0617 256.11844Q403.8117 256.75906 404.03046 257.9778ZM399.67108 262.1653Q399.67108 263.1028 400.09296 263.61844Q400.53046 264.11844 401.07733 264.11844Q401.6242 264.11844 401.96796 263.7122Q402.32733 263.2903 402.32733 262.3372Q402.32733 261.3528 401.9367 260.8997Q401.5617 260.44656 400.98358 260.44656Q400.4367 260.44656 400.04608 260.88406Q399.67108 261.32156 399.67108 262.1653Z" fill-rule="nonzero"/><path fill="#ffffff" d="M249.81964 207.55917Q249.06964 207.24667 248.72589 206.6998Q248.39777 206.1373 248.39777 205.48105Q248.39777 204.37167 249.17902 203.6373Q249.96027 202.90292 251.39777 202.90292Q252.81964 202.90292 253.61652 203.6373Q254.41339 204.37167 254.41339 205.48105Q254.41339 206.18417 254.03839 206.73105Q253.67902 207.27792 253.02277 207.55917Q253.86652 207.8873 254.28839 208.54355Q254.72589 209.18417 254.72589 210.0123Q254.72589 211.40292 253.83527 212.27792Q252.96027 213.1373 251.49152 213.1373Q250.11652 213.1373 249.21027 212.41855Q248.13214 211.5748 248.13214 210.10605Q248.13214 209.29355 248.53839 208.62167Q248.94464 207.93417 249.81964 207.55917ZM250.21027 205.62167Q250.21027 206.1998 250.52277 206.52792Q250.85089 206.84042 251.39777 206.84042Q251.94464 206.84042 252.27277 206.5123Q252.60089 206.18417 252.60089 205.62167Q252.60089 205.0748 252.27277 204.7623Q251.94464 204.43417 251.41339 204.43417Q250.86652 204.43417 250.53839 204.7623Q250.21027 205.09042 250.21027 205.62167ZM250.03839 209.91855Q250.03839 210.71542 250.44464 211.15292Q250.85089 211.59042 251.46027 211.59042Q252.05402 211.59042 252.42902 211.16855Q252.81964 210.74667 252.81964 209.93417Q252.81964 209.23105 252.42902 208.80917Q252.03839 208.37167 251.42902 208.37167Q250.72589 208.37167 250.38214 208.87167Q250.03839 209.35605 250.03839 209.91855Z" fill-rule="nonzero"/><path fill="#ffffff" d="M321.17892 128.0328L323.0383 127.79843Q323.11642 128.51718 323.50705 128.89218Q323.89767 129.26718 324.46017 129.26718Q325.05392 129.26718 325.46017 128.81406Q325.86642 128.36093 325.86642 127.59531Q325.86642 126.87656 325.4758 126.45468Q325.08517 126.03281 324.52267 126.03281Q324.14767 126.03281 323.64767 126.17343L323.8508 124.61093Q324.63205 124.62656 325.0383 124.26718Q325.46017 123.90781 325.46017 123.31406Q325.46017 122.81406 325.14767 122.51718Q324.8508 122.20468 324.3508 122.20468Q323.86642 122.20468 323.50705 122.54843Q323.1633 122.89218 323.08517 123.54843L321.31955 123.25156Q321.50705 122.32968 321.86642 121.79843Q322.24142 121.25156 322.9133 120.93906Q323.58517 120.62656 324.4133 120.62656Q325.81955 120.62656 326.67892 121.53281Q327.38205 122.26718 327.38205 123.18906Q327.38205 124.51718 325.94455 125.29843Q326.80392 125.48593 327.31955 126.12656Q327.83517 126.76718 327.83517 127.67343Q327.83517 129.00156 326.86642 129.93906Q325.89767 130.86093 324.4758 130.86093Q323.11642 130.86093 322.21017 130.07968Q321.31955 129.29843 321.17892 128.0328Z" fill-rule="nonzero"/><path fill="#313131" d="M72.328125 102.395035L72.328125 93.801285L74.046875 93.801285L76.078125 99.87941Q76.359375 100.738785 76.484375 101.16066Q76.625 100.69191 76.9375 99.78566L79.0 93.801285L80.53125 93.801285L80.53125 102.395035L79.4375 102.395035L79.4375 95.207535L76.9375 102.395035L75.90625 102.395035L73.421875 95.082535L73.421875 102.395035L72.328125 102.395035ZM80.84375 99.28566Q80.84375 97.551285 81.796875 96.72316Q82.59375 96.03566 83.75 96.03566Q85.03125 96.03566 85.84375 96.87941Q86.671875 97.707535 86.671875 99.19191Q86.671875 100.395035 86.3125 101.082535Q85.953125 101.770035 85.25 102.16066Q84.5625 102.53566 83.75 102.53566Q82.453125 102.53566 81.640625 101.707535Q80.84375 100.863785 80.84375 99.28566ZM81.921875 99.28566Q81.921875 100.47316 82.4375 101.06691Q82.96875 101.66066 83.75 101.66066Q84.546875 101.66066 85.0625 101.06691Q85.578125 100.47316 85.578125 99.25441Q85.578125 98.09816 85.046875 97.50441Q84.53125 96.91066 83.75 96.91066Q82.96875 96.91066 82.4375 97.50441Q81.921875 98.082535 81.921875 99.28566ZM92.265625 102.395035L92.265625 101.613785Q91.671875 102.53566 90.53125 102.53566Q89.78125 102.53566 89.15625 102.12941Q88.53125 101.707535 88.1875 100.97316Q87.84375 100.238785 87.84375 99.28566Q87.84375 98.363785 88.15625 97.59816Q88.46875 96.832535 89.09375 96.44191Q89.71875 96.03566 90.484375 96.03566Q91.046875 96.03566 91.484375 96.270035Q91.921875 96.50441 92.203125 96.87941L92.203125 93.801285L93.25 93.801285L93.25 102.395035L92.265625 102.395035ZM88.9375 99.28566Q88.9375 100.488785 89.4375 101.082535Q89.9375 101.66066 90.625 101.66066Q91.3125 101.66066 91.796875 101.09816Q92.28125 100.53566 92.28125 99.37941Q92.28125 98.09816 91.78125 97.50441Q91.296875 96.91066 90.578125 96.91066Q89.875 96.91066 89.40625 97.488785Q88.9375 98.051285 88.9375 99.28566ZM99.484375 100.395035L100.578125 100.520035Q100.328125 101.47316 99.625 102.00441Q98.921875 102.53566 97.84375 102.53566Q96.484375 102.53566 95.671875 101.69191Q94.875 100.84816 94.875 99.332535Q94.875 97.770035 95.6875 96.91066Q96.5 96.03566 97.78125 96.03566Q99.03125 96.03566 99.8125 96.87941Q100.609375 97.72316 100.609375 99.270035Q100.609375 99.363785 100.609375 99.551285L95.96875 99.551285Q96.03125 100.582535 96.546875 101.12941Q97.0625 101.66066 97.84375 101.66066Q98.421875 101.66066 98.828125 101.363785Q99.25 101.051285 99.484375 100.395035ZM96.03125 98.69191L99.5 98.69191Q99.4375 97.895035 99.109375 97.50441Q98.59375 96.895035 97.796875 96.895035Q97.0625 96.895035 96.5625 97.37941Q96.078125 97.863785 96.03125 98.69191ZM102.21875 102.395035L102.21875 96.176285L103.171875 96.176285L103.171875 97.113785Q103.53125 96.457535 103.828125 96.25441Q104.140625 96.03566 104.515625 96.03566Q105.046875 96.03566 105.59375 96.363785L105.234375 97.34816Q104.84375 97.113785 104.46875 97.113785Q104.109375 97.113785 103.828125 97.332535Q103.5625 97.53566 103.453125 97.91066Q103.265625 98.47316 103.265625 99.12941L103.265625 102.395035L102.21875 102.395035ZM110.296875 101.62941Q109.703125 102.12941 109.15625 102.332535Q108.625 102.53566 108.0 102.53566Q106.96875 102.53566 106.421875 102.03566Q105.875 101.53566 105.875 100.75441Q105.875 100.301285 106.078125 99.926285Q106.28125 99.53566 106.625 99.31691Q106.96875 99.082535 107.390625 98.97316Q107.6875 98.87941 108.328125 98.801285Q109.59375 98.66066 110.203125 98.44191Q110.203125 98.22316 110.203125 98.176285Q110.203125 97.520035 109.90625 97.25441Q109.5 96.91066 108.703125 96.91066Q107.96875 96.91066 107.609375 97.176285Q107.25 97.426285 107.078125 98.082535L106.046875 97.94191Q106.1875 97.28566 106.515625 96.87941Q106.84375 96.47316 107.453125 96.25441Q108.0625 96.03566 108.859375 96.03566Q109.65625 96.03566 110.15625 96.22316Q110.65625 96.41066 110.890625 96.69191Q111.125 96.97316 111.21875 97.41066Q111.265625 97.676285 111.265625 98.37941L111.265625 99.78566Q111.265625 101.25441 111.328125 101.645035Q111.40625 102.03566 111.609375 102.395035L110.5 102.395035Q110.34375 102.06691 110.296875 101.62941ZM110.203125 99.270035Q109.625 99.50441 108.484375 99.676285Q107.828125 99.770035 107.5625 99.895035Q107.296875 100.00441 107.140625 100.22316Q107.0 100.44191 107.0 100.72316Q107.0 101.145035 107.3125 101.426285Q107.640625 101.707535 108.25 101.707535Q108.859375 101.707535 109.328125 101.44191Q109.8125 101.176285 110.03125 100.707535Q110.203125 100.34816 110.203125 99.66066L110.203125 99.270035ZM117.265625 102.395035L117.265625 101.613785Q116.671875 102.53566 115.53125 102.53566Q114.78125 102.53566 114.15625 102.12941Q113.53125 101.707535 113.1875 100.97316Q112.84375 100.238785 112.84375 99.28566Q112.84375 98.363785 113.15625 97.59816Q113.46875 96.832535 114.09375 96.44191Q114.71875 96.03566 115.484375 96.03566Q116.046875 96.03566 116.484375 96.270035Q116.921875 96.50441 117.203125 96.87941L117.203125 93.801285L118.25 93.801285L118.25 102.395035L117.265625 102.395035ZM113.9375 99.28566Q113.9375 100.488785 114.4375 101.082535Q114.9375 101.66066 115.625 101.66066Q116.3125 101.66066 116.796875 101.09816Q117.28125 100.53566 117.28125 99.37941Q117.28125 98.09816 116.78125 97.50441Q116.296875 96.91066 115.578125 96.91066Q114.875 96.91066 114.40625 97.488785Q113.9375 98.051285 113.9375 99.28566ZM124.296875 101.62941Q123.703125 102.12941 123.15625 102.332535Q122.625 102.53566 122.0 102.53566Q120.96875 102.53566 120.421875 102.03566Q119.875 101.53566 119.875 100.75441Q119.875 100.301285 120.078125 99.926285Q120.28125 99.53566 120.625 99.31691Q120.96875 99.082535 121.390625 98.97316Q121.6875 98.87941 122.328125 98.801285Q123.59375 98.66066 124.203125 98.44191Q124.203125 98.22316 124.203125 98.176285Q124.203125 97.520035 123.90625 97.25441Q123.5 96.91066 122.703125 96.91066Q121.96875 96.91066 121.609375 97.176285Q121.25 97.426285 121.078125 98.082535L120.046875 97.94191Q120.1875 97.28566 120.515625 96.87941Q120.84375 96.47316 121.453125 96.25441Q122.0625 96.03566 122.859375 96.03566Q123.65625 96.03566 124.15625 96.22316Q124.65625 96.41066 124.890625 96.69191Q125.125 96.97316 125.21875 97.41066Q125.265625 97.676285 125.265625 98.37941L125.265625 99.78566Q125.265625 101.25441 125.328125 101.645035Q125.40625 102.03566 125.609375 102.395035L124.5 102.395035Q124.34375 102.06691 124.296875 101.62941ZM124.203125 99.270035Q123.625 99.50441 122.484375 99.676285Q121.828125 99.770035 121.5625 99.895035Q121.296875 100.00441 121.140625 100.22316Q121.0 100.44191 121.0 100.72316Q121.0 101.145035 121.3125 101.426285Q121.640625 101.707535 122.25 101.707535Q122.859375 101.707535 123.328125 101.44191Q123.8125 101.176285 124.03125 100.707535Q124.203125 100.34816 124.203125 99.66066L124.203125 99.270035Z" fill-rule="nonzero"/><path fill="#9e9e9e" d="M75.90625 119.395035L74.859375 119.395035L74.859375 112.676285Q74.46875 113.03566 73.84375 113.41066Q73.234375 113.770035 72.75 113.94191L72.75 112.926285Q73.625 112.50441 74.28125 111.926285Q74.953125 111.332535 75.234375 110.770035L75.90625 110.770035L75.90625 119.395035ZM84.484375 118.37941L84.484375 119.395035L78.796875 119.395035Q78.796875 119.020035 78.921875 118.66066Q79.140625 118.082535 79.609375 117.520035Q80.09375 116.957535 81.0 116.22316Q82.40625 115.06691 82.890625 114.395035Q83.390625 113.72316 83.390625 113.12941Q83.390625 112.50441 82.9375 112.082535Q82.484375 111.645035 81.765625 111.645035Q81.0 111.645035 80.546875 112.09816Q80.09375 112.551285 80.078125 113.363785L79.0 113.25441Q79.109375 112.03566 79.828125 111.41066Q80.5625 110.770035 81.796875 110.770035Q83.03125 110.770035 83.75 111.457535Q84.46875 112.145035 84.46875 113.16066Q84.46875 113.676285 84.25 114.176285Q84.046875 114.66066 83.546875 115.22316Q83.0625 115.770035 81.9375 116.72316Q80.984375 117.520035 80.703125 117.81691Q80.4375 118.09816 80.265625 118.37941L84.484375 118.37941ZM86.5 119.395035L86.5 118.19191L87.703125 118.19191L87.703125 119.395035Q87.703125 120.051285 87.46875 120.457535Q87.234375 120.87941 86.734375 121.09816L86.4375 120.645035Q86.765625 120.50441 86.921875 120.207535Q87.078125 119.926285 87.109375 119.395035L86.5 119.395035ZM88.9375 115.16066Q88.9375 113.62941 89.25 112.707535Q89.5625 111.770035 90.171875 111.270035Q90.796875 110.770035 91.734375 110.770035Q92.421875 110.770035 92.9375 111.051285Q93.46875 111.332535 93.8125 111.863785Q94.15625 112.37941 94.34375 113.12941Q94.53125 113.87941 94.53125 115.16066Q94.53125 116.676285 94.21875 117.59816Q93.921875 118.520035 93.296875 119.03566Q92.6875 119.53566 91.734375 119.53566Q90.5 119.53566 89.78125 118.645035Q88.9375 117.582535 88.9375 115.16066ZM90.015625 115.16066Q90.015625 117.270035 90.515625 117.97316Q91.015625 118.676285 91.734375 118.676285Q92.46875 118.676285 92.953125 117.97316Q93.453125 117.270035 93.453125 115.16066Q93.453125 113.03566 92.953125 112.34816Q92.46875 111.645035 91.71875 111.645035Q91.0 111.645035 90.5625 112.25441Q90.015625 113.03566 90.015625 115.16066ZM96.140625 112.863785Q96.140625 111.94191 96.59375 111.301285Q97.0625 110.66066 97.9375 110.66066Q98.75 110.66066 99.28125 111.238785Q99.8125 111.81691 99.8125 112.926285Q99.8125 114.020035 99.265625 114.613785Q98.734375 115.19191 97.953125 115.19191Q97.171875 115.19191 96.65625 114.613785Q96.140625 114.03566 96.140625 112.863785ZM97.96875 111.37941Q97.578125 111.37941 97.3125 111.72316Q97.0625 112.06691 97.0625 112.97316Q97.0625 113.801285 97.3125 114.145035Q97.578125 114.47316 97.96875 114.47316Q98.375 114.47316 98.625 114.12941Q98.890625 113.78566 98.890625 112.895035Q98.890625 112.051285 98.625 111.72316Q98.359375 111.37941 97.96875 111.37941ZM97.96875 119.707535L102.671875 110.66066L103.53125 110.66066L98.84375 119.707535L97.96875 119.707535ZM101.6875 117.37941Q101.6875 116.457535 102.140625 115.81691Q102.609375 115.176285 103.5 115.176285Q104.3125 115.176285 104.84375 115.75441Q105.375 116.31691 105.375 117.44191Q105.375 118.53566 104.828125 119.12941Q104.296875 119.707535 103.5 119.707535Q102.734375 119.707535 102.203125 119.12941Q101.6875 118.551285 101.6875 117.37941ZM103.53125 115.895035Q103.125 115.895035 102.859375 116.238785Q102.609375 116.582535 102.609375 117.488785Q102.609375 118.301285 102.875 118.645035Q103.140625 118.988785 103.53125 118.988785Q103.921875 118.988785 104.1875 118.645035Q104.453125 118.301285 104.453125 117.395035Q104.453125 116.56691 104.1875 116.238785Q103.921875 115.895035 103.53125 115.895035Z" fill-rule="nonzero"/><path stroke="#757575" stroke-width="1.0" stroke-linecap="butt" d="M71.4375 106.895035L217.33838 106.895035L314.01755 106.895035" fill-rule="nonzero"/><path fill="#9e9e9e" d="M316.01755 106.895035C316.01755 105.79047 315.12213 104.895035 314.01755 104.895035C312.913 104.895035 312.01755 105.79047 312.01755 106.895035C312.01755 107.9996 312.913 108.895035 314.01755 108.895035C315.12213 108.895035 316.01755 107.9996 316.01755 106.895035" fill-rule="nonzero"/><path fill="#313131" d="M76.390625 202.61586L76.390625 201.61586L80.015625 201.60023L80.015625 204.78773Q79.1875 205.45961 78.296875 205.80336Q77.40625 206.13148 76.46875 206.13148Q75.203125 206.13148 74.15625 205.60023Q73.125 205.05336 72.59375 204.03773Q72.078125 203.00648 72.078125 201.74086Q72.078125 200.47523 72.59375 199.39711Q73.125 198.30336 74.109375 197.78773Q75.09375 197.25648 76.375 197.25648Q77.3125 197.25648 78.0625 197.55336Q78.8125 197.85023 79.234375 198.39711Q79.671875 198.92836 79.890625 199.80336L78.875 200.08461Q78.671875 199.42836 78.375 199.05336Q78.09375 198.67836 77.5625 198.45961Q77.03125 198.22523 76.390625 198.22523Q75.609375 198.22523 75.03125 198.45961Q74.46875 198.69398 74.109375 199.08461Q73.765625 199.47523 73.578125 199.94398Q73.25 200.74086 73.25 201.66273Q73.25 202.81898 73.640625 203.60023Q74.046875 204.36586 74.796875 204.74086Q75.546875 205.11586 76.40625 205.11586Q77.140625 205.11586 77.84375 204.83461Q78.546875 204.53773 78.90625 204.22523L78.90625 202.61586L76.390625 202.61586ZM81.21875 205.99086L81.21875 199.77211L82.171875 199.77211L82.171875 200.70961Q82.53125 200.05336 82.828125 199.85023Q83.140625 199.63148 83.515625 199.63148Q84.046875 199.63148 84.59375 199.95961L84.234375 200.94398Q83.84375 200.70961 83.46875 200.70961Q83.109375 200.70961 82.828125 200.92836Q82.5625 201.13148 82.453125 201.50648Q82.265625 202.06898 82.265625 202.72523L82.265625 205.99086L81.21875 205.99086ZM89.296875 205.22523Q88.703125 205.72523 88.15625 205.92836Q87.625 206.13148 87.0 206.13148Q85.96875 206.13148 85.421875 205.63148Q84.875 205.13148 84.875 204.35023Q84.875 203.89711 85.078125 203.52211Q85.28125 203.13148 85.625 202.91273Q85.96875 202.67836 86.390625 202.56898Q86.6875 202.47523 87.328125 202.39711Q88.59375 202.25648 89.203125 202.03773Q89.203125 201.81898 89.203125 201.77211Q89.203125 201.11586 88.90625 200.85023Q88.5 200.50648 87.703125 200.50648Q86.96875 200.50648 86.609375 200.77211Q86.25 201.02211 86.078125 201.67836L85.046875 201.53773Q85.1875 200.88148 85.515625 200.47523Q85.84375 200.06898 86.453125 199.85023Q87.0625 199.63148 87.859375 199.63148Q88.65625 199.63148 89.15625 199.81898Q89.65625 200.00648 89.890625 200.28773Q90.125 200.56898 90.21875 201.00648Q90.265625 201.27211 90.265625 201.97523L90.265625 203.38148Q90.265625 204.85023 90.328125 205.24086Q90.40625 205.63148 90.609375 205.99086L89.5 205.99086Q89.34375 205.66273 89.296875 205.22523ZM89.203125 202.86586Q88.625 203.10023 87.484375 203.27211Q86.828125 203.36586 86.5625 203.49086Q86.296875 203.60023 86.140625 203.81898Q86.0 204.03773 86.0 204.31898Q86.0 204.74086 86.3125 205.02211Q86.640625 205.30336 87.25 205.30336Q87.859375 205.30336 88.328125 205.03773Q88.8125 204.77211 89.03125 204.30336Q89.203125 203.94398 89.203125 203.25648L89.203125 202.86586ZM93.953125 205.99086L91.59375 199.77211L92.703125 199.77211L94.046875 203.49086Q94.25 204.10023 94.4375 204.74086Q94.578125 204.25648 94.828125 203.56898L96.21875 199.77211L97.296875 199.77211L94.9375 205.99086L93.953125 205.99086ZM101.484375 203.99086L102.578125 204.11586Q102.328125 205.06898 101.625 205.60023Q100.921875 206.13148 99.84375 206.13148Q98.484375 206.13148 97.671875 205.28773Q96.875 204.44398 96.875 202.92836Q96.875 201.36586 97.6875 200.50648Q98.5 199.63148 99.78125 199.63148Q101.03125 199.63148 101.8125 200.47523Q102.609375 201.31898 102.609375 202.86586Q102.609375 202.95961 102.609375 203.14711L97.96875 203.14711Q98.03125 204.17836 98.546875 204.72523Q99.0625 205.25648 99.84375 205.25648Q100.421875 205.25648 100.828125 204.95961Q101.25 204.64711 101.484375 203.99086ZM98.03125 202.28773L101.5 202.28773Q101.4375 201.49086 101.109375 201.10023Q100.59375 200.49086 99.796875 200.49086Q99.0625 200.49086 98.5625 200.97523Q98.078125 201.45961 98.03125 202.28773Z" fill-rule="nonzero"/><path fill="#9e9e9e" d="M71.9375 220.72523L73.0 220.58461Q73.171875 221.47523 73.609375 221.88148Q74.046875 222.27211 74.671875 222.27211Q75.421875 222.27211 75.9375 221.75648Q76.453125 221.24086 76.453125 220.47523Q76.453125 219.75648 75.96875 219.28773Q75.5 218.80336 74.765625 218.80336Q74.46875 218.80336 74.015625 218.92836L74.140625 217.99086Q74.25 218.00648 74.3125 218.00648Q74.984375 218.00648 75.515625 217.66273Q76.0625 217.30336 76.0625 216.56898Q76.0625 215.99086 75.671875 215.61586Q75.28125 215.22523 74.65625 215.22523Q74.046875 215.22523 73.625 215.61586Q73.21875 216.00648 73.109375 216.77211L72.046875 216.58461Q72.234375 215.53773 72.921875 214.95961Q73.609375 214.36586 74.625 214.36586Q75.328125 214.36586 75.921875 214.67836Q76.515625 214.97523 76.828125 215.49086Q77.140625 216.00648 77.140625 216.60023Q77.140625 217.14711 76.84375 217.61586Q76.546875 218.06898 75.96875 218.33461Q76.71875 218.50648 77.140625 219.06898Q77.5625 219.61586 77.5625 220.45961Q77.5625 221.58461 76.734375 222.36586Q75.921875 223.14711 74.671875 223.14711Q73.546875 223.14711 72.796875 222.47523Q72.046875 221.78773 71.9375 220.72523ZM84.484375 221.97523L84.484375 222.99086L78.796875 222.99086Q78.796875 222.61586 78.921875 222.25648Q79.140625 221.67836 79.609375 221.11586Q80.09375 220.55336 81.0 219.81898Q82.40625 218.66273 82.890625 217.99086Q83.390625 217.31898 83.390625 216.72523Q83.390625 216.10023 82.9375 215.67836Q82.484375 215.24086 81.765625 215.24086Q81.0 215.24086 80.546875 215.69398Q80.09375 216.14711 80.078125 216.95961L79.0 216.85023Q79.109375 215.63148 79.828125 215.00648Q80.5625 214.36586 81.796875 214.36586Q83.03125 214.36586 83.75 215.05336Q84.46875 215.74086 84.46875 216.75648Q84.46875 217.27211 84.25 217.77211Q84.046875 218.25648 83.546875 218.81898Q83.0625 219.36586 81.9375 220.31898Q80.984375 221.11586 80.703125 221.41273Q80.4375 221.69398 80.265625 221.97523L84.484375 221.97523ZM86.5 222.99086L86.5 221.78773L87.703125 221.78773L87.703125 222.99086Q87.703125 223.64711 87.46875 224.05336Q87.234375 224.47523 86.734375 224.69398L86.4375 224.24086Q86.765625 224.10023 86.921875 223.80336Q87.078125 223.52211 87.109375 222.99086L86.5 222.99086ZM88.9375 218.75648Q88.9375 217.22523 89.25 216.30336Q89.5625 215.36586 90.171875 214.86586Q90.796875 214.36586 91.734375 214.36586Q92.421875 214.36586 92.9375 214.64711Q93.46875 214.92836 93.8125 215.45961Q94.15625 215.97523 94.34375 216.72523Q94.53125 217.47523 94.53125 218.75648Q94.53125 220.27211 94.21875 221.19398Q93.921875 222.11586 93.296875 222.63148Q92.6875 223.13148 91.734375 223.13148Q90.5 223.13148 89.78125 222.24086Q88.9375 221.17836 88.9375 218.75648ZM90.015625 218.75648Q90.015625 220.86586 90.515625 221.56898Q91.015625 222.27211 91.734375 222.27211Q92.46875 222.27211 92.953125 221.56898Q93.453125 220.86586 93.453125 218.75648Q93.453125 216.63148 92.953125 215.94398Q92.46875 215.24086 91.71875 215.24086Q91.0 215.24086 90.5625 215.85023Q90.015625 216.63148 90.015625 218.75648ZM96.140625 216.45961Q96.140625 215.53773 96.59375 214.89711Q97.0625 214.25648 97.9375 214.25648Q98.75 214.25648 99.28125 214.83461Q99.8125 215.41273 99.8125 216.52211Q99.8125 217.61586 99.265625 218.20961Q98.734375 218.78773 97.953125 218.78773Q97.171875 218.78773 96.65625 218.20961Q96.140625 217.63148 96.140625 216.45961ZM97.96875 214.97523Q97.578125 214.97523 97.3125 215.31898Q97.0625 215.66273 97.0625 216.56898Q97.0625 217.39711 97.3125 217.74086Q97.578125 218.06898 97.96875 218.06898Q98.375 218.06898 98.625 217.72523Q98.890625 217.38148 98.890625 216.49086Q98.890625 215.64711 98.625 215.31898Q98.359375 214.97523 97.96875 214.97523ZM97.96875 223.30336L102.671875 214.25648L103.53125 214.25648L98.84375 223.30336L97.96875 223.30336ZM101.6875 220.97523Q101.6875 220.05336 102.140625 219.41273Q102.609375 218.77211 103.5 218.77211Q104.3125 218.77211 104.84375 219.35023Q105.375 219.91273 105.375 221.03773Q105.375 222.13148 104.828125 222.72523Q104.296875 223.30336 103.5 223.30336Q102.734375 223.30336 102.203125 222.72523Q101.6875 222.14711 101.6875 220.97523ZM103.53125 219.49086Q103.125 219.49086 102.859375 219.83461Q102.609375 220.17836 102.609375 221.08461Q102.609375 221.89711 102.875 222.24086Q103.140625 222.58461 103.53125 222.58461Q103.921875 222.58461 104.1875 222.24086Q104.453125 221.89711 104.453125 220.99086Q104.453125 220.16273 104.1875 219.83461Q103.921875 219.49086 103.53125 219.49086Z" fill-rule="nonzero"/><path stroke="#757575" stroke-width="1.0" stroke-linecap="butt" d="M71.4375 210.49086L217.33838 210.49086L232.65715 210.49086" fill-rule="nonzero"/><path fill="#9e9e9e" d="M234.65715 210.49086C234.65715 209.38628 233.76172 208.49086 232.65715 208.49086C231.55258 208.49086 230.65715 209.38628 230.65715 210.49086C230.65715 211.59543 231.55258 212.49086 232.65715 212.49086C233.76172 212.49086 234.65715 211.59543 234.65715 210.49086" fill-rule="nonzero"/><path fill="#313131" d="M614.0062 138.92662L614.0062 130.33287L617.2406 130.33287Q618.225 130.33287 618.8187 130.5985Q619.4125 130.86412 619.7406 131.411Q620.08435 131.94225 620.08435 132.536Q620.08435 133.08287 619.7875 133.56725Q619.4906 134.05162 618.8812 134.3485Q619.6625 134.58287 620.0687 135.14537Q620.4906 135.69225 620.4906 136.44225Q620.4906 137.036 620.2406 137.56725Q619.9906 138.08287 619.6156 138.36412Q619.2406 138.64537 618.6625 138.786Q618.1 138.92662 617.2875 138.92662L614.0062 138.92662ZM615.14685 133.94225L617.0062 133.94225Q617.7562 133.94225 618.08435 133.8485Q618.52185 133.7235 618.7406 133.42662Q618.95935 133.11412 618.95935 132.661Q618.95935 132.23912 618.7562 131.911Q618.5531 131.58287 618.1625 131.4735Q617.7875 131.3485 616.8656 131.3485L615.14685 131.3485L615.14685 133.94225ZM615.14685 137.911L617.2875 137.911Q617.83435 137.911 618.0531 137.86412Q618.45935 137.80162 618.70935 137.64537Q618.975 137.4735 619.14685 137.161Q619.3187 136.8485 619.3187 136.44225Q619.3187 135.95787 619.0687 135.5985Q618.83435 135.23912 618.39685 135.0985Q617.95935 134.95787 617.1312 134.95787L615.14685 134.95787L615.14685 137.911ZM621.89685 138.92662L621.89685 130.33287L622.95935 130.33287L622.95935 138.92662L621.89685 138.92662ZM624.5375 135.81725Q624.5375 134.08287 625.4906 133.25475Q626.2875 132.56725 627.4437 132.56725Q628.725 132.56725 629.5375 133.411Q630.3656 134.23912 630.3656 135.7235Q630.3656 136.92662 630.0062 137.61412Q629.64685 138.30162 628.9437 138.69225Q628.2562 139.06725 627.4437 139.06725Q626.14685 139.06725 625.33435 138.23912Q624.5375 137.39537 624.5375 135.81725ZM625.6156 135.81725Q625.6156 137.00475 626.1312 137.5985Q626.6625 138.19225 627.4437 138.19225Q628.2406 138.19225 628.7562 137.5985Q629.27185 137.00475 629.27185 135.786Q629.27185 134.62975 628.7406 134.036Q628.225 133.44225 627.4437 133.44225Q626.6625 133.44225 626.1312 134.036Q625.6156 134.61412 625.6156 135.81725ZM635.9906 136.64537L637.02185 136.786Q636.85 137.8485 636.14685 138.45787Q635.4437 139.06725 634.4281 139.06725Q633.14685 139.06725 632.3656 138.23912Q631.6 137.39537 631.6 135.83287Q631.6 134.83287 631.9281 134.08287Q632.27185 133.31725 632.9437 132.94225Q633.6312 132.56725 634.4437 132.56725Q635.4437 132.56725 636.08435 133.08287Q636.7406 133.58287 636.9281 134.536L635.89685 134.69225Q635.7562 134.06725 635.3812 133.75475Q635.0062 133.42662 634.475 133.42662Q633.6781 133.42662 633.1781 134.00475Q632.6781 134.56725 632.6781 135.80162Q632.6781 137.06725 633.1625 137.62975Q633.64685 138.19225 634.4125 138.19225Q635.0375 138.19225 635.4437 137.81725Q635.8656 137.44225 635.9906 136.64537ZM637.9281 138.92662L637.9281 130.33287L638.9906 130.33287L638.9906 135.23912L641.475 132.70787L642.85 132.70787L640.45935 135.00475L643.08435 138.92662L641.7875 138.92662L639.725 135.73912L638.9906 136.45787L638.9906 138.92662L637.9281 138.92662ZM648.1781 136.92662L649.27185 137.05162Q649.02185 138.00475 648.3187 138.536Q647.6156 139.06725 646.5375 139.06725Q645.1781 139.06725 644.3656 138.2235Q643.5687 137.37975 643.5687 135.86412Q643.5687 134.30162 644.3812 133.44225Q645.1937 132.56725 646.475 132.56725Q647.725 132.56725 648.5062 133.411Q649.3031 134.25475 649.3031 135.80162Q649.3031 135.89537 649.3031 136.08287L644.6625 136.08287Q644.725 137.11412 645.2406 137.661Q645.7562 138.19225 646.5375 138.19225Q647.1156 138.19225 647.52185 137.89537Q647.9437 137.58287 648.1781 136.92662ZM644.725 135.2235L648.1937 135.2235Q648.1312 134.42662 647.8031 134.036Q647.2875 133.42662 646.4906 133.42662Q645.7562 133.42662 645.2562 133.911Q644.77185 134.39537 644.725 135.2235ZM650.9125 138.92662L650.9125 132.70787L651.8656 132.70787L651.8656 133.64537Q652.225 132.98912 652.52185 132.786Q652.83435 132.56725 653.20935 132.56725Q653.7406 132.56725 654.2875 132.89537L653.9281 133.87975Q653.5375 133.64537 653.1625 133.64537Q652.8031 133.64537 652.52185 133.86412Q652.2562 134.06725 652.14685 134.44225Q651.95935 135.00475 651.95935 135.661L651.95935 138.92662L650.9125 138.92662Z" fill-rule="nonzero"/><path fill="#9e9e9e" d="M619.6312 153.661L620.6937 153.52037Q620.8656 154.411 621.3031 154.81725Q621.7406 155.20787 622.3656 155.20787Q623.1156 155.20787 623.6312 154.69225Q624.14685 154.17662 624.14685 153.411Q624.14685 152.69225 623.6625 152.2235Q623.1937 151.73912 622.45935 151.73912Q622.1625 151.73912 621.70935 151.86412L621.83435 150.92662Q621.9437 150.94225 622.0062 150.94225Q622.6781 150.94225 623.20935 150.5985Q623.7562 150.23912 623.7562 149.50475Q623.7562 148.92662 623.3656 148.55162Q622.975 148.161 622.35 148.161Q621.7406 148.161 621.3187 148.55162Q620.9125 148.94225 620.8031 149.70787L619.7406 149.52037Q619.9281 148.4735 620.6156 147.89537Q621.3031 147.30162 622.3187 147.30162Q623.02185 147.30162 623.6156 147.61412Q624.20935 147.911 624.52185 148.42662Q624.83435 148.94225 624.83435 149.536Q624.83435 150.08287 624.5375 150.55162Q624.2406 151.00475 623.6625 151.27037Q624.4125 151.44225 624.83435 152.00475Q625.2562 152.55162 625.2562 153.39537Q625.2562 154.52037 624.4281 155.30162Q623.6156 156.08287 622.3656 156.08287Q621.2406 156.08287 620.4906 155.411Q619.7406 154.7235 619.6312 153.661ZM632.1781 154.911L632.1781 155.92662L626.4906 155.92662Q626.4906 155.55162 626.6156 155.19225Q626.83435 154.61412 627.3031 154.05162Q627.7875 153.48912 628.6937 152.75475Q630.1 151.5985 630.58435 150.92662Q631.08435 150.25475 631.08435 149.661Q631.08435 149.036 630.6312 148.61412Q630.1781 148.17662 629.45935 148.17662Q628.6937 148.17662 628.2406 148.62975Q627.7875 149.08287 627.77185 149.89537L626.6937 149.786Q626.8031 148.56725 627.52185 147.94225Q628.2562 147.30162 629.4906 147.30162Q630.725 147.30162 631.4437 147.98912Q632.1625 148.67662 632.1625 149.69225Q632.1625 150.20787 631.9437 150.70787Q631.7406 151.19225 631.2406 151.75475Q630.7562 152.30162 629.6312 153.25475Q628.6781 154.05162 628.39685 154.3485Q628.1312 154.62975 627.95935 154.911L632.1781 154.911ZM634.1937 155.92662L634.1937 154.7235L635.39685 154.7235L635.39685 155.92662Q635.39685 156.58287 635.1625 156.98912Q634.9281 157.411 634.4281 157.62975L634.1312 157.17662Q634.45935 157.036 634.6156 156.73912Q634.77185 156.45787 634.8031 155.92662L634.1937 155.92662ZM636.6312 151.69225Q636.6312 150.161 636.9437 149.23912Q637.2562 148.30162 637.8656 147.80162Q638.4906 147.30162 639.4281 147.30162Q640.1156 147.30162 640.6312 147.58287Q641.1625 147.86412 641.5062 148.39537Q641.85 148.911 642.0375 149.661Q642.225 150.411 642.225 151.69225Q642.225 153.20787 641.9125 154.12975Q641.6156 155.05162 640.9906 155.56725Q640.3812 156.06725 639.4281 156.06725Q638.1937 156.06725 637.475 155.17662Q636.6312 154.11412 636.6312 151.69225ZM637.70935 151.69225Q637.70935 153.80162 638.20935 154.50475Q638.70935 155.20787 639.4281 155.20787Q640.1625 155.20787 640.64685 154.50475Q641.14685 153.80162 641.14685 151.69225Q641.14685 149.56725 640.64685 148.87975Q640.1625 148.17662 639.4125 148.17662Q638.6937 148.17662 638.2562 148.786Q637.70935 149.56725 637.70935 151.69225ZM643.83435 149.39537Q643.83435 148.4735 644.2875 147.83287Q644.7562 147.19225 645.6312 147.19225Q646.4437 147.19225 646.975 147.77037Q647.5062 148.3485 647.5062 149.45787Q647.5062 150.55162 646.95935 151.14537Q646.4281 151.7235 645.64685 151.7235Q644.8656 151.7235 644.35 151.14537Q643.83435 150.56725 643.83435 149.39537ZM645.6625 147.911Q645.27185 147.911 645.0062 148.25475Q644.7562 148.5985 644.7562 149.50475Q644.7562 150.33287 645.0062 150.67662Q645.27185 151.00475 645.6625 151.00475Q646.0687 151.00475 646.3187 150.661Q646.58435 150.31725 646.58435 149.42662Q646.58435 148.58287 646.3187 148.25475Q646.0531 147.911 645.6625 147.911ZM645.6625 156.23912L650.3656 147.19225L651.225 147.19225L646.5375 156.23912L645.6625 156.23912ZM649.3812 153.911Q649.3812 152.98912 649.83435 152.3485Q650.3031 151.70787 651.1937 151.70787Q652.0062 151.70787 652.5375 152.286Q653.0687 152.8485 653.0687 153.9735Q653.0687 155.06725 652.52185 155.661Q651.9906 156.23912 651.1937 156.23912Q650.4281 156.23912 649.89685 155.661Q649.3812 155.08287 649.3812 153.911ZM651.225 152.42662Q650.8187 152.42662 650.5531 152.77037Q650.3031 153.11412 650.3031 154.02037Q650.3031 154.83287 650.5687 155.17662Q650.83435 155.52037 651.225 155.52037Q651.6156 155.52037 651.8812 155.17662Q652.14685 154.83287 652.14685 153.92662Q652.14685 153.0985 651.8812 152.77037Q651.6156 152.42662 651.225 152.42662Z" fill-rule="nonzero"/><path stroke="#757575" stroke-width="1.0" stroke-linecap="butt" d="M654.1312 143.42662L508.23038 143.42662L474.63562 143.42662" fill-rule="nonzero"/><path fill="#9e9e9e" d="M476.63562 143.42662C476.63562 142.32205 475.7402 141.42662 474.63562 141.42662C473.53104 141.42662 472.63562 142.32205 472.63562 143.42662C472.63562 144.53119 473.53104 145.42662 474.63562 145.42662C475.7402 145.42662 476.63562 144.53119 476.63562 143.42662" fill-rule="nonzero"/><path fill="#313131" d="M629.0062 274.83435L629.0062 266.2406L630.14685 266.2406L630.14685 273.81873L634.3812 273.81873L634.3812 274.83435L629.0062 274.83435ZM640.1781 272.83435L641.27185 272.95935Q641.02185 273.91248 640.3187 274.44373Q639.6156 274.97498 638.5375 274.97498Q637.1781 274.97498 636.3656 274.13123Q635.5687 273.28748 635.5687 271.77185Q635.5687 270.20935 636.3812 269.34998Q637.1937 268.47498 638.475 268.47498Q639.725 268.47498 640.5062 269.31873Q641.3031 270.16248 641.3031 271.70935Q641.3031 271.8031 641.3031 271.9906L636.6625 271.9906Q636.725 273.02185 637.2406 273.56873Q637.7562 274.09998 638.5375 274.09998Q639.1156 274.09998 639.52185 273.8031Q639.9437 273.4906 640.1781 272.83435ZM636.725 271.13123L640.1937 271.13123Q640.1312 270.33435 639.8031 269.94373Q639.2875 269.33435 638.4906 269.33435Q637.7562 269.33435 637.2562 269.81873Q636.77185 270.3031 636.725 271.13123ZM644.64685 274.83435L642.2875 268.6156L643.39685 268.6156L644.7406 272.33435Q644.9437 272.94373 645.1312 273.58435Q645.27185 273.09998 645.52185 272.41248L646.9125 268.6156L647.9906 268.6156L645.6312 274.83435L644.64685 274.83435ZM652.1781 272.83435L653.27185 272.95935Q653.02185 273.91248 652.3187 274.44373Q651.6156 274.97498 650.5375 274.97498Q649.1781 274.97498 648.3656 274.13123Q647.5687 273.28748 647.5687 271.77185Q647.5687 270.20935 648.3812 269.34998Q649.1937 268.47498 650.475 268.47498Q651.725 268.47498 652.5062 269.31873Q653.3031 270.16248 653.3031 271.70935Q653.3031 271.8031 653.3031 271.9906L648.6625 271.9906Q648.725 273.02185 649.2406 273.56873Q649.7562 274.09998 650.5375 274.09998Q651.1156 274.09998 651.52185 273.8031Q651.9437 273.4906 652.1781 272.83435ZM648.725 271.13123L652.1937 271.13123Q652.1312 270.33435 651.8031 269.94373Q651.2875 269.33435 650.4906 269.33435Q649.7562 269.33435 649.2562 269.81873Q648.77185 270.3031 648.725 271.13123Z" fill-rule="nonzero"/><path fill="#9e9e9e" d="M625.1781 290.81873L625.1781 291.83435L619.4906 291.83435Q619.4906 291.45935 619.6156 291.09998Q619.83435 290.52185 620.3031 289.95935Q620.7875 289.39685 621.6937 288.66248Q623.1 287.50623 623.58435 286.83435Q624.08435 286.16248 624.08435 285.56873Q624.08435 284.94373 623.6312 284.52185Q623.1781 284.08435 622.45935 284.08435Q621.6937 284.08435 621.2406 284.53748Q620.7875 284.9906 620.77185 285.8031L619.6937 285.69373Q619.8031 284.47498 620.52185 283.84998Q621.2562 283.20935 622.4906 283.20935Q623.725 283.20935 624.4437 283.89685Q625.1625 284.58435 625.1625 285.59998Q625.1625 286.1156 624.9437 286.6156Q624.7406 287.09998 624.2406 287.66248Q623.7562 288.20935 622.6312 289.16248Q621.6781 289.95935 621.39685 290.25623Q621.1312 290.53748 620.95935 290.81873L625.1781 290.81873ZM630.0062 291.83435L630.0062 289.77185L626.2875 289.77185L626.2875 288.8031L630.20935 283.2406L631.0687 283.2406L631.0687 288.8031L632.225 288.8031L632.225 289.77185L631.0687 289.77185L631.0687 291.83435L630.0062 291.83435ZM630.0062 288.8031L630.0062 284.94373L627.3187 288.8031L630.0062 288.8031ZM634.1937 291.83435L634.1937 290.63123L635.39685 290.63123L635.39685 291.83435Q635.39685 292.4906 635.1625 292.89685Q634.9281 293.31873 634.4281 293.53748L634.1312 293.08435Q634.45935 292.94373 634.6156 292.64685Q634.77185 292.3656 634.8031 291.83435L634.1937 291.83435ZM636.6312 287.59998Q636.6312 286.06873 636.9437 285.14685Q637.2562 284.20935 637.8656 283.70935Q638.4906 283.20935 639.4281 283.20935Q640.1156 283.20935 640.6312 283.4906Q641.1625 283.77185 641.5062 284.3031Q641.85 284.81873 642.0375 285.56873Q642.225 286.31873 642.225 287.59998Q642.225 289.1156 641.9125 290.03748Q641.6156 290.95935 640.9906 291.47498Q640.3812 291.97498 639.4281 291.97498Q638.1937 291.97498 637.475 291.08435Q636.6312 290.02185 636.6312 287.59998ZM637.70935 287.59998Q637.70935 289.70935 638.20935 290.41248Q638.70935 291.1156 639.4281 291.1156Q640.1625 291.1156 640.64685 290.41248Q641.14685 289.70935 641.14685 287.59998Q641.14685 285.47498 640.64685 284.78748Q640.1625 284.08435 639.4125 284.08435Q638.6937 284.08435 638.2562 284.69373Q637.70935 285.47498 637.70935 287.59998ZM643.83435 285.3031Q643.83435 284.38123 644.2875 283.7406Q644.7562 283.09998 645.6312 283.09998Q646.4437 283.09998 646.975 283.6781Q647.5062 284.25623 647.5062 285.3656Q647.5062 286.45935 646.95935 287.0531Q646.4281 287.63123 645.64685 287.63123Q644.8656 287.63123 644.35 287.0531Q643.83435 286.47498 643.83435 285.3031ZM645.6625 283.81873Q645.27185 283.81873 645.0062 284.16248Q644.7562 284.50623 644.7562 285.41248Q644.7562 286.2406 645.0062 286.58435Q645.27185 286.91248 645.6625 286.91248Q646.0687 286.91248 646.3187 286.56873Q646.58435 286.22498 646.58435 285.33435Q646.58435 284.4906 646.3187 284.16248Q646.0531 283.81873 645.6625 283.81873ZM645.6625 292.14685L650.3656 283.09998L651.225 283.09998L646.5375 292.14685L645.6625 292.14685ZM649.3812 289.81873Q649.3812 288.89685 649.83435 288.25623Q650.3031 287.6156 651.1937 287.6156Q652.0062 287.6156 652.5375 288.19373Q653.0687 288.75623 653.0687 289.88123Q653.0687 290.97498 652.52185 291.56873Q651.9906 292.14685 651.1937 292.14685Q650.4281 292.14685 649.89685 291.56873Q649.3812 290.9906 649.3812 289.81873ZM651.225 288.33435Q650.8187 288.33435 650.5531 288.6781Q650.3031 289.02185 650.3031 289.9281Q650.3031 290.7406 650.5687 291.08435Q650.83435 291.4281 651.225 291.4281Q651.6156 291.4281 651.8812 291.08435Q652.14685 290.7406 652.14685 289.83435Q652.14685 289.00623 651.8812 288.6781Q651.6156 288.33435 651.225 288.33435Z" fill-rule="nonzero"/><path stroke="#757575" stroke-width="1.0" stroke-linecap="butt" d="M654.1312 279.33435L508.23038 279.33435L411.5512 279.33435" fill-rule="nonzero"/><path fill="#9e9e9e" d="M413.5512 279.33435C413.5512 278.22977 412.65576 277.33435 411.5512 277.33435C410.44662 277.33435 409.5512 278.22977 409.5512 279.33435C409.5512 280.4389 410.44662 281.33435 411.5512 281.33435C412.65576 281.33435 413.5512 280.4389 413.5512 279.33435" fill-rule="nonzero"/><path fill="#000000" d="M22.36875 25.587502L28.0875 25.587502Q29.790625 25.587502 30.61875 25.728127Q31.4625 25.868752 32.11875 26.321877Q32.775 26.759377 33.2125 27.509377Q33.65 28.259377 33.65 29.181252Q33.65 30.196877 33.103127 31.040627Q32.571877 31.868752 31.65 32.290627Q32.946877 32.665627 33.65 33.5875Q34.353127 34.509377 34.353127 35.74375Q34.353127 36.728127 33.9 37.65Q33.446877 38.571877 32.665627 39.134377Q31.884375 39.68125 30.728125 39.80625Q30.009375 39.884377 27.24375 39.9L22.36875 39.9L22.36875 25.587502ZM25.259375 27.962502L25.259375 31.275002L27.15 31.275002Q28.8375 31.275002 29.24375 31.228127Q29.99375 31.134377 30.415625 30.712502Q30.8375 30.290627 30.8375 29.603127Q30.8375 28.931252 30.4625 28.525002Q30.103125 28.103127 29.384375 28.009377Q28.9625 27.962502 26.915625 27.962502L25.259375 27.962502ZM25.259375 33.665627L25.259375 37.49375L27.93125 37.49375Q29.49375 37.49375 29.915625 37.4Q30.55625 37.275 30.9625 36.821877Q31.36875 36.36875 31.36875 35.61875Q31.36875 34.9625 31.05625 34.525Q30.74375 34.071877 30.15 33.86875Q29.55625 33.665627 27.5875 33.665627L25.259375 33.665627ZM43.165627 39.9L43.165627 38.353127Q42.603127 39.18125 41.665627 39.665627Q40.74375 40.134377 39.728127 40.134377Q38.68125 40.134377 37.853127 39.68125Q37.025 39.2125 36.65 38.384377Q36.275 37.55625 36.275 36.0875L36.275 29.525002L39.025 29.525002L39.025 34.290627Q39.025 36.478127 39.165627 36.978127Q39.321877 37.4625 39.7125 37.759377Q40.11875 38.040627 40.74375 38.040627Q41.446877 38.040627 41.99375 37.665627Q42.55625 37.275 42.759377 36.7125Q42.9625 36.134377 42.9625 33.9L42.9625 29.525002L45.7125 29.525002L45.7125 39.9L43.165627 39.9ZM48.0875 40.5875L51.2125 40.9625Q51.290627 41.509377 51.571877 41.7125Q51.9625 42.009377 52.80625 42.009377Q53.884377 42.009377 54.415627 41.68125Q54.775 41.478127 54.9625 40.99375Q55.0875 40.65 55.0875 39.728127L55.0875 38.2125Q53.86875 39.9 51.99375 39.9Q49.9 39.9 48.68125 38.134377Q47.728127 36.728127 47.728127 34.65Q47.728127 32.040627 48.978127 30.665627Q50.228127 29.290627 52.103127 29.290627Q54.025 29.290627 55.275 30.978127L55.275 29.525002L57.8375 29.525002L57.8375 38.8375Q57.8375 40.665627 57.525 41.571877Q57.228127 42.49375 56.68125 43.009377Q56.134377 43.525 55.2125 43.80625Q54.30625 44.103127 52.915627 44.103127Q50.275 44.103127 49.165627 43.196877Q48.071877 42.30625 48.071877 40.915627Q48.071877 40.775 48.0875 40.5875ZM50.540627 34.49375Q50.540627 36.15 51.165627 36.915627Q51.80625 37.68125 52.74375 37.68125Q53.759377 37.68125 54.446877 36.9Q55.15 36.103127 55.15 34.571877Q55.15 32.9625 54.478127 32.18125Q53.821877 31.400002 52.80625 31.400002Q51.80625 31.400002 51.165627 32.165627Q50.540627 32.93125 50.540627 34.49375ZM59.36875 36.946877L62.11875 36.525Q62.30625 37.321877 62.8375 37.74375Q63.36875 38.15 64.3375 38.15Q65.4 38.15 65.94688 37.759377Q66.30625 37.49375 66.30625 37.025Q66.30625 36.7125 66.10313 36.509377Q65.9 36.321877 65.19688 36.15Q61.86875 35.415627 60.978127 34.80625Q59.74375 33.978127 59.74375 32.478127Q59.74375 31.134377 60.80625 30.212502Q61.884377 29.290627 64.11875 29.290627Q66.24375 29.290627 67.275 29.993752Q68.32188 30.681252 68.7125 32.040627L66.11875 32.509377Q65.94688 31.915627 65.47813 31.587502Q65.025 31.259377 64.16563 31.259377Q63.0875 31.259377 62.61875 31.571877Q62.30625 31.790627 62.30625 32.11875Q62.30625 32.415627 62.571877 32.61875Q62.946877 32.9 65.13438 33.4Q67.32188 33.9 68.19688 34.61875Q69.05625 35.353127 69.05625 36.65Q69.05625 38.0875 67.86875 39.11875Q66.68125 40.134377 64.3375 40.134377Q62.228127 40.134377 60.978127 39.275Q59.74375 38.415627 59.36875 36.946877ZM77.25938 29.525002L79.82188 29.525002L79.82188 31.056252Q80.32188 30.275002 81.16563 29.790627Q82.00938 29.290627 83.05625 29.290627Q84.85313 29.290627 86.10313 30.712502Q87.36875 32.11875 87.36875 34.65Q87.36875 37.259377 86.10313 38.696877Q84.8375 40.134377 83.025 40.134377Q82.16563 40.134377 81.4625 39.790627Q80.775 39.446877 80.00938 38.61875L80.00938 43.853127L77.25938 43.853127L77.25938 29.525002ZM79.97813 34.540627Q79.97813 36.290627 80.66563 37.134377Q81.35313 37.9625 82.35313 37.9625Q83.30625 37.9625 83.94688 37.196877Q84.5875 36.415627 84.5875 34.68125Q84.5875 33.040627 83.93125 32.259377Q83.275 31.462502 82.30625 31.462502Q81.30625 31.462502 80.63438 32.24375Q79.97813 33.009377 79.97813 34.540627ZM88.69688 34.571877Q88.69688 33.196877 89.36875 31.915627Q90.05625 30.634377 91.29063 29.962502Q92.525 29.290627 94.04063 29.290627Q96.4 29.290627 97.9 30.821877Q99.4 32.353127 99.4 34.68125Q99.4 37.040627 97.88438 38.5875Q96.36875 40.134377 94.05625 40.134377Q92.63438 40.134377 91.3375 39.49375Q90.05625 38.8375 89.36875 37.603127Q88.69688 36.353127 88.69688 34.571877ZM91.50938 34.7125Q91.50938 36.259377 92.24375 37.0875Q92.97813 37.9 94.05625 37.9Q95.13438 37.9 95.85313 37.0875Q96.5875 36.259377 96.5875 34.696877Q96.5875 33.165627 95.85313 32.353127Q95.13438 31.525002 94.05625 31.525002Q92.97813 31.525002 92.24375 32.353127Q91.50938 33.165627 91.50938 34.7125ZM103.9625 39.9L101.2125 39.9L101.2125 29.525002L103.775 29.525002L103.775 31.009377Q104.41563 29.962502 104.93125 29.634377Q105.4625 29.290627 106.13438 29.290627Q107.07188 29.290627 107.93125 29.806252L107.0875 32.196877Q106.4 31.759377 105.80625 31.759377Q105.22813 31.759377 104.82188 32.071877Q104.41563 32.384377 104.18125 33.228127Q103.9625 34.05625 103.9625 36.696877L103.9625 39.9ZM124.38438 32.5875L121.68125 33.0875Q121.54063 32.275 121.05625 31.868752Q120.57188 31.446877 119.80625 31.446877Q118.775 31.446877 118.16563 32.165627Q117.55625 32.86875 117.55625 34.525Q117.55625 36.36875 118.16563 37.134377Q118.79063 37.9 119.8375 37.9Q120.61875 37.9 121.11875 37.4625Q121.61875 37.009377 121.82188 35.93125L124.50938 36.384377Q124.10313 38.24375 122.9 39.196877Q121.7125 40.134377 119.7125 40.134377Q117.43125 40.134377 116.07188 38.696877Q114.72813 37.259377 114.72813 34.728127Q114.72813 32.15 116.0875 30.728127Q117.44688 29.290627 119.75938 29.290627Q121.65 29.290627 122.75938 30.118752Q123.88438 30.931252 124.38438 32.5875ZM128.9625 39.9L126.2125 39.9L126.2125 29.525002L128.775 29.525002L128.775 31.009377Q129.41562 29.962502 129.93124 29.634377Q130.4625 29.290627 131.13437 29.290627Q132.07187 29.290627 132.93124 29.806252L132.0875 32.196877Q131.4 31.759377 130.80624 31.759377Q130.22812 31.759377 129.82187 32.071877Q129.41562 32.384377 129.18124 33.228127Q128.9625 34.05625 128.9625 36.696877L128.9625 39.9ZM134.3375 28.118752L134.3375 25.587502L137.0875 25.587502L137.0875 28.118752L134.3375 28.118752ZM134.3375 39.9L134.3375 29.525002L137.0875 29.525002L137.0875 39.9L134.3375 39.9ZM144.0875 29.525002L144.0875 31.712502L142.2125 31.712502L142.2125 35.9Q142.2125 37.165627 142.25937 37.384377Q142.32187 37.5875 142.50937 37.728127Q142.7125 37.853127 142.97812 37.853127Q143.35312 37.853127 144.0875 37.5875L144.32187 39.728127Q143.35312 40.134377 142.15 40.134377Q141.4 40.134377 140.80624 39.884377Q140.2125 39.634377 139.93124 39.24375Q139.66562 38.8375 139.55624 38.165627Q139.4625 37.696877 139.4625 36.24375L139.4625 31.712502L138.19687 31.712502L138.19687 29.525002L139.4625 29.525002L139.4625 27.462502L142.2125 25.868752L142.2125 29.525002L144.0875 29.525002ZM146.3375 28.118752L146.3375 25.587502L149.0875 25.587502L149.0875 28.118752L146.3375 28.118752ZM146.3375 39.9L146.3375 29.525002L149.0875 29.525002L149.0875 39.9L146.3375 39.9ZM160.38437 32.5875L157.68124 33.0875Q157.54062 32.275 157.05624 31.868752Q156.57187 31.446877 155.80624 31.446877Q154.775 31.446877 154.16562 32.165627Q153.55624 32.86875 153.55624 34.525Q153.55624 36.36875 154.16562 37.134377Q154.79062 37.9 155.8375 37.9Q156.61874 37.9 157.11874 37.4625Q157.61874 37.009377 157.82187 35.93125L160.50937 36.384377Q160.10312 38.24375 158.9 39.196877Q157.7125 40.134377 155.7125 40.134377Q153.43124 40.134377 152.07187 38.696877Q150.72812 37.259377 150.72812 34.728127Q150.72812 32.15 152.0875 30.728127Q153.44687 29.290627 155.75937 29.290627Q157.65 29.290627 158.75937 30.118752Q159.88437 30.931252 160.38437 32.5875ZM162.3375 28.118752L162.3375 25.587502L165.0875 25.587502L165.0875 28.118752L162.3375 28.118752ZM162.3375 39.9L162.3375 29.525002L165.0875 29.525002L165.0875 39.9L162.3375 39.9ZM176.85312 39.9L174.30624 39.9L174.30624 38.36875Q173.66562 39.259377 172.79062 39.696877Q171.93124 40.134377 171.05624 40.134377Q169.275 40.134377 167.99374 38.696877Q166.72812 37.259377 166.72812 34.68125Q166.72812 32.040627 167.9625 30.665627Q169.19687 29.290627 171.10312 29.290627Q172.8375 29.290627 174.10312 30.743752L174.10312 25.587502L176.85312 25.587502L176.85312 39.9ZM169.525 34.49375Q169.525 36.15 169.97812 36.884377Q170.65 37.9625 171.8375 37.9625Q172.79062 37.9625 173.44687 37.165627Q174.11874 36.353127 174.11874 34.759377Q174.11874 32.9625 173.4625 32.18125Q172.82187 31.400002 171.82187 31.400002Q170.8375 31.400002 170.18124 32.18125Q169.525 32.946877 169.525 34.49375ZM181.38437 32.696877L178.9 32.24375Q179.32187 30.743752 180.3375 30.025002Q181.36874 29.290627 183.38437 29.290627Q185.22812 29.290627 186.11874 29.728127Q187.025 30.165627 187.38437 30.837502Q187.75937 31.493752 187.75937 33.290627L187.72812 36.49375Q187.72812 37.853127 187.85312 38.509377Q187.99374 39.15 188.35312 39.9L185.63437 39.9Q185.525 39.61875 185.36874 39.0875Q185.30624 38.8375 185.275 38.759377Q184.57187 39.446877 183.75937 39.790627Q182.9625 40.134377 182.05624 40.134377Q180.4625 40.134377 179.54062 39.275Q178.61874 38.4 178.61874 37.071877Q178.61874 36.18125 179.025 35.49375Q179.44687 34.80625 180.19687 34.446877Q180.9625 34.071877 182.4 33.80625Q184.32187 33.446877 185.05624 33.134377L185.05624 32.853127Q185.05624 32.071877 184.66562 31.743752Q184.275 31.400002 183.19687 31.400002Q182.4625 31.400002 182.04062 31.681252Q181.63437 31.962502 181.38437 32.696877ZM185.05624 34.915627Q184.525 35.0875 183.38437 35.3375Q182.24374 35.5875 181.9 35.821877Q181.35312 36.196877 181.35312 36.790627Q181.35312 37.353127 181.775 37.775Q182.2125 38.196877 182.88437 38.196877Q183.61874 38.196877 184.29062 37.7125Q184.79062 37.3375 184.94687 36.80625Q185.05624 36.446877 185.05624 35.4625L185.05624 34.915627ZM199.85312 39.9L197.30624 39.9L197.30624 38.36875Q196.66562 39.259377 195.79062 39.696877Q194.93124 40.134377 194.05624 40.134377Q192.275 40.134377 190.99374 38.696877Q189.72812 37.259377 189.72812 34.68125Q189.72812 32.040627 190.9625 30.665627Q192.19687 29.290627 194.10312 29.290627Q195.8375 29.290627 197.10312 30.743752L197.10312 25.587502L199.85312 25.587502L199.85312 39.9ZM192.525 34.49375Q192.525 36.15 192.97812 36.884377Q193.65 37.9625 194.8375 37.9625Q195.79062 37.9625 196.44687 37.165627Q197.11874 36.353127 197.11874 34.759377Q197.11874 32.9625 196.4625 32.18125Q195.82187 31.400002 194.82187 31.400002Q193.8375 31.400002 193.18124 32.18125Q192.525 32.946877 192.525 34.49375ZM208.3375 36.603127L211.07187 37.05625Q210.55624 38.55625 209.41562 39.353127Q208.275 40.134377 206.57187 40.134377Q203.85312 40.134377 202.55624 38.36875Q201.54062 36.946877 201.54062 34.790627Q201.54062 32.2125 202.88437 30.759377Q204.22812 29.290627 206.29062 29.290627Q208.60312 29.290627 209.93124 30.821877Q211.275 32.353127 211.22812 35.509377L204.35312 35.509377Q204.38437 36.728127 205.00937 37.415627Q205.65 38.0875 206.5875 38.0875Q207.24374 38.0875 207.68124 37.74375Q208.11874 37.384377 208.3375 36.603127ZM208.49374 33.821877Q208.4625 32.634377 207.86874 32.025Q207.29062 31.400002 206.4625 31.400002Q205.55624 31.400002 204.97812 32.040627Q204.38437 32.696877 204.4 33.821877L208.49374 33.821877ZM228.775 39.9L226.025 39.9L226.025 34.603127Q226.025 32.93125 225.85312 32.446877Q225.68124 31.946877 225.275 31.681252Q224.88437 31.400002 224.32187 31.400002Q223.61874 31.400002 223.04062 31.790627Q222.47812 32.18125 222.25937 32.821877Q222.05624 33.4625 222.05624 35.196877L222.05624 39.9L219.32187 39.9L219.32187 29.525002L221.86874 29.525002L221.86874 31.056252Q223.22812 29.290627 225.29062 29.290627Q226.19687 29.290627 226.94687 29.618752Q227.69687 29.946877 228.07187 30.462502Q228.4625 30.962502 228.61874 31.618752Q228.775 32.259377 228.775 33.446877L228.775 39.9ZM230.69687 34.571877Q230.69687 33.196877 231.36874 31.915627Q232.05624 30.634377 233.29062 29.962502Q234.525 29.290627 236.04062 29.290627Q238.4 29.290627 239.9 30.821877Q241.4 32.353127 241.4 34.68125Q241.4 37.040627 239.88437 38.5875Q238.36874 40.134377 236.05624 40.134377Q234.63437 40.134377 233.3375 39.49375Q232.05624 38.8375 231.36874 37.603127Q230.69687 36.353127 230.69687 34.571877ZM233.50937 34.7125Q233.50937 36.259377 234.24374 37.0875Q234.97812 37.9 236.05624 37.9Q237.13437 37.9 237.85312 37.0875Q238.5875 36.259377 238.5875 34.696877Q238.5875 33.165627 237.85312 32.353127Q237.13437 31.525002 236.05624 31.525002Q234.97812 31.525002 234.24374 32.353127Q233.50937 33.165627 233.50937 34.7125ZM248.13437 29.525002L249.66562 29.525002L249.66562 28.743752Q249.66562 27.431252 249.93124 26.790627Q250.2125 26.150002 250.9625 25.743752Q251.7125 25.337502 252.85312 25.337502Q254.025 25.337502 255.15 25.696877L254.775 27.603127Q254.11874 27.446877 253.50937 27.446877Q252.91562 27.446877 252.65 27.728127Q252.4 28.009377 252.4 28.790627L252.4 29.525002L254.44687 29.525002L254.44687 31.681252L252.4 31.681252L252.4 39.9L249.66562 39.9L249.66562 31.681252L248.13437 31.681252L248.13437 29.525002ZM256.3375 39.9L256.3375 25.587502L259.0875 25.587502L259.0875 39.9L256.3375 39.9ZM268.16562 39.9L268.16562 38.353127Q267.60312 39.18125 266.66562 39.665627Q265.74374 40.134377 264.72812 40.134377Q263.68124 40.134377 262.85312 39.68125Q262.025 39.2125 261.65 38.384377Q261.275 37.55625 261.275 36.0875L261.275 29.525002L264.025 29.525002L264.025 34.290627Q264.025 36.478127 264.16562 36.978127Q264.32187 37.4625 264.7125 37.759377Q265.11874 38.040627 265.74374 38.040627Q266.44687 38.040627 266.99374 37.665627Q267.55624 37.275 267.75937 36.7125Q267.9625 36.134377 267.9625 33.9L267.9625 29.525002L270.7125 29.525002L270.7125 39.9L268.16562 39.9ZM272.025 39.9L275.75937 34.55625L272.18124 29.525002L275.525 29.525002L277.35312 32.384377L279.29062 29.525002L282.50937 29.525002L278.99374 34.446877L282.8375 39.9L279.4625 39.9L277.35312 36.68125L275.22812 39.9L272.025 39.9ZM283.69687 34.571877Q283.69687 33.196877 284.36874 31.915627Q285.05624 30.634377 286.29062 29.962502Q287.525 29.290627 289.04062 29.290627Q291.4 29.290627 292.9 30.821877Q294.4 32.353127 294.4 34.68125Q294.4 37.040627 292.88437 38.5875Q291.36874 40.134377 289.05624 40.134377Q287.63437 40.134377 286.3375 39.49375Q285.05624 38.8375 284.36874 37.603127Q283.69687 36.353127 283.69687 34.571877ZM286.50937 34.7125Q286.50937 36.259377 287.24374 37.0875Q287.97812 37.9 289.05624 37.9Q290.13437 37.9 290.85312 37.0875Q291.5875 36.259377 291.5875 34.696877Q291.5875 33.165627 290.85312 32.353127Q290.13437 31.525002 289.05624 31.525002Q287.97812 31.525002 287.24374 32.353127Q286.50937 33.165627 286.50937 34.7125ZM311.85312 39.9L309.30624 39.9L309.30624 38.36875Q308.66562 39.259377 307.79062 39.696877Q306.93124 40.134377 306.05624 40.134377Q304.275 40.134377 302.99374 38.696877Q301.72812 37.259377 301.72812 34.68125Q301.72812 32.040627 302.9625 30.665627Q304.19687 29.290627 306.10312 29.290627Q307.8375 29.290627 309.10312 30.743752L309.10312 25.587502L311.85312 25.587502L311.85312 39.9ZM304.525 34.49375Q304.525 36.15 304.97812 36.884377Q305.65 37.9625 306.8375 37.9625Q307.79062 37.9625 308.44687 37.165627Q309.11874 36.353127 309.11874 34.759377Q309.11874 32.9625 308.4625 32.18125Q307.82187 31.400002 306.82187 31.400002Q305.8375 31.400002 305.18124 32.18125Q304.525 32.946877 304.525 34.49375ZM320.3375 36.603127L323.07187 37.05625Q322.55624 38.55625 321.41562 39.353127Q320.275 40.134377 318.57187 40.134377Q315.85312 40.134377 314.55624 38.36875Q313.54062 36.946877 313.54062 34.790627Q313.54062 32.2125 314.88437 30.759377Q316.22812 29.290627 318.29062 29.290627Q320.60312 29.290627 321.93124 30.821877Q323.275 32.353127 323.22812 35.509377L316.35312 35.509377Q316.38437 36.728127 317.00937 37.415627Q317.65 38.0875 318.5875 38.0875Q319.24374 38.0875 319.68124 37.74375Q320.11874 37.384377 320.3375 36.603127ZM320.49374 33.821877Q320.4625 32.634377 319.86874 32.025Q319.29062 31.400002 318.4625 31.400002Q317.55624 31.400002 316.97812 32.040627Q316.38437 32.696877 316.4 33.821877L320.49374 33.821877ZM340.50937 34.634377L343.32187 35.525Q342.68124 37.86875 341.18124 39.009377Q339.68124 40.15 337.36874 40.15Q334.525 40.15 332.68124 38.196877Q330.85312 36.24375 330.85312 32.86875Q330.85312 29.290627 332.69687 27.321877Q334.54062 25.337502 337.54062 25.337502Q340.18124 25.337502 341.82187 26.884377Q342.79062 27.806252 343.275 29.525002L340.41562 30.212502Q340.16562 29.103127 339.35312 28.462502Q338.55624 27.806252 337.4 27.806252Q335.80624 27.806252 334.80624 28.946877Q333.82187 30.087502 333.82187 32.65Q333.82187 35.36875 334.79062 36.525Q335.775 37.665627 337.3375 37.665627Q338.49374 37.665627 339.32187 36.946877Q340.15 36.2125 340.50937 34.634377ZM344.69687 34.571877Q344.69687 33.196877 345.36874 31.915627Q346.05624 30.634377 347.29062 29.962502Q348.525 29.290627 350.04062 29.290627Q352.4 29.290627 353.9 30.821877Q355.4 32.353127 355.4 34.68125Q355.4 37.040627 353.88437 38.5875Q352.36874 40.134377 350.05624 40.134377Q348.63437 40.134377 347.3375 39.49375Q346.05624 38.8375 345.36874 37.603127Q344.69687 36.353127 344.69687 34.571877ZM347.50937 34.7125Q347.50937 36.259377 348.24374 37.0875Q348.97812 37.9 350.05624 37.9Q351.13437 37.9 351.85312 37.0875Q352.5875 36.259377 352.5875 34.696877Q352.5875 33.165627 351.85312 32.353127Q351.13437 31.525002 350.05624 31.525002Q348.97812 31.525002 348.24374 32.353127Q347.50937 33.165627 347.50937 34.7125ZM357.13437 29.525002L359.66562 29.525002L359.66562 30.946877Q361.025 29.290627 362.9 29.290627Q363.88437 29.290627 364.61874 29.712502Q365.35312 30.118752 365.82187 30.946877Q366.50937 30.118752 367.29062 29.712502Q368.0875 29.290627 368.99374 29.290627Q370.13437 29.290627 370.91562 29.759377Q371.7125 30.228127 372.10312 31.118752Q372.38437 31.790627 372.38437 33.275L372.38437 39.9L369.63437 39.9L369.63437 33.978127Q369.63437 32.43125 369.35312 31.978127Q368.97812 31.400002 368.18124 31.400002Q367.60312 31.400002 367.0875 31.759377Q366.5875 32.103127 366.36874 32.775Q366.15 33.446877 366.15 34.915627L366.15 39.9L363.4 39.9L363.4 34.2125Q363.4 32.696877 363.24374 32.259377Q363.10312 31.821877 362.79062 31.618752Q362.49374 31.400002 361.9625 31.400002Q361.3375 31.400002 360.82187 31.743752Q360.32187 32.071877 360.0875 32.728127Q359.86874 33.36875 359.86874 34.853127L359.86874 39.9L357.13437 39.9L357.13437 29.525002ZM374.25937 29.525002L376.82187 29.525002L376.82187 31.056252Q377.32187 30.275002 378.16562 29.790627Q379.00937 29.290627 380.05624 29.290627Q381.85312 29.290627 383.10312 30.712502Q384.36874 32.11875 384.36874 34.65Q384.36874 37.259377 383.10312 38.696877Q381.8375 40.134377 380.025 40.134377Q379.16562 40.134377 378.4625 39.790627Q377.775 39.446877 377.00937 38.61875L377.00937 43.853127L374.25937 43.853127L374.25937 29.525002ZM376.97812 34.540627Q376.97812 36.290627 377.66562 37.134377Q378.35312 37.9625 379.35312 37.9625Q380.30624 37.9625 380.94687 37.196877Q381.5875 36.415627 381.5875 34.68125Q381.5875 33.040627 380.93124 32.259377Q380.275 31.462502 379.30624 31.462502Q378.30624 31.462502 377.63437 32.24375Q376.97812 33.009377 376.97812 34.540627ZM388.9625 39.9L386.2125 39.9L386.2125 29.525002L388.775 29.525002L388.775 31.009377Q389.41562 29.962502 389.93124 29.634377Q390.4625 29.290627 391.13437 29.290627Q392.07187 29.290627 392.93124 29.806252L392.0875 32.196877Q391.4 31.759377 390.80624 31.759377Q390.22812 31.759377 389.82187 32.071877Q389.41562 32.384377 389.18124 33.228127Q388.9625 34.05625 388.9625 36.696877L388.9625 39.9ZM396.38437 32.696877L393.9 32.24375Q394.32187 30.743752 395.3375 30.025002Q396.36874 29.290627 398.38437 29.290627Q400.22812 29.290627 401.11874 29.728127Q402.025 30.165627 402.38437 30.837502Q402.75937 31.493752 402.75937 33.290627L402.72812 36.49375Q402.72812 37.853127 402.85312 38.509377Q402.99374 39.15 403.35312 39.9L400.63437 39.9Q400.525 39.61875 400.36874 39.0875Q400.30624 38.8375 400.275 38.759377Q399.57187 39.446877 398.75937 39.790627Q397.9625 40.134377 397.05624 40.134377Q395.4625 40.134377 394.54062 39.275Q393.61874 38.4 393.61874 37.071877Q393.61874 36.18125 394.025 35.49375Q394.44687 34.80625 395.19687 34.446877Q395.9625 34.071877 397.4 33.80625Q399.32187 33.446877 400.05624 33.134377L400.05624 32.853127Q400.05624 32.071877 399.66562 31.743752Q399.275 31.400002 398.19687 31.400002Q397.4625 31.400002 397.04062 31.681252Q396.63437 31.962502 396.38437 32.696877ZM400.05624 34.915627Q399.525 35.0875 398.38437 35.3375Q397.24374 35.5875 396.9 35.821877Q396.35312 36.196877 396.35312 36.790627Q396.35312 37.353127 396.775 37.775Q397.2125 38.196877 397.88437 38.196877Q398.61874 38.196877 399.29062 37.7125Q399.79062 37.3375 399.94687 36.80625Q400.05624 36.446877 400.05624 35.4625L400.05624 34.915627ZM404.36874 36.946877L407.11874 36.525Q407.30624 37.321877 407.8375 37.74375Q408.36874 38.15 409.3375 38.15Q410.4 38.15 410.94687 37.759377Q411.30624 37.49375 411.30624 37.025Q411.30624 36.7125 411.10312 36.509377Q410.9 36.321877 410.19687 36.15Q406.86874 35.415627 405.97812 34.80625Q404.74374 33.978127 404.74374 32.478127Q404.74374 31.134377 405.80624 30.212502Q406.88437 29.290627 409.11874 29.290627Q411.24374 29.290627 412.275 29.993752Q413.32187 30.681252 413.7125 32.040627L411.11874 32.509377Q410.94687 31.915627 410.47812 31.587502Q410.025 31.259377 409.16562 31.259377Q408.0875 31.259377 407.61874 31.571877Q407.30624 31.790627 407.30624 32.11875Q407.30624 32.415627 407.57187 32.61875Q407.94687 32.9 410.13437 33.4Q412.32187 33.9 413.19687 34.61875Q414.05624 35.353127 414.05624 36.65Q414.05624 38.0875 412.86874 39.11875Q411.68124 40.134377 409.3375 40.134377Q407.22812 40.134377 405.97812 39.275Q404.74374 38.415627 404.36874 36.946877Z" fill-rule="nonzero"/></svg>