<svg version="1.1" viewBox="0.0 0.0 675.0 418.0" fill="none" stroke="none" stroke-linecap="square" stroke-miterlimit="10" width="675" height="418" xmlns:xlink="http://www.w3.org/1999/xlink" xmlns="http://www.w3.org/2000/svg"><path fill="#ffffff" d="M0 0L675.0 0L675.0 418.0L0 418.0L0 0Z" fill-rule="nonzero"/><path fill="#a98823" d="M502.23038 214.03159C502.23038 267.9413 439.79828 311.6438 362.78436 311.6438L362.78436 290.7269C439.79828 290.7269 502.23038 247.02441 502.23038 193.11469Z" fill-rule="nonzero"/><path fill="#f1c232" d="M362.78436 95.50249C439.79828 95.50249 502.23038 139.20496 502.23038 193.11469C502.23038 247.02441 439.79828 290.7269 362.78436 290.7269L362.78436 193.11469Z" fill-rule="nonzero"/><path fill="#ff0000" d="M242.0206 144.30858C266.93024 114.10726 312.96512 95.50249 362.78436 95.50249L362.78436 193.11469Z" fill-rule="nonzero"/><path fill="#345ea2" d="M242.0206 262.83768C229.78165 247.99876 223.33838 231.1661 223.33838 214.03159L223.33838 193.11469C223.33838 210.2492 229.78165 227.08186 242.0206 241.92079Z" fill-rule="nonzero"/><path fill="#4a86e8" d="M242.0206 241.92079C217.11096 211.71947 217.11096 174.5099 242.0206 144.30858L362.78436 193.11469Z" fill-rule="nonzero"/><path fill="#b36b00" d="M362.78436 311.6438C312.96512 311.6438 266.93024 293.039 242.0206 262.83768L242.0206 241.92079C266.93024 272.1221 312.96512 290.7269 362.78436 290.7269Z" fill-rule="nonzero"/><path fill="#ff9900" d="M362.78436 290.7269C312.96512 290.7269 266.93024 272.1221 242.0206 241.92079L362.78436 193.11469Z" fill-rule="nonzero"/><path fill="#ffffff" d="M477.24744 195.45844L479.1068 195.22406Q479.18494 195.94281 479.57556 196.31781Q479.9662 196.69281 480.5287 196.69281Q481.12244 196.69281 481.5287 196.23969Q481.93494 195.78656 481.93494 195.02094Q481.93494 194.30219 481.5443 193.88031Q481.1537 193.45844 480.5912 193.45844Q480.2162 193.45844 479.7162 193.59906L479.9193 192.03656Q480.70056 192.05219 481.1068 191.69281Q481.5287 191.33344 481.5287 190.73969Q481.5287 190.23969 481.2162 189.94281Q480.9193 189.63031 480.4193 189.63031Q479.93494 189.63031 479.57556 189.97406Q479.2318 190.31781 479.1537 190.97406L477.38806 190.67719Q477.57556 189.75531 477.93494 189.22406Q478.30994 188.67719 478.9818 188.36469Q479.6537 188.05219 480.4818 188.05219Q481.88806 188.05219 482.74744 188.95844Q483.45056 189.69281 483.45056 190.61469Q483.45056 191.94281 482.01306 192.72406Q482.87244 192.91156 483.38806 193.55219Q483.9037 194.19281 483.9037 195.09906Q483.9037 196.42719 482.93494 197.36469Q481.9662 198.28656 480.5443 198.28656Q479.18494 198.28656 478.2787 197.50531Q477.38806 196.72406 477.24744 195.45844Z" fill-rule="nonzero"/><path fill="#ffffff" d="M312.63788 260.75168L310.716 260.75168L310.716 253.5173Q309.6535 254.50168 308.23163 254.97043L308.23163 253.22043Q308.98163 252.98605 309.85663 252.29855Q310.74725 251.61105 311.07538 250.68918L312.63788 250.68918L312.63788 260.75168Z" fill-rule="nonzero"/><path fill="#ffffff" d="M246.36818 198.11469L244.4463 198.11469L244.4463 190.88031Q243.3838 191.86469 241.96193 192.33344L241.96193 190.58344Q242.71193 190.34906 243.58693 189.66156Q244.47755 188.97406 244.80568 188.05219L246.36818 188.05219L246.36818 198.11469Z" fill-rule="nonzero"/><path fill="#ffffff" d="M312.63788 135.47769L310.716 135.47769L310.716 128.24332Q309.6535 129.22769 308.23163 129.69644L308.23163 127.94644Q308.98163 127.71207 309.85663 127.02457Q310.74725 126.33707 311.07538 125.41519L312.63788 125.41519L312.63788 135.47769Z" fill-rule="nonzero"/><path fill="#313131" d="M72.3125 108.30677L72.3125 99.71302L75.546875 99.71302Q76.53125 99.71302 77.125 99.978645Q77.71875 100.24427 78.046875 100.791145Q78.390625 101.322395 78.390625 101.916145Q78.390625 102.46302 78.09375 102.947395Q77.796875 103.43177 77.1875 103.728645Q77.96875 103.96302 78.375 104.52552Q78.796875 105.072395 78.796875 105.822395Q78.796875 106.416145 78.546875 106.947395Q78.296875 107.46302 77.921875 107.74427Q77.546875 108.02552 76.96875 108.166145Q76.40625 108.30677 75.59375 108.30677L72.3125 108.30677ZM73.453125 103.322395L75.3125 103.322395Q76.0625 103.322395 76.390625 103.228645Q76.828125 103.103645 77.046875 102.80677Q77.265625 102.49427 77.265625 102.041145Q77.265625 101.61927 77.0625 101.291145Q76.859375 100.96302 76.46875 100.853645Q76.09375 100.728645 75.171875 100.728645L73.453125 100.728645L73.453125 103.322395ZM73.453125 107.291145L75.59375 107.291145Q76.140625 107.291145 76.359375 107.24427Q76.765625 107.18177 77.015625 107.02552Q77.28125 106.853645 77.453125 106.541145Q77.625 106.228645 77.625 105.822395Q77.625 105.33802 77.375 104.978645Q77.140625 104.61927 76.703125 104.478645Q76.265625 104.33802 75.4375 104.33802L73.453125 104.33802L73.453125 107.291145ZM80.203125 108.30677L80.203125 99.71302L81.265625 99.71302L81.265625 108.30677L80.203125 108.30677ZM82.84375 105.197395Q82.84375 103.46302 83.796875 102.634895Q84.59375 101.947395 85.75 101.947395Q87.03125 101.947395 87.84375 102.791145Q88.671875 103.61927 88.671875 105.103645Q88.671875 106.30677 88.3125 106.99427Q87.953125 107.68177 87.25 108.072395Q86.5625 108.447395 85.75 108.447395Q84.453125 108.447395 83.640625 107.61927Q82.84375 106.77552 82.84375 105.197395ZM83.921875 105.197395Q83.921875 106.384895 84.4375 106.978645Q84.96875 107.572395 85.75 107.572395Q86.546875 107.572395 87.0625 106.978645Q87.578125 106.384895 87.578125 105.166145Q87.578125 104.009895 87.046875 103.416145Q86.53125 102.822395 85.75 102.822395Q84.96875 102.822395 84.4375 103.416145Q83.921875 103.99427 83.921875 105.197395ZM94.296875 106.02552L95.328125 106.166145Q95.15625 107.228645 94.453125 107.83802Q93.75 108.447395 92.734375 108.447395Q91.453125 108.447395 90.671875 107.61927Q89.90625 106.77552 89.90625 105.21302Q89.90625 104.21302 90.234375 103.46302Q90.578125 102.697395 91.25 102.322395Q91.9375 101.947395 92.75 101.947395Q93.75 101.947395 94.390625 102.46302Q95.046875 102.96302 95.234375 103.916145L94.203125 104.072395Q94.0625 103.447395 93.6875 103.134895Q93.3125 102.80677 92.78125 102.80677Q91.984375 102.80677 91.484375 103.384895Q90.984375 103.947395 90.984375 105.18177Q90.984375 106.447395 91.46875 107.009895Q91.953125 107.572395 92.71875 107.572395Q93.34375 107.572395 93.75 107.197395Q94.171875 106.822395 94.296875 106.02552ZM96.234375 108.30677L96.234375 99.71302L97.296875 99.71302L97.296875 104.61927L99.78125 102.08802L101.15625 102.08802L98.765625 104.384895L101.390625 108.30677L100.09375 108.30677L98.03125 105.11927L97.296875 105.83802L97.296875 108.30677L96.234375 108.30677ZM106.484375 106.30677L107.578125 106.43177Q107.328125 107.384895 106.625 107.916145Q105.921875 108.447395 104.84375 108.447395Q103.484375 108.447395 102.671875 107.603645Q101.875 106.759895 101.875 105.24427Q101.875 103.68177 102.6875 102.822395Q103.5 101.947395 104.78125 101.947395Q106.03125 101.947395 106.8125 102.791145Q107.609375 103.634895 107.609375 105.18177Q107.609375 105.27552 107.609375 105.46302L102.96875 105.46302Q103.03125 106.49427 103.546875 107.041145Q104.0625 107.572395 104.84375 107.572395Q105.421875 107.572395 105.828125 107.27552Q106.25 106.96302 106.484375 106.30677ZM103.03125 104.603645L106.5 104.603645Q106.4375 103.80677 106.109375 103.416145Q105.59375 102.80677 104.796875 102.80677Q104.0625 102.80677 103.5625 103.291145Q103.078125 103.77552 103.03125 104.603645ZM109.21875 108.30677L109.21875 102.08802L110.171875 102.08802L110.171875 103.02552Q110.53125 102.36927 110.828125 102.166145Q111.140625 101.947395 111.515625 101.947395Q112.046875 101.947395 112.59375 102.27552L112.234375 103.259895Q111.84375 103.02552 111.46875 103.02552Q111.109375 103.02552 110.828125 103.24427Q110.5625 103.447395 110.453125 103.822395Q110.265625 104.384895 110.265625 105.041145L110.265625 108.30677L109.21875 108.30677Z" fill-rule="nonzero"/><path fill="#9e9e9e" d="M75.90625 125.30677L74.859375 125.30677L74.859375 118.58802Q74.46875 118.947395 73.84375 119.322395Q73.234375 119.68177 72.75 119.853645L72.75 118.83802Q73.625 118.416145 74.28125 117.83802Q74.953125 117.24427 75.234375 116.68177L75.90625 116.68177L75.90625 125.30677ZM84.40625 118.822395L83.359375 118.90052Q83.21875 118.27552 82.96875 117.99427Q82.53125 117.541145 81.90625 117.541145Q81.40625 117.541145 81.015625 117.822395Q80.53125 118.197395 80.234375 118.90052Q79.953125 119.58802 79.9375 120.86927Q80.3125 120.291145 80.859375 120.009895Q81.421875 119.728645 82.03125 119.728645Q83.078125 119.728645 83.8125 120.509895Q84.5625 121.291145 84.5625 122.509895Q84.5625 123.322395 84.203125 124.02552Q83.859375 124.71302 83.25 125.08802Q82.640625 125.447395 81.875 125.447395Q80.546875 125.447395 79.71875 124.478645Q78.890625 123.509895 78.890625 121.291145Q78.890625 118.791145 79.8125 117.666145Q80.609375 116.68177 81.96875 116.68177Q82.984375 116.68177 83.625 117.259895Q84.28125 117.822395 84.40625 118.822395ZM80.109375 122.52552Q80.109375 123.072395 80.328125 123.572395Q80.5625 124.05677 80.96875 124.322395Q81.390625 124.58802 81.859375 124.58802Q82.515625 124.58802 83.0 124.05677Q83.484375 123.509895 83.484375 122.58802Q83.484375 121.697395 83.0 121.18177Q82.53125 120.666145 81.8125 120.666145Q81.09375 120.666145 80.59375 121.18177Q80.109375 121.697395 80.109375 122.52552ZM86.5 125.30677L86.5 124.103645L87.703125 124.103645L87.703125 125.30677Q87.703125 125.96302 87.46875 126.36927Q87.234375 126.791145 86.734375 127.009895L86.4375 126.55677Q86.765625 126.416145 86.921875 126.11927Q87.078125 125.83802 87.109375 125.30677L86.5 125.30677ZM89.0 117.83802L89.0 116.822395L94.5625 116.822395L94.5625 117.65052Q93.75 118.52552 92.9375 119.978645Q92.140625 121.416145 91.703125 122.947395Q91.375 124.02552 91.296875 125.30677L90.203125 125.30677Q90.21875 124.291145 90.59375 122.853645Q90.984375 121.416145 91.6875 120.08802Q92.40625 118.759895 93.21875 117.83802L89.0 117.83802ZM96.140625 118.77552Q96.140625 117.853645 96.59375 117.21302Q97.0625 116.572395 97.9375 116.572395Q98.75 116.572395 99.28125 117.15052Q99.8125 117.728645 99.8125 118.83802Q99.8125 119.93177 99.265625 120.52552Q98.734375 121.103645 97.953125 121.103645Q97.171875 121.103645 96.65625 120.52552Q96.140625 119.947395 96.140625 118.77552ZM97.96875 117.291145Q97.578125 117.291145 97.3125 117.634895Q97.0625 117.978645 97.0625 118.884895Q97.0625 119.71302 97.3125 120.05677Q97.578125 120.384895 97.96875 120.384895Q98.375 120.384895 98.625 120.041145Q98.890625 119.697395 98.890625 118.80677Q98.890625 117.96302 98.625 117.634895Q98.359375 117.291145 97.96875 117.291145ZM97.96875 125.61927L102.671875 116.572395L103.53125 116.572395L98.84375 125.61927L97.96875 125.61927ZM101.6875 123.291145Q101.6875 122.36927 102.140625 121.728645Q102.609375 121.08802 103.5 121.08802Q104.3125 121.08802 104.84375 121.666145Q105.375 122.228645 105.375 123.353645Q105.375 124.447395 104.828125 125.041145Q104.296875 125.61927 103.5 125.61927Q102.734375 125.61927 102.203125 125.041145Q101.6875 124.46302 101.6875 123.291145ZM103.53125 121.80677Q103.125 121.80677 102.859375 122.15052Q102.609375 122.49427 102.609375 123.40052Q102.609375 124.21302 102.875 124.55677Q103.140625 124.90052 103.53125 124.90052Q103.921875 124.90052 104.1875 124.55677Q104.453125 124.21302 104.453125 123.30677Q104.453125 122.478645 104.1875 122.15052Q103.921875 121.80677 103.53125 121.80677Z" fill-rule="nonzero"/><path stroke="#757575" stroke-width="1.0" stroke-linecap="butt" d="M71.4375 112.80677L217.33838 112.80677L296.54752 112.80677" fill-rule="nonzero"/><path fill="#9e9e9e" d="M298.54752 112.80677C298.54752 111.7022 297.6521 110.80677 296.54752 110.80677C295.44296 110.80677 294.54752 111.7022 294.54752 112.80677C294.54752 113.91134 295.44296 114.80677 296.54752 114.80677C297.6521 114.80677 298.54752 113.91134 298.54752 112.80677" fill-rule="nonzero"/><path fill="#313131" d="M72.3125 188.61469L72.3125 180.02094L73.453125 180.02094L73.453125 187.59906L77.6875 187.59906L77.6875 188.61469L72.3125 188.61469ZM83.484375 186.61469L84.578125 186.73969Q84.328125 187.69281 83.625 188.22406Q82.921875 188.75531 81.84375 188.75531Q80.484375 188.75531 79.671875 187.91156Q78.875 187.06781 78.875 185.55219Q78.875 183.98969 79.6875 183.13031Q80.5 182.25531 81.78125 182.25531Q83.03125 182.25531 83.8125 183.09906Q84.609375 183.94281 84.609375 185.48969Q84.609375 185.58344 84.609375 185.77094L79.96875 185.77094Q80.03125 186.80219 80.546875 187.34906Q81.0625 187.88031 81.84375 187.88031Q82.421875 187.88031 82.828125 187.58344Q83.25 187.27094 83.484375 186.61469ZM80.03125 184.91156L83.5 184.91156Q83.4375 184.11469 83.109375 183.72406Q82.59375 183.11469 81.796875 183.11469Q81.0625 183.11469 80.5625 183.59906Q80.078125 184.08344 80.03125 184.91156ZM87.953125 188.61469L85.59375 182.39594L86.703125 182.39594L88.046875 186.11469Q88.25 186.72406 88.4375 187.36469Q88.578125 186.88031 88.828125 186.19281L90.21875 182.39594L91.296875 182.39594L88.9375 188.61469L87.953125 188.61469ZM95.484375 186.61469L96.578125 186.73969Q96.328125 187.69281 95.625 188.22406Q94.921875 188.75531 93.84375 188.75531Q92.484375 188.75531 91.671875 187.91156Q90.875 187.06781 90.875 185.55219Q90.875 183.98969 91.6875 183.13031Q92.5 182.25531 93.78125 182.25531Q95.03125 182.25531 95.8125 183.09906Q96.609375 183.94281 96.609375 185.48969Q96.609375 185.58344 96.609375 185.77094L91.96875 185.77094Q92.03125 186.80219 92.546875 187.34906Q93.0625 187.88031 93.84375 187.88031Q94.421875 187.88031 94.828125 187.58344Q95.25 187.27094 95.484375 186.61469ZM92.03125 184.91156L95.5 184.91156Q95.4375 184.11469 95.109375 183.72406Q94.59375 183.11469 93.796875 183.11469Q93.0625 183.11469 92.5625 183.59906Q92.078125 184.08344 92.03125 184.91156Z" fill-rule="nonzero"/><path fill="#9e9e9e" d="M75.90625 205.61469L74.859375 205.61469L74.859375 198.89594Q74.46875 199.25531 73.84375 199.63031Q73.234375 199.98969 72.75 200.16156L72.75 199.14594Q73.625 198.72406 74.28125 198.14594Q74.953125 197.55219 75.234375 196.98969L75.90625 196.98969L75.90625 205.61469ZM84.40625 199.13031L83.359375 199.20844Q83.21875 198.58344 82.96875 198.30219Q82.53125 197.84906 81.90625 197.84906Q81.40625 197.84906 81.015625 198.13031Q80.53125 198.50531 80.234375 199.20844Q79.953125 199.89594 79.9375 201.17719Q80.3125 200.59906 80.859375 200.31781Q81.421875 200.03656 82.03125 200.03656Q83.078125 200.03656 83.8125 200.81781Q84.5625 201.59906 84.5625 202.81781Q84.5625 203.63031 84.203125 204.33344Q83.859375 205.02094 83.25 205.39594Q82.640625 205.75531 81.875 205.75531Q80.546875 205.75531 79.71875 204.78656Q78.890625 203.81781 78.890625 201.59906Q78.890625 199.09906 79.8125 197.97406Q80.609375 196.98969 81.96875 196.98969Q82.984375 196.98969 83.625 197.56781Q84.28125 198.13031 84.40625 199.13031ZM80.109375 202.83344Q80.109375 203.38031 80.328125 203.88031Q80.5625 204.36469 80.96875 204.63031Q81.390625 204.89594 81.859375 204.89594Q82.515625 204.89594 83.0 204.36469Q83.484375 203.81781 83.484375 202.89594Q83.484375 202.00531 83.0 201.48969Q82.53125 200.97406 81.8125 200.97406Q81.09375 200.97406 80.59375 201.48969Q80.109375 202.00531 80.109375 202.83344ZM86.5 205.61469L86.5 204.41156L87.703125 204.41156L87.703125 205.61469Q87.703125 206.27094 87.46875 206.67719Q87.234375 207.09906 86.734375 207.31781L86.4375 206.86469Q86.765625 206.72406 86.921875 206.42719Q87.078125 206.14594 87.109375 205.61469L86.5 205.61469ZM89.0 198.14594L89.0 197.13031L94.5625 197.13031L94.5625 197.95844Q93.75 198.83344 92.9375 200.28656Q92.140625 201.72406 91.703125 203.25531Q91.375 204.33344 91.296875 205.61469L90.203125 205.61469Q90.21875 204.59906 90.59375 203.16156Q90.984375 201.72406 91.6875 200.39594Q92.40625 199.06781 93.21875 198.14594L89.0 198.14594ZM96.140625 199.08344Q96.140625 198.16156 96.59375 197.52094Q97.0625 196.88031 97.9375 196.88031Q98.75 196.88031 99.28125 197.45844Q99.8125 198.03656 99.8125 199.14594Q99.8125 200.23969 99.265625 200.83344Q98.734375 201.41156 97.953125 201.41156Q97.171875 201.41156 96.65625 200.83344Q96.140625 200.25531 96.140625 199.08344ZM97.96875 197.59906Q97.578125 197.59906 97.3125 197.94281Q97.0625 198.28656 97.0625 199.19281Q97.0625 200.02094 97.3125 200.36469Q97.578125 200.69281 97.96875 200.69281Q98.375 200.69281 98.625 200.34906Q98.890625 200.00531 98.890625 199.11469Q98.890625 198.27094 98.625 197.94281Q98.359375 197.59906 97.96875 197.59906ZM97.96875 205.92719L102.671875 196.88031L103.53125 196.88031L98.84375 205.92719L97.96875 205.92719ZM101.6875 203.59906Q101.6875 202.67719 102.140625 202.03656Q102.609375 201.39594 103.5 201.39594Q104.3125 201.39594 104.84375 201.97406Q105.375 202.53656 105.375 203.66156Q105.375 204.75531 104.828125 205.34906Q104.296875 205.92719 103.5 205.92719Q102.734375 205.92719 102.203125 205.34906Q101.6875 204.77094 101.6875 203.59906ZM103.53125 202.11469Q103.125 202.11469 102.859375 202.45844Q102.609375 202.80219 102.609375 203.70844Q102.609375 204.52094 102.875 204.86469Q103.140625 205.20844 103.53125 205.20844Q103.921875 205.20844 104.1875 204.86469Q104.453125 204.52094 104.453125 203.61469Q104.453125 202.78656 104.1875 202.45844Q103.921875 202.11469 103.53125 202.11469Z" fill-rule="nonzero"/><path stroke="#757575" stroke-width="1.0" stroke-linecap="butt" d="M71.4375 193.11469L217.33838 193.11469L230.31067 193.11469" fill-rule="nonzero"/><path fill="#9e9e9e" d="M232.31067 193.11469C232.31067 192.01012 231.41524 191.11469 230.31067 191.11469C229.2061 191.11469 228.31067 192.01012 228.31067 193.11469C228.31067 194.21925 229.2061 195.11469 230.31067 195.11469C231.41524 195.11469 232.31067 194.21925 232.31067 193.11469" fill-rule="nonzero"/><path fill="#313131" d="M76.390625 265.5476L76.390625 264.5476L80.015625 264.53198L80.015625 267.71948Q79.1875 268.39136 78.296875 268.7351Q77.40625 269.06323 76.46875 269.06323Q75.203125 269.06323 74.15625 268.53198Q73.125 267.9851 72.59375 266.96948Q72.078125 265.93823 72.078125 264.6726Q72.078125 263.40698 72.59375 262.32886Q73.125 261.2351 74.109375 260.71948Q75.09375 260.18823 76.375 260.18823Q77.3125 260.18823 78.0625 260.4851Q78.8125 260.78198 79.234375 261.32886Q79.671875 261.8601 79.890625 262.7351L78.875 263.01636Q78.671875 262.3601 78.375 261.9851Q78.09375 261.6101 77.5625 261.39136Q77.03125 261.15698 76.390625 261.15698Q75.609375 261.15698 75.03125 261.39136Q74.46875 261.62573 74.109375 262.01636Q73.765625 262.40698 73.578125 262.87573Q73.25 263.6726 73.25 264.59448Q73.25 265.75073 73.640625 266.53198Q74.046875 267.2976 74.796875 267.6726Q75.546875 268.0476 76.40625 268.0476Q77.140625 268.0476 77.84375 267.76636Q78.546875 267.46948 78.90625 267.15698L78.90625 265.5476L76.390625 265.5476ZM81.21875 268.9226L81.21875 262.70386L82.171875 262.70386L82.171875 263.64136Q82.53125 262.9851 82.828125 262.78198Q83.140625 262.56323 83.515625 262.56323Q84.046875 262.56323 84.59375 262.89136L84.234375 263.87573Q83.84375 263.64136 83.46875 263.64136Q83.109375 263.64136 82.828125 263.8601Q82.5625 264.06323 82.453125 264.43823Q82.265625 265.00073 82.265625 265.65698L82.265625 268.9226L81.21875 268.9226ZM89.296875 268.15698Q88.703125 268.65698 88.15625 268.8601Q87.625 269.06323 87.0 269.06323Q85.96875 269.06323 85.421875 268.56323Q84.875 268.06323 84.875 267.28198Q84.875 266.82886 85.078125 266.45386Q85.28125 266.06323 85.625 265.84448Q85.96875 265.6101 86.390625 265.50073Q86.6875 265.40698 87.328125 265.32886Q88.59375 265.18823 89.203125 264.96948Q89.203125 264.75073 89.203125 264.70386Q89.203125 264.0476 88.90625 263.78198Q88.5 263.43823 87.703125 263.43823Q86.96875 263.43823 86.609375 263.70386Q86.25 263.95386 86.078125 264.6101L85.046875 264.46948Q85.1875 263.81323 85.515625 263.40698Q85.84375 263.00073 86.453125 262.78198Q87.0625 262.56323 87.859375 262.56323Q88.65625 262.56323 89.15625 262.75073Q89.65625 262.93823 89.890625 263.21948Q90.125 263.50073 90.21875 263.93823Q90.265625 264.20386 90.265625 264.90698L90.265625 266.31323Q90.265625 267.78198 90.328125 268.1726Q90.40625 268.56323 90.609375 268.9226L89.5 268.9226Q89.34375 268.59448 89.296875 268.15698ZM89.203125 265.7976Q88.625 266.03198 87.484375 266.20386Q86.828125 266.2976 86.5625 266.4226Q86.296875 266.53198 86.140625 266.75073Q86.0 266.96948 86.0 267.25073Q86.0 267.6726 86.3125 267.95386Q86.640625 268.2351 87.25 268.2351Q87.859375 268.2351 88.328125 267.96948Q88.8125 267.70386 89.03125 267.2351Q89.203125 266.87573 89.203125 266.18823L89.203125 265.7976ZM93.953125 268.9226L91.59375 262.70386L92.703125 262.70386L94.046875 266.4226Q94.25 267.03198 94.4375 267.6726Q94.578125 267.18823 94.828125 266.50073L96.21875 262.70386L97.296875 262.70386L94.9375 268.9226L93.953125 268.9226ZM101.484375 266.9226L102.578125 267.0476Q102.328125 268.00073 101.625 268.53198Q100.921875 269.06323 99.84375 269.06323Q98.484375 269.06323 97.671875 268.21948Q96.875 267.37573 96.875 265.8601Q96.875 264.2976 97.6875 263.43823Q98.5 262.56323 99.78125 262.56323Q101.03125 262.56323 101.8125 263.40698Q102.609375 264.25073 102.609375 265.7976Q102.609375 265.89136 102.609375 266.07886L97.96875 266.07886Q98.03125 267.1101 98.546875 267.65698Q99.0625 268.18823 99.84375 268.18823Q100.421875 268.18823 100.828125 267.89136Q101.25 267.57886 101.484375 266.9226ZM98.03125 265.21948L101.5 265.21948Q101.4375 264.4226 101.109375 264.03198Q100.59375 263.4226 99.796875 263.4226Q99.0625 263.4226 98.5625 263.90698Q98.078125 264.39136 98.03125 265.21948Z" fill-rule="nonzero"/><path fill="#9e9e9e" d="M75.90625 285.9226L74.859375 285.9226L74.859375 279.20386Q74.46875 279.56323 73.84375 279.93823Q73.234375 280.2976 72.75 280.46948L72.75 279.45386Q73.625 279.03198 74.28125 278.45386Q74.953125 277.8601 75.234375 277.2976L75.90625 277.2976L75.90625 285.9226ZM84.40625 279.43823L83.359375 279.51636Q83.21875 278.89136 82.96875 278.6101Q82.53125 278.15698 81.90625 278.15698Q81.40625 278.15698 81.015625 278.43823Q80.53125 278.81323 80.234375 279.51636Q79.953125 280.20386 79.9375 281.4851Q80.3125 280.90698 80.859375 280.62573Q81.421875 280.34448 82.03125 280.34448Q83.078125 280.34448 83.8125 281.12573Q84.5625 281.90698 84.5625 283.12573Q84.5625 283.93823 84.203125 284.64136Q83.859375 285.32886 83.25 285.70386Q82.640625 286.06323 81.875 286.06323Q80.546875 286.06323 79.71875 285.09448Q78.890625 284.12573 78.890625 281.90698Q78.890625 279.40698 79.8125 278.28198Q80.609375 277.2976 81.96875 277.2976Q82.984375 277.2976 83.625 277.87573Q84.28125 278.43823 84.40625 279.43823ZM80.109375 283.14136Q80.109375 283.68823 80.328125 284.18823Q80.5625 284.6726 80.96875 284.93823Q81.390625 285.20386 81.859375 285.20386Q82.515625 285.20386 83.0 284.6726Q83.484375 284.12573 83.484375 283.20386Q83.484375 282.31323 83.0 281.7976Q82.53125 281.28198 81.8125 281.28198Q81.09375 281.28198 80.59375 281.7976Q80.109375 282.31323 80.109375 283.14136ZM86.5 285.9226L86.5 284.71948L87.703125 284.71948L87.703125 285.9226Q87.703125 286.57886 87.46875 286.9851Q87.234375 287.40698 86.734375 287.62573L86.4375 287.1726Q86.765625 287.03198 86.921875 286.7351Q87.078125 286.45386 87.109375 285.9226L86.5 285.9226ZM89.0 278.45386L89.0 277.43823L94.5625 277.43823L94.5625 278.26636Q93.75 279.14136 92.9375 280.59448Q92.140625 282.03198 91.703125 283.56323Q91.375 284.64136 91.296875 285.9226L90.203125 285.9226Q90.21875 284.90698 90.59375 283.46948Q90.984375 282.03198 91.6875 280.70386Q92.40625 279.37573 93.21875 278.45386L89.0 278.45386ZM96.140625 279.39136Q96.140625 278.46948 96.59375 277.82886Q97.0625 277.18823 97.9375 277.18823Q98.75 277.18823 99.28125 277.76636Q99.8125 278.34448 99.8125 279.45386Q99.8125 280.5476 99.265625 281.14136Q98.734375 281.71948 97.953125 281.71948Q97.171875 281.71948 96.65625 281.14136Q96.140625 280.56323 96.140625 279.39136ZM97.96875 277.90698Q97.578125 277.90698 97.3125 278.25073Q97.0625 278.59448 97.0625 279.50073Q97.0625 280.32886 97.3125 280.6726Q97.578125 281.00073 97.96875 281.00073Q98.375 281.00073 98.625 280.65698Q98.890625 280.31323 98.890625 279.4226Q98.890625 278.57886 98.625 278.25073Q98.359375 277.90698 97.96875 277.90698ZM97.96875 286.2351L102.671875 277.18823L103.53125 277.18823L98.84375 286.2351L97.96875 286.2351ZM101.6875 283.90698Q101.6875 282.9851 102.140625 282.34448Q102.609375 281.70386 103.5 281.70386Q104.3125 281.70386 104.84375 282.28198Q105.375 282.84448 105.375 283.96948Q105.375 285.06323 104.828125 285.65698Q104.296875 286.2351 103.5 286.2351Q102.734375 286.2351 102.203125 285.65698Q101.6875 285.07886 101.6875 283.90698ZM103.53125 282.4226Q103.125 282.4226 102.859375 282.76636Q102.609375 283.1101 102.609375 284.01636Q102.609375 284.82886 102.875 285.1726Q103.140625 285.51636 103.53125 285.51636Q103.921875 285.51636 104.1875 285.1726Q104.453125 284.82886 104.453125 283.9226Q104.453125 283.09448 104.1875 282.76636Q103.921875 282.4226 103.53125 282.4226Z" fill-rule="nonzero"/><path stroke="#757575" stroke-width="1.0" stroke-linecap="butt" d="M71.4375 273.4226L217.33838 273.4226L296.54752 273.4226" fill-rule="nonzero"/><path fill="#9e9e9e" d="M298.54752 273.4226C298.54752 272.31802 297.6521 271.4226 296.54752 271.4226C295.44296 271.4226 294.54752 272.31802 294.54752 273.4226C294.54752 274.52716 295.44296 275.4226 296.54752 275.4226C297.6521 275.4226 298.54752 274.52716 298.54752 273.4226" fill-rule="nonzero"/><path fill="#313131" d="M600.02185 188.61469L600.02185 180.02094L601.7406 180.02094L603.77185 186.09906Q604.0531 186.95844 604.1781 187.38031Q604.3187 186.91156 604.6312 186.00531L606.6937 180.02094L608.225 180.02094L608.225 188.61469L607.1312 188.61469L607.1312 181.42719L604.6312 188.61469L603.6 188.61469L601.1156 181.30219L601.1156 188.61469L600.02185 188.61469ZM608.5375 185.50531Q608.5375 183.77094 609.4906 182.94281Q610.2875 182.25531 611.4437 182.25531Q612.725 182.25531 613.5375 183.09906Q614.3656 183.92719 614.3656 185.41156Q614.3656 186.61469 614.0062 187.30219Q613.64685 187.98969 612.9437 188.38031Q612.2562 188.75531 611.4437 188.75531Q610.14685 188.75531 609.33435 187.92719Q608.5375 187.08344 608.5375 185.50531ZM609.6156 185.50531Q609.6156 186.69281 610.1312 187.28656Q610.6625 187.88031 611.4437 187.88031Q612.2406 187.88031 612.7562 187.28656Q613.27185 186.69281 613.27185 185.47406Q613.27185 184.31781 612.7406 183.72406Q612.225 183.13031 611.4437 183.13031Q610.6625 183.13031 610.1312 183.72406Q609.6156 184.30219 609.6156 185.50531ZM619.95935 188.61469L619.95935 187.83344Q619.3656 188.75531 618.225 188.75531Q617.475 188.75531 616.85 188.34906Q616.225 187.92719 615.8812 187.19281Q615.5375 186.45844 615.5375 185.50531Q615.5375 184.58344 615.85 183.81781Q616.1625 183.05219 616.7875 182.66156Q617.4125 182.25531 618.1781 182.25531Q618.7406 182.25531 619.1781 182.48969Q619.6156 182.72406 619.89685 183.09906L619.89685 180.02094L620.9437 180.02094L620.9437 188.61469L619.95935 188.61469ZM616.6312 185.50531Q616.6312 186.70844 617.1312 187.30219Q617.6312 187.88031 618.3187 187.88031Q619.0062 187.88031 619.4906 187.31781Q619.975 186.75531 619.975 185.59906Q619.975 184.31781 619.475 183.72406Q618.9906 183.13031 618.27185 183.13031Q617.5687 183.13031 617.1 183.70844Q616.6312 184.27094 616.6312 185.50531ZM627.1781 186.61469L628.27185 186.73969Q628.02185 187.69281 627.3187 188.22406Q626.6156 188.75531 625.5375 188.75531Q624.1781 188.75531 623.3656 187.91156Q622.5687 187.06781 622.5687 185.55219Q622.5687 183.98969 623.3812 183.13031Q624.1937 182.25531 625.475 182.25531Q626.725 182.25531 627.5062 183.09906Q628.3031 183.94281 628.3031 185.48969Q628.3031 185.58344 628.3031 185.77094L623.6625 185.77094Q623.725 186.80219 624.2406 187.34906Q624.7562 187.88031 625.5375 187.88031Q626.1156 187.88031 626.52185 187.58344Q626.9437 187.27094 627.1781 186.61469ZM623.725 184.91156L627.1937 184.91156Q627.1312 184.11469 626.8031 183.72406Q626.2875 183.11469 625.4906 183.11469Q624.7562 183.11469 624.2562 183.59906Q623.77185 184.08344 623.725 184.91156ZM629.9125 188.61469L629.9125 182.39594L630.8656 182.39594L630.8656 183.33344Q631.225 182.67719 631.52185 182.47406Q631.83435 182.25531 632.20935 182.25531Q632.7406 182.25531 633.2875 182.58344L632.9281 183.56781Q632.5375 183.33344 632.1625 183.33344Q631.8031 183.33344 631.52185 183.55219Q631.2562 183.75531 631.14685 184.13031Q630.95935 184.69281 630.95935 185.34906L630.95935 188.61469L629.9125 188.61469ZM637.9906 187.84906Q637.39685 188.34906 636.85 188.55219Q636.3187 188.75531 635.6937 188.75531Q634.6625 188.75531 634.1156 188.25531Q633.5687 187.75531 633.5687 186.97406Q633.5687 186.52094 633.77185 186.14594Q633.975 185.75531 634.3187 185.53656Q634.6625 185.30219 635.08435 185.19281Q635.3812 185.09906 636.02185 185.02094Q637.2875 184.88031 637.89685 184.66156Q637.89685 184.44281 637.89685 184.39594Q637.89685 183.73969 637.6 183.47406Q637.1937 183.13031 636.39685 183.13031Q635.6625 183.13031 635.3031 183.39594Q634.9437 183.64594 634.77185 184.30219L633.7406 184.16156Q633.8812 183.50531 634.20935 183.09906Q634.5375 182.69281 635.14685 182.47406Q635.7562 182.25531 636.5531 182.25531Q637.35 182.25531 637.85 182.44281Q638.35 182.63031 638.58435 182.91156Q638.8187 183.19281 638.9125 183.63031Q638.95935 183.89594 638.95935 184.59906L638.95935 186.00531Q638.95935 187.47406 639.02185 187.86469Q639.1 188.25531 639.3031 188.61469L638.1937 188.61469Q638.0375 188.28656 637.9906 187.84906ZM637.89685 185.48969Q637.3187 185.72406 636.1781 185.89594Q635.52185 185.98969 635.2562 186.11469Q634.9906 186.22406 634.83435 186.44281Q634.6937 186.66156 634.6937 186.94281Q634.6937 187.36469 635.0062 187.64594Q635.33435 187.92719 635.9437 187.92719Q636.5531 187.92719 637.02185 187.66156Q637.5062 187.39594 637.725 186.92719Q637.89685 186.56781 637.89685 185.88031L637.89685 185.48969ZM644.95935 188.61469L644.95935 187.83344Q644.3656 188.75531 643.225 188.75531Q642.475 188.75531 641.85 188.34906Q641.225 187.92719 640.8812 187.19281Q640.5375 186.45844 640.5375 185.50531Q640.5375 184.58344 640.85 183.81781Q641.1625 183.05219 641.7875 182.66156Q642.4125 182.25531 643.1781 182.25531Q643.7406 182.25531 644.1781 182.48969Q644.6156 182.72406 644.89685 183.09906L644.89685 180.02094L645.9437 180.02094L645.9437 188.61469L644.95935 188.61469ZM641.6312 185.50531Q641.6312 186.70844 642.1312 187.30219Q642.6312 187.88031 643.3187 187.88031Q644.0062 187.88031 644.4906 187.31781Q644.975 186.75531 644.975 185.59906Q644.975 184.31781 644.475 183.72406Q643.9906 183.13031 643.27185 183.13031Q642.5687 183.13031 642.1 183.70844Q641.6312 184.27094 641.6312 185.50531ZM651.9906 187.84906Q651.39685 188.34906 650.85 188.55219Q650.3187 188.75531 649.6937 188.75531Q648.6625 188.75531 648.1156 188.25531Q647.5687 187.75531 647.5687 186.97406Q647.5687 186.52094 647.77185 186.14594Q647.975 185.75531 648.3187 185.53656Q648.6625 185.30219 649.08435 185.19281Q649.3812 185.09906 650.02185 185.02094Q651.2875 184.88031 651.89685 184.66156Q651.89685 184.44281 651.89685 184.39594Q651.89685 183.73969 651.6 183.47406Q651.1937 183.13031 650.39685 183.13031Q649.6625 183.13031 649.3031 183.39594Q648.9437 183.64594 648.77185 184.30219L647.7406 184.16156Q647.8812 183.50531 648.20935 183.09906Q648.5375 182.69281 649.14685 182.47406Q649.7562 182.25531 650.5531 182.25531Q651.35 182.25531 651.85 182.44281Q652.35 182.63031 652.58435 182.91156Q652.8187 183.19281 652.9125 183.63031Q652.95935 183.89594 652.95935 184.59906L652.95935 186.00531Q652.95935 187.47406 653.02185 187.86469Q653.1 188.25531 653.3031 188.61469L652.1937 188.61469Q652.0375 188.28656 651.9906 187.84906ZM651.89685 185.48969Q651.3187 185.72406 650.1781 185.89594Q649.52185 185.98969 649.2562 186.11469Q648.9906 186.22406 648.83435 186.44281Q648.6937 186.66156 648.6937 186.94281Q648.6937 187.36469 649.0062 187.64594Q649.33435 187.92719 649.9437 187.92719Q650.5531 187.92719 651.02185 187.66156Q651.5062 187.39594 651.725 186.92719Q651.89685 186.56781 651.89685 185.88031L651.89685 185.48969Z" fill-rule="nonzero"/><path fill="#9e9e9e" d="M619.6312 203.36469L620.7406 203.27094Q620.8656 204.08344 621.3031 204.48969Q621.7562 204.89594 622.39685 204.89594Q623.14685 204.89594 623.6781 204.31781Q624.20935 203.73969 624.20935 202.80219Q624.20935 201.89594 623.6937 201.38031Q623.1937 200.84906 622.3656 200.84906Q621.8656 200.84906 621.4437 201.08344Q621.0375 201.31781 620.8031 201.67719L619.8187 201.55219L620.64685 197.14594L624.9281 197.14594L624.9281 198.14594L621.4906 198.14594L621.0375 200.45844Q621.8031 199.91156 622.64685 199.91156Q623.77185 199.91156 624.5375 200.69281Q625.3187 201.47406 625.3187 202.70844Q625.3187 203.86469 624.64685 204.72406Q623.8187 205.75531 622.39685 205.75531Q621.225 205.75531 620.475 205.09906Q619.7406 204.44281 619.6312 203.36469ZM626.6312 201.38031Q626.6312 199.84906 626.9437 198.92719Q627.2562 197.98969 627.8656 197.48969Q628.4906 196.98969 629.4281 196.98969Q630.1156 196.98969 630.6312 197.27094Q631.1625 197.55219 631.5062 198.08344Q631.85 198.59906 632.0375 199.34906Q632.225 200.09906 632.225 201.38031Q632.225 202.89594 631.9125 203.81781Q631.6156 204.73969 630.9906 205.25531Q630.3812 205.75531 629.4281 205.75531Q628.1937 205.75531 627.475 204.86469Q626.6312 203.80219 626.6312 201.38031ZM627.70935 201.38031Q627.70935 203.48969 628.20935 204.19281Q628.70935 204.89594 629.4281 204.89594Q630.1625 204.89594 630.64685 204.19281Q631.14685 203.48969 631.14685 201.38031Q631.14685 199.25531 630.64685 198.56781Q630.1625 197.86469 629.4125 197.86469Q628.6937 197.86469 628.2562 198.47406Q627.70935 199.25531 627.70935 201.38031ZM634.1937 205.61469L634.1937 204.41156L635.39685 204.41156L635.39685 205.61469Q635.39685 206.27094 635.1625 206.67719Q634.9281 207.09906 634.4281 207.31781L634.1312 206.86469Q634.45935 206.72406 634.6156 206.42719Q634.77185 206.14594 634.8031 205.61469L634.1937 205.61469ZM636.6312 201.38031Q636.6312 199.84906 636.9437 198.92719Q637.2562 197.98969 637.8656 197.48969Q638.4906 196.98969 639.4281 196.98969Q640.1156 196.98969 640.6312 197.27094Q641.1625 197.55219 641.5062 198.08344Q641.85 198.59906 642.0375 199.34906Q642.225 200.09906 642.225 201.38031Q642.225 202.89594 641.9125 203.81781Q641.6156 204.73969 640.9906 205.25531Q640.3812 205.75531 639.4281 205.75531Q638.1937 205.75531 637.475 204.86469Q636.6312 203.80219 636.6312 201.38031ZM637.70935 201.38031Q637.70935 203.48969 638.20935 204.19281Q638.70935 204.89594 639.4281 204.89594Q640.1625 204.89594 640.64685 204.19281Q641.14685 203.48969 641.14685 201.38031Q641.14685 199.25531 640.64685 198.56781Q640.1625 197.86469 639.4125 197.86469Q638.6937 197.86469 638.2562 198.47406Q637.70935 199.25531 637.70935 201.38031ZM643.83435 199.08344Q643.83435 198.16156 644.2875 197.52094Q644.7562 196.88031 645.6312 196.88031Q646.4437 196.88031 646.975 197.45844Q647.5062 198.03656 647.5062 199.14594Q647.5062 200.23969 646.95935 200.83344Q646.4281 201.41156 645.64685 201.41156Q644.8656 201.41156 644.35 200.83344Q643.83435 200.25531 643.83435 199.08344ZM645.6625 197.59906Q645.27185 197.59906 645.0062 197.94281Q644.7562 198.28656 644.7562 199.19281Q644.7562 200.02094 645.0062 200.36469Q645.27185 200.69281 645.6625 200.69281Q646.0687 200.69281 646.3187 200.34906Q646.58435 200.00531 646.58435 199.11469Q646.58435 198.27094 646.3187 197.94281Q646.0531 197.59906 645.6625 197.59906ZM645.6625 205.92719L650.3656 196.88031L651.225 196.88031L646.5375 205.92719L645.6625 205.92719ZM649.3812 203.59906Q649.3812 202.67719 649.83435 202.03656Q650.3031 201.39594 651.1937 201.39594Q652.0062 201.39594 652.5375 201.97406Q653.0687 202.53656 653.0687 203.66156Q653.0687 204.75531 652.52185 205.34906Q651.9906 205.92719 651.1937 205.92719Q650.4281 205.92719 649.89685 205.34906Q649.3812 204.77094 649.3812 203.59906ZM651.225 202.11469Q650.8187 202.11469 650.5531 202.45844Q650.3031 202.80219 650.3031 203.70844Q650.3031 204.52094 650.5687 204.86469Q650.83435 205.20844 651.225 205.20844Q651.6156 205.20844 651.8812 204.86469Q652.14685 204.52094 652.14685 203.61469Q652.14685 202.78656 651.8812 202.45844Q651.6156 202.11469 651.225 202.11469Z" fill-rule="nonzero"/><path stroke="#757575" stroke-width="1.0" stroke-linecap="butt" d="M654.1312 193.11469L508.23038 193.11469L495.2581 193.11469" fill-rule="nonzero"/><path fill="#9e9e9e" d="M497.2581 193.11469C497.2581 192.01012 496.36264 191.11469 495.2581 191.11469C494.1535 191.11469 493.2581 192.01012 493.2581 193.11469C493.2581 194.21925 494.1535 195.11469 495.2581 195.11469C496.36264 195.11469 497.2581 194.21925 497.2581 193.11469" fill-rule="nonzero"/><path fill="#000000" d="M22.36875 25.587502L28.0875 25.587502Q29.790625 25.587502 30.61875 25.728127Q31.4625 25.868752 32.11875 26.321877Q32.775 26.759377 33.2125 27.509377Q33.65 28.259377 33.65 29.181252Q33.65 30.196877 33.103127 31.040627Q32.571877 31.868752 31.65 32.290627Q32.946877 32.665627 33.65 33.5875Q34.353127 34.509377 34.353127 35.74375Q34.353127 36.728127 33.9 37.65Q33.446877 38.571877 32.665627 39.134377Q31.884375 39.68125 30.728125 39.80625Q30.009375 39.884377 27.24375 39.9L22.36875 39.9L22.36875 25.587502ZM25.259375 27.962502L25.259375 31.275002L27.15 31.275002Q28.8375 31.275002 29.24375 31.228127Q29.99375 31.134377 30.415625 30.712502Q30.8375 30.290627 30.8375 29.603127Q30.8375 28.931252 30.4625 28.525002Q30.103125 28.103127 29.384375 28.009377Q28.9625 27.962502 26.915625 27.962502L25.259375 27.962502ZM25.259375 33.665627L25.259375 37.49375L27.93125 37.49375Q29.49375 37.49375 29.915625 37.4Q30.55625 37.275 30.9625 36.821877Q31.36875 36.36875 31.36875 35.61875Q31.36875 34.9625 31.05625 34.525Q30.74375 34.071877 30.15 33.86875Q29.55625 33.665627 27.5875 33.665627L25.259375 33.665627ZM43.165627 39.9L43.165627 38.353127Q42.603127 39.18125 41.665627 39.665627Q40.74375 40.134377 39.728127 40.134377Q38.68125 40.134377 37.853127 39.68125Q37.025 39.2125 36.65 38.384377Q36.275 37.55625 36.275 36.0875L36.275 29.525002L39.025 29.525002L39.025 34.290627Q39.025 36.478127 39.165627 36.978127Q39.321877 37.4625 39.7125 37.759377Q40.11875 38.040627 40.74375 38.040627Q41.446877 38.040627 41.99375 37.665627Q42.55625 37.275 42.759377 36.7125Q42.9625 36.134377 42.9625 33.9L42.9625 29.525002L45.7125 29.525002L45.7125 39.9L43.165627 39.9ZM48.0875 40.5875L51.2125 40.9625Q51.290627 41.509377 51.571877 41.7125Q51.9625 42.009377 52.80625 42.009377Q53.884377 42.009377 54.415627 41.68125Q54.775 41.478127 54.9625 40.99375Q55.0875 40.65 55.0875 39.728127L55.0875 38.2125Q53.86875 39.9 51.99375 39.9Q49.9 39.9 48.68125 38.134377Q47.728127 36.728127 47.728127 34.65Q47.728127 32.040627 48.978127 30.665627Q50.228127 29.290627 52.103127 29.290627Q54.025 29.290627 55.275 30.978127L55.275 29.525002L57.8375 29.525002L57.8375 38.8375Q57.8375 40.665627 57.525 41.571877Q57.228127 42.49375 56.68125 43.009377Q56.134377 43.525 55.2125 43.80625Q54.30625 44.103127 52.915627 44.103127Q50.275 44.103127 49.165627 43.196877Q48.071877 42.30625 48.071877 40.915627Q48.071877 40.775 48.0875 40.5875ZM50.540627 34.49375Q50.540627 36.15 51.165627 36.915627Q51.80625 37.68125 52.74375 37.68125Q53.759377 37.68125 54.446877 36.9Q55.15 36.103127 55.15 34.571877Q55.15 32.9625 54.478127 32.18125Q53.821877 31.400002 52.80625 31.400002Q51.80625 31.400002 51.165627 32.165627Q50.540627 32.93125 50.540627 34.49375ZM59.36875 36.946877L62.11875 36.525Q62.30625 37.321877 62.8375 37.74375Q63.36875 38.15 64.3375 38.15Q65.4 38.15 65.94688 37.759377Q66.30625 37.49375 66.30625 37.025Q66.30625 36.7125 66.10313 36.509377Q65.9 36.321877 65.19688 36.15Q61.86875 35.415627 60.978127 34.80625Q59.74375 33.978127 59.74375 32.478127Q59.74375 31.134377 60.80625 30.212502Q61.884377 29.290627 64.11875 29.290627Q66.24375 29.290627 67.275 29.993752Q68.32188 30.681252 68.7125 32.040627L66.11875 32.509377Q65.94688 31.915627 65.47813 31.587502Q65.025 31.259377 64.16563 31.259377Q63.0875 31.259377 62.61875 31.571877Q62.30625 31.790627 62.30625 32.11875Q62.30625 32.415627 62.571877 32.61875Q62.946877 32.9 65.13438 33.4Q67.32188 33.9 68.19688 34.61875Q69.05625 35.353127 69.05625 36.65Q69.05625 38.0875 67.86875 39.11875Q66.68125 40.134377 64.3375 40.134377Q62.228127 40.134377 60.978127 39.275Q59.74375 38.415627 59.36875 36.946877ZM77.25938 29.525002L79.82188 29.525002L79.82188 31.056252Q80.32188 30.275002 81.16563 29.790627Q82.00938 29.290627 83.05625 29.290627Q84.85313 29.290627 86.10313 30.712502Q87.36875 32.11875 87.36875 34.65Q87.36875 37.259377 86.10313 38.696877Q84.8375 40.134377 83.025 40.134377Q82.16563 40.134377 81.4625 39.790627Q80.775 39.446877 80.00938 38.61875L80.00938 43.853127L77.25938 43.853127L77.25938 29.525002ZM79.97813 34.540627Q79.97813 36.290627 80.66563 37.134377Q81.35313 37.9625 82.35313 37.9625Q83.30625 37.9625 83.94688 37.196877Q84.5875 36.415627 84.5875 34.68125Q84.5875 33.040627 83.93125 32.259377Q83.275 31.462502 82.30625 31.462502Q81.30625 31.462502 80.63438 32.24375Q79.97813 33.009377 79.97813 34.540627ZM88.69688 34.571877Q88.69688 33.196877 89.36875 31.915627Q90.05625 30.634377 91.29063 29.962502Q92.525 29.290627 94.04063 29.290627Q96.4 29.290627 97.9 30.821877Q99.4 32.353127 99.4 34.68125Q99.4 37.040627 97.88438 38.5875Q96.36875 40.134377 94.05625 40.134377Q92.63438 40.134377 91.3375 39.49375Q90.05625 38.8375 89.36875 37.603127Q88.69688 36.353127 88.69688 34.571877ZM91.50938 34.7125Q91.50938 36.259377 92.24375 37.0875Q92.97813 37.9 94.05625 37.9Q95.13438 37.9 95.85313 37.0875Q96.5875 36.259377 96.5875 34.696877Q96.5875 33.165627 95.85313 32.353127Q95.13438 31.525002 94.05625 31.525002Q92.97813 31.525002 92.24375 32.353127Q91.50938 33.165627 91.50938 34.7125ZM103.9625 39.9L101.2125 39.9L101.2125 29.525002L103.775 29.525002L103.775 31.009377Q104.41563 29.962502 104.93125 29.634377Q105.4625 29.290627 106.13438 29.290627Q107.07188 29.290627 107.93125 29.806252L107.0875 32.196877Q106.4 31.759377 105.80625 31.759377Q105.22813 31.759377 104.82188 32.071877Q104.41563 32.384377 104.18125 33.228127Q103.9625 34.05625 103.9625 36.696877L103.9625 39.9ZM124.38438 32.5875L121.68125 33.0875Q121.54063 32.275 121.05625 31.868752Q120.57188 31.446877 119.80625 31.446877Q118.775 31.446877 118.16563 32.165627Q117.55625 32.86875 117.55625 34.525Q117.55625 36.36875 118.16563 37.134377Q118.79063 37.9 119.8375 37.9Q120.61875 37.9 121.11875 37.4625Q121.61875 37.009377 121.82188 35.93125L124.50938 36.384377Q124.10313 38.24375 122.9 39.196877Q121.7125 40.134377 119.7125 40.134377Q117.43125 40.134377 116.07188 38.696877Q114.72813 37.259377 114.72813 34.728127Q114.72813 32.15 116.0875 30.728127Q117.44688 29.290627 119.75938 29.290627Q121.65 29.290627 122.75938 30.118752Q123.88438 30.931252 124.38438 32.5875ZM128.9625 39.9L126.2125 39.9L126.2125 29.525002L128.775 29.525002L128.775 31.009377Q129.41562 29.962502 129.93124 29.634377Q130.4625 29.290627 131.13437 29.290627Q132.07187 29.290627 132.93124 29.806252L132.0875 32.196877Q131.4 31.759377 130.80624 31.759377Q130.22812 31.759377 129.82187 32.071877Q129.41562 32.384377 129.18124 33.228127Q128.9625 34.05625 128.9625 36.696877L128.9625 39.9ZM134.3375 28.118752L134.3375 25.587502L137.0875 25.587502L137.0875 28.118752L134.3375 28.118752ZM134.3375 39.9L134.3375 29.525002L137.0875 29.525002L137.0875 39.9L134.3375 39.9ZM144.0875 29.525002L144.0875 31.712502L142.2125 31.712502L142.2125 35.9Q142.2125 37.165627 142.25937 37.384377Q142.32187 37.5875 142.50937 37.728127Q142.7125 37.853127 142.97812 37.853127Q143.35312 37.853127 144.0875 37.5875L144.32187 39.728127Q143.35312 40.134377 142.15 40.134377Q141.4 40.134377 140.80624 39.884377Q140.2125 39.634377 139.93124 39.24375Q139.66562 38.8375 139.55624 38.165627Q139.4625 37.696877 139.4625 36.24375L139.4625 31.712502L138.19687 31.712502L138.19687 29.525002L139.4625 29.525002L139.4625 27.462502L142.2125 25.868752L142.2125 29.525002L144.0875 29.525002ZM146.3375 28.118752L146.3375 25.587502L149.0875 25.587502L149.0875 28.118752L146.3375 28.118752ZM146.3375 39.9L146.3375 29.525002L149.0875 29.525002L149.0875 39.9L146.3375 39.9ZM160.38437 32.5875L157.68124 33.0875Q157.54062 32.275 157.05624 31.868752Q156.57187 31.446877 155.80624 31.446877Q154.775 31.446877 154.16562 32.165627Q153.55624 32.86875 153.55624 34.525Q153.55624 36.36875 154.16562 37.134377Q154.79062 37.9 155.8375 37.9Q156.61874 37.9 157.11874 37.4625Q157.61874 37.009377 157.82187 35.93125L160.50937 36.384377Q160.10312 38.24375 158.9 39.196877Q157.7125 40.134377 155.7125 40.134377Q153.43124 40.134377 152.07187 38.696877Q150.72812 37.259377 150.72812 34.728127Q150.72812 32.15 152.0875 30.728127Q153.44687 29.290627 155.75937 29.290627Q157.65 29.290627 158.75937 30.118752Q159.88437 30.931252 160.38437 32.5875ZM162.3375 28.118752L162.3375 25.587502L165.0875 25.587502L165.0875 28.118752L162.3375 28.118752ZM162.3375 39.9L162.3375 29.525002L165.0875 29.525002L165.0875 39.9L162.3375 39.9ZM176.85312 39.9L174.30624 39.9L174.30624 38.36875Q173.66562 39.259377 172.79062 39.696877Q171.93124 40.134377 171.05624 40.134377Q169.275 40.134377 167.99374 38.696877Q166.72812 37.259377 166.72812 34.68125Q166.72812 32.040627 167.9625 30.665627Q169.19687 29.290627 171.10312 29.290627Q172.8375 29.290627 174.10312 30.743752L174.10312 25.587502L176.85312 25.587502L176.85312 39.9ZM169.525 34.49375Q169.525 36.15 169.97812 36.884377Q170.65 37.9625 171.8375 37.9625Q172.79062 37.9625 173.44687 37.165627Q174.11874 36.353127 174.11874 34.759377Q174.11874 32.9625 173.4625 32.18125Q172.82187 31.400002 171.82187 31.400002Q170.8375 31.400002 170.18124 32.18125Q169.525 32.946877 169.525 34.49375ZM181.38437 32.696877L178.9 32.24375Q179.32187 30.743752 180.3375 30.025002Q181.36874 29.290627 183.38437 29.290627Q185.22812 29.290627 186.11874 29.728127Q187.025 30.165627 187.38437 30.837502Q187.75937 31.493752 187.75937 33.290627L187.72812 36.49375Q187.72812 37.853127 187.85312 38.509377Q187.99374 39.15 188.35312 39.9L185.63437 39.9Q185.525 39.61875 185.36874 39.0875Q185.30624 38.8375 185.275 38.759377Q184.57187 39.446877 183.75937 39.790627Q182.9625 40.134377 182.05624 40.134377Q180.4625 40.134377 179.54062 39.275Q178.61874 38.4 178.61874 37.071877Q178.61874 36.18125 179.025 35.49375Q179.44687 34.80625 180.19687 34.446877Q180.9625 34.071877 182.4 33.80625Q184.32187 33.446877 185.05624 33.134377L185.05624 32.853127Q185.05624 32.071877 184.66562 31.743752Q184.275 31.400002 183.19687 31.400002Q182.4625 31.400002 182.04062 31.681252Q181.63437 31.962502 181.38437 32.696877ZM185.05624 34.915627Q184.525 35.0875 183.38437 35.3375Q182.24374 35.5875 181.9 35.821877Q181.35312 36.196877 181.35312 36.790627Q181.35312 37.353127 181.775 37.775Q182.2125 38.196877 182.88437 38.196877Q183.61874 38.196877 184.29062 37.7125Q184.79062 37.3375 184.94687 36.80625Q185.05624 36.446877 185.05624 35.4625L185.05624 34.915627ZM199.85312 39.9L197.30624 39.9L197.30624 38.36875Q196.66562 39.259377 195.79062 39.696877Q194.93124 40.134377 194.05624 40.134377Q192.275 40.134377 190.99374 38.696877Q189.72812 37.259377 189.72812 34.68125Q189.72812 32.040627 190.9625 30.665627Q192.19687 29.290627 194.10312 29.290627Q195.8375 29.290627 197.10312 30.743752L197.10312 25.587502L199.85312 25.587502L199.85312 39.9ZM192.525 34.49375Q192.525 36.15 192.97812 36.884377Q193.65 37.9625 194.8375 37.9625Q195.79062 37.9625 196.44687 37.165627Q197.11874 36.353127 197.11874 34.759377Q197.11874 32.9625 196.4625 32.18125Q195.82187 31.400002 194.82187 31.400002Q193.8375 31.400002 193.18124 32.18125Q192.525 32.946877 192.525 34.49375ZM208.3375 36.603127L211.07187 37.05625Q210.55624 38.55625 209.41562 39.353127Q208.275 40.134377 206.57187 40.134377Q203.85312 40.134377 202.55624 38.36875Q201.54062 36.946877 201.54062 34.790627Q201.54062 32.2125 202.88437 30.759377Q204.22812 29.290627 206.29062 29.290627Q208.60312 29.290627 209.93124 30.821877Q211.275 32.353127 211.22812 35.509377L204.35312 35.509377Q204.38437 36.728127 205.00937 37.415627Q205.65 38.0875 206.5875 38.0875Q207.24374 38.0875 207.68124 37.74375Q208.11874 37.384377 208.3375 36.603127ZM208.49374 33.821877Q208.4625 32.634377 207.86874 32.025Q207.29062 31.400002 206.4625 31.400002Q205.55624 31.400002 204.97812 32.040627Q204.38437 32.696877 204.4 33.821877L208.49374 33.821877ZM228.775 39.9L226.025 39.9L226.025 34.603127Q226.025 32.93125 225.85312 32.446877Q225.68124 31.946877 225.275 31.681252Q224.88437 31.400002 224.32187 31.400002Q223.61874 31.400002 223.04062 31.790627Q222.47812 32.18125 222.25937 32.821877Q222.05624 33.4625 222.05624 35.196877L222.05624 39.9L219.32187 39.9L219.32187 29.525002L221.86874 29.525002L221.86874 31.056252Q223.22812 29.290627 225.29062 29.290627Q226.19687 29.290627 226.94687 29.618752Q227.69687 29.946877 228.07187 30.462502Q228.4625 30.962502 228.61874 31.618752Q228.775 32.259377 228.775 33.446877L228.775 39.9ZM230.69687 34.571877Q230.69687 33.196877 231.36874 31.915627Q232.05624 30.634377 233.29062 29.962502Q234.525 29.290627 236.04062 29.290627Q238.4 29.290627 239.9 30.821877Q241.4 32.353127 241.4 34.68125Q241.4 37.040627 239.88437 38.5875Q238.36874 40.134377 236.05624 40.134377Q234.63437 40.134377 233.3375 39.49375Q232.05624 38.8375 231.36874 37.603127Q230.69687 36.353127 230.69687 34.571877ZM233.50937 34.7125Q233.50937 36.259377 234.24374 37.0875Q234.97812 37.9 236.05624 37.9Q237.13437 37.9 237.85312 37.0875Q238.5875 36.259377 238.5875 34.696877Q238.5875 33.165627 237.85312 32.353127Q237.13437 31.525002 236.05624 31.525002Q234.97812 31.525002 234.24374 32.353127Q233.50937 33.165627 233.50937 34.7125ZM248.13437 29.525002L249.66562 29.525002L249.66562 28.743752Q249.66562 27.431252 249.93124 26.790627Q250.2125 26.150002 250.9625 25.743752Q251.7125 25.337502 252.85312 25.337502Q254.025 25.337502 255.15 25.696877L254.775 27.603127Q254.11874 27.446877 253.50937 27.446877Q252.91562 27.446877 252.65 27.728127Q252.4 28.009377 252.4 28.790627L252.4 29.525002L254.44687 29.525002L254.44687 31.681252L252.4 31.681252L252.4 39.9L249.66562 39.9L249.66562 31.681252L248.13437 31.681252L248.13437 29.525002ZM256.3375 39.9L256.3375 25.587502L259.0875 25.587502L259.0875 39.9L256.3375 39.9ZM268.16562 39.9L268.16562 38.353127Q267.60312 39.18125 266.66562 39.665627Q265.74374 40.134377 264.72812 40.134377Q263.68124 40.134377 262.85312 39.68125Q262.025 39.2125 261.65 38.384377Q261.275 37.55625 261.275 36.0875L261.275 29.525002L264.025 29.525002L264.025 34.290627Q264.025 36.478127 264.16562 36.978127Q264.32187 37.4625 264.7125 37.759377Q265.11874 38.040627 265.74374 38.040627Q266.44687 38.040627 266.99374 37.665627Q267.55624 37.275 267.75937 36.7125Q267.9625 36.134377 267.9625 33.9L267.9625 29.525002L270.7125 29.525002L270.7125 39.9L268.16562 39.9ZM272.025 39.9L275.75937 34.55625L272.18124 29.525002L275.525 29.525002L277.35312 32.384377L279.29062 29.525002L282.50937 29.525002L278.99374 34.446877L282.8375 39.9L279.4625 39.9L277.35312 36.68125L275.22812 39.9L272.025 39.9ZM283.69687 34.571877Q283.69687 33.196877 284.36874 31.915627Q285.05624 30.634377 286.29062 29.962502Q287.525 29.290627 289.04062 29.290627Q291.4 29.290627 292.9 30.821877Q294.4 32.353127 294.4 34.68125Q294.4 37.040627 292.88437 38.5875Q291.36874 40.134377 289.05624 40.134377Q287.63437 40.134377 286.3375 39.49375Q285.05624 38.8375 284.36874 37.603127Q283.69687 36.353127 283.69687 34.571877ZM286.50937 34.7125Q286.50937 36.259377 287.24374 37.0875Q287.97812 37.9 289.05624 37.9Q290.13437 37.9 290.85312 37.0875Q291.5875 36.259377 291.5875 34.696877Q291.5875 33.165627 290.85312 32.353127Q290.13437 31.525002 289.05624 31.525002Q287.97812 31.525002 287.24374 32.353127Q286.50937 33.165627 286.50937 34.7125ZM311.85312 39.9L309.30624 39.9L309.30624 38.36875Q308.66562 39.259377 307.79062 39.696877Q306.93124 40.134377 306.05624 40.134377Q304.275 40.134377 302.99374 38.696877Q301.72812 37.259377 301.72812 34.68125Q301.72812 32.040627 302.9625 30.665627Q304.19687 29.290627 306.10312 29.290627Q307.8375 29.290627 309.10312 30.743752L309.10312 25.587502L311.85312 25.587502L311.85312 39.9ZM304.525 34.49375Q304.525 36.15 304.97812 36.884377Q305.65 37.9625 306.8375 37.9625Q307.79062 37.9625 308.44687 37.165627Q309.11874 36.353127 309.11874 34.759377Q309.11874 32.9625 308.4625 32.18125Q307.82187 31.400002 306.82187 31.400002Q305.8375 31.400002 305.18124 32.18125Q304.525 32.946877 304.525 34.49375ZM320.3375 36.603127L323.07187 37.05625Q322.55624 38.55625 321.41562 39.353127Q320.275 40.134377 318.57187 40.134377Q315.85312 40.134377 314.55624 38.36875Q313.54062 36.946877 313.54062 34.790627Q313.54062 32.2125 314.88437 30.759377Q316.22812 29.290627 318.29062 29.290627Q320.60312 29.290627 321.93124 30.821877Q323.275 32.353127 323.22812 35.509377L316.35312 35.509377Q316.38437 36.728127 317.00937 37.415627Q317.65 38.0875 318.5875 38.0875Q319.24374 38.0875 319.68124 37.74375Q320.11874 37.384377 320.3375 36.603127ZM320.49374 33.821877Q320.4625 32.634377 319.86874 32.025Q319.29062 31.400002 318.4625 31.400002Q317.55624 31.400002 316.97812 32.040627Q316.38437 32.696877 316.4 33.821877L320.49374 33.821877ZM331.35312 39.9L331.35312 25.587502L335.99374 25.587502Q338.63437 25.587502 339.43124 25.790627Q340.66562 26.118752 341.49374 27.196877Q342.32187 28.275002 342.32187 29.993752Q342.32187 31.306252 341.8375 32.2125Q341.36874 33.103127 340.61874 33.61875Q339.88437 34.134377 339.13437 34.290627Q338.0875 34.49375 336.13437 34.49375L334.24374 34.49375L334.24374 39.9L331.35312 39.9ZM334.24374 28.009377L334.24374 32.071877L335.82187 32.071877Q337.54062 32.071877 338.11874 31.853127Q338.69687 31.618752 339.00937 31.150002Q339.3375 30.665627 339.3375 30.025002Q339.3375 29.243752 338.88437 28.743752Q338.43124 28.228127 337.72812 28.103127Q337.2125 28.009377 335.65 28.009377L334.24374 28.009377ZM346.38437 32.696877L343.9 32.24375Q344.32187 30.743752 345.3375 30.025002Q346.36874 29.290627 348.38437 29.290627Q350.22812 29.290627 351.11874 29.728127Q352.025 30.165627 352.38437 30.837502Q352.75937 31.493752 352.75937 33.290627L352.72812 36.49375Q352.72812 37.853127 352.85312 38.509377Q352.99374 39.15 353.35312 39.9L350.63437 39.9Q350.525 39.61875 350.36874 39.0875Q350.30624 38.8375 350.275 38.759377Q349.57187 39.446877 348.75937 39.790627Q347.9625 40.134377 347.05624 40.134377Q345.4625 40.134377 344.54062 39.275Q343.61874 38.4 343.61874 37.071877Q343.61874 36.18125 344.025 35.49375Q344.44687 34.80625 345.19687 34.446877Q345.9625 34.071877 347.4 33.80625Q349.32187 33.446877 350.05624 33.134377L350.05624 32.853127Q350.05624 32.071877 349.66562 31.743752Q349.275 31.400002 348.19687 31.400002Q347.4625 31.400002 347.04062 31.681252Q346.63437 31.962502 346.38437 32.696877ZM350.05624 34.915627Q349.525 35.0875 348.38437 35.3375Q347.24374 35.5875 346.9 35.821877Q346.35312 36.196877 346.35312 36.790627Q346.35312 37.353127 346.775 37.775Q347.2125 38.196877 347.88437 38.196877Q348.61874 38.196877 349.29062 37.7125Q349.79062 37.3375 349.94687 36.80625Q350.05624 36.446877 350.05624 35.4625L350.05624 34.915627ZM355.0875 40.5875L358.2125 40.9625Q358.29062 41.509377 358.57187 41.7125Q358.9625 42.009377 359.80624 42.009377Q360.88437 42.009377 361.41562 41.68125Q361.775 41.478127 361.9625 40.99375Q362.0875 40.65 362.0875 39.728127L362.0875 38.2125Q360.86874 39.9 358.99374 39.9Q356.9 39.9 355.68124 38.134377Q354.72812 36.728127 354.72812 34.65Q354.72812 32.040627 355.97812 30.665627Q357.22812 29.290627 359.10312 29.290627Q361.025 29.290627 362.275 30.978127L362.275 29.525002L364.8375 29.525002L364.8375 38.8375Q364.8375 40.665627 364.525 41.571877Q364.22812 42.49375 363.68124 43.009377Q363.13437 43.525 362.2125 43.80625Q361.30624 44.103127 359.91562 44.103127Q357.275 44.103127 356.16562 43.196877Q355.07187 42.30625 355.07187 40.915627Q355.07187 40.775 355.0875 40.5875ZM357.54062 34.49375Q357.54062 36.15 358.16562 36.915627Q358.80624 37.68125 359.74374 37.68125Q360.75937 37.68125 361.44687 36.9Q362.15 36.103127 362.15 34.571877Q362.15 32.9625 361.47812 32.18125Q360.82187 31.400002 359.80624 31.400002Q358.80624 31.400002 358.16562 32.165627Q357.54062 32.93125 357.54062 34.49375ZM369.38437 32.696877L366.9 32.24375Q367.32187 30.743752 368.3375 30.025002Q369.36874 29.290627 371.38437 29.290627Q373.22812 29.290627 374.11874 29.728127Q375.025 30.165627 375.38437 30.837502Q375.75937 31.493752 375.75937 33.290627L375.72812 36.49375Q375.72812 37.853127 375.85312 38.509377Q375.99374 39.15 376.35312 39.9L373.63437 39.9Q373.525 39.61875 373.36874 39.0875Q373.30624 38.8375 373.275 38.759377Q372.57187 39.446877 371.75937 39.790627Q370.9625 40.134377 370.05624 40.134377Q368.4625 40.134377 367.54062 39.275Q366.61874 38.4 366.61874 37.071877Q366.61874 36.18125 367.025 35.49375Q367.44687 34.80625 368.19687 34.446877Q368.9625 34.071877 370.4 33.80625Q372.32187 33.446877 373.05624 33.134377L373.05624 32.853127Q373.05624 32.071877 372.66562 31.743752Q372.275 31.400002 371.19687 31.400002Q370.4625 31.400002 370.04062 31.681252Q369.63437 31.962502 369.38437 32.696877ZM373.05624 34.915627Q372.525 35.0875 371.38437 35.3375Q370.24374 35.5875 369.9 35.821877Q369.35312 36.196877 369.35312 36.790627Q369.35312 37.353127 369.775 37.775Q370.2125 38.196877 370.88437 38.196877Q371.61874 38.196877 372.29062 37.7125Q372.79062 37.3375 372.94687 36.80625Q373.05624 36.446877 373.05624 35.4625L373.05624 34.915627ZM378.13437 29.525002L380.66562 29.525002L380.66562 30.946877Q382.025 29.290627 383.9 29.290627Q384.88437 29.290627 385.61874 29.712502Q386.35312 30.118752 386.82187 30.946877Q387.50937 30.118752 388.29062 29.712502Q389.0875 29.290627 389.99374 29.290627Q391.13437 29.290627 391.91562 29.759377Q392.7125 30.228127 393.10312 31.118752Q393.38437 31.790627 393.38437 33.275L393.38437 39.9L390.63437 39.9L390.63437 33.978127Q390.63437 32.43125 390.35312 31.978127Q389.97812 31.400002 389.18124 31.400002Q388.60312 31.400002 388.0875 31.759377Q387.5875 32.103127 387.36874 32.775Q387.15 33.446877 387.15 34.915627L387.15 39.9L384.4 39.9L384.4 34.2125Q384.4 32.696877 384.24374 32.259377Q384.10312 31.821877 383.79062 31.618752Q383.49374 31.400002 382.9625 31.400002Q382.3375 31.400002 381.82187 31.743752Q381.32187 32.071877 381.0875 32.728127Q380.86874 33.36875 380.86874 34.853127L380.86874 39.9L378.13437 39.9L378.13437 29.525002ZM401.3375 36.603127L404.07187 37.05625Q403.55624 38.55625 402.41562 39.353127Q401.275 40.134377 399.57187 40.134377Q396.85312 40.134377 395.55624 38.36875Q394.54062 36.946877 394.54062 34.790627Q394.54062 32.2125 395.88437 30.759377Q397.22812 29.290627 399.29062 29.290627Q401.60312 29.290627 402.93124 30.821877Q404.275 32.353127 404.22812 35.509377L397.35312 35.509377Q397.38437 36.728127 398.00937 37.415627Q398.65 38.0875 399.5875 38.0875Q400.24374 38.0875 400.68124 37.74375Q401.11874 37.384377 401.3375 36.603127ZM401.49374 33.821877Q401.4625 32.634377 400.86874 32.025Q400.29062 31.400002 399.4625 31.400002Q398.55624 31.400002 397.97812 32.040627Q397.38437 32.696877 397.4 33.821877L401.49374 33.821877ZM415.775 39.9L413.025 39.9L413.025 34.603127Q413.025 32.93125 412.85312 32.446877Q412.68124 31.946877 412.275 31.681252Q411.88437 31.400002 411.32187 31.400002Q410.61874 31.400002 410.04062 31.790627Q409.47812 32.18125 409.25937 32.821877Q409.05624 33.4625 409.05624 35.196877L409.05624 39.9L406.32187 39.9L406.32187 29.525002L408.86874 29.525002L408.86874 31.056252Q410.22812 29.290627 412.29062 29.290627Q413.19687 29.290627 413.94687 29.618752Q414.69687 29.946877 415.07187 30.462502Q415.4625 30.962502 415.61874 31.618752Q415.775 32.259377 415.775 33.446877L415.775 39.9ZM423.0875 29.525002L423.0875 31.712502L421.2125 31.712502L421.2125 35.9Q421.2125 37.165627 421.25937 37.384377Q421.32187 37.5875 421.50937 37.728127Q421.7125 37.853127 421.97812 37.853127Q422.35312 37.853127 423.0875 37.5875L423.32187 39.728127Q422.35312 40.134377 421.15 40.134377Q420.4 40.134377 419.80624 39.884377Q419.2125 39.634377 418.93124 39.24375Q418.66562 38.8375 418.55624 38.165627Q418.4625 37.696877 418.4625 36.24375L418.4625 31.712502L417.19687 31.712502L417.19687 29.525002L418.4625 29.525002L418.4625 27.462502L421.2125 25.868752L421.2125 29.525002L423.0875 29.525002ZM424.69687 34.571877Q424.69687 33.196877 425.36874 31.915627Q426.05624 30.634377 427.29062 29.962502Q428.525 29.290627 430.04062 29.290627Q432.4 29.290627 433.9 30.821877Q435.4 32.353127 435.4 34.68125Q435.4 37.040627 433.88437 38.5875Q432.36874 40.134377 430.05624 40.134377Q428.63437 40.134377 427.3375 39.49375Q426.05624 38.8375 425.36874 37.603127Q424.69687 36.353127 424.69687 34.571877ZM427.50937 34.7125Q427.50937 36.259377 428.24374 37.0875Q428.97812 37.9 430.05624 37.9Q431.13437 37.9 431.85312 37.0875Q432.5875 36.259377 432.5875 34.696877Q432.5875 33.165627 431.85312 32.353127Q431.13437 31.525002 430.05624 31.525002Q428.97812 31.525002 428.24374 32.353127Q427.50937 33.165627 427.50937 34.7125Z" fill-rule="nonzero"/></svg>