<svg version="1.1" viewBox="0.0 0.0 675.0 418.0" fill="none" stroke="none" stroke-linecap="square" stroke-miterlimit="10" width="675" height="418" xmlns:xlink="http://www.w3.org/1999/xlink" xmlns="http://www.w3.org/2000/svg"><path fill="#ffffff" d="M0 0L675.0 0L675.0 418.0L0 418.0L0 0Z" fill-rule="nonzero"/><path fill="#a98823" d="M502.23038 214.03159C502.23038 262.323 451.7849 303.35608 383.56772 310.55353L383.56772 289.63663C451.7849 282.43918 502.23038 241.4061 502.23038 193.11469Z" fill-rule="nonzero"/><path fill="#f1c232" d="M362.78436 95.50249C435.75574 95.50249 496.3873 134.883 501.84045 185.82011C507.2936 236.75725 455.72406 282.02356 383.56772 289.63663L362.78436 193.11469Z" fill-rule="nonzero"/><path fill="#b36b00" d="M383.56772 310.55353C343.4096 314.79053 302.60803 306.56223 271.8255 288.01886C241.04298 269.47552 223.33838 242.45978 223.33838 214.03159L223.33838 193.11469C223.33838 221.54288 241.04298 248.55862 271.8255 267.10196C302.60803 285.64532 343.4096 293.87363 383.56772 289.63663Z" fill-rule="nonzero"/><path fill="#ff9900" d="M383.56772 289.63663C331.83997 295.09433 280.09967 279.8271 249.56287 250.09518C219.02605 220.3633 214.83 181.16866 238.69531 148.58296C262.5606 115.99726 310.47235 95.50249 362.78436 95.50249L362.78436 193.11469Z" fill-rule="nonzero"/><path fill="#ffffff" d="M472.0242 192.25389L470.10233 192.25389L470.10233 185.01952Q469.03983 186.00389 467.61795 186.47264L467.61795 184.72264Q468.36795 184.48827 469.24295 183.80077Q470.13358 183.11327 470.4617 182.19139L472.0242 182.19139L472.0242 192.25389ZM478.35233 182.19139Q479.80545 182.19139 480.63358 183.22264Q481.60233 184.45702 481.60233 187.31639Q481.60233 190.16014 480.61795 191.39452Q479.80545 192.42577 478.35233 192.42577Q476.88358 192.42577 475.99295 191.30077Q475.10233 190.17577 475.10233 187.28514Q475.10233 184.45702 476.0867 183.22264Q476.8992 182.19139 478.35233 182.19139ZM478.35233 183.78514Q478.00858 183.78514 477.72733 184.00389Q477.4617 184.22264 477.30545 184.80077Q477.10233 185.55077 477.10233 187.31639Q477.10233 189.08202 477.2742 189.73827Q477.4617 190.39452 477.72733 190.61327Q478.00858 190.83202 478.35233 190.83202Q478.69608 190.83202 478.9617 190.61327Q479.24295 190.39452 479.3992 189.81639Q479.60233 189.08202 479.60233 187.31639Q479.60233 185.55077 479.41483 184.89452Q479.24295 184.22264 478.9617 184.00389Q478.69608 183.78514 478.35233 183.78514Z" fill-rule="nonzero"/><path fill="#ffffff" d="M248.57579 203.97548L246.65392 203.97548L246.65392 196.7411Q245.59142 197.72548 244.16954 198.19423L244.16954 196.44423Q244.91954 196.20985 245.79454 195.52235Q246.68517 194.83485 247.01329 193.91298L248.57579 193.91298L248.57579 203.97548ZM256.5758 203.97548L254.65392 203.97548L254.65392 196.7411Q253.59142 197.72548 252.16954 198.19423L252.16954 196.44423Q252.91954 196.20985 253.79454 195.52235Q254.68517 194.83485 255.01329 193.91298L256.5758 193.91298L256.5758 203.97548Z" fill-rule="nonzero"/><path fill="#313131" d="M76.390625 192.16953L76.390625 191.16953L80.015625 191.1539L80.015625 194.3414Q79.1875 195.01328 78.296875 195.35703Q77.40625 195.68515 76.46875 195.68515Q75.203125 195.68515 74.15625 195.1539Q73.125 194.60703 72.59375 193.5914Q72.078125 192.56015 72.078125 191.29453Q72.078125 190.0289 72.59375 188.95078Q73.125 187.85703 74.109375 187.3414Q75.09375 186.81015 76.375 186.81015Q77.3125 186.81015 78.0625 187.10703Q78.8125 187.4039 79.234375 187.95078Q79.671875 188.48203 79.890625 189.35703L78.875 189.63828Q78.671875 188.98203 78.375 188.60703Q78.09375 188.23203 77.5625 188.01328Q77.03125 187.7789 76.390625 187.7789Q75.609375 187.7789 75.03125 188.01328Q74.46875 188.24765 74.109375 188.63828Q73.765625 189.0289 73.578125 189.49765Q73.25 190.29453 73.25 191.2164Q73.25 192.37265 73.640625 193.1539Q74.046875 193.91953 74.796875 194.29453Q75.546875 194.66953 76.40625 194.66953Q77.140625 194.66953 77.84375 194.38828Q78.546875 194.0914 78.90625 193.7789L78.90625 192.16953L76.390625 192.16953ZM81.21875 195.54453L81.21875 189.32578L82.171875 189.32578L82.171875 190.26328Q82.53125 189.60703 82.828125 189.4039Q83.140625 189.18515 83.515625 189.18515Q84.046875 189.18515 84.59375 189.51328L84.234375 190.49765Q83.84375 190.26328 83.46875 190.26328Q83.109375 190.26328 82.828125 190.48203Q82.5625 190.68515 82.453125 191.06015Q82.265625 191.62265 82.265625 192.2789L82.265625 195.54453L81.21875 195.54453ZM89.296875 194.7789Q88.703125 195.2789 88.15625 195.48203Q87.625 195.68515 87.0 195.68515Q85.96875 195.68515 85.421875 195.18515Q84.875 194.68515 84.875 193.9039Q84.875 193.45078 85.078125 193.07578Q85.28125 192.68515 85.625 192.4664Q85.96875 192.23203 86.390625 192.12265Q86.6875 192.0289 87.328125 191.95078Q88.59375 191.81015 89.203125 191.5914Q89.203125 191.37265 89.203125 191.32578Q89.203125 190.66953 88.90625 190.4039Q88.5 190.06015 87.703125 190.06015Q86.96875 190.06015 86.609375 190.32578Q86.25 190.57578 86.078125 191.23203L85.046875 191.0914Q85.1875 190.43515 85.515625 190.0289Q85.84375 189.62265 86.453125 189.4039Q87.0625 189.18515 87.859375 189.18515Q88.65625 189.18515 89.15625 189.37265Q89.65625 189.56015 89.890625 189.8414Q90.125 190.12265 90.21875 190.56015Q90.265625 190.82578 90.265625 191.5289L90.265625 192.93515Q90.265625 194.4039 90.328125 194.79453Q90.40625 195.18515 90.609375 195.54453L89.5 195.54453Q89.34375 195.2164 89.296875 194.7789ZM89.203125 192.41953Q88.625 192.6539 87.484375 192.82578Q86.828125 192.91953 86.5625 193.04453Q86.296875 193.1539 86.140625 193.37265Q86.0 193.5914 86.0 193.87265Q86.0 194.29453 86.3125 194.57578Q86.640625 194.85703 87.25 194.85703Q87.859375 194.85703 88.328125 194.5914Q88.8125 194.32578 89.03125 193.85703Q89.203125 193.49765 89.203125 192.81015L89.203125 192.41953ZM93.953125 195.54453L91.59375 189.32578L92.703125 189.32578L94.046875 193.04453Q94.25 193.6539 94.4375 194.29453Q94.578125 193.81015 94.828125 193.12265L96.21875 189.32578L97.296875 189.32578L94.9375 195.54453L93.953125 195.54453ZM101.484375 193.54453L102.578125 193.66953Q102.328125 194.62265 101.625 195.1539Q100.921875 195.68515 99.84375 195.68515Q98.484375 195.68515 97.671875 194.8414Q96.875 193.99765 96.875 192.48203Q96.875 190.91953 97.6875 190.06015Q98.5 189.18515 99.78125 189.18515Q101.03125 189.18515 101.8125 190.0289Q102.609375 190.87265 102.609375 192.41953Q102.609375 192.51328 102.609375 192.70078L97.96875 192.70078Q98.03125 193.73203 98.546875 194.2789Q99.0625 194.81015 99.84375 194.81015Q100.421875 194.81015 100.828125 194.51328Q101.25 194.20078 101.484375 193.54453ZM98.03125 191.8414L101.5 191.8414Q101.4375 191.04453 101.109375 190.6539Q100.59375 190.04453 99.796875 190.04453Q99.0625 190.04453 98.5625 190.5289Q98.078125 191.01328 98.03125 191.8414Z" fill-rule="nonzero"/><path fill="#9e9e9e" d="M71.9375 210.29453L73.046875 210.20078Q73.171875 211.01328 73.609375 211.41953Q74.0625 211.82578 74.703125 211.82578Q75.453125 211.82578 75.984375 211.24765Q76.515625 210.66953 76.515625 209.73203Q76.515625 208.82578 76.0 208.31015Q75.5 207.7789 74.671875 207.7789Q74.171875 207.7789 73.75 208.01328Q73.34375 208.24765 73.109375 208.60703L72.125 208.48203L72.953125 204.07578L77.234375 204.07578L77.234375 205.07578L73.796875 205.07578L73.34375 207.38828Q74.109375 206.8414 74.953125 206.8414Q76.078125 206.8414 76.84375 207.62265Q77.625 208.4039 77.625 209.63828Q77.625 210.79453 76.953125 211.6539Q76.125 212.68515 74.703125 212.68515Q73.53125 212.68515 72.78125 212.0289Q72.046875 211.37265 71.9375 210.29453ZM84.484375 211.5289L84.484375 212.54453L78.796875 212.54453Q78.796875 212.16953 78.921875 211.81015Q79.140625 211.23203 79.609375 210.66953Q80.09375 210.10703 81.0 209.37265Q82.40625 208.2164 82.890625 207.54453Q83.390625 206.87265 83.390625 206.2789Q83.390625 205.6539 82.9375 205.23203Q82.484375 204.79453 81.765625 204.79453Q81.0 204.79453 80.546875 205.24765Q80.09375 205.70078 80.078125 206.51328L79.0 206.4039Q79.109375 205.18515 79.828125 204.56015Q80.5625 203.91953 81.796875 203.91953Q83.03125 203.91953 83.75 204.60703Q84.46875 205.29453 84.46875 206.31015Q84.46875 206.82578 84.25 207.32578Q84.046875 207.81015 83.546875 208.37265Q83.0625 208.91953 81.9375 209.87265Q80.984375 210.66953 80.703125 210.9664Q80.4375 211.24765 80.265625 211.5289L84.484375 211.5289ZM86.5 212.54453L86.5 211.3414L87.703125 211.3414L87.703125 212.54453Q87.703125 213.20078 87.46875 213.60703Q87.234375 214.0289 86.734375 214.24765L86.4375 213.79453Q86.765625 213.6539 86.921875 213.35703Q87.078125 213.07578 87.109375 212.54453L86.5 212.54453ZM92.3125 212.54453L92.3125 210.48203L88.59375 210.48203L88.59375 209.51328L92.515625 203.95078L93.375 203.95078L93.375 209.51328L94.53125 209.51328L94.53125 210.48203L93.375 210.48203L93.375 212.54453L92.3125 212.54453ZM92.3125 209.51328L92.3125 205.6539L89.625 209.51328L92.3125 209.51328ZM96.140625 206.01328Q96.140625 205.0914 96.59375 204.45078Q97.0625 203.81015 97.9375 203.81015Q98.75 203.81015 99.28125 204.38828Q99.8125 204.9664 99.8125 206.07578Q99.8125 207.16953 99.265625 207.76328Q98.734375 208.3414 97.953125 208.3414Q97.171875 208.3414 96.65625 207.76328Q96.140625 207.18515 96.140625 206.01328ZM97.96875 204.5289Q97.578125 204.5289 97.3125 204.87265Q97.0625 205.2164 97.0625 206.12265Q97.0625 206.95078 97.3125 207.29453Q97.578125 207.62265 97.96875 207.62265Q98.375 207.62265 98.625 207.2789Q98.890625 206.93515 98.890625 206.04453Q98.890625 205.20078 98.625 204.87265Q98.359375 204.5289 97.96875 204.5289ZM97.96875 212.85703L102.671875 203.81015L103.53125 203.81015L98.84375 212.85703L97.96875 212.85703ZM101.6875 210.5289Q101.6875 209.60703 102.140625 208.9664Q102.609375 208.32578 103.5 208.32578Q104.3125 208.32578 104.84375 208.9039Q105.375 209.4664 105.375 210.5914Q105.375 211.68515 104.828125 212.2789Q104.296875 212.85703 103.5 212.85703Q102.734375 212.85703 102.203125 212.2789Q101.6875 211.70078 101.6875 210.5289ZM103.53125 209.04453Q103.125 209.04453 102.859375 209.38828Q102.609375 209.73203 102.609375 210.63828Q102.609375 211.45078 102.875 211.79453Q103.140625 212.13828 103.53125 212.13828Q103.921875 212.13828 104.1875 211.79453Q104.453125 211.45078 104.453125 210.54453Q104.453125 209.7164 104.1875 209.38828Q103.921875 209.04453 103.53125 209.04453Z" fill-rule="nonzero"/><path stroke="#757575" stroke-width="1.0" stroke-linecap="butt" d="M71.4375 200.04453L217.33838 200.04453L230.68109 200.04453" fill-rule="nonzero"/><path fill="#9e9e9e" d="M232.68109 200.04453C232.68109 198.93996 231.78566 198.04453 230.68109 198.04453C229.57652 198.04453 228.68109 198.93996 228.68109 200.04453C228.68109 201.1491 229.57652 202.04453 230.68109 202.04453C231.78566 202.04453 232.68109 201.1491 232.68109 200.04453" fill-rule="nonzero"/><path fill="#313131" d="M600.02185 181.68484L600.02185 173.0911L601.7406 173.0911L603.77185 179.16922Q604.0531 180.0286 604.1781 180.45047Q604.3187 179.98172 604.6312 179.07547L606.6937 173.0911L608.225 173.0911L608.225 181.68484L607.1312 181.68484L607.1312 174.49734L604.6312 181.68484L603.6 181.68484L601.1156 174.37234L601.1156 181.68484L600.02185 181.68484ZM608.5375 178.57547Q608.5375 176.8411 609.4906 176.01297Q610.2875 175.32547 611.4437 175.32547Q612.725 175.32547 613.5375 176.16922Q614.3656 176.99734 614.3656 178.48172Q614.3656 179.68484 614.0062 180.37234Q613.64685 181.05984 612.9437 181.45047Q612.2562 181.82547 611.4437 181.82547Q610.14685 181.82547 609.33435 180.99734Q608.5375 180.1536 608.5375 178.57547ZM609.6156 178.57547Q609.6156 179.76297 610.1312 180.35672Q610.6625 180.95047 611.4437 180.95047Q612.2406 180.95047 612.7562 180.35672Q613.27185 179.76297 613.27185 178.54422Q613.27185 177.38797 612.7406 176.79422Q612.225 176.20047 611.4437 176.20047Q610.6625 176.20047 610.1312 176.79422Q609.6156 177.37234 609.6156 178.57547ZM619.95935 181.68484L619.95935 180.9036Q619.3656 181.82547 618.225 181.82547Q617.475 181.82547 616.85 181.41922Q616.225 180.99734 615.8812 180.26297Q615.5375 179.5286 615.5375 178.57547Q615.5375 177.6536 615.85 176.88797Q616.1625 176.12234 616.7875 175.73172Q617.4125 175.32547 618.1781 175.32547Q618.7406 175.32547 619.1781 175.55984Q619.6156 175.79422 619.89685 176.16922L619.89685 173.0911L620.9437 173.0911L620.9437 181.68484L619.95935 181.68484ZM616.6312 178.57547Q616.6312 179.7786 617.1312 180.37234Q617.6312 180.95047 618.3187 180.95047Q619.0062 180.95047 619.4906 180.38797Q619.975 179.82547 619.975 178.66922Q619.975 177.38797 619.475 176.79422Q618.9906 176.20047 618.27185 176.20047Q617.5687 176.20047 617.1 176.7786Q616.6312 177.3411 616.6312 178.57547ZM627.1781 179.68484L628.27185 179.80984Q628.02185 180.76297 627.3187 181.29422Q626.6156 181.82547 625.5375 181.82547Q624.1781 181.82547 623.3656 180.98172Q622.5687 180.13797 622.5687 178.62234Q622.5687 177.05984 623.3812 176.20047Q624.1937 175.32547 625.475 175.32547Q626.725 175.32547 627.5062 176.16922Q628.3031 177.01297 628.3031 178.55984Q628.3031 178.6536 628.3031 178.8411L623.6625 178.8411Q623.725 179.87234 624.2406 180.41922Q624.7562 180.95047 625.5375 180.95047Q626.1156 180.95047 626.52185 180.6536Q626.9437 180.3411 627.1781 179.68484ZM623.725 177.98172L627.1937 177.98172Q627.1312 177.18484 626.8031 176.79422Q626.2875 176.18484 625.4906 176.18484Q624.7562 176.18484 624.2562 176.66922Q623.77185 177.1536 623.725 177.98172ZM629.9125 181.68484L629.9125 175.4661L630.8656 175.4661L630.8656 176.4036Q631.225 175.74734 631.52185 175.54422Q631.83435 175.32547 632.20935 175.32547Q632.7406 175.32547 633.2875 175.6536L632.9281 176.63797Q632.5375 176.4036 632.1625 176.4036Q631.8031 176.4036 631.52185 176.62234Q631.2562 176.82547 631.14685 177.20047Q630.95935 177.76297 630.95935 178.41922L630.95935 181.68484L629.9125 181.68484ZM637.9906 180.91922Q637.39685 181.41922 636.85 181.62234Q636.3187 181.82547 635.6937 181.82547Q634.6625 181.82547 634.1156 181.32547Q633.5687 180.82547 633.5687 180.04422Q633.5687 179.5911 633.77185 179.2161Q633.975 178.82547 634.3187 178.60672Q634.6625 178.37234 635.08435 178.26297Q635.3812 178.16922 636.02185 178.0911Q637.2875 177.95047 637.89685 177.73172Q637.89685 177.51297 637.89685 177.4661Q637.89685 176.80984 637.6 176.54422Q637.1937 176.20047 636.39685 176.20047Q635.6625 176.20047 635.3031 176.4661Q634.9437 176.7161 634.77185 177.37234L633.7406 177.23172Q633.8812 176.57547 634.20935 176.16922Q634.5375 175.76297 635.14685 175.54422Q635.7562 175.32547 636.5531 175.32547Q637.35 175.32547 637.85 175.51297Q638.35 175.70047 638.58435 175.98172Q638.8187 176.26297 638.9125 176.70047Q638.95935 176.9661 638.95935 177.66922L638.95935 179.07547Q638.95935 180.54422 639.02185 180.93484Q639.1 181.32547 639.3031 181.68484L638.1937 181.68484Q638.0375 181.35672 637.9906 180.91922ZM637.89685 178.55984Q637.3187 178.79422 636.1781 178.9661Q635.52185 179.05984 635.2562 179.18484Q634.9906 179.29422 634.83435 179.51297Q634.6937 179.73172 634.6937 180.01297Q634.6937 180.43484 635.0062 180.7161Q635.33435 180.99734 635.9437 180.99734Q636.5531 180.99734 637.02185 180.73172Q637.5062 180.4661 637.725 179.99734Q637.89685 179.63797 637.89685 178.95047L637.89685 178.55984ZM644.95935 181.68484L644.95935 180.9036Q644.3656 181.82547 643.225 181.82547Q642.475 181.82547 641.85 181.41922Q641.225 180.99734 640.8812 180.26297Q640.5375 179.5286 640.5375 178.57547Q640.5375 177.6536 640.85 176.88797Q641.1625 176.12234 641.7875 175.73172Q642.4125 175.32547 643.1781 175.32547Q643.7406 175.32547 644.1781 175.55984Q644.6156 175.79422 644.89685 176.16922L644.89685 173.0911L645.9437 173.0911L645.9437 181.68484L644.95935 181.68484ZM641.6312 178.57547Q641.6312 179.7786 642.1312 180.37234Q642.6312 180.95047 643.3187 180.95047Q644.0062 180.95047 644.4906 180.38797Q644.975 179.82547 644.975 178.66922Q644.975 177.38797 644.475 176.79422Q643.9906 176.20047 643.27185 176.20047Q642.5687 176.20047 642.1 176.7786Q641.6312 177.3411 641.6312 178.57547ZM651.9906 180.91922Q651.39685 181.41922 650.85 181.62234Q650.3187 181.82547 649.6937 181.82547Q648.6625 181.82547 648.1156 181.32547Q647.5687 180.82547 647.5687 180.04422Q647.5687 179.5911 647.77185 179.2161Q647.975 178.82547 648.3187 178.60672Q648.6625 178.37234 649.08435 178.26297Q649.3812 178.16922 650.02185 178.0911Q651.2875 177.95047 651.89685 177.73172Q651.89685 177.51297 651.89685 177.4661Q651.89685 176.80984 651.6 176.54422Q651.1937 176.20047 650.39685 176.20047Q649.6625 176.20047 649.3031 176.4661Q648.9437 176.7161 648.77185 177.37234L647.7406 177.23172Q647.8812 176.57547 648.20935 176.16922Q648.5375 175.76297 649.14685 175.54422Q649.7562 175.32547 650.5531 175.32547Q651.35 175.32547 651.85 175.51297Q652.35 175.70047 652.58435 175.98172Q652.8187 176.26297 652.9125 176.70047Q652.95935 176.9661 652.95935 177.66922L652.95935 179.07547Q652.95935 180.54422 653.02185 180.93484Q653.1 181.32547 653.3031 181.68484L652.1937 181.68484Q652.0375 181.35672 651.9906 180.91922ZM651.89685 178.55984Q651.3187 178.79422 650.1781 178.9661Q649.52185 179.05984 649.2562 179.18484Q648.9906 179.29422 648.83435 179.51297Q648.6937 179.73172 648.6937 180.01297Q648.6937 180.43484 649.0062 180.7161Q649.33435 180.99734 649.9437 180.99734Q650.5531 180.99734 651.02185 180.73172Q651.5062 180.4661 651.725 179.99734Q651.89685 179.63797 651.89685 178.95047L651.89685 178.55984Z" fill-rule="nonzero"/><path fill="#9e9e9e" d="M623.0062 198.68484L623.0062 196.62234L619.2875 196.62234L619.2875 195.6536L623.20935 190.0911L624.0687 190.0911L624.0687 195.6536L625.225 195.6536L625.225 196.62234L624.0687 196.62234L624.0687 198.68484L623.0062 198.68484ZM623.0062 195.6536L623.0062 191.79422L620.3187 195.6536L623.0062 195.6536ZM626.6937 191.2161L626.6937 190.20047L632.2562 190.20047L632.2562 191.0286Q631.4437 191.9036 630.6312 193.35672Q629.83435 194.79422 629.39685 196.32547Q629.0687 197.4036 628.9906 198.68484L627.89685 198.68484Q627.9125 197.66922 628.2875 196.23172Q628.6781 194.79422 629.3812 193.4661Q630.1 192.13797 630.9125 191.2161L626.6937 191.2161ZM634.1937 198.68484L634.1937 197.48172L635.39685 197.48172L635.39685 198.68484Q635.39685 199.3411 635.1625 199.74734Q634.9281 200.16922 634.4281 200.38797L634.1312 199.93484Q634.45935 199.79422 634.6156 199.49734Q634.77185 199.2161 634.8031 198.68484L634.1937 198.68484ZM642.1 192.20047L641.0531 192.2786Q640.9125 191.6536 640.6625 191.37234Q640.225 190.91922 639.6 190.91922Q639.1 190.91922 638.70935 191.20047Q638.225 191.57547 637.9281 192.2786Q637.64685 192.9661 637.6312 194.24734Q638.0062 193.66922 638.5531 193.38797Q639.1156 193.10672 639.725 193.10672Q640.77185 193.10672 641.5062 193.88797Q642.2562 194.66922 642.2562 195.88797Q642.2562 196.70047 641.89685 197.4036Q641.5531 198.0911 640.9437 198.4661Q640.33435 198.82547 639.5687 198.82547Q638.2406 198.82547 637.4125 197.85672Q636.58435 196.88797 636.58435 194.66922Q636.58435 192.16922 637.5062 191.04422Q638.3031 190.05984 639.6625 190.05984Q640.6781 190.05984 641.3187 190.63797Q641.975 191.20047 642.1 192.20047ZM637.8031 195.9036Q637.8031 196.45047 638.02185 196.95047Q638.2562 197.43484 638.6625 197.70047Q639.08435 197.9661 639.5531 197.9661Q640.20935 197.9661 640.6937 197.43484Q641.1781 196.88797 641.1781 195.9661Q641.1781 195.07547 640.6937 194.55984Q640.225 194.04422 639.5062 194.04422Q638.7875 194.04422 638.2875 194.55984Q637.8031 195.07547 637.8031 195.9036ZM643.83435 192.1536Q643.83435 191.23172 644.2875 190.5911Q644.7562 189.95047 645.6312 189.95047Q646.4437 189.95047 646.975 190.5286Q647.5062 191.10672 647.5062 192.2161Q647.5062 193.30984 646.95935 193.9036Q646.4281 194.48172 645.64685 194.48172Q644.8656 194.48172 644.35 193.9036Q643.83435 193.32547 643.83435 192.1536ZM645.6625 190.66922Q645.27185 190.66922 645.0062 191.01297Q644.7562 191.35672 644.7562 192.26297Q644.7562 193.0911 645.0062 193.43484Q645.27185 193.76297 645.6625 193.76297Q646.0687 193.76297 646.3187 193.41922Q646.58435 193.07547 646.58435 192.18484Q646.58435 191.3411 646.3187 191.01297Q646.0531 190.66922 645.6625 190.66922ZM645.6625 198.99734L650.3656 189.95047L651.225 189.95047L646.5375 198.99734L645.6625 198.99734ZM649.3812 196.66922Q649.3812 195.74734 649.83435 195.10672Q650.3031 194.4661 651.1937 194.4661Q652.0062 194.4661 652.5375 195.04422Q653.0687 195.60672 653.0687 196.73172Q653.0687 197.82547 652.52185 198.41922Q651.9906 198.99734 651.1937 198.99734Q650.4281 198.99734 649.89685 198.41922Q649.3812 197.8411 649.3812 196.66922ZM651.225 195.18484Q650.8187 195.18484 650.5531 195.5286Q650.3031 195.87234 650.3031 196.7786Q650.3031 197.5911 650.5687 197.93484Q650.83435 198.2786 651.225 198.2786Q651.6156 198.2786 651.8812 197.93484Q652.14685 197.5911 652.14685 196.68484Q652.14685 195.85672 651.8812 195.5286Q651.6156 195.18484 651.225 195.18484Z" fill-rule="nonzero"/><path stroke="#757575" stroke-width="1.0" stroke-linecap="butt" d="M654.1312 186.18484L508.23038 186.18484L494.88766 186.18484" fill-rule="nonzero"/><path fill="#9e9e9e" d="M496.88766 186.18484C496.88766 185.08028 495.99222 184.18484 494.88766 184.18484C493.78308 184.18484 492.88766 185.08028 492.88766 186.18484C492.88766 187.28941 493.78308 188.18484 494.88766 188.18484C495.99222 188.18484 496.88766 187.28941 496.88766 186.18484" fill-rule="nonzero"/><path fill="#000000" d="M22.36875 25.587502L28.0875 25.587502Q29.790625 25.587502 30.61875 25.728127Q31.4625 25.868752 32.11875 26.321877Q32.775 26.759377 33.2125 27.509377Q33.65 28.259377 33.65 29.181252Q33.65 30.196877 33.103127 31.040627Q32.571877 31.868752 31.65 32.290627Q32.946877 32.665627 33.65 33.5875Q34.353127 34.509377 34.353127 35.74375Q34.353127 36.728127 33.9 37.65Q33.446877 38.571877 32.665627 39.134377Q31.884375 39.68125 30.728125 39.80625Q30.009375 39.884377 27.24375 39.9L22.36875 39.9L22.36875 25.587502ZM25.259375 27.962502L25.259375 31.275002L27.15 31.275002Q28.8375 31.275002 29.24375 31.228127Q29.99375 31.134377 30.415625 30.712502Q30.8375 30.290627 30.8375 29.603127Q30.8375 28.931252 30.4625 28.525002Q30.103125 28.103127 29.384375 28.009377Q28.9625 27.962502 26.915625 27.962502L25.259375 27.962502ZM25.259375 33.665627L25.259375 37.49375L27.93125 37.49375Q29.49375 37.49375 29.915625 37.4Q30.55625 37.275 30.9625 36.821877Q31.36875 36.36875 31.36875 35.61875Q31.36875 34.9625 31.05625 34.525Q30.74375 34.071877 30.15 33.86875Q29.55625 33.665627 27.5875 33.665627L25.259375 33.665627ZM43.165627 39.9L43.165627 38.353127Q42.603127 39.18125 41.665627 39.665627Q40.74375 40.134377 39.728127 40.134377Q38.68125 40.134377 37.853127 39.68125Q37.025 39.2125 36.65 38.384377Q36.275 37.55625 36.275 36.0875L36.275 29.525002L39.025 29.525002L39.025 34.290627Q39.025 36.478127 39.165627 36.978127Q39.321877 37.4625 39.7125 37.759377Q40.11875 38.040627 40.74375 38.040627Q41.446877 38.040627 41.99375 37.665627Q42.55625 37.275 42.759377 36.7125Q42.9625 36.134377 42.9625 33.9L42.9625 29.525002L45.7125 29.525002L45.7125 39.9L43.165627 39.9ZM48.0875 40.5875L51.2125 40.9625Q51.290627 41.509377 51.571877 41.7125Q51.9625 42.009377 52.80625 42.009377Q53.884377 42.009377 54.415627 41.68125Q54.775 41.478127 54.9625 40.99375Q55.0875 40.65 55.0875 39.728127L55.0875 38.2125Q53.86875 39.9 51.99375 39.9Q49.9 39.9 48.68125 38.134377Q47.728127 36.728127 47.728127 34.65Q47.728127 32.040627 48.978127 30.665627Q50.228127 29.290627 52.103127 29.290627Q54.025 29.290627 55.275 30.978127L55.275 29.525002L57.8375 29.525002L57.8375 38.8375Q57.8375 40.665627 57.525 41.571877Q57.228127 42.49375 56.68125 43.009377Q56.134377 43.525 55.2125 43.80625Q54.30625 44.103127 52.915627 44.103127Q50.275 44.103127 49.165627 43.196877Q48.071877 42.30625 48.071877 40.915627Q48.071877 40.775 48.0875 40.5875ZM50.540627 34.49375Q50.540627 36.15 51.165627 36.915627Q51.80625 37.68125 52.74375 37.68125Q53.759377 37.68125 54.446877 36.9Q55.15 36.103127 55.15 34.571877Q55.15 32.9625 54.478127 32.18125Q53.821877 31.400002 52.80625 31.400002Q51.80625 31.400002 51.165627 32.165627Q50.540627 32.93125 50.540627 34.49375ZM59.36875 36.946877L62.11875 36.525Q62.30625 37.321877 62.8375 37.74375Q63.36875 38.15 64.3375 38.15Q65.4 38.15 65.94688 37.759377Q66.30625 37.49375 66.30625 37.025Q66.30625 36.7125 66.10313 36.509377Q65.9 36.321877 65.19688 36.15Q61.86875 35.415627 60.978127 34.80625Q59.74375 33.978127 59.74375 32.478127Q59.74375 31.134377 60.80625 30.212502Q61.884377 29.290627 64.11875 29.290627Q66.24375 29.290627 67.275 29.993752Q68.32188 30.681252 68.7125 32.040627L66.11875 32.509377Q65.94688 31.915627 65.47813 31.587502Q65.025 31.259377 64.16563 31.259377Q63.0875 31.259377 62.61875 31.571877Q62.30625 31.790627 62.30625 32.11875Q62.30625 32.415627 62.571877 32.61875Q62.946877 32.9 65.13438 33.4Q67.32188 33.9 68.19688 34.61875Q69.05625 35.353127 69.05625 36.65Q69.05625 38.0875 67.86875 39.11875Q66.68125 40.134377 64.3375 40.134377Q62.228127 40.134377 60.978127 39.275Q59.74375 38.415627 59.36875 36.946877ZM77.25938 29.525002L79.82188 29.525002L79.82188 31.056252Q80.32188 30.275002 81.16563 29.790627Q82.00938 29.290627 83.05625 29.290627Q84.85313 29.290627 86.10313 30.712502Q87.36875 32.11875 87.36875 34.65Q87.36875 37.259377 86.10313 38.696877Q84.8375 40.134377 83.025 40.134377Q82.16563 40.134377 81.4625 39.790627Q80.775 39.446877 80.00938 38.61875L80.00938 43.853127L77.25938 43.853127L77.25938 29.525002ZM79.97813 34.540627Q79.97813 36.290627 80.66563 37.134377Q81.35313 37.9625 82.35313 37.9625Q83.30625 37.9625 83.94688 37.196877Q84.5875 36.415627 84.5875 34.68125Q84.5875 33.040627 83.93125 32.259377Q83.275 31.462502 82.30625 31.462502Q81.30625 31.462502 80.63438 32.24375Q79.97813 33.009377 79.97813 34.540627ZM88.69688 34.571877Q88.69688 33.196877 89.36875 31.915627Q90.05625 30.634377 91.29063 29.962502Q92.525 29.290627 94.04063 29.290627Q96.4 29.290627 97.9 30.821877Q99.4 32.353127 99.4 34.68125Q99.4 37.040627 97.88438 38.5875Q96.36875 40.134377 94.05625 40.134377Q92.63438 40.134377 91.3375 39.49375Q90.05625 38.8375 89.36875 37.603127Q88.69688 36.353127 88.69688 34.571877ZM91.50938 34.7125Q91.50938 36.259377 92.24375 37.0875Q92.97813 37.9 94.05625 37.9Q95.13438 37.9 95.85313 37.0875Q96.5875 36.259377 96.5875 34.696877Q96.5875 33.165627 95.85313 32.353127Q95.13438 31.525002 94.05625 31.525002Q92.97813 31.525002 92.24375 32.353127Q91.50938 33.165627 91.50938 34.7125ZM103.9625 39.9L101.2125 39.9L101.2125 29.525002L103.775 29.525002L103.775 31.009377Q104.41563 29.962502 104.93125 29.634377Q105.4625 29.290627 106.13438 29.290627Q107.07188 29.290627 107.93125 29.806252L107.0875 32.196877Q106.4 31.759377 105.80625 31.759377Q105.22813 31.759377 104.82188 32.071877Q104.41563 32.384377 104.18125 33.228127Q103.9625 34.05625 103.9625 36.696877L103.9625 39.9ZM124.38438 32.5875L121.68125 33.0875Q121.54063 32.275 121.05625 31.868752Q120.57188 31.446877 119.80625 31.446877Q118.775 31.446877 118.16563 32.165627Q117.55625 32.86875 117.55625 34.525Q117.55625 36.36875 118.16563 37.134377Q118.79063 37.9 119.8375 37.9Q120.61875 37.9 121.11875 37.4625Q121.61875 37.009377 121.82188 35.93125L124.50938 36.384377Q124.10313 38.24375 122.9 39.196877Q121.7125 40.134377 119.7125 40.134377Q117.43125 40.134377 116.07188 38.696877Q114.72813 37.259377 114.72813 34.728127Q114.72813 32.15 116.0875 30.728127Q117.44688 29.290627 119.75938 29.290627Q121.65 29.290627 122.75938 30.118752Q123.88438 30.931252 124.38438 32.5875ZM128.9625 39.9L126.2125 39.9L126.2125 29.525002L128.775 29.525002L128.775 31.009377Q129.41562 29.962502 129.93124 29.634377Q130.4625 29.290627 131.13437 29.290627Q132.07187 29.290627 132.93124 29.806252L132.0875 32.196877Q131.4 31.759377 130.80624 31.759377Q130.22812 31.759377 129.82187 32.071877Q129.41562 32.384377 129.18124 33.228127Q128.9625 34.05625 128.9625 36.696877L128.9625 39.9ZM134.3375 28.118752L134.3375 25.587502L137.0875 25.587502L137.0875 28.118752L134.3375 28.118752ZM134.3375 39.9L134.3375 29.525002L137.0875 29.525002L137.0875 39.9L134.3375 39.9ZM144.0875 29.525002L144.0875 31.712502L142.2125 31.712502L142.2125 35.9Q142.2125 37.165627 142.25937 37.384377Q142.32187 37.5875 142.50937 37.728127Q142.7125 37.853127 142.97812 37.853127Q143.35312 37.853127 144.0875 37.5875L144.32187 39.728127Q143.35312 40.134377 142.15 40.134377Q141.4 40.134377 140.80624 39.884377Q140.2125 39.634377 139.93124 39.24375Q139.66562 38.8375 139.55624 38.165627Q139.4625 37.696877 139.4625 36.24375L139.4625 31.712502L138.19687 31.712502L138.19687 29.525002L139.4625 29.525002L139.4625 27.462502L142.2125 25.868752L142.2125 29.525002L144.0875 29.525002ZM146.3375 28.118752L146.3375 25.587502L149.0875 25.587502L149.0875 28.118752L146.3375 28.118752ZM146.3375 39.9L146.3375 29.525002L149.0875 29.525002L149.0875 39.9L146.3375 39.9ZM160.38437 32.5875L157.68124 33.0875Q157.54062 32.275 157.05624 31.868752Q156.57187 31.446877 155.80624 31.446877Q154.775 31.446877 154.16562 32.165627Q153.55624 32.86875 153.55624 34.525Q153.55624 36.36875 154.16562 37.134377Q154.79062 37.9 155.8375 37.9Q156.61874 37.9 157.11874 37.4625Q157.61874 37.009377 157.82187 35.93125L160.50937 36.384377Q160.10312 38.24375 158.9 39.196877Q157.7125 40.134377 155.7125 40.134377Q153.43124 40.134377 152.07187 38.696877Q150.72812 37.259377 150.72812 34.728127Q150.72812 32.15 152.0875 30.728127Q153.44687 29.290627 155.75937 29.290627Q157.65 29.290627 158.75937 30.118752Q159.88437 30.931252 160.38437 32.5875ZM162.3375 28.118752L162.3375 25.587502L165.0875 25.587502L165.0875 28.118752L162.3375 28.118752ZM162.3375 39.9L162.3375 29.525002L165.0875 29.525002L165.0875 39.9L162.3375 39.9ZM176.85312 39.9L174.30624 39.9L174.30624 38.36875Q173.66562 39.259377 172.79062 39.696877Q171.93124 40.134377 171.05624 40.134377Q169.275 40.134377 167.99374 38.696877Q166.72812 37.259377 166.72812 34.68125Q166.72812 32.040627 167.9625 30.665627Q169.19687 29.290627 171.10312 29.290627Q172.8375 29.290627 174.10312 30.743752L174.10312 25.587502L176.85312 25.587502L176.85312 39.9ZM169.525 34.49375Q169.525 36.15 169.97812 36.884377Q170.65 37.9625 171.8375 37.9625Q172.79062 37.9625 173.44687 37.165627Q174.11874 36.353127 174.11874 34.759377Q174.11874 32.9625 173.4625 32.18125Q172.82187 31.400002 171.82187 31.400002Q170.8375 31.400002 170.18124 32.18125Q169.525 32.946877 169.525 34.49375ZM181.38437 32.696877L178.9 32.24375Q179.32187 30.743752 180.3375 30.025002Q181.36874 29.290627 183.38437 29.290627Q185.22812 29.290627 186.11874 29.728127Q187.025 30.165627 187.38437 30.837502Q187.75937 31.493752 187.75937 33.290627L187.72812 36.49375Q187.72812 37.853127 187.85312 38.509377Q187.99374 39.15 188.35312 39.9L185.63437 39.9Q185.525 39.61875 185.36874 39.0875Q185.30624 38.8375 185.275 38.759377Q184.57187 39.446877 183.75937 39.790627Q182.9625 40.134377 182.05624 40.134377Q180.4625 40.134377 179.54062 39.275Q178.61874 38.4 178.61874 37.071877Q178.61874 36.18125 179.025 35.49375Q179.44687 34.80625 180.19687 34.446877Q180.9625 34.071877 182.4 33.80625Q184.32187 33.446877 185.05624 33.134377L185.05624 32.853127Q185.05624 32.071877 184.66562 31.743752Q184.275 31.400002 183.19687 31.400002Q182.4625 31.400002 182.04062 31.681252Q181.63437 31.962502 181.38437 32.696877ZM185.05624 34.915627Q184.525 35.0875 183.38437 35.3375Q182.24374 35.5875 181.9 35.821877Q181.35312 36.196877 181.35312 36.790627Q181.35312 37.353127 181.775 37.775Q182.2125 38.196877 182.88437 38.196877Q183.61874 38.196877 184.29062 37.7125Q184.79062 37.3375 184.94687 36.80625Q185.05624 36.446877 185.05624 35.4625L185.05624 34.915627ZM199.85312 39.9L197.30624 39.9L197.30624 38.36875Q196.66562 39.259377 195.79062 39.696877Q194.93124 40.134377 194.05624 40.134377Q192.275 40.134377 190.99374 38.696877Q189.72812 37.259377 189.72812 34.68125Q189.72812 32.040627 190.9625 30.665627Q192.19687 29.290627 194.10312 29.290627Q195.8375 29.290627 197.10312 30.743752L197.10312 25.587502L199.85312 25.587502L199.85312 39.9ZM192.525 34.49375Q192.525 36.15 192.97812 36.884377Q193.65 37.9625 194.8375 37.9625Q195.79062 37.9625 196.44687 37.165627Q197.11874 36.353127 197.11874 34.759377Q197.11874 32.9625 196.4625 32.18125Q195.82187 31.400002 194.82187 31.400002Q193.8375 31.400002 193.18124 32.18125Q192.525 32.946877 192.525 34.49375ZM208.3375 36.603127L211.07187 37.05625Q210.55624 38.55625 209.41562 39.353127Q208.275 40.134377 206.57187 40.134377Q203.85312 40.134377 202.55624 38.36875Q201.54062 36.946877 201.54062 34.790627Q201.54062 32.2125 202.88437 30.759377Q204.22812 29.290627 206.29062 29.290627Q208.60312 29.290627 209.93124 30.821877Q211.275 32.353127 211.22812 35.509377L204.35312 35.509377Q204.38437 36.728127 205.00937 37.415627Q205.65 38.0875 206.5875 38.0875Q207.24374 38.0875 207.68124 37.74375Q208.11874 37.384377 208.3375 36.603127ZM208.49374 33.821877Q208.4625 32.634377 207.86874 32.025Q207.29062 31.400002 206.4625 31.400002Q205.55624 31.400002 204.97812 32.040627Q204.38437 32.696877 204.4 33.821877L208.49374 33.821877ZM228.775 39.9L226.025 39.9L226.025 34.603127Q226.025 32.93125 225.85312 32.446877Q225.68124 31.946877 225.275 31.681252Q224.88437 31.400002 224.32187 31.400002Q223.61874 31.400002 223.04062 31.790627Q222.47812 32.18125 222.25937 32.821877Q222.05624 33.4625 222.05624 35.196877L222.05624 39.9L219.32187 39.9L219.32187 29.525002L221.86874 29.525002L221.86874 31.056252Q223.22812 29.290627 225.29062 29.290627Q226.19687 29.290627 226.94687 29.618752Q227.69687 29.946877 228.07187 30.462502Q228.4625 30.962502 228.61874 31.618752Q228.775 32.259377 228.775 33.446877L228.775 39.9ZM230.69687 34.571877Q230.69687 33.196877 231.36874 31.915627Q232.05624 30.634377 233.29062 29.962502Q234.525 29.290627 236.04062 29.290627Q238.4 29.290627 239.9 30.821877Q241.4 32.353127 241.4 34.68125Q241.4 37.040627 239.88437 38.5875Q238.36874 40.134377 236.05624 40.134377Q234.63437 40.134377 233.3375 39.49375Q232.05624 38.8375 231.36874 37.603127Q230.69687 36.353127 230.69687 34.571877ZM233.50937 34.7125Q233.50937 36.259377 234.24374 37.0875Q234.97812 37.9 236.05624 37.9Q237.13437 37.9 237.85312 37.0875Q238.5875 36.259377 238.5875 34.696877Q238.5875 33.165627 237.85312 32.353127Q237.13437 31.525002 236.05624 31.525002Q234.97812 31.525002 234.24374 32.353127Q233.50937 33.165627 233.50937 34.7125ZM248.13437 29.525002L249.66562 29.525002L249.66562 28.743752Q249.66562 27.431252 249.93124 26.790627Q250.2125 26.150002 250.9625 25.743752Q251.7125 25.337502 252.85312 25.337502Q254.025 25.337502 255.15 25.696877L254.775 27.603127Q254.11874 27.446877 253.50937 27.446877Q252.91562 27.446877 252.65 27.728127Q252.4 28.009377 252.4 28.790627L252.4 29.525002L254.44687 29.525002L254.44687 31.681252L252.4 31.681252L252.4 39.9L249.66562 39.9L249.66562 31.681252L248.13437 31.681252L248.13437 29.525002ZM256.3375 39.9L256.3375 25.587502L259.0875 25.587502L259.0875 39.9L256.3375 39.9ZM268.16562 39.9L268.16562 38.353127Q267.60312 39.18125 266.66562 39.665627Q265.74374 40.134377 264.72812 40.134377Q263.68124 40.134377 262.85312 39.68125Q262.025 39.2125 261.65 38.384377Q261.275 37.55625 261.275 36.0875L261.275 29.525002L264.025 29.525002L264.025 34.290627Q264.025 36.478127 264.16562 36.978127Q264.32187 37.4625 264.7125 37.759377Q265.11874 38.040627 265.74374 38.040627Q266.44687 38.040627 266.99374 37.665627Q267.55624 37.275 267.75937 36.7125Q267.9625 36.134377 267.9625 33.9L267.9625 29.525002L270.7125 29.525002L270.7125 39.9L268.16562 39.9ZM272.025 39.9L275.75937 34.55625L272.18124 29.525002L275.525 29.525002L277.35312 32.384377L279.29062 29.525002L282.50937 29.525002L278.99374 34.446877L282.8375 39.9L279.4625 39.9L277.35312 36.68125L275.22812 39.9L272.025 39.9ZM283.69687 34.571877Q283.69687 33.196877 284.36874 31.915627Q285.05624 30.634377 286.29062 29.962502Q287.525 29.290627 289.04062 29.290627Q291.4 29.290627 292.9 30.821877Q294.4 32.353127 294.4 34.68125Q294.4 37.040627 292.88437 38.5875Q291.36874 40.134377 289.05624 40.134377Q287.63437 40.134377 286.3375 39.49375Q285.05624 38.8375 284.36874 37.603127Q283.69687 36.353127 283.69687 34.571877ZM286.50937 34.7125Q286.50937 36.259377 287.24374 37.0875Q287.97812 37.9 289.05624 37.9Q290.13437 37.9 290.85312 37.0875Q291.5875 36.259377 291.5875 34.696877Q291.5875 33.165627 290.85312 32.353127Q290.13437 31.525002 289.05624 31.525002Q287.97812 31.525002 287.24374 32.353127Q286.50937 33.165627 286.50937 34.7125ZM311.85312 39.9L309.30624 39.9L309.30624 38.36875Q308.66562 39.259377 307.79062 39.696877Q306.93124 40.134377 306.05624 40.134377Q304.275 40.134377 302.99374 38.696877Q301.72812 37.259377 301.72812 34.68125Q301.72812 32.040627 302.9625 30.665627Q304.19687 29.290627 306.10312 29.290627Q307.8375 29.290627 309.10312 30.743752L309.10312 25.587502L311.85312 25.587502L311.85312 39.9ZM304.525 34.49375Q304.525 36.15 304.97812 36.884377Q305.65 37.9625 306.8375 37.9625Q307.79062 37.9625 308.44687 37.165627Q309.11874 36.353127 309.11874 34.759377Q309.11874 32.9625 308.4625 32.18125Q307.82187 31.400002 306.82187 31.400002Q305.8375 31.400002 305.18124 32.18125Q304.525 32.946877 304.525 34.49375ZM320.3375 36.603127L323.07187 37.05625Q322.55624 38.55625 321.41562 39.353127Q320.275 40.134377 318.57187 40.134377Q315.85312 40.134377 314.55624 38.36875Q313.54062 36.946877 313.54062 34.790627Q313.54062 32.2125 314.88437 30.759377Q316.22812 29.290627 318.29062 29.290627Q320.60312 29.290627 321.93124 30.821877Q323.275 32.353127 323.22812 35.509377L316.35312 35.509377Q316.38437 36.728127 317.00937 37.415627Q317.65 38.0875 318.5875 38.0875Q319.24374 38.0875 319.68124 37.74375Q320.11874 37.384377 320.3375 36.603127ZM320.49374 33.821877Q320.4625 32.634377 319.86874 32.025Q319.29062 31.400002 318.4625 31.400002Q317.55624 31.400002 316.97812 32.040627Q316.38437 32.696877 316.4 33.821877L320.49374 33.821877ZM331.38437 39.9L331.38437 25.587502L334.19687 25.587502L340.05624 35.15L340.05624 25.587502L342.74374 25.587502L342.74374 39.9L339.8375 39.9L334.07187 30.556252L334.07187 39.9L331.38437 39.9ZM347.38437 32.696877L344.9 32.24375Q345.32187 30.743752 346.3375 30.025002Q347.36874 29.290627 349.38437 29.290627Q351.22812 29.290627 352.11874 29.728127Q353.025 30.165627 353.38437 30.837502Q353.75937 31.493752 353.75937 33.290627L353.72812 36.49375Q353.72812 37.853127 353.85312 38.509377Q353.99374 39.15 354.35312 39.9L351.63437 39.9Q351.525 39.61875 351.36874 39.0875Q351.30624 38.8375 351.275 38.759377Q350.57187 39.446877 349.75937 39.790627Q348.9625 40.134377 348.05624 40.134377Q346.4625 40.134377 345.54062 39.275Q344.61874 38.4 344.61874 37.071877Q344.61874 36.18125 345.025 35.49375Q345.44687 34.80625 346.19687 34.446877Q346.9625 34.071877 348.4 33.80625Q350.32187 33.446877 351.05624 33.134377L351.05624 32.853127Q351.05624 32.071877 350.66562 31.743752Q350.275 31.400002 349.19687 31.400002Q348.4625 31.400002 348.04062 31.681252Q347.63437 31.962502 347.38437 32.696877ZM351.05624 34.915627Q350.525 35.0875 349.38437 35.3375Q348.24374 35.5875 347.9 35.821877Q347.35312 36.196877 347.35312 36.790627Q347.35312 37.353127 347.775 37.775Q348.2125 38.196877 348.88437 38.196877Q349.61874 38.196877 350.29062 37.7125Q350.79062 37.3375 350.94687 36.80625Q351.05624 36.446877 351.05624 35.4625L351.05624 34.915627ZM359.18124 39.9L355.00937 29.525002L357.88437 29.525002L359.8375 34.821877L360.41562 36.5875Q360.63437 35.915627 360.69687 35.696877Q360.82187 35.259377 360.97812 34.821877L362.9625 29.525002L365.775 29.525002L361.66562 39.9L359.18124 39.9ZM373.3375 36.603127L376.07187 37.05625Q375.55624 38.55625 374.41562 39.353127Q373.275 40.134377 371.57187 40.134377Q368.85312 40.134377 367.55624 38.36875Q366.54062 36.946877 366.54062 34.790627Q366.54062 32.2125 367.88437 30.759377Q369.22812 29.290627 371.29062 29.290627Q373.60312 29.290627 374.93124 30.821877Q376.275 32.353127 376.22812 35.509377L369.35312 35.509377Q369.38437 36.728127 370.00937 37.415627Q370.65 38.0875 371.5875 38.0875Q372.24374 38.0875 372.68124 37.74375Q373.11874 37.384377 373.3375 36.603127ZM373.49374 33.821877Q373.4625 32.634377 372.86874 32.025Q372.29062 31.400002 371.4625 31.400002Q370.55624 31.400002 369.97812 32.040627Q369.38437 32.696877 369.4 33.821877L373.49374 33.821877ZM378.0875 40.5875L381.2125 40.9625Q381.29062 41.509377 381.57187 41.7125Q381.9625 42.009377 382.80624 42.009377Q383.88437 42.009377 384.41562 41.68125Q384.775 41.478127 384.9625 40.99375Q385.0875 40.65 385.0875 39.728127L385.0875 38.2125Q383.86874 39.9 381.99374 39.9Q379.9 39.9 378.68124 38.134377Q377.72812 36.728127 377.72812 34.65Q377.72812 32.040627 378.97812 30.665627Q380.22812 29.290627 382.10312 29.290627Q384.025 29.290627 385.275 30.978127L385.275 29.525002L387.8375 29.525002L387.8375 38.8375Q387.8375 40.665627 387.525 41.571877Q387.22812 42.49375 386.68124 43.009377Q386.13437 43.525 385.2125 43.80625Q384.30624 44.103127 382.91562 44.103127Q380.275 44.103127 379.16562 43.196877Q378.07187 42.30625 378.07187 40.915627Q378.07187 40.775 378.0875 40.5875ZM380.54062 34.49375Q380.54062 36.15 381.16562 36.915627Q381.80624 37.68125 382.74374 37.68125Q383.75937 37.68125 384.44687 36.9Q385.15 36.103127 385.15 34.571877Q385.15 32.9625 384.47812 32.18125Q383.82187 31.400002 382.80624 31.400002Q381.80624 31.400002 381.16562 32.165627Q380.54062 32.93125 380.54062 34.49375ZM392.38437 32.696877L389.9 32.24375Q390.32187 30.743752 391.3375 30.025002Q392.36874 29.290627 394.38437 29.290627Q396.22812 29.290627 397.11874 29.728127Q398.025 30.165627 398.38437 30.837502Q398.75937 31.493752 398.75937 33.290627L398.72812 36.49375Q398.72812 37.853127 398.85312 38.509377Q398.99374 39.15 399.35312 39.9L396.63437 39.9Q396.525 39.61875 396.36874 39.0875Q396.30624 38.8375 396.275 38.759377Q395.57187 39.446877 394.75937 39.790627Q393.9625 40.134377 393.05624 40.134377Q391.4625 40.134377 390.54062 39.275Q389.61874 38.4 389.61874 37.071877Q389.61874 36.18125 390.025 35.49375Q390.44687 34.80625 391.19687 34.446877Q391.9625 34.071877 393.4 33.80625Q395.32187 33.446877 396.05624 33.134377L396.05624 32.853127Q396.05624 32.071877 395.66562 31.743752Q395.275 31.400002 394.19687 31.400002Q393.4625 31.400002 393.04062 31.681252Q392.63437 31.962502 392.38437 32.696877ZM396.05624 34.915627Q395.525 35.0875 394.38437 35.3375Q393.24374 35.5875 392.9 35.821877Q392.35312 36.196877 392.35312 36.790627Q392.35312 37.353127 392.775 37.775Q393.2125 38.196877 393.88437 38.196877Q394.61874 38.196877 395.29062 37.7125Q395.79062 37.3375 395.94687 36.80625Q396.05624 36.446877 396.05624 35.4625L396.05624 34.915627ZM410.38437 32.5875L407.68124 33.0875Q407.54062 32.275 407.05624 31.868752Q406.57187 31.446877 405.80624 31.446877Q404.775 31.446877 404.16562 32.165627Q403.55624 32.86875 403.55624 34.525Q403.55624 36.36875 404.16562 37.134377Q404.79062 37.9 405.8375 37.9Q406.61874 37.9 407.11874 37.4625Q407.61874 37.009377 407.82187 35.93125L410.50937 36.384377Q410.10312 38.24375 408.9 39.196877Q407.7125 40.134377 405.7125 40.134377Q403.43124 40.134377 402.07187 38.696877Q400.72812 37.259377 400.72812 34.728127Q400.72812 32.15 402.0875 30.728127Q403.44687 29.290627 405.75937 29.290627Q407.65 29.290627 408.75937 30.118752Q409.88437 30.931252 410.38437 32.5875ZM402.99374 43.8375L402.99374 42.68125Q403.99374 42.790627 404.8375 42.790627Q405.7125 42.790627 406.11874 42.478127Q406.44687 42.24375 406.44687 41.86875Q406.44687 41.540627 406.13437 41.290627Q405.8375 41.05625 405.2125 41.05625Q404.5875 41.05625 403.93124 41.24375L404.18124 40.275Q404.94687 40.025 405.82187 40.025Q407.04062 40.025 407.66562 40.55625Q408.30624 41.0875 408.30624 41.86875Q408.30624 42.728127 407.60312 43.259377Q406.66562 43.99375 404.9 43.99375Q403.63437 43.99375 402.99374 43.8375ZM414.38437 32.696877L411.9 32.24375Q412.32187 30.743752 413.3375 30.025002Q414.36874 29.290627 416.38437 29.290627Q418.22812 29.290627 419.11874 29.728127Q420.025 30.165627 420.38437 30.837502Q420.75937 31.493752 420.75937 33.290627L420.72812 36.49375Q420.72812 37.853127 420.85312 38.509377Q420.99374 39.15 421.35312 39.9L418.63437 39.9Q418.525 39.61875 418.36874 39.0875Q418.30624 38.8375 418.275 38.759377Q417.57187 39.446877 416.75937 39.790627Q415.9625 40.134377 415.05624 40.134377Q413.4625 40.134377 412.54062 39.275Q411.61874 38.4 411.61874 37.071877Q411.61874 36.18125 412.025 35.49375Q412.44687 34.80625 413.19687 34.446877Q413.9625 34.071877 415.4 33.80625Q417.32187 33.446877 418.05624 33.134377L418.05624 32.853127Q418.05624 32.071877 417.66562 31.743752Q417.275 31.400002 416.19687 31.400002Q415.4625 31.400002 415.04062 31.681252Q414.63437 31.962502 414.38437 32.696877ZM418.05624 34.915627Q417.525 35.0875 416.38437 35.3375Q415.24374 35.5875 414.9 35.821877Q414.35312 36.196877 414.35312 36.790627Q414.35312 37.353127 414.775 37.775Q415.2125 38.196877 415.88437 38.196877Q416.61874 38.196877 417.29062 37.7125Q417.79062 37.3375 417.94687 36.80625Q418.05624 36.446877 418.05624 35.4625L418.05624 34.915627ZM414.36874 28.134377L413.10312 28.134377Q413.10312 27.900002 413.10312 27.775002Q413.10312 26.759377 413.60312 26.212502Q414.10312 25.650002 414.88437 25.650002Q415.22812 25.650002 415.50937 25.728127Q415.80624 25.790627 416.57187 26.150002Q417.35312 26.493752 417.80624 26.493752Q418.11874 26.493752 418.32187 26.306252Q418.525 26.103127 418.5875 25.634377L419.85312 25.634377Q419.85312 26.962502 419.36874 27.525002Q418.88437 28.087502 418.11874 28.087502Q417.79062 28.087502 417.4625 28.025002Q417.24374 27.962502 416.3375 27.618752Q415.44687 27.275002 415.04062 27.275002Q414.72812 27.275002 414.54062 27.478127Q414.36874 27.665627 414.36874 28.134377ZM422.69687 34.571877Q422.69687 33.196877 423.36874 31.915627Q424.05624 30.634377 425.29062 29.962502Q426.525 29.290627 428.04062 29.290627Q430.4 29.290627 431.9 30.821877Q433.4 32.353127 433.4 34.68125Q433.4 37.040627 431.88437 38.5875Q430.36874 40.134377 428.05624 40.134377Q426.63437 40.134377 425.3375 39.49375Q424.05624 38.8375 423.36874 37.603127Q422.69687 36.353127 422.69687 34.571877ZM425.50937 34.7125Q425.50937 36.259377 426.24374 37.0875Q426.97812 37.9 428.05624 37.9Q429.13437 37.9 429.85312 37.0875Q430.5875 36.259377 430.5875 34.696877Q430.5875 33.165627 429.85312 32.353127Q429.13437 31.525002 428.05624 31.525002Q426.97812 31.525002 426.24374 32.353127Q425.50937 33.165627 425.50937 34.7125ZM450.85312 39.9L448.30624 39.9L448.30624 38.36875Q447.66562 39.259377 446.79062 39.696877Q445.93124 40.134377 445.05624 40.134377Q443.275 40.134377 441.99374 38.696877Q440.72812 37.259377 440.72812 34.68125Q440.72812 32.040627 441.9625 30.665627Q443.19687 29.290627 445.10312 29.290627Q446.8375 29.290627 448.10312 30.743752L448.10312 25.587502L450.85312 25.587502L450.85312 39.9ZM443.525 34.49375Q443.525 36.15 443.97812 36.884377Q444.65 37.9625 445.8375 37.9625Q446.79062 37.9625 447.44687 37.165627Q448.11874 36.353127 448.11874 34.759377Q448.11874 32.9625 447.4625 32.18125Q446.82187 31.400002 445.82187 31.400002Q444.8375 31.400002 444.18124 32.18125Q443.525 32.946877 443.525 34.49375ZM459.3375 36.603127L462.07187 37.05625Q461.55624 38.55625 460.41562 39.353127Q459.275 40.134377 457.57187 40.134377Q454.85312 40.134377 453.55624 38.36875Q452.54062 36.946877 452.54062 34.790627Q452.54062 32.2125 453.88437 30.759377Q455.22812 29.290627 457.29062 29.290627Q459.60312 29.290627 460.93124 30.821877Q462.275 32.353127 462.22812 35.509377L455.35312 35.509377Q455.38437 36.728127 456.00937 37.415627Q456.65 38.0875 457.5875 38.0875Q458.24374 38.0875 458.68124 37.74375Q459.11874 37.384377 459.3375 36.603127ZM459.49374 33.821877Q459.4625 32.634377 458.86874 32.025Q458.29062 31.400002 457.4625 31.400002Q456.55624 31.400002 455.97812 32.040627Q455.38437 32.696877 455.4 33.821877L459.49374 33.821877ZM470.3375 25.587502L473.22812 25.587502L473.22812 33.3375Q473.22812 35.18125 473.3375 35.728127Q473.525 36.603127 474.2125 37.134377Q474.91562 37.665627 476.13437 37.665627Q477.35312 37.665627 477.97812 37.165627Q478.60312 36.665627 478.72812 35.93125Q478.86874 35.196877 478.86874 33.509377L478.86874 25.587502L481.75937 25.587502L481.75937 33.103127Q481.75937 35.68125 481.525 36.74375Q481.29062 37.80625 480.65 38.540627Q480.025 39.275 478.9625 39.7125Q477.91562 40.15 476.2125 40.15Q474.16562 40.15 473.10312 39.68125Q472.04062 39.196877 471.43124 38.446877Q470.82187 37.68125 470.61874 36.853127Q470.3375 35.61875 470.3375 33.2125L470.3375 25.587502ZM483.36874 36.946877L486.11874 36.525Q486.30624 37.321877 486.8375 37.74375Q487.36874 38.15 488.3375 38.15Q489.4 38.15 489.94687 37.759377Q490.30624 37.49375 490.30624 37.025Q490.30624 36.7125 490.10312 36.509377Q489.9 36.321877 489.19687 36.15Q485.86874 35.415627 484.97812 34.80625Q483.74374 33.978127 483.74374 32.478127Q483.74374 31.134377 484.80624 30.212502Q485.88437 29.290627 488.11874 29.290627Q490.24374 29.290627 491.275 29.993752Q492.32187 30.681252 492.7125 32.040627L490.11874 32.509377Q489.94687 31.915627 489.47812 31.587502Q489.025 31.259377 488.16562 31.259377Q487.0875 31.259377 486.61874 31.571877Q486.30624 31.790627 486.30624 32.11875Q486.30624 32.415627 486.57187 32.61875Q486.94687 32.9 489.13437 33.4Q491.32187 33.9 492.19687 34.61875Q493.05624 35.353127 493.05624 36.65Q493.05624 38.0875 491.86874 39.11875Q490.68124 40.134377 488.3375 40.134377Q486.22812 40.134377 484.97812 39.275Q483.74374 38.415627 483.36874 36.946877ZM502.16562 39.9L502.16562 38.353127Q501.60312 39.18125 500.66562 39.665627Q499.74374 40.134377 498.72812 40.134377Q497.68124 40.134377 496.85312 39.68125Q496.025 39.2125 495.65 38.384377Q495.275 37.55625 495.275 36.0875L495.275 29.525002L498.025 29.525002L498.025 34.290627Q498.025 36.478127 498.16562 36.978127Q498.32187 37.4625 498.7125 37.759377Q499.11874 38.040627 499.74374 38.040627Q500.44687 38.040627 500.99374 37.665627Q501.55624 37.275 501.75937 36.7125Q501.9625 36.134377 501.9625 33.9L501.9625 29.525002L504.7125 29.525002L504.7125 39.9L502.16562 39.9ZM509.38437 32.696877L506.9 32.24375Q507.32187 30.743752 508.3375 30.025002Q509.36874 29.290627 511.38437 29.290627Q513.22815 29.290627 514.1188 29.728127Q515.025 30.165627 515.3844 30.837502Q515.7594 31.493752 515.7594 33.290627L515.72815 36.49375Q515.72815 37.853127 515.85315 38.509377Q515.9938 39.15 516.35315 39.9L513.6344 39.9Q513.525 39.61875 513.3688 39.0875Q513.3063 38.8375 513.275 38.759377Q512.5719 39.446877 511.75937 39.790627Q510.9625 40.134377 510.05624 40.134377Q508.4625 40.134377 507.54062 39.275Q506.61874 38.4 506.61874 37.071877Q506.61874 36.18125 507.025 35.49375Q507.44687 34.80625 508.19687 34.446877Q508.9625 34.071877 510.4 33.80625Q512.3219 33.446877 513.0563 33.134377L513.0563 32.853127Q513.0563 32.071877 512.66565 31.743752Q512.275 31.400002 511.19687 31.400002Q510.4625 31.400002 510.04062 31.681252Q509.63437 31.962502 509.38437 32.696877ZM513.0563 34.915627Q512.525 35.0875 511.38437 35.3375Q510.24374 35.5875 509.9 35.821877Q509.35312 36.196877 509.35312 36.790627Q509.35312 37.353127 509.775 37.775Q510.2125 38.196877 510.88437 38.196877Q511.61874 38.196877 512.29065 37.7125Q512.79065 37.3375 512.9469 36.80625Q513.0563 36.446877 513.0563 35.4625L513.0563 34.915627ZM510.0875 28.259377L511.43124 25.337502L514.5094 25.337502L511.82187 28.259377L510.0875 28.259377ZM520.9625 39.9L518.2125 39.9L518.2125 29.525002L520.775 29.525002L520.775 31.009377Q521.41565 29.962502 521.9313 29.634377Q522.4625 29.290627 523.1344 29.290627Q524.0719 29.290627 524.9313 29.806252L524.0875 32.196877Q523.4 31.759377 522.8063 31.759377Q522.22815 31.759377 521.8219 32.071877Q521.41565 32.384377 521.1813 33.228127Q520.9625 34.05625 520.9625 36.696877L520.9625 39.9ZM526.3375 28.118752L526.3375 25.587502L529.0875 25.587502L529.0875 28.118752L526.3375 28.118752ZM526.3375 39.9L526.3375 29.525002L529.0875 29.525002L529.0875 39.9L526.3375 39.9ZM530.6969 34.571877Q530.6969 33.196877 531.3688 31.915627Q532.0563 30.634377 533.29065 29.962502Q534.525 29.290627 536.04065 29.290627Q538.4 29.290627 539.9 30.821877Q541.4 32.353127 541.4 34.68125Q541.4 37.040627 539.8844 38.5875Q538.3688 40.134377 536.0563 40.134377Q534.6344 40.134377 533.3375 39.49375Q532.0563 38.8375 531.3688 37.603127Q530.6969 36.353127 530.6969 34.571877ZM533.5094 34.7125Q533.5094 36.259377 534.2438 37.0875Q534.97815 37.9 536.0563 37.9Q537.1344 37.9 537.85315 37.0875Q538.5875 36.259377 538.5875 34.696877Q538.5875 33.165627 537.85315 32.353127Q537.1344 31.525002 536.0563 31.525002Q534.97815 31.525002 534.2438 32.353127Q533.5094 33.165627 533.5094 34.7125Z" fill-rule="nonzero"/></svg>