<svg version="1.1" viewBox="0.0 0.0 675.0 418.0" fill="none" stroke="none" stroke-linecap="square" stroke-miterlimit="10" width="675" height="418" xmlns:xlink="http://www.w3.org/1999/xlink" xmlns="http://www.w3.org/2000/svg"><path fill="#ffffff" d="M0 0L675.0 0L675.0 418.0L0 418.0L0 0Z" fill-rule="nonzero"/><path fill="#a98823" d="M242.0206 262.83768C229.78165 247.99876 223.33838 231.1661 223.33838 214.03159L223.33838 193.11469C223.33838 210.2492 229.78165 227.08186 242.0206 241.92079Z" fill-rule="nonzero"/><path fill="#f1c232" d="M242.0206 241.92079C217.11096 211.71947 217.11096 174.5099 242.0206 144.30858C266.93024 114.10726 312.96512 95.50249 362.78436 95.50249L362.78436 193.11469Z" fill-rule="nonzero"/><path fill="#b36b00" d="M502.23038 214.03159C502.23038 258.21143 459.83914 296.88315 398.87564 308.31772C337.91217 319.75232 273.5776 301.09854 242.0206 262.83768L242.0206 241.92079C273.5776 280.18164 337.91217 298.83542 398.87564 287.40082C459.83914 275.96625 502.23038 237.29453 502.23038 193.11469Z" fill-rule="nonzero"/><path fill="#ff9900" d="M362.78436 95.50249C430.45663 95.50249 488.36072 129.5136 500.11188 176.1645C511.86304 222.81541 474.06885 268.63846 410.47772 284.84015C346.8866 301.04184 275.85672 282.94492 242.0206 241.92079L362.78436 193.11469Z" fill-rule="nonzero"/><path fill="#ffffff" d="M455.844 235.57904L455.844 233.56342L451.75024 233.56342L451.75024 231.87592L456.094 225.51654L457.70337 225.51654L457.70337 231.87592L458.95337 231.87592L458.95337 233.56342L457.70337 233.56342L457.70337 235.57904L455.844 235.57904ZM455.844 231.87592L455.844 228.45404L453.54712 231.87592L455.844 231.87592Z" fill-rule="nonzero"/><path fill="#ffffff" d="M273.16226 158.86908L273.16226 160.65033L266.4279 160.65033Q266.53726 159.6347 267.08414 158.72845Q267.631 157.8222 269.256 156.3222Q270.5529 155.11908 270.84976 154.68158Q271.2404 154.08783 271.2404 153.5097Q271.2404 152.86908 270.89664 152.52533Q270.5529 152.18158 269.9435 152.18158Q269.33414 152.18158 268.97476 152.54095Q268.631 152.90033 268.5685 153.74408L266.66226 153.55658Q266.83414 151.96283 267.72476 151.27533Q268.631 150.58783 269.9904 150.58783Q271.47476 150.58783 272.3185 151.3847Q273.16226 152.18158 273.16226 153.36908Q273.16226 154.05658 272.91226 154.66595Q272.6779 155.27533 272.16226 155.9472Q271.8029 156.3847 270.89664 157.22845Q269.9904 158.05658 269.7404 158.33783Q269.506 158.60345 269.34976 158.86908L273.16226 158.86908Z" fill-rule="nonzero"/><path fill="#313131" d="M72.328125 142.24889L72.328125 133.65514L74.046875 133.65514L76.078125 139.73326Q76.359375 140.59264 76.484375 141.01451Q76.625 140.54576 76.9375 139.63951L79.0 133.65514L80.53125 133.65514L80.53125 142.24889L79.4375 142.24889L79.4375 135.06139L76.9375 142.24889L75.90625 142.24889L73.421875 134.93639L73.421875 142.24889L72.328125 142.24889ZM80.84375 139.13951Q80.84375 137.40514 81.796875 136.57701Q82.59375 135.88951 83.75 135.88951Q85.03125 135.88951 85.84375 136.73326Q86.671875 137.56139 86.671875 139.04576Q86.671875 140.24889 86.3125 140.93639Q85.953125 141.62389 85.25 142.01451Q84.5625 142.38951 83.75 142.38951Q82.453125 142.38951 81.640625 141.56139Q80.84375 140.71764 80.84375 139.13951ZM81.921875 139.13951Q81.921875 140.32701 82.4375 140.92076Q82.96875 141.51451 83.75 141.51451Q84.546875 141.51451 85.0625 140.92076Q85.578125 140.32701 85.578125 139.10826Q85.578125 137.95201 85.046875 137.35826Q84.53125 136.76451 83.75 136.76451Q82.96875 136.76451 82.4375 137.35826Q81.921875 137.93639 81.921875 139.13951ZM92.265625 142.24889L92.265625 141.46764Q91.671875 142.38951 90.53125 142.38951Q89.78125 142.38951 89.15625 141.98326Q88.53125 141.56139 88.1875 140.82701Q87.84375 140.09264 87.84375 139.13951Q87.84375 138.21764 88.15625 137.45201Q88.46875 136.68639 89.09375 136.29576Q89.71875 135.88951 90.484375 135.88951Q91.046875 135.88951 91.484375 136.12389Q91.921875 136.35826 92.203125 136.73326L92.203125 133.65514L93.25 133.65514L93.25 142.24889L92.265625 142.24889ZM88.9375 139.13951Q88.9375 140.34264 89.4375 140.93639Q89.9375 141.51451 90.625 141.51451Q91.3125 141.51451 91.796875 140.95201Q92.28125 140.38951 92.28125 139.23326Q92.28125 137.95201 91.78125 137.35826Q91.296875 136.76451 90.578125 136.76451Q89.875 136.76451 89.40625 137.34264Q88.9375 137.90514 88.9375 139.13951ZM99.484375 140.24889L100.578125 140.37389Q100.328125 141.32701 99.625 141.85826Q98.921875 142.38951 97.84375 142.38951Q96.484375 142.38951 95.671875 141.54576Q94.875 140.70201 94.875 139.18639Q94.875 137.62389 95.6875 136.76451Q96.5 135.88951 97.78125 135.88951Q99.03125 135.88951 99.8125 136.73326Q100.609375 137.57701 100.609375 139.12389Q100.609375 139.21764 100.609375 139.40514L95.96875 139.40514Q96.03125 140.43639 96.546875 140.98326Q97.0625 141.51451 97.84375 141.51451Q98.421875 141.51451 98.828125 141.21764Q99.25 140.90514 99.484375 140.24889ZM96.03125 138.54576L99.5 138.54576Q99.4375 137.74889 99.109375 137.35826Q98.59375 136.74889 97.796875 136.74889Q97.0625 136.74889 96.5625 137.23326Q96.078125 137.71764 96.03125 138.54576ZM102.21875 142.24889L102.21875 136.03014L103.171875 136.03014L103.171875 136.96764Q103.53125 136.31139 103.828125 136.10826Q104.140625 135.88951 104.515625 135.88951Q105.046875 135.88951 105.59375 136.21764L105.234375 137.20201Q104.84375 136.96764 104.46875 136.96764Q104.109375 136.96764 103.828125 137.18639Q103.5625 137.38951 103.453125 137.76451Q103.265625 138.32701 103.265625 138.98326L103.265625 142.24889L102.21875 142.24889ZM110.296875 141.48326Q109.703125 141.98326 109.15625 142.18639Q108.625 142.38951 108.0 142.38951Q106.96875 142.38951 106.421875 141.88951Q105.875 141.38951 105.875 140.60826Q105.875 140.15514 106.078125 139.78014Q106.28125 139.38951 106.625 139.17076Q106.96875 138.93639 107.390625 138.82701Q107.6875 138.73326 108.328125 138.65514Q109.59375 138.51451 110.203125 138.29576Q110.203125 138.07701 110.203125 138.03014Q110.203125 137.37389 109.90625 137.10826Q109.5 136.76451 108.703125 136.76451Q107.96875 136.76451 107.609375 137.03014Q107.25 137.28014 107.078125 137.93639L106.046875 137.79576Q106.1875 137.13951 106.515625 136.73326Q106.84375 136.32701 107.453125 136.10826Q108.0625 135.88951 108.859375 135.88951Q109.65625 135.88951 110.15625 136.07701Q110.65625 136.26451 110.890625 136.54576Q111.125 136.82701 111.21875 137.26451Q111.265625 137.53014 111.265625 138.23326L111.265625 139.63951Q111.265625 141.10826 111.328125 141.49889Q111.40625 141.88951 111.609375 142.24889L110.5 142.24889Q110.34375 141.92076 110.296875 141.48326ZM110.203125 139.12389Q109.625 139.35826 108.484375 139.53014Q107.828125 139.62389 107.5625 139.74889Q107.296875 139.85826 107.140625 140.07701Q107.0 140.29576 107.0 140.57701Q107.0 140.99889 107.3125 141.28014Q107.640625 141.56139 108.25 141.56139Q108.859375 141.56139 109.328125 141.29576Q109.8125 141.03014 110.03125 140.56139Q110.203125 140.20201 110.203125 139.51451L110.203125 139.12389ZM117.265625 142.24889L117.265625 141.46764Q116.671875 142.38951 115.53125 142.38951Q114.78125 142.38951 114.15625 141.98326Q113.53125 141.56139 113.1875 140.82701Q112.84375 140.09264 112.84375 139.13951Q112.84375 138.21764 113.15625 137.45201Q113.46875 136.68639 114.09375 136.29576Q114.71875 135.88951 115.484375 135.88951Q116.046875 135.88951 116.484375 136.12389Q116.921875 136.35826 117.203125 136.73326L117.203125 133.65514L118.25 133.65514L118.25 142.24889L117.265625 142.24889ZM113.9375 139.13951Q113.9375 140.34264 114.4375 140.93639Q114.9375 141.51451 115.625 141.51451Q116.3125 141.51451 116.796875 140.95201Q117.28125 140.38951 117.28125 139.23326Q117.28125 137.95201 116.78125 137.35826Q116.296875 136.76451 115.578125 136.76451Q114.875 136.76451 114.40625 137.34264Q113.9375 137.90514 113.9375 139.13951ZM124.296875 141.48326Q123.703125 141.98326 123.15625 142.18639Q122.625 142.38951 122.0 142.38951Q120.96875 142.38951 120.421875 141.88951Q119.875 141.38951 119.875 140.60826Q119.875 140.15514 120.078125 139.78014Q120.28125 139.38951 120.625 139.17076Q120.96875 138.93639 121.390625 138.82701Q121.6875 138.73326 122.328125 138.65514Q123.59375 138.51451 124.203125 138.29576Q124.203125 138.07701 124.203125 138.03014Q124.203125 137.37389 123.90625 137.10826Q123.5 136.76451 122.703125 136.76451Q121.96875 136.76451 121.609375 137.03014Q121.25 137.28014 121.078125 137.93639L120.046875 137.79576Q120.1875 137.13951 120.515625 136.73326Q120.84375 136.32701 121.453125 136.10826Q122.0625 135.88951 122.859375 135.88951Q123.65625 135.88951 124.15625 136.07701Q124.65625 136.26451 124.890625 136.54576Q125.125 136.82701 125.21875 137.26451Q125.265625 137.53014 125.265625 138.23326L125.265625 139.63951Q125.265625 141.10826 125.328125 141.49889Q125.40625 141.88951 125.609375 142.24889L124.5 142.24889Q124.34375 141.92076 124.296875 141.48326ZM124.203125 139.12389Q123.625 139.35826 122.484375 139.53014Q121.828125 139.62389 121.5625 139.74889Q121.296875 139.85826 121.140625 140.07701Q121.0 140.29576 121.0 140.57701Q121.0 140.99889 121.3125 141.28014Q121.640625 141.56139 122.25 141.56139Q122.859375 141.56139 123.328125 141.29576Q123.8125 141.03014 124.03125 140.56139Q124.203125 140.20201 124.203125 139.51451L124.203125 139.12389Z" fill-rule="nonzero"/><path fill="#9e9e9e" d="M71.9375 156.98326L73.0 156.84264Q73.171875 157.73326 73.609375 158.13951Q74.046875 158.53014 74.671875 158.53014Q75.421875 158.53014 75.9375 158.01451Q76.453125 157.49889 76.453125 156.73326Q76.453125 156.01451 75.96875 155.54576Q75.5 155.06139 74.765625 155.06139Q74.46875 155.06139 74.015625 155.18639L74.140625 154.24889Q74.25 154.26451 74.3125 154.26451Q74.984375 154.26451 75.515625 153.92076Q76.0625 153.56139 76.0625 152.82701Q76.0625 152.24889 75.671875 151.87389Q75.28125 151.48326 74.65625 151.48326Q74.046875 151.48326 73.625 151.87389Q73.21875 152.26451 73.109375 153.03014L72.046875 152.84264Q72.234375 151.79576 72.921875 151.21764Q73.609375 150.62389 74.625 150.62389Q75.328125 150.62389 75.921875 150.93639Q76.515625 151.23326 76.828125 151.74889Q77.140625 152.26451 77.140625 152.85826Q77.140625 153.40514 76.84375 153.87389Q76.546875 154.32701 75.96875 154.59264Q76.71875 154.76451 77.140625 155.32701Q77.5625 155.87389 77.5625 156.71764Q77.5625 157.84264 76.734375 158.62389Q75.921875 159.40514 74.671875 159.40514Q73.546875 159.40514 72.796875 158.73326Q72.046875 158.04576 71.9375 156.98326ZM78.9375 156.98326L80.0 156.84264Q80.171875 157.73326 80.609375 158.13951Q81.046875 158.53014 81.671875 158.53014Q82.421875 158.53014 82.9375 158.01451Q83.453125 157.49889 83.453125 156.73326Q83.453125 156.01451 82.96875 155.54576Q82.5 155.06139 81.765625 155.06139Q81.46875 155.06139 81.015625 155.18639L81.140625 154.24889Q81.25 154.26451 81.3125 154.26451Q81.984375 154.26451 82.515625 153.92076Q83.0625 153.56139 83.0625 152.82701Q83.0625 152.24889 82.671875 151.87389Q82.28125 151.48326 81.65625 151.48326Q81.046875 151.48326 80.625 151.87389Q80.21875 152.26451 80.109375 153.03014L79.046875 152.84264Q79.234375 151.79576 79.921875 151.21764Q80.609375 150.62389 81.625 150.62389Q82.328125 150.62389 82.921875 150.93639Q83.515625 151.23326 83.828125 151.74889Q84.140625 152.26451 84.140625 152.85826Q84.140625 153.40514 83.84375 153.87389Q83.546875 154.32701 82.96875 154.59264Q83.71875 154.76451 84.140625 155.32701Q84.5625 155.87389 84.5625 156.71764Q84.5625 157.84264 83.734375 158.62389Q82.921875 159.40514 81.671875 159.40514Q80.546875 159.40514 79.796875 158.73326Q79.046875 158.04576 78.9375 156.98326ZM86.5 159.24889L86.5 158.04576L87.703125 158.04576L87.703125 159.24889Q87.703125 159.90514 87.46875 160.31139Q87.234375 160.73326 86.734375 160.95201L86.4375 160.49889Q86.765625 160.35826 86.921875 160.06139Q87.078125 159.78014 87.109375 159.24889L86.5 159.24889ZM88.9375 156.98326L90.0 156.84264Q90.171875 157.73326 90.609375 158.13951Q91.046875 158.53014 91.671875 158.53014Q92.421875 158.53014 92.9375 158.01451Q93.453125 157.49889 93.453125 156.73326Q93.453125 156.01451 92.96875 155.54576Q92.5 155.06139 91.765625 155.06139Q91.46875 155.06139 91.015625 155.18639L91.140625 154.24889Q91.25 154.26451 91.3125 154.26451Q91.984375 154.26451 92.515625 153.92076Q93.0625 153.56139 93.0625 152.82701Q93.0625 152.24889 92.671875 151.87389Q92.28125 151.48326 91.65625 151.48326Q91.046875 151.48326 90.625 151.87389Q90.21875 152.26451 90.109375 153.03014L89.046875 152.84264Q89.234375 151.79576 89.921875 151.21764Q90.609375 150.62389 91.625 150.62389Q92.328125 150.62389 92.921875 150.93639Q93.515625 151.23326 93.828125 151.74889Q94.140625 152.26451 94.140625 152.85826Q94.140625 153.40514 93.84375 153.87389Q93.546875 154.32701 92.96875 154.59264Q93.71875 154.76451 94.140625 155.32701Q94.5625 155.87389 94.5625 156.71764Q94.5625 157.84264 93.734375 158.62389Q92.921875 159.40514 91.671875 159.40514Q90.546875 159.40514 89.796875 158.73326Q89.046875 158.04576 88.9375 156.98326ZM96.140625 152.71764Q96.140625 151.79576 96.59375 151.15514Q97.0625 150.51451 97.9375 150.51451Q98.75 150.51451 99.28125 151.09264Q99.8125 151.67076 99.8125 152.78014Q99.8125 153.87389 99.265625 154.46764Q98.734375 155.04576 97.953125 155.04576Q97.171875 155.04576 96.65625 154.46764Q96.140625 153.88951 96.140625 152.71764ZM97.96875 151.23326Q97.578125 151.23326 97.3125 151.57701Q97.0625 151.92076 97.0625 152.82701Q97.0625 153.65514 97.3125 153.99889Q97.578125 154.32701 97.96875 154.32701Q98.375 154.32701 98.625 153.98326Q98.890625 153.63951 98.890625 152.74889Q98.890625 151.90514 98.625 151.57701Q98.359375 151.23326 97.96875 151.23326ZM97.96875 159.56139L102.671875 150.51451L103.53125 150.51451L98.84375 159.56139L97.96875 159.56139ZM101.6875 157.23326Q101.6875 156.31139 102.140625 155.67076Q102.609375 155.03014 103.5 155.03014Q104.3125 155.03014 104.84375 155.60826Q105.375 156.17076 105.375 157.29576Q105.375 158.38951 104.828125 158.98326Q104.296875 159.56139 103.5 159.56139Q102.734375 159.56139 102.203125 158.98326Q101.6875 158.40514 101.6875 157.23326ZM103.53125 155.74889Q103.125 155.74889 102.859375 156.09264Q102.609375 156.43639 102.609375 157.34264Q102.609375 158.15514 102.875 158.49889Q103.140625 158.84264 103.53125 158.84264Q103.921875 158.84264 104.1875 158.49889Q104.453125 158.15514 104.453125 157.24889Q104.453125 156.42076 104.1875 156.09264Q103.921875 155.74889 103.53125 155.74889Z" fill-rule="nonzero"/><path stroke="#757575" stroke-width="1.0" stroke-linecap="butt" d="M71.4375 146.74889L217.33838 146.74889L248.05878 146.74889" fill-rule="nonzero"/><path fill="#9e9e9e" d="M250.05878 146.74889C250.05878 145.64432 249.16336 144.74889 248.05878 144.74889C246.95421 144.74889 246.05878 145.64432 246.05878 146.74889C246.05878 147.85345 246.95421 148.74889 248.05878 148.74889C249.16336 148.74889 250.05878 147.85345 250.05878 146.74889" fill-rule="nonzero"/><path fill="#313131" d="M627.08435 231.60548L627.08435 230.60548L630.70935 230.58986L630.70935 233.77736Q629.8812 234.44923 628.9906 234.79298Q628.1 235.12111 627.1625 235.12111Q625.89685 235.12111 624.85 234.58986Q623.8187 234.04298 623.2875 233.02736Q622.77185 231.99611 622.77185 230.73048Q622.77185 229.46486 623.2875 228.38673Q623.8187 227.29298 624.8031 226.77736Q625.7875 226.24611 627.0687 226.24611Q628.0062 226.24611 628.7562 226.54298Q629.5062 226.83986 629.9281 227.38673Q630.3656 227.91798 630.58435 228.79298L629.5687 229.07423Q629.3656 228.41798 629.0687 228.04298Q628.7875 227.66798 628.2562 227.44923Q627.725 227.21486 627.08435 227.21486Q626.3031 227.21486 625.725 227.44923Q625.1625 227.68361 624.8031 228.07423Q624.45935 228.46486 624.27185 228.93361Q623.9437 229.73048 623.9437 230.65236Q623.9437 231.80861 624.33435 232.58986Q624.7406 233.35548 625.4906 233.73048Q626.2406 234.10548 627.1 234.10548Q627.83435 234.10548 628.5375 233.82423Q629.2406 233.52736 629.6 233.21486L629.6 231.60548L627.08435 231.60548ZM631.9125 234.98048L631.9125 228.76173L632.8656 228.76173L632.8656 229.69923Q633.225 229.04298 633.52185 228.83986Q633.83435 228.62111 634.20935 228.62111Q634.7406 228.62111 635.2875 228.94923L634.9281 229.93361Q634.5375 229.69923 634.1625 229.69923Q633.8031 229.69923 633.52185 229.91798Q633.2562 230.12111 633.14685 230.49611Q632.95935 231.05861 632.95935 231.71486L632.95935 234.98048L631.9125 234.98048ZM639.9906 234.21486Q639.39685 234.71486 638.85 234.91798Q638.3187 235.12111 637.6937 235.12111Q636.6625 235.12111 636.1156 234.62111Q635.5687 234.12111 635.5687 233.33986Q635.5687 232.88673 635.77185 232.51173Q635.975 232.12111 636.3187 231.90236Q636.6625 231.66798 637.08435 231.55861Q637.3812 231.46486 638.02185 231.38673Q639.2875 231.24611 639.89685 231.02736Q639.89685 230.80861 639.89685 230.76173Q639.89685 230.10548 639.6 229.83986Q639.1937 229.49611 638.39685 229.49611Q637.6625 229.49611 637.3031 229.76173Q636.9437 230.01173 636.77185 230.66798L635.7406 230.52736Q635.8812 229.87111 636.20935 229.46486Q636.5375 229.05861 637.14685 228.83986Q637.7562 228.62111 638.5531 228.62111Q639.35 228.62111 639.85 228.80861Q640.35 228.99611 640.58435 229.27736Q640.8187 229.55861 640.9125 229.99611Q640.95935 230.26173 640.95935 230.96486L640.95935 232.37111Q640.95935 233.83986 641.02185 234.23048Q641.1 234.62111 641.3031 234.98048L640.1937 234.98048Q640.0375 234.65236 639.9906 234.21486ZM639.89685 231.85548Q639.3187 232.08986 638.1781 232.26173Q637.52185 232.35548 637.2562 232.48048Q636.9906 232.58986 636.83435 232.80861Q636.6937 233.02736 636.6937 233.30861Q636.6937 233.73048 637.0062 234.01173Q637.33435 234.29298 637.9437 234.29298Q638.5531 234.29298 639.02185 234.02736Q639.5062 233.76173 639.725 233.29298Q639.89685 232.93361 639.89685 232.24611L639.89685 231.85548ZM644.64685 234.98048L642.2875 228.76173L643.39685 228.76173L644.7406 232.48048Q644.9437 233.08986 645.1312 233.73048Q645.27185 233.24611 645.52185 232.55861L646.9125 228.76173L647.9906 228.76173L645.6312 234.98048L644.64685 234.98048ZM652.1781 232.98048L653.27185 233.10548Q653.02185 234.05861 652.3187 234.58986Q651.6156 235.12111 650.5375 235.12111Q649.1781 235.12111 648.3656 234.27736Q647.5687 233.43361 647.5687 231.91798Q647.5687 230.35548 648.3812 229.49611Q649.1937 228.62111 650.475 228.62111Q651.725 228.62111 652.5062 229.46486Q653.3031 230.30861 653.3031 231.85548Q653.3031 231.94923 653.3031 232.13673L648.6625 232.13673Q648.725 233.16798 649.2406 233.71486Q649.7562 234.24611 650.5375 234.24611Q651.1156 234.24611 651.52185 233.94923Q651.9437 233.63673 652.1781 232.98048ZM648.725 231.27736L652.1937 231.27736Q652.1312 230.48048 651.8031 230.08986Q651.2875 229.48048 650.4906 229.48048Q649.7562 229.48048 649.2562 229.96486Q648.77185 230.44923 648.725 231.27736Z" fill-rule="nonzero"/><path fill="#9e9e9e" d="M625.1 245.49611L624.0531 245.57423Q623.9125 244.94923 623.6625 244.66798Q623.225 244.21486 622.6 244.21486Q622.1 244.21486 621.70935 244.49611Q621.225 244.87111 620.9281 245.57423Q620.64685 246.26173 620.6312 247.54298Q621.0062 246.96486 621.5531 246.68361Q622.1156 246.40236 622.725 246.40236Q623.77185 246.40236 624.5062 247.18361Q625.2562 247.96486 625.2562 249.18361Q625.2562 249.99611 624.89685 250.69923Q624.5531 251.38673 623.9437 251.76173Q623.33435 252.12111 622.5687 252.12111Q621.2406 252.12111 620.4125 251.15236Q619.58435 250.18361 619.58435 247.96486Q619.58435 245.46486 620.5062 244.33986Q621.3031 243.35548 622.6625 243.35548Q623.6781 243.35548 624.3187 243.93361Q624.975 244.49611 625.1 245.49611ZM620.8031 249.19923Q620.8031 249.74611 621.02185 250.24611Q621.2562 250.73048 621.6625 250.99611Q622.08435 251.26173 622.5531 251.26173Q623.20935 251.26173 623.6937 250.73048Q624.1781 250.18361 624.1781 249.26173Q624.1781 248.37111 623.6937 247.85548Q623.225 247.33986 622.5062 247.33986Q621.7875 247.33986 621.2875 247.85548Q620.8031 248.37111 620.8031 249.19923ZM632.1 245.49611L631.0531 245.57423Q630.9125 244.94923 630.6625 244.66798Q630.225 244.21486 629.6 244.21486Q629.1 244.21486 628.70935 244.49611Q628.225 244.87111 627.9281 245.57423Q627.64685 246.26173 627.6312 247.54298Q628.0062 246.96486 628.5531 246.68361Q629.1156 246.40236 629.725 246.40236Q630.77185 246.40236 631.5062 247.18361Q632.2562 247.96486 632.2562 249.18361Q632.2562 249.99611 631.89685 250.69923Q631.5531 251.38673 630.9437 251.76173Q630.33435 252.12111 629.5687 252.12111Q628.2406 252.12111 627.4125 251.15236Q626.58435 250.18361 626.58435 247.96486Q626.58435 245.46486 627.5062 244.33986Q628.3031 243.35548 629.6625 243.35548Q630.6781 243.35548 631.3187 243.93361Q631.975 244.49611 632.1 245.49611ZM627.8031 249.19923Q627.8031 249.74611 628.02185 250.24611Q628.2562 250.73048 628.6625 250.99611Q629.08435 251.26173 629.5531 251.26173Q630.20935 251.26173 630.6937 250.73048Q631.1781 250.18361 631.1781 249.26173Q631.1781 248.37111 630.6937 247.85548Q630.225 247.33986 629.5062 247.33986Q628.7875 247.33986 628.2875 247.85548Q627.8031 248.37111 627.8031 249.19923ZM634.1937 251.98048L634.1937 250.77736L635.39685 250.77736L635.39685 251.98048Q635.39685 252.63673 635.1625 253.04298Q634.9281 253.46486 634.4281 253.68361L634.1312 253.23048Q634.45935 253.08986 634.6156 252.79298Q634.77185 252.51173 634.8031 251.98048L634.1937 251.98048ZM636.6937 244.51173L636.6937 243.49611L642.2562 243.49611L642.2562 244.32423Q641.4437 245.19923 640.6312 246.65236Q639.83435 248.08986 639.39685 249.62111Q639.0687 250.69923 638.9906 251.98048L637.89685 251.98048Q637.9125 250.96486 638.2875 249.52736Q638.6781 248.08986 639.3812 246.76173Q640.1 245.43361 640.9125 244.51173L636.6937 244.51173ZM643.83435 245.44923Q643.83435 244.52736 644.2875 243.88673Q644.7562 243.24611 645.6312 243.24611Q646.4437 243.24611 646.975 243.82423Q647.5062 244.40236 647.5062 245.51173Q647.5062 246.60548 646.95935 247.19923Q646.4281 247.77736 645.64685 247.77736Q644.8656 247.77736 644.35 247.19923Q643.83435 246.62111 643.83435 245.44923ZM645.6625 243.96486Q645.27185 243.96486 645.0062 244.30861Q644.7562 244.65236 644.7562 245.55861Q644.7562 246.38673 645.0062 246.73048Q645.27185 247.05861 645.6625 247.05861Q646.0687 247.05861 646.3187 246.71486Q646.58435 246.37111 646.58435 245.48048Q646.58435 244.63673 646.3187 244.30861Q646.0531 243.96486 645.6625 243.96486ZM645.6625 252.29298L650.3656 243.24611L651.225 243.24611L646.5375 252.29298L645.6625 252.29298ZM649.3812 249.96486Q649.3812 249.04298 649.83435 248.40236Q650.3031 247.76173 651.1937 247.76173Q652.0062 247.76173 652.5375 248.33986Q653.0687 248.90236 653.0687 250.02736Q653.0687 251.12111 652.52185 251.71486Q651.9906 252.29298 651.1937 252.29298Q650.4281 252.29298 649.89685 251.71486Q649.3812 251.13673 649.3812 249.96486ZM651.225 248.48048Q650.8187 248.48048 650.5531 248.82423Q650.3031 249.16798 650.3031 250.07423Q650.3031 250.88673 650.5687 251.23048Q650.83435 251.57423 651.225 251.57423Q651.6156 251.57423 651.8812 251.23048Q652.14685 250.88673 652.14685 249.98048Q652.14685 249.15236 651.8812 248.82423Q651.6156 248.48048 651.225 248.48048Z" fill-rule="nonzero"/><path stroke="#757575" stroke-width="1.0" stroke-linecap="butt" d="M654.1312 239.48048L508.23038 239.48048L477.50998 239.48048" fill-rule="nonzero"/><path fill="#9e9e9e" d="M479.50998 239.48048C479.50998 238.37592 478.61453 237.48048 477.50998 237.48048C476.4054 237.48048 475.50998 238.37592 475.50998 239.48048C475.50998 240.58505 476.4054 241.48048 477.50998 241.48048C478.61453 241.48048 479.50998 240.58505 479.50998 239.48048" fill-rule="nonzero"/><path fill="#000000" d="M22.36875 25.587502L28.0875 25.587502Q29.790625 25.587502 30.61875 25.728127Q31.4625 25.868752 32.11875 26.321877Q32.775 26.759377 33.2125 27.509377Q33.65 28.259377 33.65 29.181252Q33.65 30.196877 33.103127 31.040627Q32.571877 31.868752 31.65 32.290627Q32.946877 32.665627 33.65 33.5875Q34.353127 34.509377 34.353127 35.74375Q34.353127 36.728127 33.9 37.65Q33.446877 38.571877 32.665627 39.134377Q31.884375 39.68125 30.728125 39.80625Q30.009375 39.884377 27.24375 39.9L22.36875 39.9L22.36875 25.587502ZM25.259375 27.962502L25.259375 31.275002L27.15 31.275002Q28.8375 31.275002 29.24375 31.228127Q29.99375 31.134377 30.415625 30.712502Q30.8375 30.290627 30.8375 29.603127Q30.8375 28.931252 30.4625 28.525002Q30.103125 28.103127 29.384375 28.009377Q28.9625 27.962502 26.915625 27.962502L25.259375 27.962502ZM25.259375 33.665627L25.259375 37.49375L27.93125 37.49375Q29.49375 37.49375 29.915625 37.4Q30.55625 37.275 30.9625 36.821877Q31.36875 36.36875 31.36875 35.61875Q31.36875 34.9625 31.05625 34.525Q30.74375 34.071877 30.15 33.86875Q29.55625 33.665627 27.5875 33.665627L25.259375 33.665627ZM43.165627 39.9L43.165627 38.353127Q42.603127 39.18125 41.665627 39.665627Q40.74375 40.134377 39.728127 40.134377Q38.68125 40.134377 37.853127 39.68125Q37.025 39.2125 36.65 38.384377Q36.275 37.55625 36.275 36.0875L36.275 29.525002L39.025 29.525002L39.025 34.290627Q39.025 36.478127 39.165627 36.978127Q39.321877 37.4625 39.7125 37.759377Q40.11875 38.040627 40.74375 38.040627Q41.446877 38.040627 41.99375 37.665627Q42.55625 37.275 42.759377 36.7125Q42.9625 36.134377 42.9625 33.9L42.9625 29.525002L45.7125 29.525002L45.7125 39.9L43.165627 39.9ZM48.0875 40.5875L51.2125 40.9625Q51.290627 41.509377 51.571877 41.7125Q51.9625 42.009377 52.80625 42.009377Q53.884377 42.009377 54.415627 41.68125Q54.775 41.478127 54.9625 40.99375Q55.0875 40.65 55.0875 39.728127L55.0875 38.2125Q53.86875 39.9 51.99375 39.9Q49.9 39.9 48.68125 38.134377Q47.728127 36.728127 47.728127 34.65Q47.728127 32.040627 48.978127 30.665627Q50.228127 29.290627 52.103127 29.290627Q54.025 29.290627 55.275 30.978127L55.275 29.525002L57.8375 29.525002L57.8375 38.8375Q57.8375 40.665627 57.525 41.571877Q57.228127 42.49375 56.68125 43.009377Q56.134377 43.525 55.2125 43.80625Q54.30625 44.103127 52.915627 44.103127Q50.275 44.103127 49.165627 43.196877Q48.071877 42.30625 48.071877 40.915627Q48.071877 40.775 48.0875 40.5875ZM50.540627 34.49375Q50.540627 36.15 51.165627 36.915627Q51.80625 37.68125 52.74375 37.68125Q53.759377 37.68125 54.446877 36.9Q55.15 36.103127 55.15 34.571877Q55.15 32.9625 54.478127 32.18125Q53.821877 31.400002 52.80625 31.400002Q51.80625 31.400002 51.165627 32.165627Q50.540627 32.93125 50.540627 34.49375ZM59.36875 36.946877L62.11875 36.525Q62.30625 37.321877 62.8375 37.74375Q63.36875 38.15 64.3375 38.15Q65.4 38.15 65.94688 37.759377Q66.30625 37.49375 66.30625 37.025Q66.30625 36.7125 66.10313 36.509377Q65.9 36.321877 65.19688 36.15Q61.86875 35.415627 60.978127 34.80625Q59.74375 33.978127 59.74375 32.478127Q59.74375 31.134377 60.80625 30.212502Q61.884377 29.290627 64.11875 29.290627Q66.24375 29.290627 67.275 29.993752Q68.32188 30.681252 68.7125 32.040627L66.11875 32.509377Q65.94688 31.915627 65.47813 31.587502Q65.025 31.259377 64.16563 31.259377Q63.0875 31.259377 62.61875 31.571877Q62.30625 31.790627 62.30625 32.11875Q62.30625 32.415627 62.571877 32.61875Q62.946877 32.9 65.13438 33.4Q67.32188 33.9 68.19688 34.61875Q69.05625 35.353127 69.05625 36.65Q69.05625 38.0875 67.86875 39.11875Q66.68125 40.134377 64.3375 40.134377Q62.228127 40.134377 60.978127 39.275Q59.74375 38.415627 59.36875 36.946877ZM77.25938 29.525002L79.82188 29.525002L79.82188 31.056252Q80.32188 30.275002 81.16563 29.790627Q82.00938 29.290627 83.05625 29.290627Q84.85313 29.290627 86.10313 30.712502Q87.36875 32.11875 87.36875 34.65Q87.36875 37.259377 86.10313 38.696877Q84.8375 40.134377 83.025 40.134377Q82.16563 40.134377 81.4625 39.790627Q80.775 39.446877 80.00938 38.61875L80.00938 43.853127L77.25938 43.853127L77.25938 29.525002ZM79.97813 34.540627Q79.97813 36.290627 80.66563 37.134377Q81.35313 37.9625 82.35313 37.9625Q83.30625 37.9625 83.94688 37.196877Q84.5875 36.415627 84.5875 34.68125Q84.5875 33.040627 83.93125 32.259377Q83.275 31.462502 82.30625 31.462502Q81.30625 31.462502 80.63438 32.24375Q79.97813 33.009377 79.97813 34.540627ZM88.69688 34.571877Q88.69688 33.196877 89.36875 31.915627Q90.05625 30.634377 91.29063 29.962502Q92.525 29.290627 94.04063 29.290627Q96.4 29.290627 97.9 30.821877Q99.4 32.353127 99.4 34.68125Q99.4 37.040627 97.88438 38.5875Q96.36875 40.134377 94.05625 40.134377Q92.63438 40.134377 91.3375 39.49375Q90.05625 38.8375 89.36875 37.603127Q88.69688 36.353127 88.69688 34.571877ZM91.50938 34.7125Q91.50938 36.259377 92.24375 37.0875Q92.97813 37.9 94.05625 37.9Q95.13438 37.9 95.85313 37.0875Q96.5875 36.259377 96.5875 34.696877Q96.5875 33.165627 95.85313 32.353127Q95.13438 31.525002 94.05625 31.525002Q92.97813 31.525002 92.24375 32.353127Q91.50938 33.165627 91.50938 34.7125ZM103.9625 39.9L101.2125 39.9L101.2125 29.525002L103.775 29.525002L103.775 31.009377Q104.41563 29.962502 104.93125 29.634377Q105.4625 29.290627 106.13438 29.290627Q107.07188 29.290627 107.93125 29.806252L107.0875 32.196877Q106.4 31.759377 105.80625 31.759377Q105.22813 31.759377 104.82188 32.071877Q104.41563 32.384377 104.18125 33.228127Q103.9625 34.05625 103.9625 36.696877L103.9625 39.9ZM124.38438 32.5875L121.68125 33.0875Q121.54063 32.275 121.05625 31.868752Q120.57188 31.446877 119.80625 31.446877Q118.775 31.446877 118.16563 32.165627Q117.55625 32.86875 117.55625 34.525Q117.55625 36.36875 118.16563 37.134377Q118.79063 37.9 119.8375 37.9Q120.61875 37.9 121.11875 37.4625Q121.61875 37.009377 121.82188 35.93125L124.50938 36.384377Q124.10313 38.24375 122.9 39.196877Q121.7125 40.134377 119.7125 40.134377Q117.43125 40.134377 116.07188 38.696877Q114.72813 37.259377 114.72813 34.728127Q114.72813 32.15 116.0875 30.728127Q117.44688 29.290627 119.75938 29.290627Q121.65 29.290627 122.75938 30.118752Q123.88438 30.931252 124.38438 32.5875ZM128.9625 39.9L126.2125 39.9L126.2125 29.525002L128.775 29.525002L128.775 31.009377Q129.41562 29.962502 129.93124 29.634377Q130.4625 29.290627 131.13437 29.290627Q132.07187 29.290627 132.93124 29.806252L132.0875 32.196877Q131.4 31.759377 130.80624 31.759377Q130.22812 31.759377 129.82187 32.071877Q129.41562 32.384377 129.18124 33.228127Q128.9625 34.05625 128.9625 36.696877L128.9625 39.9ZM134.3375 28.118752L134.3375 25.587502L137.0875 25.587502L137.0875 28.118752L134.3375 28.118752ZM134.3375 39.9L134.3375 29.525002L137.0875 29.525002L137.0875 39.9L134.3375 39.9ZM144.0875 29.525002L144.0875 31.712502L142.2125 31.712502L142.2125 35.9Q142.2125 37.165627 142.25937 37.384377Q142.32187 37.5875 142.50937 37.728127Q142.7125 37.853127 142.97812 37.853127Q143.35312 37.853127 144.0875 37.5875L144.32187 39.728127Q143.35312 40.134377 142.15 40.134377Q141.4 40.134377 140.80624 39.884377Q140.2125 39.634377 139.93124 39.24375Q139.66562 38.8375 139.55624 38.165627Q139.4625 37.696877 139.4625 36.24375L139.4625 31.712502L138.19687 31.712502L138.19687 29.525002L139.4625 29.525002L139.4625 27.462502L142.2125 25.868752L142.2125 29.525002L144.0875 29.525002ZM146.3375 28.118752L146.3375 25.587502L149.0875 25.587502L149.0875 28.118752L146.3375 28.118752ZM146.3375 39.9L146.3375 29.525002L149.0875 29.525002L149.0875 39.9L146.3375 39.9ZM160.38437 32.5875L157.68124 33.0875Q157.54062 32.275 157.05624 31.868752Q156.57187 31.446877 155.80624 31.446877Q154.775 31.446877 154.16562 32.165627Q153.55624 32.86875 153.55624 34.525Q153.55624 36.36875 154.16562 37.134377Q154.79062 37.9 155.8375 37.9Q156.61874 37.9 157.11874 37.4625Q157.61874 37.009377 157.82187 35.93125L160.50937 36.384377Q160.10312 38.24375 158.9 39.196877Q157.7125 40.134377 155.7125 40.134377Q153.43124 40.134377 152.07187 38.696877Q150.72812 37.259377 150.72812 34.728127Q150.72812 32.15 152.0875 30.728127Q153.44687 29.290627 155.75937 29.290627Q157.65 29.290627 158.75937 30.118752Q159.88437 30.931252 160.38437 32.5875ZM162.3375 28.118752L162.3375 25.587502L165.0875 25.587502L165.0875 28.118752L162.3375 28.118752ZM162.3375 39.9L162.3375 29.525002L165.0875 29.525002L165.0875 39.9L162.3375 39.9ZM176.85312 39.9L174.30624 39.9L174.30624 38.36875Q173.66562 39.259377 172.79062 39.696877Q171.93124 40.134377 171.05624 40.134377Q169.275 40.134377 167.99374 38.696877Q166.72812 37.259377 166.72812 34.68125Q166.72812 32.040627 167.9625 30.665627Q169.19687 29.290627 171.10312 29.290627Q172.8375 29.290627 174.10312 30.743752L174.10312 25.587502L176.85312 25.587502L176.85312 39.9ZM169.525 34.49375Q169.525 36.15 169.97812 36.884377Q170.65 37.9625 171.8375 37.9625Q172.79062 37.9625 173.44687 37.165627Q174.11874 36.353127 174.11874 34.759377Q174.11874 32.9625 173.4625 32.18125Q172.82187 31.400002 171.82187 31.400002Q170.8375 31.400002 170.18124 32.18125Q169.525 32.946877 169.525 34.49375ZM181.38437 32.696877L178.9 32.24375Q179.32187 30.743752 180.3375 30.025002Q181.36874 29.290627 183.38437 29.290627Q185.22812 29.290627 186.11874 29.728127Q187.025 30.165627 187.38437 30.837502Q187.75937 31.493752 187.75937 33.290627L187.72812 36.49375Q187.72812 37.853127 187.85312 38.509377Q187.99374 39.15 188.35312 39.9L185.63437 39.9Q185.525 39.61875 185.36874 39.0875Q185.30624 38.8375 185.275 38.759377Q184.57187 39.446877 183.75937 39.790627Q182.9625 40.134377 182.05624 40.134377Q180.4625 40.134377 179.54062 39.275Q178.61874 38.4 178.61874 37.071877Q178.61874 36.18125 179.025 35.49375Q179.44687 34.80625 180.19687 34.446877Q180.9625 34.071877 182.4 33.80625Q184.32187 33.446877 185.05624 33.134377L185.05624 32.853127Q185.05624 32.071877 184.66562 31.743752Q184.275 31.400002 183.19687 31.400002Q182.4625 31.400002 182.04062 31.681252Q181.63437 31.962502 181.38437 32.696877ZM185.05624 34.915627Q184.525 35.0875 183.38437 35.3375Q182.24374 35.5875 181.9 35.821877Q181.35312 36.196877 181.35312 36.790627Q181.35312 37.353127 181.775 37.775Q182.2125 38.196877 182.88437 38.196877Q183.61874 38.196877 184.29062 37.7125Q184.79062 37.3375 184.94687 36.80625Q185.05624 36.446877 185.05624 35.4625L185.05624 34.915627ZM199.85312 39.9L197.30624 39.9L197.30624 38.36875Q196.66562 39.259377 195.79062 39.696877Q194.93124 40.134377 194.05624 40.134377Q192.275 40.134377 190.99374 38.696877Q189.72812 37.259377 189.72812 34.68125Q189.72812 32.040627 190.9625 30.665627Q192.19687 29.290627 194.10312 29.290627Q195.8375 29.290627 197.10312 30.743752L197.10312 25.587502L199.85312 25.587502L199.85312 39.9ZM192.525 34.49375Q192.525 36.15 192.97812 36.884377Q193.65 37.9625 194.8375 37.9625Q195.79062 37.9625 196.44687 37.165627Q197.11874 36.353127 197.11874 34.759377Q197.11874 32.9625 196.4625 32.18125Q195.82187 31.400002 194.82187 31.400002Q193.8375 31.400002 193.18124 32.18125Q192.525 32.946877 192.525 34.49375ZM208.3375 36.603127L211.07187 37.05625Q210.55624 38.55625 209.41562 39.353127Q208.275 40.134377 206.57187 40.134377Q203.85312 40.134377 202.55624 38.36875Q201.54062 36.946877 201.54062 34.790627Q201.54062 32.2125 202.88437 30.759377Q204.22812 29.290627 206.29062 29.290627Q208.60312 29.290627 209.93124 30.821877Q211.275 32.353127 211.22812 35.509377L204.35312 35.509377Q204.38437 36.728127 205.00937 37.415627Q205.65 38.0875 206.5875 38.0875Q207.24374 38.0875 207.68124 37.74375Q208.11874 37.384377 208.3375 36.603127ZM208.49374 33.821877Q208.4625 32.634377 207.86874 32.025Q207.29062 31.400002 206.4625 31.400002Q205.55624 31.400002 204.97812 32.040627Q204.38437 32.696877 204.4 33.821877L208.49374 33.821877ZM228.775 39.9L226.025 39.9L226.025 34.603127Q226.025 32.93125 225.85312 32.446877Q225.68124 31.946877 225.275 31.681252Q224.88437 31.400002 224.32187 31.400002Q223.61874 31.400002 223.04062 31.790627Q222.47812 32.18125 222.25937 32.821877Q222.05624 33.4625 222.05624 35.196877L222.05624 39.9L219.32187 39.9L219.32187 29.525002L221.86874 29.525002L221.86874 31.056252Q223.22812 29.290627 225.29062 29.290627Q226.19687 29.290627 226.94687 29.618752Q227.69687 29.946877 228.07187 30.462502Q228.4625 30.962502 228.61874 31.618752Q228.775 32.259377 228.775 33.446877L228.775 39.9ZM230.69687 34.571877Q230.69687 33.196877 231.36874 31.915627Q232.05624 30.634377 233.29062 29.962502Q234.525 29.290627 236.04062 29.290627Q238.4 29.290627 239.9 30.821877Q241.4 32.353127 241.4 34.68125Q241.4 37.040627 239.88437 38.5875Q238.36874 40.134377 236.05624 40.134377Q234.63437 40.134377 233.3375 39.49375Q232.05624 38.8375 231.36874 37.603127Q230.69687 36.353127 230.69687 34.571877ZM233.50937 34.7125Q233.50937 36.259377 234.24374 37.0875Q234.97812 37.9 236.05624 37.9Q237.13437 37.9 237.85312 37.0875Q238.5875 36.259377 238.5875 34.696877Q238.5875 33.165627 237.85312 32.353127Q237.13437 31.525002 236.05624 31.525002Q234.97812 31.525002 234.24374 32.353127Q233.50937 33.165627 233.50937 34.7125ZM248.13437 29.525002L249.66562 29.525002L249.66562 28.743752Q249.66562 27.431252 249.93124 26.790627Q250.2125 26.150002 250.9625 25.743752Q251.7125 25.337502 252.85312 25.337502Q254.025 25.337502 255.15 25.696877L254.775 27.603127Q254.11874 27.446877 253.50937 27.446877Q252.91562 27.446877 252.65 27.728127Q252.4 28.009377 252.4 28.790627L252.4 29.525002L254.44687 29.525002L254.44687 31.681252L252.4 31.681252L252.4 39.9L249.66562 39.9L249.66562 31.681252L248.13437 31.681252L248.13437 29.525002ZM256.3375 39.9L256.3375 25.587502L259.0875 25.587502L259.0875 39.9L256.3375 39.9ZM268.16562 39.9L268.16562 38.353127Q267.60312 39.18125 266.66562 39.665627Q265.74374 40.134377 264.72812 40.134377Q263.68124 40.134377 262.85312 39.68125Q262.025 39.2125 261.65 38.384377Q261.275 37.55625 261.275 36.0875L261.275 29.525002L264.025 29.525002L264.025 34.290627Q264.025 36.478127 264.16562 36.978127Q264.32187 37.4625 264.7125 37.759377Q265.11874 38.040627 265.74374 38.040627Q266.44687 38.040627 266.99374 37.665627Q267.55624 37.275 267.75937 36.7125Q267.9625 36.134377 267.9625 33.9L267.9625 29.525002L270.7125 29.525002L270.7125 39.9L268.16562 39.9ZM272.025 39.9L275.75937 34.55625L272.18124 29.525002L275.525 29.525002L277.35312 32.384377L279.29062 29.525002L282.50937 29.525002L278.99374 34.446877L282.8375 39.9L279.4625 39.9L277.35312 36.68125L275.22812 39.9L272.025 39.9ZM283.69687 34.571877Q283.69687 33.196877 284.36874 31.915627Q285.05624 30.634377 286.29062 29.962502Q287.525 29.290627 289.04062 29.290627Q291.4 29.290627 292.9 30.821877Q294.4 32.353127 294.4 34.68125Q294.4 37.040627 292.88437 38.5875Q291.36874 40.134377 289.05624 40.134377Q287.63437 40.134377 286.3375 39.49375Q285.05624 38.8375 284.36874 37.603127Q283.69687 36.353127 283.69687 34.571877ZM286.50937 34.7125Q286.50937 36.259377 287.24374 37.0875Q287.97812 37.9 289.05624 37.9Q290.13437 37.9 290.85312 37.0875Q291.5875 36.259377 291.5875 34.696877Q291.5875 33.165627 290.85312 32.353127Q290.13437 31.525002 289.05624 31.525002Q287.97812 31.525002 287.24374 32.353127Q286.50937 33.165627 286.50937 34.7125ZM311.85312 39.9L309.30624 39.9L309.30624 38.36875Q308.66562 39.259377 307.79062 39.696877Q306.93124 40.134377 306.05624 40.134377Q304.275 40.134377 302.99374 38.696877Q301.72812 37.259377 301.72812 34.68125Q301.72812 32.040627 302.9625 30.665627Q304.19687 29.290627 306.10312 29.290627Q307.8375 29.290627 309.10312 30.743752L309.10312 25.587502L311.85312 25.587502L311.85312 39.9ZM304.525 34.49375Q304.525 36.15 304.97812 36.884377Q305.65 37.9625 306.8375 37.9625Q307.79062 37.9625 308.44687 37.165627Q309.11874 36.353127 309.11874 34.759377Q309.11874 32.9625 308.4625 32.18125Q307.82187 31.400002 306.82187 31.400002Q305.8375 31.400002 305.18124 32.18125Q304.525 32.946877 304.525 34.49375ZM320.3375 36.603127L323.07187 37.05625Q322.55624 38.55625 321.41562 39.353127Q320.275 40.134377 318.57187 40.134377Q315.85312 40.134377 314.55624 38.36875Q313.54062 36.946877 313.54062 34.790627Q313.54062 32.2125 314.88437 30.759377Q316.22812 29.290627 318.29062 29.290627Q320.60312 29.290627 321.93124 30.821877Q323.275 32.353127 323.22812 35.509377L316.35312 35.509377Q316.38437 36.728127 317.00937 37.415627Q317.65 38.0875 318.5875 38.0875Q319.24374 38.0875 319.68124 37.74375Q320.11874 37.384377 320.3375 36.603127ZM320.49374 33.821877Q320.4625 32.634377 319.86874 32.025Q319.29062 31.400002 318.4625 31.400002Q317.55624 31.400002 316.97812 32.040627Q316.38437 32.696877 316.4 33.821877L320.49374 33.821877ZM340.50937 34.634377L343.32187 35.525Q342.68124 37.86875 341.18124 39.009377Q339.68124 40.15 337.36874 40.15Q334.525 40.15 332.68124 38.196877Q330.85312 36.24375 330.85312 32.86875Q330.85312 29.290627 332.69687 27.321877Q334.54062 25.337502 337.54062 25.337502Q340.18124 25.337502 341.82187 26.884377Q342.79062 27.806252 343.275 29.525002L340.41562 30.212502Q340.16562 29.103127 339.35312 28.462502Q338.55624 27.806252 337.4 27.806252Q335.80624 27.806252 334.80624 28.946877Q333.82187 30.087502 333.82187 32.65Q333.82187 35.36875 334.79062 36.525Q335.775 37.665627 337.3375 37.665627Q338.49374 37.665627 339.32187 36.946877Q340.15 36.2125 340.50937 34.634377ZM347.9625 39.9L345.2125 39.9L345.2125 29.525002L347.775 29.525002L347.775 31.009377Q348.41562 29.962502 348.93124 29.634377Q349.4625 29.290627 350.13437 29.290627Q351.07187 29.290627 351.93124 29.806252L351.0875 32.196877Q350.4 31.759377 349.80624 31.759377Q349.22812 31.759377 348.82187 32.071877Q348.41562 32.384377 348.18124 33.228127Q347.9625 34.05625 347.9625 36.696877L347.9625 39.9ZM353.3375 28.118752L353.3375 25.587502L356.0875 25.587502L356.0875 28.118752L353.3375 28.118752ZM353.3375 39.9L353.3375 29.525002L356.0875 29.525002L356.0875 39.9L353.3375 39.9ZM360.38437 32.696877L357.9 32.24375Q358.32187 30.743752 359.3375 30.025002Q360.36874 29.290627 362.38437 29.290627Q364.22812 29.290627 365.11874 29.728127Q366.025 30.165627 366.38437 30.837502Q366.75937 31.493752 366.75937 33.290627L366.72812 36.49375Q366.72812 37.853127 366.85312 38.509377Q366.99374 39.15 367.35312 39.9L364.63437 39.9Q364.525 39.61875 364.36874 39.0875Q364.30624 38.8375 364.275 38.759377Q363.57187 39.446877 362.75937 39.790627Q361.9625 40.134377 361.05624 40.134377Q359.4625 40.134377 358.54062 39.275Q357.61874 38.4 357.61874 37.071877Q357.61874 36.18125 358.025 35.49375Q358.44687 34.80625 359.19687 34.446877Q359.9625 34.071877 361.4 33.80625Q363.32187 33.446877 364.05624 33.134377L364.05624 32.853127Q364.05624 32.071877 363.66562 31.743752Q363.275 31.400002 362.19687 31.400002Q361.4625 31.400002 361.04062 31.681252Q360.63437 31.962502 360.38437 32.696877ZM364.05624 34.915627Q363.525 35.0875 362.38437 35.3375Q361.24374 35.5875 360.9 35.821877Q360.35312 36.196877 360.35312 36.790627Q360.35312 37.353127 360.775 37.775Q361.2125 38.196877 361.88437 38.196877Q362.61874 38.196877 363.29062 37.7125Q363.79062 37.3375 363.94687 36.80625Q364.05624 36.446877 364.05624 35.4625L364.05624 34.915627ZM378.38437 32.5875L375.68124 33.0875Q375.54062 32.275 375.05624 31.868752Q374.57187 31.446877 373.80624 31.446877Q372.775 31.446877 372.16562 32.165627Q371.55624 32.86875 371.55624 34.525Q371.55624 36.36875 372.16562 37.134377Q372.79062 37.9 373.8375 37.9Q374.61874 37.9 375.11874 37.4625Q375.61874 37.009377 375.82187 35.93125L378.50937 36.384377Q378.10312 38.24375 376.9 39.196877Q375.7125 40.134377 373.7125 40.134377Q371.43124 40.134377 370.07187 38.696877Q368.72812 37.259377 368.72812 34.728127Q368.72812 32.15 370.0875 30.728127Q371.44687 29.290627 373.75937 29.290627Q375.65 29.290627 376.75937 30.118752Q377.88437 30.931252 378.38437 32.5875ZM370.99374 43.8375L370.99374 42.68125Q371.99374 42.790627 372.8375 42.790627Q373.7125 42.790627 374.11874 42.478127Q374.44687 42.24375 374.44687 41.86875Q374.44687 41.540627 374.13437 41.290627Q373.8375 41.05625 373.2125 41.05625Q372.5875 41.05625 371.93124 41.24375L372.18124 40.275Q372.94687 40.025 373.82187 40.025Q375.04062 40.025 375.66562 40.55625Q376.30624 41.0875 376.30624 41.86875Q376.30624 42.728127 375.60312 43.259377Q374.66562 43.99375 372.9 43.99375Q371.63437 43.99375 370.99374 43.8375ZM382.38437 32.696877L379.9 32.24375Q380.32187 30.743752 381.3375 30.025002Q382.36874 29.290627 384.38437 29.290627Q386.22812 29.290627 387.11874 29.728127Q388.025 30.165627 388.38437 30.837502Q388.75937 31.493752 388.75937 33.290627L388.72812 36.49375Q388.72812 37.853127 388.85312 38.509377Q388.99374 39.15 389.35312 39.9L386.63437 39.9Q386.525 39.61875 386.36874 39.0875Q386.30624 38.8375 386.275 38.759377Q385.57187 39.446877 384.75937 39.790627Q383.9625 40.134377 383.05624 40.134377Q381.4625 40.134377 380.54062 39.275Q379.61874 38.4 379.61874 37.071877Q379.61874 36.18125 380.025 35.49375Q380.44687 34.80625 381.19687 34.446877Q381.9625 34.071877 383.4 33.80625Q385.32187 33.446877 386.05624 33.134377L386.05624 32.853127Q386.05624 32.071877 385.66562 31.743752Q385.275 31.400002 384.19687 31.400002Q383.4625 31.400002 383.04062 31.681252Q382.63437 31.962502 382.38437 32.696877ZM386.05624 34.915627Q385.525 35.0875 384.38437 35.3375Q383.24374 35.5875 382.9 35.821877Q382.35312 36.196877 382.35312 36.790627Q382.35312 37.353127 382.775 37.775Q383.2125 38.196877 383.88437 38.196877Q384.61874 38.196877 385.29062 37.7125Q385.79062 37.3375 385.94687 36.80625Q386.05624 36.446877 386.05624 35.4625L386.05624 34.915627ZM382.36874 28.134377L381.10312 28.134377Q381.10312 27.900002 381.10312 27.775002Q381.10312 26.759377 381.60312 26.212502Q382.10312 25.650002 382.88437 25.650002Q383.22812 25.650002 383.50937 25.728127Q383.80624 25.790627 384.57187 26.150002Q385.35312 26.493752 385.80624 26.493752Q386.11874 26.493752 386.32187 26.306252Q386.525 26.103127 386.5875 25.634377L387.85312 25.634377Q387.85312 26.962502 387.36874 27.525002Q386.88437 28.087502 386.11874 28.087502Q385.79062 28.087502 385.4625 28.025002Q385.24374 27.962502 384.3375 27.618752Q383.44687 27.275002 383.04062 27.275002Q382.72812 27.275002 382.54062 27.478127Q382.36874 27.665627 382.36874 28.134377ZM390.69687 34.571877Q390.69687 33.196877 391.36874 31.915627Q392.05624 30.634377 393.29062 29.962502Q394.525 29.290627 396.04062 29.290627Q398.4 29.290627 399.9 30.821877Q401.4 32.353127 401.4 34.68125Q401.4 37.040627 399.88437 38.5875Q398.36874 40.134377 396.05624 40.134377Q394.63437 40.134377 393.3375 39.49375Q392.05624 38.8375 391.36874 37.603127Q390.69687 36.353127 390.69687 34.571877ZM393.50937 34.7125Q393.50937 36.259377 394.24374 37.0875Q394.97812 37.9 396.05624 37.9Q397.13437 37.9 397.85312 37.0875Q398.5875 36.259377 398.5875 34.696877Q398.5875 33.165627 397.85312 32.353127Q397.13437 31.525002 396.05624 31.525002Q394.97812 31.525002 394.24374 32.353127Q393.50937 33.165627 393.50937 34.7125ZM418.85312 39.9L416.30624 39.9L416.30624 38.36875Q415.66562 39.259377 414.79062 39.696877Q413.93124 40.134377 413.05624 40.134377Q411.275 40.134377 409.99374 38.696877Q408.72812 37.259377 408.72812 34.68125Q408.72812 32.040627 409.9625 30.665627Q411.19687 29.290627 413.10312 29.290627Q414.8375 29.290627 416.10312 30.743752L416.10312 25.587502L418.85312 25.587502L418.85312 39.9ZM411.525 34.49375Q411.525 36.15 411.97812 36.884377Q412.65 37.9625 413.8375 37.9625Q414.79062 37.9625 415.44687 37.165627Q416.11874 36.353127 416.11874 34.759377Q416.11874 32.9625 415.4625 32.18125Q414.82187 31.400002 413.82187 31.400002Q412.8375 31.400002 412.18124 32.18125Q411.525 32.946877 411.525 34.49375ZM427.3375 36.603127L430.07187 37.05625Q429.55624 38.55625 428.41562 39.353127Q427.275 40.134377 425.57187 40.134377Q422.85312 40.134377 421.55624 38.36875Q420.54062 36.946877 420.54062 34.790627Q420.54062 32.2125 421.88437 30.759377Q423.22812 29.290627 425.29062 29.290627Q427.60312 29.290627 428.93124 30.821877Q430.275 32.353127 430.22812 35.509377L423.35312 35.509377Q423.38437 36.728127 424.00937 37.415627Q424.65 38.0875 425.5875 38.0875Q426.24374 38.0875 426.68124 37.74375Q427.11874 37.384377 427.3375 36.603127ZM427.49374 33.821877Q427.4625 32.634377 426.86874 32.025Q426.29062 31.400002 425.4625 31.400002Q424.55624 31.400002 423.97812 32.040627Q423.38437 32.696877 423.4 33.821877L427.49374 33.821877ZM447.50937 34.634377L450.32187 35.525Q449.68124 37.86875 448.18124 39.009377Q446.68124 40.15 444.36874 40.15Q441.525 40.15 439.68124 38.196877Q437.85312 36.24375 437.85312 32.86875Q437.85312 29.290627 439.69687 27.321877Q441.54062 25.337502 444.54062 25.337502Q447.18124 25.337502 448.82187 26.884377Q449.79062 27.806252 450.275 29.525002L447.41562 30.212502Q447.16562 29.103127 446.35312 28.462502Q445.55624 27.806252 444.4 27.806252Q442.80624 27.806252 441.80624 28.946877Q440.82187 30.087502 440.82187 32.65Q440.82187 35.36875 441.79062 36.525Q442.775 37.665627 444.3375 37.665627Q445.49374 37.665627 446.32187 36.946877Q447.15 36.2125 447.50937 34.634377ZM451.69687 34.571877Q451.69687 33.196877 452.36874 31.915627Q453.05624 30.634377 454.29062 29.962502Q455.525 29.290627 457.04062 29.290627Q459.4 29.290627 460.9 30.821877Q462.4 32.353127 462.4 34.68125Q462.4 37.040627 460.88437 38.5875Q459.36874 40.134377 457.05624 40.134377Q455.63437 40.134377 454.3375 39.49375Q453.05624 38.8375 452.36874 37.603127Q451.69687 36.353127 451.69687 34.571877ZM454.50937 34.7125Q454.50937 36.259377 455.24374 37.0875Q455.97812 37.9 457.05624 37.9Q458.13437 37.9 458.85312 37.0875Q459.5875 36.259377 459.5875 34.696877Q459.5875 33.165627 458.85312 32.353127Q458.13437 31.525002 457.05624 31.525002Q455.97812 31.525002 455.24374 32.353127Q454.50937 33.165627 454.50937 34.7125ZM473.775 39.9L471.025 39.9L471.025 34.603127Q471.025 32.93125 470.85312 32.446877Q470.68124 31.946877 470.275 31.681252Q469.88437 31.400002 469.32187 31.400002Q468.61874 31.400002 468.04062 31.790627Q467.47812 32.18125 467.25937 32.821877Q467.05624 33.4625 467.05624 35.196877L467.05624 39.9L464.32187 39.9L464.32187 29.525002L466.86874 29.525002L466.86874 31.056252Q468.22812 29.290627 470.29062 29.290627Q471.19687 29.290627 471.94687 29.618752Q472.69687 29.946877 473.07187 30.462502Q473.4625 30.962502 473.61874 31.618752Q473.775 32.259377 473.775 33.446877L473.775 39.9ZM481.0875 29.525002L481.0875 31.712502L479.2125 31.712502L479.2125 35.9Q479.2125 37.165627 479.25937 37.384377Q479.32187 37.5875 479.50937 37.728127Q479.7125 37.853127 479.97812 37.853127Q480.35312 37.853127 481.0875 37.5875L481.32187 39.728127Q480.35312 40.134377 479.15 40.134377Q478.4 40.134377 477.80624 39.884377Q477.2125 39.634377 476.93124 39.24375Q476.66562 38.8375 476.55624 38.165627Q476.4625 37.696877 476.4625 36.24375L476.4625 31.712502L475.19687 31.712502L475.19687 29.525002L476.4625 29.525002L476.4625 27.462502L479.2125 25.868752L479.2125 29.525002L481.0875 29.525002ZM485.38437 32.696877L482.9 32.24375Q483.32187 30.743752 484.3375 30.025002Q485.36874 29.290627 487.38437 29.290627Q489.22812 29.290627 490.11874 29.728127Q491.025 30.165627 491.38437 30.837502Q491.75937 31.493752 491.75937 33.290627L491.72812 36.49375Q491.72812 37.853127 491.85312 38.509377Q491.99374 39.15 492.35312 39.9L489.63437 39.9Q489.525 39.61875 489.36874 39.0875Q489.30624 38.8375 489.275 38.759377Q488.57187 39.446877 487.75937 39.790627Q486.9625 40.134377 486.05624 40.134377Q484.4625 40.134377 483.54062 39.275Q482.61874 38.4 482.61874 37.071877Q482.61874 36.18125 483.025 35.49375Q483.44687 34.80625 484.19687 34.446877Q484.9625 34.071877 486.4 33.80625Q488.32187 33.446877 489.05624 33.134377L489.05624 32.853127Q489.05624 32.071877 488.66562 31.743752Q488.275 31.400002 487.19687 31.400002Q486.4625 31.400002 486.04062 31.681252Q485.63437 31.962502 485.38437 32.696877ZM489.05624 34.915627Q488.525 35.0875 487.38437 35.3375Q486.24374 35.5875 485.9 35.821877Q485.35312 36.196877 485.35312 36.790627Q485.35312 37.353127 485.775 37.775Q486.2125 38.196877 486.88437 38.196877Q487.61874 38.196877 488.29062 37.7125Q488.79062 37.3375 488.94687 36.80625Q489.05624 36.446877 489.05624 35.4625L489.05624 34.915627Z" fill-rule="nonzero"/></svg>