<svg version="1.1" viewBox="0.0 0.0 675.0 418.0" fill="none" stroke="none" stroke-linecap="square" stroke-miterlimit="10" width="675" height="418" xmlns:xlink="http://www.w3.org/1999/xlink" xmlns="http://www.w3.org/2000/svg"><path fill="#ffffff" d="M0 0L675.0 0L675.0 418.0L0 418.0L0 0Z" fill-rule="nonzero"/><path fill="#345ea2" d="M502.23038 214.03159C502.23038 225.53499 499.3256 236.94785 493.65005 247.74342L493.65005 226.82652C499.3256 216.03094 502.23038 204.61809 502.23038 193.11469Z" fill-rule="nonzero"/><path fill="#4a86e8" d="M362.78436 95.50249C408.3684 95.50249 451.07474 111.09838 477.1541 137.26912C503.23352 163.43985 509.3932 196.8811 493.65005 226.82652L362.78436 193.11469Z" fill-rule="nonzero"/><path fill="#a98823" d="M493.65005 247.74342C484.32208 265.4864 467.83386 280.9513 446.1885 292.25934L446.1885 271.34244C467.83386 260.0344 484.32208 244.56949 493.65005 226.82652Z" fill-rule="nonzero"/><path fill="#f1c232" d="M493.65005 226.82652C484.32208 244.56949 467.83386 260.0344 446.1885 271.34244L362.78436 193.11469Z" fill-rule="nonzero"/><path fill="#a98823" d="M253.7611 274.89178C234.06479 257.6029 223.33838 236.1449 223.33838 214.03159L223.33838 193.11469C223.33838 215.228 234.06479 236.68602 253.7611 253.9749Z" fill-rule="nonzero"/><path fill="#f1c232" d="M253.7611 253.9749C220.3639 224.65977 213.90692 184.54457 237.14787 150.76234C260.38882 116.9801 309.21945 95.50249 362.78436 95.50249L362.78436 193.11469Z" fill-rule="nonzero"/><path fill="#b36b00" d="M446.1885 292.25934C385.86298 323.7748 300.6936 316.08786 253.7611 274.89178L253.7611 253.9749C300.6936 295.17096 385.86298 302.8579 446.1885 271.34244Z" fill-rule="nonzero"/><path fill="#ff9900" d="M446.1885 271.34244C385.86298 302.8579 300.6936 295.17096 253.7611 253.9749L362.78436 193.11469Z" fill-rule="nonzero"/><path fill="#ffffff" d="M439.7032 154.25287L441.56256 154.0185Q441.6407 154.73724 442.0313 155.11224Q442.42194 155.48724 442.98444 155.48724Q443.5782 155.48724 443.98444 155.03412Q444.3907 154.581 444.3907 153.81537Q444.3907 153.09662 444.00006 152.67474Q443.60944 152.25287 443.04694 152.25287Q442.67194 152.25287 442.17194 152.3935L442.37506 150.831Q443.1563 150.84662 443.56256 150.48724Q443.98444 150.12787 443.98444 149.53412Q443.98444 149.03412 443.67194 148.73724Q443.37506 148.42474 442.87506 148.42474Q442.3907 148.42474 442.0313 148.7685Q441.68756 149.11224 441.60944 149.7685L439.8438 149.47162Q440.0313 148.54974 440.3907 148.0185Q440.7657 147.47162 441.43756 147.15912Q442.10944 146.84662 442.93756 146.84662Q444.3438 146.84662 445.2032 147.75287Q445.9063 148.48724 445.9063 149.40912Q445.9063 150.73724 444.4688 151.5185Q445.3282 151.706 445.8438 152.34662Q446.35944 152.98724 446.35944 153.8935Q446.35944 155.22162 445.3907 156.15912Q444.42194 157.081 443.00006 157.081Q441.6407 157.081 440.73444 156.29974Q439.8438 155.5185 439.7032 154.25287ZM451.0157 146.84662Q452.4688 146.84662 453.29694 147.87787Q454.2657 149.11224 454.2657 151.97162Q454.2657 154.81537 453.2813 156.04974Q452.4688 157.081 451.0157 157.081Q449.54694 157.081 448.6563 155.956Q447.7657 154.831 447.7657 151.94037Q447.7657 149.11224 448.75006 147.87787Q449.56256 146.84662 451.0157 146.84662ZM451.0157 148.44037Q450.67194 148.44037 450.3907 148.65912Q450.12506 148.87787 449.9688 149.456Q449.7657 150.206 449.7657 151.97162Q449.7657 153.73724 449.93756 154.3935Q450.12506 155.04974 450.3907 155.2685Q450.67194 155.48724 451.0157 155.48724Q451.35944 155.48724 451.62506 155.2685Q451.9063 155.04974 452.06256 154.47162Q452.2657 153.73724 452.2657 151.97162Q452.2657 150.206 452.0782 149.54974Q451.9063 148.87787 451.62506 148.65912Q451.35944 148.44037 451.0157 148.44037Z" fill-rule="nonzero"/><path fill="#ffffff" d="M444.0302 240.00194L445.8896 239.79881Q445.9521 240.36131 446.23334 240.64256Q446.5302 240.90819 446.99896 240.90819Q447.5927 240.90819 447.99896 240.36131Q448.42084 239.81444 448.54584 238.09569Q447.8271 238.92381 446.73334 238.92381Q445.54584 238.92381 444.68646 238.01756Q443.8271 237.11131 443.8271 235.64256Q443.8271 234.11131 444.73334 233.18944Q445.6396 232.25194 447.04584 232.25194Q448.5771 232.25194 449.54584 233.43944Q450.5302 234.61131 450.5302 237.31444Q450.5302 240.06444 449.49896 241.28319Q448.48334 242.48631 446.85834 242.48631Q445.68646 242.48631 444.9521 241.86131Q444.23334 241.23631 444.0302 240.00194ZM448.37396 235.79881Q448.37396 234.87694 447.93646 234.36131Q447.5146 233.84569 446.9521 233.84569Q446.42084 233.84569 446.06146 234.26756Q445.7177 234.68944 445.7177 235.64256Q445.7177 236.61131 446.0927 237.06444Q446.48334 237.51756 447.06146 237.51756Q447.60834 237.51756 447.98334 237.08006Q448.37396 236.64256 448.37396 235.79881Z" fill-rule="nonzero"/><path fill="#ffffff" d="M348.5105 268.82227L348.5105 270.60352L341.77612 270.60352Q341.8855 269.5879 342.43237 268.68164Q342.97925 267.7754 344.60425 266.2754Q345.90112 265.07227 346.198 264.63477Q346.58862 264.04102 346.58862 263.4629Q346.58862 262.82227 346.24487 262.47852Q345.90112 262.13477 345.29175 262.13477Q344.68237 262.13477 344.323 262.49414Q343.97925 262.85352 343.91675 263.69727L342.0105 263.50977Q342.18237 261.91602 343.073 261.22852Q343.97925 260.54102 345.33862 260.54102Q346.823 260.54102 347.66675 261.3379Q348.5105 262.13477 348.5105 263.32227Q348.5105 264.00977 348.2605 264.61914Q348.02612 265.22852 347.5105 265.9004Q347.15112 266.3379 346.24487 267.18164Q345.33862 268.00977 345.08862 268.29102Q344.85425 268.55664 344.698 268.82227L348.5105 268.82227ZM353.79175 270.60352L353.79175 268.5879L349.698 268.5879L349.698 266.9004L354.04175 260.54102L355.65112 260.54102L355.65112 266.9004L356.90112 266.9004L356.90112 268.5879L355.65112 268.5879L355.65112 270.60352L353.79175 270.60352ZM353.79175 266.9004L353.79175 263.47852L351.49487 266.9004L353.79175 266.9004Z" fill-rule="nonzero"/><path fill="#ffffff" d="M260.8852 163.62573L262.74457 163.39136Q262.8227 164.1101 263.21332 164.4851Q263.60394 164.8601 264.16644 164.8601Q264.7602 164.8601 265.16644 164.40698Q265.5727 163.95386 265.5727 163.18823Q265.5727 162.46948 265.18207 162.0476Q264.79144 161.62573 264.22894 161.62573Q263.85394 161.62573 263.35394 161.76636L263.55707 160.20386Q264.33832 160.21948 264.74457 159.8601Q265.16644 159.50073 265.16644 158.90698Q265.16644 158.40698 264.85394 158.1101Q264.55707 157.7976 264.05707 157.7976Q263.5727 157.7976 263.21332 158.14136Q262.86957 158.4851 262.79144 159.14136L261.02582 158.84448Q261.21332 157.9226 261.5727 157.39136Q261.9477 156.84448 262.61957 156.53198Q263.29144 156.21948 264.11957 156.21948Q265.52582 156.21948 266.3852 157.12573Q267.08832 157.8601 267.08832 158.78198Q267.08832 160.1101 265.65082 160.89136Q266.5102 161.07886 267.02582 161.71948Q267.54144 162.3601 267.54144 163.26636Q267.54144 164.59448 266.5727 165.53198Q265.60394 166.45386 264.18207 166.45386Q262.8227 166.45386 261.91644 165.6726Q261.02582 164.89136 260.8852 163.62573ZM268.97894 163.70386L270.8852 163.50073Q270.97894 164.15698 271.36957 164.53198Q271.77582 164.90698 272.30707 164.90698Q272.90082 164.90698 273.3227 164.4226Q273.74457 163.93823 273.74457 162.95386Q273.74457 162.03198 273.3227 161.57886Q272.91644 161.1101 272.24457 161.1101Q271.41644 161.1101 270.7602 161.84448L269.21332 161.6101L270.1977 156.39136L275.27582 156.39136L275.27582 158.18823L271.65082 158.18823L271.35394 159.89136Q271.99457 159.57886 272.66644 159.57886Q273.93207 159.57886 274.8227 160.51636Q275.71332 161.43823 275.71332 162.9226Q275.71332 164.15698 274.99457 165.12573Q274.02582 166.45386 272.29144 166.45386Q270.90082 166.45386 270.02582 165.71948Q269.15082 164.96948 268.97894 163.70386Z" fill-rule="nonzero"/><path fill="#313131" d="M76.390625 145.00496L76.390625 144.00496L80.015625 143.98933L80.015625 147.17683Q79.1875 147.84871 78.296875 148.19246Q77.40625 148.52058 76.46875 148.52058Q75.203125 148.52058 74.15625 147.98933Q73.125 147.44246 72.59375 146.42683Q72.078125 145.39558 72.078125 144.12996Q72.078125 142.86433 72.59375 141.78621Q73.125 140.69246 74.109375 140.17683Q75.09375 139.64558 76.375 139.64558Q77.3125 139.64558 78.0625 139.94246Q78.8125 140.23933 79.234375 140.78621Q79.671875 141.31746 79.890625 142.19246L78.875 142.47371Q78.671875 141.81746 78.375 141.44246Q78.09375 141.06746 77.5625 140.84871Q77.03125 140.61433 76.390625 140.61433Q75.609375 140.61433 75.03125 140.84871Q74.46875 141.08308 74.109375 141.47371Q73.765625 141.86433 73.578125 142.33308Q73.25 143.12996 73.25 144.05183Q73.25 145.20808 73.640625 145.98933Q74.046875 146.75496 74.796875 147.12996Q75.546875 147.50496 76.40625 147.50496Q77.140625 147.50496 77.84375 147.22371Q78.546875 146.92683 78.90625 146.61433L78.90625 145.00496L76.390625 145.00496ZM81.21875 148.37996L81.21875 142.16121L82.171875 142.16121L82.171875 143.09871Q82.53125 142.44246 82.828125 142.23933Q83.140625 142.02058 83.515625 142.02058Q84.046875 142.02058 84.59375 142.34871L84.234375 143.33308Q83.84375 143.09871 83.46875 143.09871Q83.109375 143.09871 82.828125 143.31746Q82.5625 143.52058 82.453125 143.89558Q82.265625 144.45808 82.265625 145.11433L82.265625 148.37996L81.21875 148.37996ZM89.296875 147.61433Q88.703125 148.11433 88.15625 148.31746Q87.625 148.52058 87.0 148.52058Q85.96875 148.52058 85.421875 148.02058Q84.875 147.52058 84.875 146.73933Q84.875 146.28621 85.078125 145.91121Q85.28125 145.52058 85.625 145.30183Q85.96875 145.06746 86.390625 144.95808Q86.6875 144.86433 87.328125 144.78621Q88.59375 144.64558 89.203125 144.42683Q89.203125 144.20808 89.203125 144.16121Q89.203125 143.50496 88.90625 143.23933Q88.5 142.89558 87.703125 142.89558Q86.96875 142.89558 86.609375 143.16121Q86.25 143.41121 86.078125 144.06746L85.046875 143.92683Q85.1875 143.27058 85.515625 142.86433Q85.84375 142.45808 86.453125 142.23933Q87.0625 142.02058 87.859375 142.02058Q88.65625 142.02058 89.15625 142.20808Q89.65625 142.39558 89.890625 142.67683Q90.125 142.95808 90.21875 143.39558Q90.265625 143.66121 90.265625 144.36433L90.265625 145.77058Q90.265625 147.23933 90.328125 147.62996Q90.40625 148.02058 90.609375 148.37996L89.5 148.37996Q89.34375 148.05183 89.296875 147.61433ZM89.203125 145.25496Q88.625 145.48933 87.484375 145.66121Q86.828125 145.75496 86.5625 145.87996Q86.296875 145.98933 86.140625 146.20808Q86.0 146.42683 86.0 146.70808Q86.0 147.12996 86.3125 147.41121Q86.640625 147.69246 87.25 147.69246Q87.859375 147.69246 88.328125 147.42683Q88.8125 147.16121 89.03125 146.69246Q89.203125 146.33308 89.203125 145.64558L89.203125 145.25496ZM93.953125 148.37996L91.59375 142.16121L92.703125 142.16121L94.046875 145.87996Q94.25 146.48933 94.4375 147.12996Q94.578125 146.64558 94.828125 145.95808L96.21875 142.16121L97.296875 142.16121L94.9375 148.37996L93.953125 148.37996ZM101.484375 146.37996L102.578125 146.50496Q102.328125 147.45808 101.625 147.98933Q100.921875 148.52058 99.84375 148.52058Q98.484375 148.52058 97.671875 147.67683Q96.875 146.83308 96.875 145.31746Q96.875 143.75496 97.6875 142.89558Q98.5 142.02058 99.78125 142.02058Q101.03125 142.02058 101.8125 142.86433Q102.609375 143.70808 102.609375 145.25496Q102.609375 145.34871 102.609375 145.53621L97.96875 145.53621Q98.03125 146.56746 98.546875 147.11433Q99.0625 147.64558 99.84375 147.64558Q100.421875 147.64558 100.828125 147.34871Q101.25 147.03621 101.484375 146.37996ZM98.03125 144.67683L101.5 144.67683Q101.4375 143.87996 101.109375 143.48933Q100.59375 142.87996 99.796875 142.87996Q99.0625 142.87996 98.5625 143.36433Q98.078125 143.84871 98.03125 144.67683Z" fill-rule="nonzero"/><path fill="#9e9e9e" d="M71.9375 163.11433L73.0 162.97371Q73.171875 163.86433 73.609375 164.27058Q74.046875 164.66121 74.671875 164.66121Q75.421875 164.66121 75.9375 164.14558Q76.453125 163.62996 76.453125 162.86433Q76.453125 162.14558 75.96875 161.67683Q75.5 161.19246 74.765625 161.19246Q74.46875 161.19246 74.015625 161.31746L74.140625 160.37996Q74.25 160.39558 74.3125 160.39558Q74.984375 160.39558 75.515625 160.05183Q76.0625 159.69246 76.0625 158.95808Q76.0625 158.37996 75.671875 158.00496Q75.28125 157.61433 74.65625 157.61433Q74.046875 157.61433 73.625 158.00496Q73.21875 158.39558 73.109375 159.16121L72.046875 158.97371Q72.234375 157.92683 72.921875 157.34871Q73.609375 156.75496 74.625 156.75496Q75.328125 156.75496 75.921875 157.06746Q76.515625 157.36433 76.828125 157.87996Q77.140625 158.39558 77.140625 158.98933Q77.140625 159.53621 76.84375 160.00496Q76.546875 160.45808 75.96875 160.72371Q76.71875 160.89558 77.140625 161.45808Q77.5625 162.00496 77.5625 162.84871Q77.5625 163.97371 76.734375 164.75496Q75.921875 165.53621 74.671875 165.53621Q73.546875 165.53621 72.796875 164.86433Q72.046875 164.17683 71.9375 163.11433ZM78.9375 163.12996L80.046875 163.03621Q80.171875 163.84871 80.609375 164.25496Q81.0625 164.66121 81.703125 164.66121Q82.453125 164.66121 82.984375 164.08308Q83.515625 163.50496 83.515625 162.56746Q83.515625 161.66121 83.0 161.14558Q82.5 160.61433 81.671875 160.61433Q81.171875 160.61433 80.75 160.84871Q80.34375 161.08308 80.109375 161.44246L79.125 161.31746L79.953125 156.91121L84.234375 156.91121L84.234375 157.91121L80.796875 157.91121L80.34375 160.22371Q81.109375 159.67683 81.953125 159.67683Q83.078125 159.67683 83.84375 160.45808Q84.625 161.23933 84.625 162.47371Q84.625 163.62996 83.953125 164.48933Q83.125 165.52058 81.703125 165.52058Q80.53125 165.52058 79.78125 164.86433Q79.046875 164.20808 78.9375 163.12996ZM86.5 165.37996L86.5 164.17683L87.703125 164.17683L87.703125 165.37996Q87.703125 166.03621 87.46875 166.44246Q87.234375 166.86433 86.734375 167.08308L86.4375 166.62996Q86.765625 166.48933 86.921875 166.19246Q87.078125 165.91121 87.109375 165.37996L86.5 165.37996ZM89.0 157.91121L89.0 156.89558L94.5625 156.89558L94.5625 157.72371Q93.75 158.59871 92.9375 160.05183Q92.140625 161.48933 91.703125 163.02058Q91.375 164.09871 91.296875 165.37996L90.203125 165.37996Q90.21875 164.36433 90.59375 162.92683Q90.984375 161.48933 91.6875 160.16121Q92.40625 158.83308 93.21875 157.91121L89.0 157.91121ZM96.140625 158.84871Q96.140625 157.92683 96.59375 157.28621Q97.0625 156.64558 97.9375 156.64558Q98.75 156.64558 99.28125 157.22371Q99.8125 157.80183 99.8125 158.91121Q99.8125 160.00496 99.265625 160.59871Q98.734375 161.17683 97.953125 161.17683Q97.171875 161.17683 96.65625 160.59871Q96.140625 160.02058 96.140625 158.84871ZM97.96875 157.36433Q97.578125 157.36433 97.3125 157.70808Q97.0625 158.05183 97.0625 158.95808Q97.0625 159.78621 97.3125 160.12996Q97.578125 160.45808 97.96875 160.45808Q98.375 160.45808 98.625 160.11433Q98.890625 159.77058 98.890625 158.87996Q98.890625 158.03621 98.625 157.70808Q98.359375 157.36433 97.96875 157.36433ZM97.96875 165.69246L102.671875 156.64558L103.53125 156.64558L98.84375 165.69246L97.96875 165.69246ZM101.6875 163.36433Q101.6875 162.44246 102.140625 161.80183Q102.609375 161.16121 103.5 161.16121Q104.3125 161.16121 104.84375 161.73933Q105.375 162.30183 105.375 163.42683Q105.375 164.52058 104.828125 165.11433Q104.296875 165.69246 103.5 165.69246Q102.734375 165.69246 102.203125 165.11433Q101.6875 164.53621 101.6875 163.36433ZM103.53125 161.87996Q103.125 161.87996 102.859375 162.22371Q102.609375 162.56746 102.609375 163.47371Q102.609375 164.28621 102.875 164.62996Q103.140625 164.97371 103.53125 164.97371Q103.921875 164.97371 104.1875 164.62996Q104.453125 164.28621 104.453125 163.37996Q104.453125 162.55183 104.1875 162.22371Q103.921875 161.87996 103.53125 161.87996Z" fill-rule="nonzero"/><path stroke="#757575" stroke-width="1.0" stroke-linecap="butt" d="M71.4375 152.87996L217.33838 152.87996L243.42969 152.87996" fill-rule="nonzero"/><path fill="#9e9e9e" d="M245.42969 152.87996C245.42969 151.77539 244.53426 150.87996 243.42969 150.87996C242.32512 150.87996 241.42969 151.77539 241.42969 152.87996C241.42969 153.98453 242.32512 154.87996 243.42969 154.87996C244.53426 154.87996 245.42969 153.98453 245.42969 152.87996" fill-rule="nonzero"/><path fill="#313131" d="M72.3125 280.58496L72.3125 271.9912L73.453125 271.9912L73.453125 279.56934L77.6875 279.56934L77.6875 280.58496L72.3125 280.58496ZM83.484375 278.58496L84.578125 278.70996Q84.328125 279.6631 83.625 280.19434Q82.921875 280.7256 81.84375 280.7256Q80.484375 280.7256 79.671875 279.88184Q78.875 279.0381 78.875 277.52246Q78.875 275.95996 79.6875 275.1006Q80.5 274.2256 81.78125 274.2256Q83.03125 274.2256 83.8125 275.06934Q84.609375 275.9131 84.609375 277.45996Q84.609375 277.5537 84.609375 277.7412L79.96875 277.7412Q80.03125 278.77246 80.546875 279.31934Q81.0625 279.8506 81.84375 279.8506Q82.421875 279.8506 82.828125 279.5537Q83.25 279.2412 83.484375 278.58496ZM80.03125 276.88184L83.5 276.88184Q83.4375 276.08496 83.109375 275.69434Q82.59375 275.08496 81.796875 275.08496Q81.0625 275.08496 80.5625 275.56934Q80.078125 276.0537 80.03125 276.88184ZM87.953125 280.58496L85.59375 274.3662L86.703125 274.3662L88.046875 278.08496Q88.25 278.69434 88.4375 279.33496Q88.578125 278.8506 88.828125 278.1631L90.21875 274.3662L91.296875 274.3662L88.9375 280.58496L87.953125 280.58496ZM95.484375 278.58496L96.578125 278.70996Q96.328125 279.6631 95.625 280.19434Q94.921875 280.7256 93.84375 280.7256Q92.484375 280.7256 91.671875 279.88184Q90.875 279.0381 90.875 277.52246Q90.875 275.95996 91.6875 275.1006Q92.5 274.2256 93.78125 274.2256Q95.03125 274.2256 95.8125 275.06934Q96.609375 275.9131 96.609375 277.45996Q96.609375 277.5537 96.609375 277.7412L91.96875 277.7412Q92.03125 278.77246 92.546875 279.31934Q93.0625 279.8506 93.84375 279.8506Q94.421875 279.8506 94.828125 279.5537Q95.25 279.2412 95.484375 278.58496ZM92.03125 276.88184L95.5 276.88184Q95.4375 276.08496 95.109375 275.69434Q94.59375 275.08496 93.796875 275.08496Q93.0625 275.08496 92.5625 275.56934Q92.078125 276.0537 92.03125 276.88184Z" fill-rule="nonzero"/><path fill="#9e9e9e" d="M77.484375 296.56934L77.484375 297.58496L71.796875 297.58496Q71.796875 297.20996 71.921875 296.8506Q72.140625 296.27246 72.609375 295.70996Q73.09375 295.14746 74.0 294.4131Q75.40625 293.25684 75.890625 292.58496Q76.390625 291.9131 76.390625 291.31934Q76.390625 290.69434 75.9375 290.27246Q75.484375 289.83496 74.765625 289.83496Q74.0 289.83496 73.546875 290.2881Q73.09375 290.7412 73.078125 291.5537L72.0 291.44434Q72.109375 290.2256 72.828125 289.6006Q73.5625 288.95996 74.796875 288.95996Q76.03125 288.95996 76.75 289.64746Q77.46875 290.33496 77.46875 291.3506Q77.46875 291.8662 77.25 292.3662Q77.046875 292.8506 76.546875 293.4131Q76.0625 293.95996 74.9375 294.9131Q73.984375 295.70996 73.703125 296.00684Q73.4375 296.2881 73.265625 296.56934L77.484375 296.56934ZM82.3125 297.58496L82.3125 295.52246L78.59375 295.52246L78.59375 294.5537L82.515625 288.9912L83.375 288.9912L83.375 294.5537L84.53125 294.5537L84.53125 295.52246L83.375 295.52246L83.375 297.58496L82.3125 297.58496ZM82.3125 294.5537L82.3125 290.69434L79.625 294.5537L82.3125 294.5537ZM86.5 297.58496L86.5 296.38184L87.703125 296.38184L87.703125 297.58496Q87.703125 298.2412 87.46875 298.64746Q87.234375 299.06934 86.734375 299.2881L86.4375 298.83496Q86.765625 298.69434 86.921875 298.39746Q87.078125 298.1162 87.109375 297.58496L86.5 297.58496ZM88.9375 295.33496L90.046875 295.2412Q90.171875 296.0537 90.609375 296.45996Q91.0625 296.8662 91.703125 296.8662Q92.453125 296.8662 92.984375 296.2881Q93.515625 295.70996 93.515625 294.77246Q93.515625 293.8662 93.0 293.3506Q92.5 292.81934 91.671875 292.81934Q91.171875 292.81934 90.75 293.0537Q90.34375 293.2881 90.109375 293.64746L89.125 293.52246L89.953125 289.1162L94.234375 289.1162L94.234375 290.1162L90.796875 290.1162L90.34375 292.4287Q91.109375 291.88184 91.953125 291.88184Q93.078125 291.88184 93.84375 292.6631Q94.625 293.44434 94.625 294.6787Q94.625 295.83496 93.953125 296.69434Q93.125 297.7256 91.703125 297.7256Q90.53125 297.7256 89.78125 297.06934Q89.046875 296.4131 88.9375 295.33496ZM96.140625 291.0537Q96.140625 290.13184 96.59375 289.4912Q97.0625 288.8506 97.9375 288.8506Q98.75 288.8506 99.28125 289.4287Q99.8125 290.00684 99.8125 291.1162Q99.8125 292.20996 99.265625 292.8037Q98.734375 293.38184 97.953125 293.38184Q97.171875 293.38184 96.65625 292.8037Q96.140625 292.2256 96.140625 291.0537ZM97.96875 289.56934Q97.578125 289.56934 97.3125 289.9131Q97.0625 290.25684 97.0625 291.1631Q97.0625 291.9912 97.3125 292.33496Q97.578125 292.6631 97.96875 292.6631Q98.375 292.6631 98.625 292.31934Q98.890625 291.9756 98.890625 291.08496Q98.890625 290.2412 98.625 289.9131Q98.359375 289.56934 97.96875 289.56934ZM97.96875 297.89746L102.671875 288.8506L103.53125 288.8506L98.84375 297.89746L97.96875 297.89746ZM101.6875 295.56934Q101.6875 294.64746 102.140625 294.00684Q102.609375 293.3662 103.5 293.3662Q104.3125 293.3662 104.84375 293.94434Q105.375 294.50684 105.375 295.63184Q105.375 296.7256 104.828125 297.31934Q104.296875 297.89746 103.5 297.89746Q102.734375 297.89746 102.203125 297.31934Q101.6875 296.7412 101.6875 295.56934ZM103.53125 294.08496Q103.125 294.08496 102.859375 294.4287Q102.609375 294.77246 102.609375 295.6787Q102.609375 296.4912 102.875 296.83496Q103.140625 297.1787 103.53125 297.1787Q103.921875 297.1787 104.1875 296.83496Q104.453125 296.4912 104.453125 295.58496Q104.453125 294.75684 104.1875 294.4287Q103.921875 294.08496 103.53125 294.08496Z" fill-rule="nonzero"/><path stroke="#757575" stroke-width="1.0" stroke-linecap="butt" d="M71.4375 285.08496L217.33838 285.08496L345.84402 285.08496" fill-rule="nonzero"/><path fill="#9e9e9e" d="M347.84402 285.08496C347.84402 283.98038 346.94858 283.08496 345.84402 283.08496C344.73944 283.08496 343.84402 283.98038 343.84402 285.08496C343.84402 286.1895 344.73944 287.08496 345.84402 287.08496C346.94858 287.08496 347.84402 286.1895 347.84402 285.08496" fill-rule="nonzero"/><path fill="#313131" d="M600.02185 135.5614L600.02185 126.96765L601.7406 126.96765L603.77185 133.04578Q604.0531 133.90515 604.1781 134.32703Q604.3187 133.85828 604.6312 132.95203L606.6937 126.96765L608.225 126.96765L608.225 135.5614L607.1312 135.5614L607.1312 128.3739L604.6312 135.5614L603.6 135.5614L601.1156 128.2489L601.1156 135.5614L600.02185 135.5614ZM608.5375 132.45203Q608.5375 130.71765 609.4906 129.88953Q610.2875 129.20203 611.4437 129.20203Q612.725 129.20203 613.5375 130.04578Q614.3656 130.8739 614.3656 132.35828Q614.3656 133.5614 614.0062 134.2489Q613.64685 134.9364 612.9437 135.32703Q612.2562 135.70203 611.4437 135.70203Q610.14685 135.70203 609.33435 134.8739Q608.5375 134.03015 608.5375 132.45203ZM609.6156 132.45203Q609.6156 133.63953 610.1312 134.23328Q610.6625 134.82703 611.4437 134.82703Q612.2406 134.82703 612.7562 134.23328Q613.27185 133.63953 613.27185 132.42078Q613.27185 131.26453 612.7406 130.67078Q612.225 130.07703 611.4437 130.07703Q610.6625 130.07703 610.1312 130.67078Q609.6156 131.2489 609.6156 132.45203ZM619.95935 135.5614L619.95935 134.78015Q619.3656 135.70203 618.225 135.70203Q617.475 135.70203 616.85 135.29578Q616.225 134.8739 615.8812 134.13953Q615.5375 133.40515 615.5375 132.45203Q615.5375 131.53015 615.85 130.76453Q616.1625 129.9989 616.7875 129.60828Q617.4125 129.20203 618.1781 129.20203Q618.7406 129.20203 619.1781 129.4364Q619.6156 129.67078 619.89685 130.04578L619.89685 126.96765L620.9437 126.96765L620.9437 135.5614L619.95935 135.5614ZM616.6312 132.45203Q616.6312 133.65515 617.1312 134.2489Q617.6312 134.82703 618.3187 134.82703Q619.0062 134.82703 619.4906 134.26453Q619.975 133.70203 619.975 132.54578Q619.975 131.26453 619.475 130.67078Q618.9906 130.07703 618.27185 130.07703Q617.5687 130.07703 617.1 130.65515Q616.6312 131.21765 616.6312 132.45203ZM627.1781 133.5614L628.27185 133.6864Q628.02185 134.63953 627.3187 135.17078Q626.6156 135.70203 625.5375 135.70203Q624.1781 135.70203 623.3656 134.85828Q622.5687 134.01453 622.5687 132.4989Q622.5687 130.9364 623.3812 130.07703Q624.1937 129.20203 625.475 129.20203Q626.725 129.20203 627.5062 130.04578Q628.3031 130.88953 628.3031 132.4364Q628.3031 132.53015 628.3031 132.71765L623.6625 132.71765Q623.725 133.7489 624.2406 134.29578Q624.7562 134.82703 625.5375 134.82703Q626.1156 134.82703 626.52185 134.53015Q626.9437 134.21765 627.1781 133.5614ZM623.725 131.85828L627.1937 131.85828Q627.1312 131.0614 626.8031 130.67078Q626.2875 130.0614 625.4906 130.0614Q624.7562 130.0614 624.2562 130.54578Q623.77185 131.03015 623.725 131.85828ZM629.9125 135.5614L629.9125 129.34265L630.8656 129.34265L630.8656 130.28015Q631.225 129.6239 631.52185 129.42078Q631.83435 129.20203 632.20935 129.20203Q632.7406 129.20203 633.2875 129.53015L632.9281 130.51453Q632.5375 130.28015 632.1625 130.28015Q631.8031 130.28015 631.52185 130.4989Q631.2562 130.70203 631.14685 131.07703Q630.95935 131.63953 630.95935 132.29578L630.95935 135.5614L629.9125 135.5614ZM637.9906 134.79578Q637.39685 135.29578 636.85 135.4989Q636.3187 135.70203 635.6937 135.70203Q634.6625 135.70203 634.1156 135.20203Q633.5687 134.70203 633.5687 133.92078Q633.5687 133.46765 633.77185 133.09265Q633.975 132.70203 634.3187 132.48328Q634.6625 132.2489 635.08435 132.13953Q635.3812 132.04578 636.02185 131.96765Q637.2875 131.82703 637.89685 131.60828Q637.89685 131.38953 637.89685 131.34265Q637.89685 130.6864 637.6 130.42078Q637.1937 130.07703 636.39685 130.07703Q635.6625 130.07703 635.3031 130.34265Q634.9437 130.59265 634.77185 131.2489L633.7406 131.10828Q633.8812 130.45203 634.20935 130.04578Q634.5375 129.63953 635.14685 129.42078Q635.7562 129.20203 636.5531 129.20203Q637.35 129.20203 637.85 129.38953Q638.35 129.57703 638.58435 129.85828Q638.8187 130.13953 638.9125 130.57703Q638.95935 130.84265 638.95935 131.54578L638.95935 132.95203Q638.95935 134.42078 639.02185 134.8114Q639.1 135.20203 639.3031 135.5614L638.1937 135.5614Q638.0375 135.23328 637.9906 134.79578ZM637.89685 132.4364Q637.3187 132.67078 636.1781 132.84265Q635.52185 132.9364 635.2562 133.0614Q634.9906 133.17078 634.83435 133.38953Q634.6937 133.60828 634.6937 133.88953Q634.6937 134.3114 635.0062 134.59265Q635.33435 134.8739 635.9437 134.8739Q636.5531 134.8739 637.02185 134.60828Q637.5062 134.34265 637.725 133.8739Q637.89685 133.51453 637.89685 132.82703L637.89685 132.4364ZM644.95935 135.5614L644.95935 134.78015Q644.3656 135.70203 643.225 135.70203Q642.475 135.70203 641.85 135.29578Q641.225 134.8739 640.8812 134.13953Q640.5375 133.40515 640.5375 132.45203Q640.5375 131.53015 640.85 130.76453Q641.1625 129.9989 641.7875 129.60828Q642.4125 129.20203 643.1781 129.20203Q643.7406 129.20203 644.1781 129.4364Q644.6156 129.67078 644.89685 130.04578L644.89685 126.96765L645.9437 126.96765L645.9437 135.5614L644.95935 135.5614ZM641.6312 132.45203Q641.6312 133.65515 642.1312 134.2489Q642.6312 134.82703 643.3187 134.82703Q644.0062 134.82703 644.4906 134.26453Q644.975 133.70203 644.975 132.54578Q644.975 131.26453 644.475 130.67078Q643.9906 130.07703 643.27185 130.07703Q642.5687 130.07703 642.1 130.65515Q641.6312 131.21765 641.6312 132.45203ZM651.9906 134.79578Q651.39685 135.29578 650.85 135.4989Q650.3187 135.70203 649.6937 135.70203Q648.6625 135.70203 648.1156 135.20203Q647.5687 134.70203 647.5687 133.92078Q647.5687 133.46765 647.77185 133.09265Q647.975 132.70203 648.3187 132.48328Q648.6625 132.2489 649.08435 132.13953Q649.3812 132.04578 650.02185 131.96765Q651.2875 131.82703 651.89685 131.60828Q651.89685 131.38953 651.89685 131.34265Q651.89685 130.6864 651.6 130.42078Q651.1937 130.07703 650.39685 130.07703Q649.6625 130.07703 649.3031 130.34265Q648.9437 130.59265 648.77185 131.2489L647.7406 131.10828Q647.8812 130.45203 648.20935 130.04578Q648.5375 129.63953 649.14685 129.42078Q649.7562 129.20203 650.5531 129.20203Q651.35 129.20203 651.85 129.38953Q652.35 129.57703 652.58435 129.85828Q652.8187 130.13953 652.9125 130.57703Q652.95935 130.84265 652.95935 131.54578L652.95935 132.95203Q652.95935 134.42078 653.02185 134.8114Q653.1 135.20203 653.3031 135.5614L652.1937 135.5614Q652.0375 135.23328 651.9906 134.79578ZM651.89685 132.4364Q651.3187 132.67078 650.1781 132.84265Q649.52185 132.9364 649.2562 133.0614Q648.9906 133.17078 648.83435 133.38953Q648.6937 133.60828 648.6937 133.88953Q648.6937 134.3114 649.0062 134.59265Q649.33435 134.8739 649.9437 134.8739Q650.5531 134.8739 651.02185 134.60828Q651.5062 134.34265 651.725 133.8739Q651.89685 133.51453 651.89685 132.82703L651.89685 132.4364Z" fill-rule="nonzero"/><path fill="#9e9e9e" d="M619.6312 150.29578L620.6937 150.15515Q620.8656 151.04578 621.3031 151.45203Q621.7406 151.84265 622.3656 151.84265Q623.1156 151.84265 623.6312 151.32703Q624.14685 150.8114 624.14685 150.04578Q624.14685 149.32703 623.6625 148.85828Q623.1937 148.3739 622.45935 148.3739Q622.1625 148.3739 621.70935 148.4989L621.83435 147.5614Q621.9437 147.57703 622.0062 147.57703Q622.6781 147.57703 623.20935 147.23328Q623.7562 146.8739 623.7562 146.13953Q623.7562 145.5614 623.3656 145.1864Q622.975 144.79578 622.35 144.79578Q621.7406 144.79578 621.3187 145.1864Q620.9125 145.57703 620.8031 146.34265L619.7406 146.15515Q619.9281 145.10828 620.6156 144.53015Q621.3031 143.9364 622.3187 143.9364Q623.02185 143.9364 623.6156 144.2489Q624.20935 144.54578 624.52185 145.0614Q624.83435 145.57703 624.83435 146.17078Q624.83435 146.71765 624.5375 147.1864Q624.2406 147.63953 623.6625 147.90515Q624.4125 148.07703 624.83435 148.63953Q625.2562 149.1864 625.2562 150.03015Q625.2562 151.15515 624.4281 151.9364Q623.6156 152.71765 622.3656 152.71765Q621.2406 152.71765 620.4906 152.04578Q619.7406 151.35828 619.6312 150.29578ZM626.6312 148.32703Q626.6312 146.79578 626.9437 145.8739Q627.2562 144.9364 627.8656 144.4364Q628.4906 143.9364 629.4281 143.9364Q630.1156 143.9364 630.6312 144.21765Q631.1625 144.4989 631.5062 145.03015Q631.85 145.54578 632.0375 146.29578Q632.225 147.04578 632.225 148.32703Q632.225 149.84265 631.9125 150.76453Q631.6156 151.6864 630.9906 152.20203Q630.3812 152.70203 629.4281 152.70203Q628.1937 152.70203 627.475 151.8114Q626.6312 150.7489 626.6312 148.32703ZM627.70935 148.32703Q627.70935 150.4364 628.20935 151.13953Q628.70935 151.84265 629.4281 151.84265Q630.1625 151.84265 630.64685 151.13953Q631.14685 150.4364 631.14685 148.32703Q631.14685 146.20203 630.64685 145.51453Q630.1625 144.8114 629.4125 144.8114Q628.6937 144.8114 628.2562 145.42078Q627.70935 146.20203 627.70935 148.32703ZM634.1937 152.5614L634.1937 151.35828L635.39685 151.35828L635.39685 152.5614Q635.39685 153.21765 635.1625 153.6239Q634.9281 154.04578 634.4281 154.26453L634.1312 153.8114Q634.45935 153.67078 634.6156 153.3739Q634.77185 153.09265 634.8031 152.5614L634.1937 152.5614ZM642.1 146.07703L641.0531 146.15515Q640.9125 145.53015 640.6625 145.2489Q640.225 144.79578 639.6 144.79578Q639.1 144.79578 638.70935 145.07703Q638.225 145.45203 637.9281 146.15515Q637.64685 146.84265 637.6312 148.1239Q638.0062 147.54578 638.5531 147.26453Q639.1156 146.98328 639.725 146.98328Q640.77185 146.98328 641.5062 147.76453Q642.2562 148.54578 642.2562 149.76453Q642.2562 150.57703 641.89685 151.28015Q641.5531 151.96765 640.9437 152.34265Q640.33435 152.70203 639.5687 152.70203Q638.2406 152.70203 637.4125 151.73328Q636.58435 150.76453 636.58435 148.54578Q636.58435 146.04578 637.5062 144.92078Q638.3031 143.9364 639.6625 143.9364Q640.6781 143.9364 641.3187 144.51453Q641.975 145.07703 642.1 146.07703ZM637.8031 149.78015Q637.8031 150.32703 638.02185 150.82703Q638.2562 151.3114 638.6625 151.57703Q639.08435 151.84265 639.5531 151.84265Q640.20935 151.84265 640.6937 151.3114Q641.1781 150.76453 641.1781 149.84265Q641.1781 148.95203 640.6937 148.4364Q640.225 147.92078 639.5062 147.92078Q638.7875 147.92078 638.2875 148.4364Q637.8031 148.95203 637.8031 149.78015ZM643.83435 146.03015Q643.83435 145.10828 644.2875 144.46765Q644.7562 143.82703 645.6312 143.82703Q646.4437 143.82703 646.975 144.40515Q647.5062 144.98328 647.5062 146.09265Q647.5062 147.1864 646.95935 147.78015Q646.4281 148.35828 645.64685 148.35828Q644.8656 148.35828 644.35 147.78015Q643.83435 147.20203 643.83435 146.03015ZM645.6625 144.54578Q645.27185 144.54578 645.0062 144.88953Q644.7562 145.23328 644.7562 146.13953Q644.7562 146.96765 645.0062 147.3114Q645.27185 147.63953 645.6625 147.63953Q646.0687 147.63953 646.3187 147.29578Q646.58435 146.95203 646.58435 146.0614Q646.58435 145.21765 646.3187 144.88953Q646.0531 144.54578 645.6625 144.54578ZM645.6625 152.8739L650.3656 143.82703L651.225 143.82703L646.5375 152.8739L645.6625 152.8739ZM649.3812 150.54578Q649.3812 149.6239 649.83435 148.98328Q650.3031 148.34265 651.1937 148.34265Q652.0062 148.34265 652.5375 148.92078Q653.0687 149.48328 653.0687 150.60828Q653.0687 151.70203 652.52185 152.29578Q651.9906 152.8739 651.1937 152.8739Q650.4281 152.8739 649.89685 152.29578Q649.3812 151.71765 649.3812 150.54578ZM651.225 149.0614Q650.8187 149.0614 650.5531 149.40515Q650.3031 149.7489 650.3031 150.65515Q650.3031 151.46765 650.5687 151.8114Q650.83435 152.15515 651.225 152.15515Q651.6156 152.15515 651.8812 151.8114Q652.14685 151.46765 652.14685 150.5614Q652.14685 149.73328 651.8812 149.40515Q651.6156 149.0614 651.225 149.0614Z" fill-rule="nonzero"/><path stroke="#757575" stroke-width="1.0" stroke-linecap="butt" d="M654.1312 140.0614L508.23038 140.0614L471.43564 140.0614" fill-rule="nonzero"/><path fill="#9e9e9e" d="M473.43564 140.0614C473.43564 138.95683 472.5402 138.0614 471.43564 138.0614C470.33105 138.0614 469.43564 138.95683 469.43564 140.0614C469.43564 141.16597 470.33105 142.0614 471.43564 142.0614C472.5402 142.0614 473.43564 141.16597 473.43564 140.0614" fill-rule="nonzero"/><path fill="#313131" d="M614.0062 244.07843L614.0062 235.48468L617.2406 235.48468Q618.225 235.48468 618.8187 235.7503Q619.4125 236.01593 619.7406 236.5628Q620.08435 237.09406 620.08435 237.6878Q620.08435 238.23468 619.7875 238.71906Q619.4906 239.20343 618.8812 239.5003Q619.6625 239.73468 620.0687 240.29718Q620.4906 240.84406 620.4906 241.59406Q620.4906 242.1878 620.2406 242.71906Q619.9906 243.23468 619.6156 243.51593Q619.2406 243.79718 618.6625 243.9378Q618.1 244.07843 617.2875 244.07843L614.0062 244.07843ZM615.14685 239.09406L617.0062 239.09406Q617.7562 239.09406 618.08435 239.0003Q618.52185 238.8753 618.7406 238.57843Q618.95935 238.26593 618.95935 237.8128Q618.95935 237.39093 618.7562 237.0628Q618.5531 236.73468 618.1625 236.6253Q617.7875 236.5003 616.8656 236.5003L615.14685 236.5003L615.14685 239.09406ZM615.14685 243.0628L617.2875 243.0628Q617.83435 243.0628 618.0531 243.01593Q618.45935 242.95343 618.70935 242.79718Q618.975 242.6253 619.14685 242.3128Q619.3187 242.0003 619.3187 241.59406Q619.3187 241.10968 619.0687 240.7503Q618.83435 240.39093 618.39685 240.2503Q617.95935 240.10968 617.1312 240.10968L615.14685 240.10968L615.14685 243.0628ZM621.89685 244.07843L621.89685 235.48468L622.95935 235.48468L622.95935 244.07843L621.89685 244.07843ZM624.5375 240.96906Q624.5375 239.23468 625.4906 238.40656Q626.2875 237.71906 627.4437 237.71906Q628.725 237.71906 629.5375 238.5628Q630.3656 239.39093 630.3656 240.8753Q630.3656 242.07843 630.0062 242.76593Q629.64685 243.45343 628.9437 243.84406Q628.2562 244.21906 627.4437 244.21906Q626.14685 244.21906 625.33435 243.39093Q624.5375 242.54718 624.5375 240.96906ZM625.6156 240.96906Q625.6156 242.15656 626.1312 242.7503Q626.6625 243.34406 627.4437 243.34406Q628.2406 243.34406 628.7562 242.7503Q629.27185 242.15656 629.27185 240.9378Q629.27185 239.78156 628.7406 239.1878Q628.225 238.59406 627.4437 238.59406Q626.6625 238.59406 626.1312 239.1878Q625.6156 239.76593 625.6156 240.96906ZM635.9906 241.79718L637.02185 241.9378Q636.85 243.0003 636.14685 243.60968Q635.4437 244.21906 634.4281 244.21906Q633.14685 244.21906 632.3656 243.39093Q631.6 242.54718 631.6 240.98468Q631.6 239.98468 631.9281 239.23468Q632.27185 238.46906 632.9437 238.09406Q633.6312 237.71906 634.4437 237.71906Q635.4437 237.71906 636.08435 238.23468Q636.7406 238.73468 636.9281 239.6878L635.89685 239.84406Q635.7562 239.21906 635.3812 238.90656Q635.0062 238.57843 634.475 238.57843Q633.6781 238.57843 633.1781 239.15656Q632.6781 239.71906 632.6781 240.95343Q632.6781 242.21906 633.1625 242.78156Q633.64685 243.34406 634.4125 243.34406Q635.0375 243.34406 635.4437 242.96906Q635.8656 242.59406 635.9906 241.79718ZM637.9281 244.07843L637.9281 235.48468L638.9906 235.48468L638.9906 240.39093L641.475 237.85968L642.85 237.85968L640.45935 240.15656L643.08435 244.07843L641.7875 244.07843L639.725 240.89093L638.9906 241.60968L638.9906 244.07843L637.9281 244.07843ZM648.1781 242.07843L649.27185 242.20343Q649.02185 243.15656 648.3187 243.6878Q647.6156 244.21906 646.5375 244.21906Q645.1781 244.21906 644.3656 243.3753Q643.5687 242.53156 643.5687 241.01593Q643.5687 239.45343 644.3812 238.59406Q645.1937 237.71906 646.475 237.71906Q647.725 237.71906 648.5062 238.5628Q649.3031 239.40656 649.3031 240.95343Q649.3031 241.04718 649.3031 241.23468L644.6625 241.23468Q644.725 242.26593 645.2406 242.8128Q645.7562 243.34406 646.5375 243.34406Q647.1156 243.34406 647.52185 243.04718Q647.9437 242.73468 648.1781 242.07843ZM644.725 240.3753L648.1937 240.3753Q648.1312 239.57843 647.8031 239.1878Q647.2875 238.57843 646.4906 238.57843Q645.7562 238.57843 645.2562 239.0628Q644.77185 239.54718 644.725 240.3753ZM650.9125 244.07843L650.9125 237.85968L651.8656 237.85968L651.8656 238.79718Q652.225 238.14093 652.52185 237.9378Q652.83435 237.71906 653.20935 237.71906Q653.7406 237.71906 654.2875 238.04718L653.9281 239.03156Q653.5375 238.79718 653.1625 238.79718Q652.8031 238.79718 652.52185 239.01593Q652.2562 239.21906 652.14685 239.59406Q651.95935 240.15656 651.95935 240.8128L651.95935 244.07843L650.9125 244.07843Z" fill-rule="nonzero"/><path fill="#9e9e9e" d="M626.7875 259.09406L627.8031 259.0003Q627.9281 259.71906 628.2875 260.04718Q628.6625 260.35968 629.225 260.35968Q629.70935 260.35968 630.0687 260.14093Q630.4437 259.90656 630.6781 259.54718Q630.9125 259.17218 631.0687 258.54718Q631.225 257.90656 631.225 257.2503Q631.225 257.17218 631.225 257.03156Q630.9125 257.53156 630.3656 257.85968Q629.8187 258.17218 629.1781 258.17218Q628.1 258.17218 627.3656 257.40656Q626.6312 256.6253 626.6312 255.35968Q626.6312 254.04718 627.39685 253.2503Q628.1781 252.45343 629.33435 252.45343Q630.1625 252.45343 630.85 252.90656Q631.5531 253.35968 631.9125 254.20343Q632.27185 255.03156 632.27185 256.60968Q632.27185 258.2503 631.9125 259.23468Q631.5687 260.20343 630.85 260.71906Q630.14685 261.21906 629.20935 261.21906Q628.1937 261.21906 627.5531 260.67218Q626.9125 260.10968 626.7875 259.09406ZM631.1 255.29718Q631.1 254.39093 630.6156 253.85968Q630.14685 253.32843 629.45935 253.32843Q628.7562 253.32843 628.225 253.90656Q627.70935 254.46906 627.70935 255.39093Q627.70935 256.20343 628.20935 256.71906Q628.70935 257.23468 629.4281 257.23468Q630.1625 257.23468 630.6312 256.71906Q631.1 256.20343 631.1 255.29718ZM634.1937 261.07843L634.1937 259.8753L635.39685 259.8753L635.39685 261.07843Q635.39685 261.73468 635.1625 262.14093Q634.9281 262.5628 634.4281 262.78156L634.1312 262.32843Q634.45935 262.1878 634.6156 261.89093Q634.77185 261.60968 634.8031 261.07843L634.1937 261.07843ZM642.1781 260.0628L642.1781 261.07843L636.4906 261.07843Q636.4906 260.70343 636.6156 260.34406Q636.83435 259.76593 637.3031 259.20343Q637.7875 258.64093 638.6937 257.90656Q640.1 256.7503 640.58435 256.07843Q641.08435 255.40656 641.08435 254.8128Q641.08435 254.1878 640.6312 253.76593Q640.1781 253.32843 639.45935 253.32843Q638.6937 253.32843 638.2406 253.78156Q637.7875 254.23468 637.77185 255.04718L636.6937 254.9378Q636.8031 253.71906 637.52185 253.09406Q638.2562 252.45343 639.4906 252.45343Q640.725 252.45343 641.4437 253.14093Q642.1625 253.82843 642.1625 254.84406Q642.1625 255.35968 641.9437 255.85968Q641.7406 256.34406 641.2406 256.90656Q640.7562 257.45343 639.6312 258.40656Q638.6781 259.20343 638.39685 259.5003Q638.1312 259.78156 637.95935 260.0628L642.1781 260.0628ZM643.83435 254.54718Q643.83435 253.6253 644.2875 252.98468Q644.7562 252.34406 645.6312 252.34406Q646.4437 252.34406 646.975 252.92218Q647.5062 253.5003 647.5062 254.60968Q647.5062 255.70343 646.95935 256.29718Q646.4281 256.8753 645.64685 256.8753Q644.8656 256.8753 644.35 256.29718Q643.83435 255.71906 643.83435 254.54718ZM645.6625 253.0628Q645.27185 253.0628 645.0062 253.40656Q644.7562 253.7503 644.7562 254.65656Q644.7562 255.48468 645.0062 255.82843Q645.27185 256.15656 645.6625 256.15656Q646.0687 256.15656 646.3187 255.8128Q646.58435 255.46906 646.58435 254.57843Q646.58435 253.73468 646.3187 253.40656Q646.0531 253.0628 645.6625 253.0628ZM645.6625 261.39093L650.3656 252.34406L651.225 252.34406L646.5375 261.39093L645.6625 261.39093ZM649.3812 259.0628Q649.3812 258.14093 649.83435 257.5003Q650.3031 256.85968 651.1937 256.85968Q652.0062 256.85968 652.5375 257.4378Q653.0687 258.0003 653.0687 259.1253Q653.0687 260.21906 652.52185 260.8128Q651.9906 261.39093 651.1937 261.39093Q650.4281 261.39093 649.89685 260.8128Q649.3812 260.23468 649.3812 259.0628ZM651.225 257.57843Q650.8187 257.57843 650.5531 257.92218Q650.3031 258.26593 650.3031 259.17218Q650.3031 259.98468 650.5687 260.32843Q650.83435 260.67218 651.225 260.67218Q651.6156 260.67218 651.8812 260.32843Q652.14685 259.98468 652.14685 259.07843Q652.14685 258.2503 651.8812 257.92218Q651.6156 257.57843 651.225 257.57843Z" fill-rule="nonzero"/><path stroke="#757575" stroke-width="1.0" stroke-linecap="butt" d="M654.1312 248.57843L508.23038 248.57843L468.9506 248.57843" fill-rule="nonzero"/><path fill="#9e9e9e" d="M470.9506 248.57843C470.9506 247.47386 470.05518 246.57843 468.9506 246.57843C467.84604 246.57843 466.9506 247.47386 466.9506 248.57843C466.9506 249.683 467.84604 250.57843 468.9506 250.57843C470.05518 250.57843 470.9506 249.683 470.9506 248.57843" fill-rule="nonzero"/><path fill="#000000" d="M22.36875 25.587502L28.0875 25.587502Q29.790625 25.587502 30.61875 25.728127Q31.4625 25.868752 32.11875 26.321877Q32.775 26.759377 33.2125 27.509377Q33.65 28.259377 33.65 29.181252Q33.65 30.196877 33.103127 31.040627Q32.571877 31.868752 31.65 32.290627Q32.946877 32.665627 33.65 33.5875Q34.353127 34.509377 34.353127 35.74375Q34.353127 36.728127 33.9 37.65Q33.446877 38.571877 32.665627 39.134377Q31.884375 39.68125 30.728125 39.80625Q30.009375 39.884377 27.24375 39.9L22.36875 39.9L22.36875 25.587502ZM25.259375 27.962502L25.259375 31.275002L27.15 31.275002Q28.8375 31.275002 29.24375 31.228127Q29.99375 31.134377 30.415625 30.712502Q30.8375 30.290627 30.8375 29.603127Q30.8375 28.931252 30.4625 28.525002Q30.103125 28.103127 29.384375 28.009377Q28.9625 27.962502 26.915625 27.962502L25.259375 27.962502ZM25.259375 33.665627L25.259375 37.49375L27.93125 37.49375Q29.49375 37.49375 29.915625 37.4Q30.55625 37.275 30.9625 36.821877Q31.36875 36.36875 31.36875 35.61875Q31.36875 34.9625 31.05625 34.525Q30.74375 34.071877 30.15 33.86875Q29.55625 33.665627 27.5875 33.665627L25.259375 33.665627ZM43.165627 39.9L43.165627 38.353127Q42.603127 39.18125 41.665627 39.665627Q40.74375 40.134377 39.728127 40.134377Q38.68125 40.134377 37.853127 39.68125Q37.025 39.2125 36.65 38.384377Q36.275 37.55625 36.275 36.0875L36.275 29.525002L39.025 29.525002L39.025 34.290627Q39.025 36.478127 39.165627 36.978127Q39.321877 37.4625 39.7125 37.759377Q40.11875 38.040627 40.74375 38.040627Q41.446877 38.040627 41.99375 37.665627Q42.55625 37.275 42.759377 36.7125Q42.9625 36.134377 42.9625 33.9L42.9625 29.525002L45.7125 29.525002L45.7125 39.9L43.165627 39.9ZM48.0875 40.5875L51.2125 40.9625Q51.290627 41.509377 51.571877 41.7125Q51.9625 42.009377 52.80625 42.009377Q53.884377 42.009377 54.415627 41.68125Q54.775 41.478127 54.9625 40.99375Q55.0875 40.65 55.0875 39.728127L55.0875 38.2125Q53.86875 39.9 51.99375 39.9Q49.9 39.9 48.68125 38.134377Q47.728127 36.728127 47.728127 34.65Q47.728127 32.040627 48.978127 30.665627Q50.228127 29.290627 52.103127 29.290627Q54.025 29.290627 55.275 30.978127L55.275 29.525002L57.8375 29.525002L57.8375 38.8375Q57.8375 40.665627 57.525 41.571877Q57.228127 42.49375 56.68125 43.009377Q56.134377 43.525 55.2125 43.80625Q54.30625 44.103127 52.915627 44.103127Q50.275 44.103127 49.165627 43.196877Q48.071877 42.30625 48.071877 40.915627Q48.071877 40.775 48.0875 40.5875ZM50.540627 34.49375Q50.540627 36.15 51.165627 36.915627Q51.80625 37.68125 52.74375 37.68125Q53.759377 37.68125 54.446877 36.9Q55.15 36.103127 55.15 34.571877Q55.15 32.9625 54.478127 32.18125Q53.821877 31.400002 52.80625 31.400002Q51.80625 31.400002 51.165627 32.165627Q50.540627 32.93125 50.540627 34.49375ZM59.36875 36.946877L62.11875 36.525Q62.30625 37.321877 62.8375 37.74375Q63.36875 38.15 64.3375 38.15Q65.4 38.15 65.94688 37.759377Q66.30625 37.49375 66.30625 37.025Q66.30625 36.7125 66.10313 36.509377Q65.9 36.321877 65.19688 36.15Q61.86875 35.415627 60.978127 34.80625Q59.74375 33.978127 59.74375 32.478127Q59.74375 31.134377 60.80625 30.212502Q61.884377 29.290627 64.11875 29.290627Q66.24375 29.290627 67.275 29.993752Q68.32188 30.681252 68.7125 32.040627L66.11875 32.509377Q65.94688 31.915627 65.47813 31.587502Q65.025 31.259377 64.16563 31.259377Q63.0875 31.259377 62.61875 31.571877Q62.30625 31.790627 62.30625 32.11875Q62.30625 32.415627 62.571877 32.61875Q62.946877 32.9 65.13438 33.4Q67.32188 33.9 68.19688 34.61875Q69.05625 35.353127 69.05625 36.65Q69.05625 38.0875 67.86875 39.11875Q66.68125 40.134377 64.3375 40.134377Q62.228127 40.134377 60.978127 39.275Q59.74375 38.415627 59.36875 36.946877ZM77.25938 29.525002L79.82188 29.525002L79.82188 31.056252Q80.32188 30.275002 81.16563 29.790627Q82.00938 29.290627 83.05625 29.290627Q84.85313 29.290627 86.10313 30.712502Q87.36875 32.11875 87.36875 34.65Q87.36875 37.259377 86.10313 38.696877Q84.8375 40.134377 83.025 40.134377Q82.16563 40.134377 81.4625 39.790627Q80.775 39.446877 80.00938 38.61875L80.00938 43.853127L77.25938 43.853127L77.25938 29.525002ZM79.97813 34.540627Q79.97813 36.290627 80.66563 37.134377Q81.35313 37.9625 82.35313 37.9625Q83.30625 37.9625 83.94688 37.196877Q84.5875 36.415627 84.5875 34.68125Q84.5875 33.040627 83.93125 32.259377Q83.275 31.462502 82.30625 31.462502Q81.30625 31.462502 80.63438 32.24375Q79.97813 33.009377 79.97813 34.540627ZM88.69688 34.571877Q88.69688 33.196877 89.36875 31.915627Q90.05625 30.634377 91.29063 29.962502Q92.525 29.290627 94.04063 29.290627Q96.4 29.290627 97.9 30.821877Q99.4 32.353127 99.4 34.68125Q99.4 37.040627 97.88438 38.5875Q96.36875 40.134377 94.05625 40.134377Q92.63438 40.134377 91.3375 39.49375Q90.05625 38.8375 89.36875 37.603127Q88.69688 36.353127 88.69688 34.571877ZM91.50938 34.7125Q91.50938 36.259377 92.24375 37.0875Q92.97813 37.9 94.05625 37.9Q95.13438 37.9 95.85313 37.0875Q96.5875 36.259377 96.5875 34.696877Q96.5875 33.165627 95.85313 32.353127Q95.13438 31.525002 94.05625 31.525002Q92.97813 31.525002 92.24375 32.353127Q91.50938 33.165627 91.50938 34.7125ZM103.9625 39.9L101.2125 39.9L101.2125 29.525002L103.775 29.525002L103.775 31.009377Q104.41563 29.962502 104.93125 29.634377Q105.4625 29.290627 106.13438 29.290627Q107.07188 29.290627 107.93125 29.806252L107.0875 32.196877Q106.4 31.759377 105.80625 31.759377Q105.22813 31.759377 104.82188 32.071877Q104.41563 32.384377 104.18125 33.228127Q103.9625 34.05625 103.9625 36.696877L103.9625 39.9ZM124.38438 32.5875L121.68125 33.0875Q121.54063 32.275 121.05625 31.868752Q120.57188 31.446877 119.80625 31.446877Q118.775 31.446877 118.16563 32.165627Q117.55625 32.86875 117.55625 34.525Q117.55625 36.36875 118.16563 37.134377Q118.79063 37.9 119.8375 37.9Q120.61875 37.9 121.11875 37.4625Q121.61875 37.009377 121.82188 35.93125L124.50938 36.384377Q124.10313 38.24375 122.9 39.196877Q121.7125 40.134377 119.7125 40.134377Q117.43125 40.134377 116.07188 38.696877Q114.72813 37.259377 114.72813 34.728127Q114.72813 32.15 116.0875 30.728127Q117.44688 29.290627 119.75938 29.290627Q121.65 29.290627 122.75938 30.118752Q123.88438 30.931252 124.38438 32.5875ZM128.9625 39.9L126.2125 39.9L126.2125 29.525002L128.775 29.525002L128.775 31.009377Q129.41562 29.962502 129.93124 29.634377Q130.4625 29.290627 131.13437 29.290627Q132.07187 29.290627 132.93124 29.806252L132.0875 32.196877Q131.4 31.759377 130.80624 31.759377Q130.22812 31.759377 129.82187 32.071877Q129.41562 32.384377 129.18124 33.228127Q128.9625 34.05625 128.9625 36.696877L128.9625 39.9ZM134.3375 28.118752L134.3375 25.587502L137.0875 25.587502L137.0875 28.118752L134.3375 28.118752ZM134.3375 39.9L134.3375 29.525002L137.0875 29.525002L137.0875 39.9L134.3375 39.9ZM144.0875 29.525002L144.0875 31.712502L142.2125 31.712502L142.2125 35.9Q142.2125 37.165627 142.25937 37.384377Q142.32187 37.5875 142.50937 37.728127Q142.7125 37.853127 142.97812 37.853127Q143.35312 37.853127 144.0875 37.5875L144.32187 39.728127Q143.35312 40.134377 142.15 40.134377Q141.4 40.134377 140.80624 39.884377Q140.2125 39.634377 139.93124 39.24375Q139.66562 38.8375 139.55624 38.165627Q139.4625 37.696877 139.4625 36.24375L139.4625 31.712502L138.19687 31.712502L138.19687 29.525002L139.4625 29.525002L139.4625 27.462502L142.2125 25.868752L142.2125 29.525002L144.0875 29.525002ZM146.3375 28.118752L146.3375 25.587502L149.0875 25.587502L149.0875 28.118752L146.3375 28.118752ZM146.3375 39.9L146.3375 29.525002L149.0875 29.525002L149.0875 39.9L146.3375 39.9ZM160.38437 32.5875L157.68124 33.0875Q157.54062 32.275 157.05624 31.868752Q156.57187 31.446877 155.80624 31.446877Q154.775 31.446877 154.16562 32.165627Q153.55624 32.86875 153.55624 34.525Q153.55624 36.36875 154.16562 37.134377Q154.79062 37.9 155.8375 37.9Q156.61874 37.9 157.11874 37.4625Q157.61874 37.009377 157.82187 35.93125L160.50937 36.384377Q160.10312 38.24375 158.9 39.196877Q157.7125 40.134377 155.7125 40.134377Q153.43124 40.134377 152.07187 38.696877Q150.72812 37.259377 150.72812 34.728127Q150.72812 32.15 152.0875 30.728127Q153.44687 29.290627 155.75937 29.290627Q157.65 29.290627 158.75937 30.118752Q159.88437 30.931252 160.38437 32.5875ZM162.3375 28.118752L162.3375 25.587502L165.0875 25.587502L165.0875 28.118752L162.3375 28.118752ZM162.3375 39.9L162.3375 29.525002L165.0875 29.525002L165.0875 39.9L162.3375 39.9ZM176.85312 39.9L174.30624 39.9L174.30624 38.36875Q173.66562 39.259377 172.79062 39.696877Q171.93124 40.134377 171.05624 40.134377Q169.275 40.134377 167.99374 38.696877Q166.72812 37.259377 166.72812 34.68125Q166.72812 32.040627 167.9625 30.665627Q169.19687 29.290627 171.10312 29.290627Q172.8375 29.290627 174.10312 30.743752L174.10312 25.587502L176.85312 25.587502L176.85312 39.9ZM169.525 34.49375Q169.525 36.15 169.97812 36.884377Q170.65 37.9625 171.8375 37.9625Q172.79062 37.9625 173.44687 37.165627Q174.11874 36.353127 174.11874 34.759377Q174.11874 32.9625 173.4625 32.18125Q172.82187 31.400002 171.82187 31.400002Q170.8375 31.400002 170.18124 32.18125Q169.525 32.946877 169.525 34.49375ZM181.38437 32.696877L178.9 32.24375Q179.32187 30.743752 180.3375 30.025002Q181.36874 29.290627 183.38437 29.290627Q185.22812 29.290627 186.11874 29.728127Q187.025 30.165627 187.38437 30.837502Q187.75937 31.493752 187.75937 33.290627L187.72812 36.49375Q187.72812 37.853127 187.85312 38.509377Q187.99374 39.15 188.35312 39.9L185.63437 39.9Q185.525 39.61875 185.36874 39.0875Q185.30624 38.8375 185.275 38.759377Q184.57187 39.446877 183.75937 39.790627Q182.9625 40.134377 182.05624 40.134377Q180.4625 40.134377 179.54062 39.275Q178.61874 38.4 178.61874 37.071877Q178.61874 36.18125 179.025 35.49375Q179.44687 34.80625 180.19687 34.446877Q180.9625 34.071877 182.4 33.80625Q184.32187 33.446877 185.05624 33.134377L185.05624 32.853127Q185.05624 32.071877 184.66562 31.743752Q184.275 31.400002 183.19687 31.400002Q182.4625 31.400002 182.04062 31.681252Q181.63437 31.962502 181.38437 32.696877ZM185.05624 34.915627Q184.525 35.0875 183.38437 35.3375Q182.24374 35.5875 181.9 35.821877Q181.35312 36.196877 181.35312 36.790627Q181.35312 37.353127 181.775 37.775Q182.2125 38.196877 182.88437 38.196877Q183.61874 38.196877 184.29062 37.7125Q184.79062 37.3375 184.94687 36.80625Q185.05624 36.446877 185.05624 35.4625L185.05624 34.915627ZM199.85312 39.9L197.30624 39.9L197.30624 38.36875Q196.66562 39.259377 195.79062 39.696877Q194.93124 40.134377 194.05624 40.134377Q192.275 40.134377 190.99374 38.696877Q189.72812 37.259377 189.72812 34.68125Q189.72812 32.040627 190.9625 30.665627Q192.19687 29.290627 194.10312 29.290627Q195.8375 29.290627 197.10312 30.743752L197.10312 25.587502L199.85312 25.587502L199.85312 39.9ZM192.525 34.49375Q192.525 36.15 192.97812 36.884377Q193.65 37.9625 194.8375 37.9625Q195.79062 37.9625 196.44687 37.165627Q197.11874 36.353127 197.11874 34.759377Q197.11874 32.9625 196.4625 32.18125Q195.82187 31.400002 194.82187 31.400002Q193.8375 31.400002 193.18124 32.18125Q192.525 32.946877 192.525 34.49375ZM208.3375 36.603127L211.07187 37.05625Q210.55624 38.55625 209.41562 39.353127Q208.275 40.134377 206.57187 40.134377Q203.85312 40.134377 202.55624 38.36875Q201.54062 36.946877 201.54062 34.790627Q201.54062 32.2125 202.88437 30.759377Q204.22812 29.290627 206.29062 29.290627Q208.60312 29.290627 209.93124 30.821877Q211.275 32.353127 211.22812 35.509377L204.35312 35.509377Q204.38437 36.728127 205.00937 37.415627Q205.65 38.0875 206.5875 38.0875Q207.24374 38.0875 207.68124 37.74375Q208.11874 37.384377 208.3375 36.603127ZM208.49374 33.821877Q208.4625 32.634377 207.86874 32.025Q207.29062 31.400002 206.4625 31.400002Q205.55624 31.400002 204.97812 32.040627Q204.38437 32.696877 204.4 33.821877L208.49374 33.821877ZM225.3375 36.603127L228.07187 37.05625Q227.55624 38.55625 226.41562 39.353127Q225.275 40.134377 223.57187 40.134377Q220.85312 40.134377 219.55624 38.36875Q218.54062 36.946877 218.54062 34.790627Q218.54062 32.2125 219.88437 30.759377Q221.22812 29.290627 223.29062 29.290627Q225.60312 29.290627 226.93124 30.821877Q228.275 32.353127 228.22812 35.509377L221.35312 35.509377Q221.38437 36.728127 222.00937 37.415627Q222.65 38.0875 223.5875 38.0875Q224.24374 38.0875 224.68124 37.74375Q225.11874 37.384377 225.3375 36.603127ZM225.49374 33.821877Q225.4625 32.634377 224.86874 32.025Q224.29062 31.400002 223.4625 31.400002Q222.55624 31.400002 221.97812 32.040627Q221.38437 32.696877 221.4 33.821877L225.49374 33.821877ZM230.13437 29.525002L232.66562 29.525002L232.66562 30.946877Q234.025 29.290627 235.9 29.290627Q236.88437 29.290627 237.61874 29.712502Q238.35312 30.118752 238.82187 30.946877Q239.50937 30.118752 240.29062 29.712502Q241.0875 29.290627 241.99374 29.290627Q243.13437 29.290627 243.91562 29.759377Q244.7125 30.228127 245.10312 31.118752Q245.38437 31.790627 245.38437 33.275L245.38437 39.9L242.63437 39.9L242.63437 33.978127Q242.63437 32.43125 242.35312 31.978127Q241.97812 31.400002 241.18124 31.400002Q240.60312 31.400002 240.0875 31.759377Q239.5875 32.103127 239.36874 32.775Q239.15 33.446877 239.15 34.915627L239.15 39.9L236.4 39.9L236.4 34.2125Q236.4 32.696877 236.24374 32.259377Q236.10312 31.821877 235.79062 31.618752Q235.49374 31.400002 234.9625 31.400002Q234.3375 31.400002 233.82187 31.743752Q233.32187 32.071877 233.0875 32.728127Q232.86874 33.36875 232.86874 34.853127L232.86874 39.9L230.13437 39.9L230.13437 29.525002ZM266.25937 39.9L263.11874 39.9L261.86874 36.65L256.15 36.65L254.9625 39.9L251.9 39.9L257.47812 25.587502L260.54062 25.587502L266.25937 39.9ZM260.94687 34.228127L258.97812 28.915627L257.04062 34.228127L260.94687 34.228127ZM275.38437 32.5875L272.68124 33.0875Q272.54062 32.275 272.05624 31.868752Q271.57187 31.446877 270.80624 31.446877Q269.775 31.446877 269.16562 32.165627Q268.55624 32.86875 268.55624 34.525Q268.55624 36.36875 269.16562 37.134377Q269.79062 37.9 270.8375 37.9Q271.61874 37.9 272.11874 37.4625Q272.61874 37.009377 272.82187 35.93125L275.50937 36.384377Q275.10312 38.24375 273.9 39.196877Q272.7125 40.134377 270.7125 40.134377Q268.43124 40.134377 267.07187 38.696877Q265.72812 37.259377 265.72812 34.728127Q265.72812 32.15 267.0875 30.728127Q268.44687 29.290627 270.75937 29.290627Q272.65 29.290627 273.75937 30.118752Q274.88437 30.931252 275.38437 32.5875ZM283.3375 36.603127L286.07187 37.05625Q285.55624 38.55625 284.41562 39.353127Q283.275 40.134377 281.57187 40.134377Q278.85312 40.134377 277.55624 38.36875Q276.54062 36.946877 276.54062 34.790627Q276.54062 32.2125 277.88437 30.759377Q279.22812 29.290627 281.29062 29.290627Q283.60312 29.290627 284.93124 30.821877Q286.275 32.353127 286.22812 35.509377L279.35312 35.509377Q279.38437 36.728127 280.00937 37.415627Q280.65 38.0875 281.5875 38.0875Q282.24374 38.0875 282.68124 37.74375Q283.11874 37.384377 283.3375 36.603127ZM283.49374 33.821877Q283.4625 32.634377 282.86874 32.025Q282.29062 31.400002 281.4625 31.400002Q280.55624 31.400002 279.97812 32.040627Q279.38437 32.696877 279.4 33.821877L283.49374 33.821877ZM287.36874 36.946877L290.11874 36.525Q290.30624 37.321877 290.8375 37.74375Q291.36874 38.15 292.3375 38.15Q293.4 38.15 293.94687 37.759377Q294.30624 37.49375 294.30624 37.025Q294.30624 36.7125 294.10312 36.509377Q293.9 36.321877 293.19687 36.15Q289.86874 35.415627 288.97812 34.80625Q287.74374 33.978127 287.74374 32.478127Q287.74374 31.134377 288.80624 30.212502Q289.88437 29.290627 292.11874 29.290627Q294.24374 29.290627 295.275 29.993752Q296.32187 30.681252 296.7125 32.040627L294.11874 32.509377Q293.94687 31.915627 293.47812 31.587502Q293.025 31.259377 292.16562 31.259377Q291.0875 31.259377 290.61874 31.571877Q290.30624 31.790627 290.30624 32.11875Q290.30624 32.415627 290.57187 32.61875Q290.94687 32.9 293.13437 33.4Q295.32187 33.9 296.19687 34.61875Q297.05624 35.353127 297.05624 36.65Q297.05624 38.0875 295.86874 39.11875Q294.68124 40.134377 292.3375 40.134377Q290.22812 40.134377 288.97812 39.275Q287.74374 38.415627 287.36874 36.946877ZM298.36874 36.946877L301.11874 36.525Q301.30624 37.321877 301.8375 37.74375Q302.36874 38.15 303.3375 38.15Q304.4 38.15 304.94687 37.759377Q305.30624 37.49375 305.30624 37.025Q305.30624 36.7125 305.10312 36.509377Q304.9 36.321877 304.19687 36.15Q300.86874 35.415627 299.97812 34.80625Q298.74374 33.978127 298.74374 32.478127Q298.74374 31.134377 299.80624 30.212502Q300.88437 29.290627 303.11874 29.290627Q305.24374 29.290627 306.275 29.993752Q307.32187 30.681252 307.7125 32.040627L305.11874 32.509377Q304.94687 31.915627 304.47812 31.587502Q304.025 31.259377 303.16562 31.259377Q302.0875 31.259377 301.61874 31.571877Q301.30624 31.790627 301.30624 32.11875Q301.30624 32.415627 301.57187 32.61875Q301.94687 32.9 304.13437 33.4Q306.32187 33.9 307.19687 34.61875Q308.05624 35.353127 308.05624 36.65Q308.05624 38.0875 306.86874 39.11875Q305.68124 40.134377 303.3375 40.134377Q301.22812 40.134377 299.97812 39.275Q298.74374 38.415627 298.36874 36.946877ZM310.3375 28.118752L310.3375 25.587502L313.0875 25.587502L313.0875 28.118752L310.3375 28.118752ZM310.3375 39.9L310.3375 29.525002L313.0875 29.525002L313.0875 39.9L310.3375 39.9ZM315.2125 39.9L315.2125 25.587502L317.9625 25.587502L317.9625 30.743752Q319.22812 29.290627 320.97812 29.290627Q322.86874 29.290627 324.10312 30.665627Q325.35312 32.040627 325.35312 34.603127Q325.35312 37.259377 324.0875 38.696877Q322.82187 40.134377 321.00937 40.134377Q320.11874 40.134377 319.25937 39.696877Q318.4 39.24375 317.775 38.36875L317.775 39.9L315.2125 39.9ZM317.94687 34.49375Q317.94687 36.103127 318.44687 36.86875Q319.16562 37.9625 320.35312 37.9625Q321.25937 37.9625 321.9 37.196877Q322.54062 36.415627 322.54062 34.74375Q322.54062 32.9625 321.88437 32.18125Q321.24374 31.400002 320.24374 31.400002Q319.25937 31.400002 318.60312 32.165627Q317.94687 32.93125 317.94687 34.49375ZM327.3375 28.118752L327.3375 25.587502L330.0875 25.587502L330.0875 28.118752L327.3375 28.118752ZM327.3375 39.9L327.3375 29.525002L330.0875 29.525002L330.0875 39.9L327.3375 39.9ZM332.3375 39.9L332.3375 25.587502L335.0875 25.587502L335.0875 39.9L332.3375 39.9ZM337.3375 28.118752L337.3375 25.587502L340.0875 25.587502L340.0875 28.118752L337.3375 28.118752ZM337.3375 39.9L337.3375 29.525002L340.0875 29.525002L340.0875 39.9L337.3375 39.9ZM351.85312 39.9L349.30624 39.9L349.30624 38.36875Q348.66562 39.259377 347.79062 39.696877Q346.93124 40.134377 346.05624 40.134377Q344.275 40.134377 342.99374 38.696877Q341.72812 37.259377 341.72812 34.68125Q341.72812 32.040627 342.9625 30.665627Q344.19687 29.290627 346.10312 29.290627Q347.8375 29.290627 349.10312 30.743752L349.10312 25.587502L351.85312 25.587502L351.85312 39.9ZM344.525 34.49375Q344.525 36.15 344.97812 36.884377Q345.65 37.9625 346.8375 37.9625Q347.79062 37.9625 348.44687 37.165627Q349.11874 36.353127 349.11874 34.759377Q349.11874 32.9625 348.4625 32.18125Q347.82187 31.400002 346.82187 31.400002Q345.8375 31.400002 345.18124 32.18125Q344.525 32.946877 344.525 34.49375ZM356.38437 32.696877L353.9 32.24375Q354.32187 30.743752 355.3375 30.025002Q356.36874 29.290627 358.38437 29.290627Q360.22812 29.290627 361.11874 29.728127Q362.025 30.165627 362.38437 30.837502Q362.75937 31.493752 362.75937 33.290627L362.72812 36.49375Q362.72812 37.853127 362.85312 38.509377Q362.99374 39.15 363.35312 39.9L360.63437 39.9Q360.525 39.61875 360.36874 39.0875Q360.30624 38.8375 360.275 38.759377Q359.57187 39.446877 358.75937 39.790627Q357.9625 40.134377 357.05624 40.134377Q355.4625 40.134377 354.54062 39.275Q353.61874 38.4 353.61874 37.071877Q353.61874 36.18125 354.025 35.49375Q354.44687 34.80625 355.19687 34.446877Q355.9625 34.071877 357.4 33.80625Q359.32187 33.446877 360.05624 33.134377L360.05624 32.853127Q360.05624 32.071877 359.66562 31.743752Q359.275 31.400002 358.19687 31.400002Q357.4625 31.400002 357.04062 31.681252Q356.63437 31.962502 356.38437 32.696877ZM360.05624 34.915627Q359.525 35.0875 358.38437 35.3375Q357.24374 35.5875 356.9 35.821877Q356.35312 36.196877 356.35312 36.790627Q356.35312 37.353127 356.775 37.775Q357.2125 38.196877 357.88437 38.196877Q358.61874 38.196877 359.29062 37.7125Q359.79062 37.3375 359.94687 36.80625Q360.05624 36.446877 360.05624 35.4625L360.05624 34.915627ZM374.85312 39.9L372.30624 39.9L372.30624 38.36875Q371.66562 39.259377 370.79062 39.696877Q369.93124 40.134377 369.05624 40.134377Q367.275 40.134377 365.99374 38.696877Q364.72812 37.259377 364.72812 34.68125Q364.72812 32.040627 365.9625 30.665627Q367.19687 29.290627 369.10312 29.290627Q370.8375 29.290627 372.10312 30.743752L372.10312 25.587502L374.85312 25.587502L374.85312 39.9ZM367.525 34.49375Q367.525 36.15 367.97812 36.884377Q368.65 37.9625 369.8375 37.9625Q370.79062 37.9625 371.44687 37.165627Q372.11874 36.353127 372.11874 34.759377Q372.11874 32.9625 371.4625 32.18125Q370.82187 31.400002 369.82187 31.400002Q368.8375 31.400002 368.18124 32.18125Q367.525 32.946877 367.525 34.49375ZM383.3375 36.603127L386.07187 37.05625Q385.55624 38.55625 384.41562 39.353127Q383.275 40.134377 381.57187 40.134377Q378.85312 40.134377 377.55624 38.36875Q376.54062 36.946877 376.54062 34.790627Q376.54062 32.2125 377.88437 30.759377Q379.22812 29.290627 381.29062 29.290627Q383.60312 29.290627 384.93124 30.821877Q386.275 32.353127 386.22812 35.509377L379.35312 35.509377Q379.38437 36.728127 380.00937 37.415627Q380.65 38.0875 381.5875 38.0875Q382.24374 38.0875 382.68124 37.74375Q383.11874 37.384377 383.3375 36.603127ZM383.49374 33.821877Q383.4625 32.634377 382.86874 32.025Q382.29062 31.400002 381.4625 31.400002Q380.55624 31.400002 379.97812 32.040627Q379.38437 32.696877 379.4 33.821877L383.49374 33.821877Z" fill-rule="nonzero"/></svg>