<svg version="1.1" viewBox="0.0 0.0 600.0 371.0" fill="none" stroke="none" stroke-linecap="square" stroke-miterlimit="10" width="600" height="371" xmlns:xlink="http://www.w3.org/1999/xlink" xmlns="http://www.w3.org/2000/svg"><path fill="#ffffff" d="M0 0L600.0 0L600.0 371.0L0 371.0L0 0Z" fill-rule="nonzero"/><path fill="#ffd966" d="M300.0 54.916668C348.63092 54.916668 394.19174 78.68572 422.01428 118.57144C449.83685 158.45717 456.40823 209.42357 439.61282 255.06213L300.0 203.68333Z" fill-rule="nonzero"/><path fill="#ff0000" d="M439.61282 255.06213C429.66138 282.10345 412.07108 305.67282 388.9789 322.90695L300.0 203.68333Z" fill-rule="nonzero"/><path fill="#eb5600" d="M183.68953 296.43784C148.06006 251.75987 141.17146 190.622 165.96587 139.1359C190.76025 87.6498 242.85475 54.916668 300.0 54.916668L300.0 203.68333Z" fill-rule="nonzero"/><path fill="#6d9eeb" d="M388.9789 322.90695C324.6212 370.9384 233.75905 359.22302 183.68953 296.43784L300.0 203.68333Z" fill-rule="nonzero"/><path fill="#ffffff" d="M388.3335 139.19958L390.19287 138.96521Q390.271 139.68396 390.66162 140.05896Q391.05225 140.43396 391.61475 140.43396Q392.2085 140.43396 392.61475 139.98083Q393.021 139.52771 393.021 138.76208Q393.021 138.04333 392.63037 137.62146Q392.23975 137.19958 391.67725 137.19958Q391.30225 137.19958 390.80225 137.34021L391.00537 135.77771Q391.78662 135.79333 392.19287 135.43396Q392.61475 135.07458 392.61475 134.48083Q392.61475 133.98083 392.30225 133.68396Q392.00537 133.37146 391.50537 133.37146Q391.021 133.37146 390.66162 133.71521Q390.31787 134.05896 390.23975 134.71521L388.47412 134.41833Q388.66162 133.49646 389.021 132.96521Q389.396 132.41833 390.06787 132.10583Q390.73975 131.79333 391.56787 131.79333Q392.97412 131.79333 393.8335 132.69958Q394.53662 133.43396 394.53662 134.35583Q394.53662 135.68396 393.09912 136.46521Q393.9585 136.65271 394.47412 137.29333Q394.98975 137.93396 394.98975 138.84021Q394.98975 140.16833 394.021 141.10583Q393.05225 142.02771 391.63037 142.02771Q390.271 142.02771 389.36475 141.24646Q388.47412 140.46521 388.3335 139.19958ZM399.646 131.79333Q401.09912 131.79333 401.92725 132.82458Q402.896 134.05896 402.896 136.91833Q402.896 139.76208 401.91162 140.99646Q401.09912 142.02771 399.646 142.02771Q398.17725 142.02771 397.28662 140.90271Q396.396 139.77771 396.396 136.88708Q396.396 134.05896 397.38037 132.82458Q398.19287 131.79333 399.646 131.79333ZM399.646 133.38708Q399.30225 133.38708 399.021 133.60583Q398.75537 133.82458 398.59912 134.40271Q398.396 135.15271 398.396 136.91833Q398.396 138.68396 398.56787 139.34021Q398.75537 139.99646 399.021 140.21521Q399.30225 140.43396 399.646 140.43396Q399.98975 140.43396 400.25537 140.21521Q400.53662 139.99646 400.69287 139.41833Q400.896 138.68396 400.896 136.91833Q400.896 135.15271 400.7085 134.49646Q400.53662 133.82458 400.25537 133.60583Q399.98975 133.38708 399.646 133.38708Z" fill-rule="nonzero"/><path fill="#ffffff" d="M392.6412 278.0179L394.50058 277.8148Q394.56308 278.3773 394.84433 278.65854Q395.1412 278.92416 395.60995 278.92416Q396.2037 278.92416 396.60995 278.3773Q397.03183 277.8304 397.15683 276.11166Q396.43808 276.9398 395.34433 276.9398Q394.15683 276.9398 393.29745 276.03354Q392.43808 275.1273 392.43808 273.65854Q392.43808 272.1273 393.34433 271.2054Q394.25058 270.2679 395.65683 270.2679Q397.18808 270.2679 398.15683 271.4554Q399.1412 272.6273 399.1412 275.3304Q399.1412 278.0804 398.10995 279.29916Q397.09433 280.5023 395.46933 280.5023Q394.29745 280.5023 393.56308 279.8773Q392.84433 279.2523 392.6412 278.0179ZM396.98495 273.8148Q396.98495 272.8929 396.54745 272.3773Q396.12558 271.86166 395.56308 271.86166Q395.03183 271.86166 394.67245 272.28354Q394.3287 272.7054 394.3287 273.65854Q394.3287 274.6273 394.7037 275.0804Q395.09433 275.53354 395.67245 275.53354Q396.21933 275.53354 396.59433 275.09604Q396.98495 274.65854 396.98495 273.8148Z" fill-rule="nonzero"/><path fill="#ffffff" d="M283.49835 327.73563L283.49835 329.51688L276.76398 329.51688Q276.87335 328.50125 277.42023 327.595Q277.9671 326.68875 279.5921 325.18875Q280.88898 323.98563 281.18585 323.54813Q281.57648 322.95438 281.57648 322.37625Q281.57648 321.73563 281.23273 321.39188Q280.88898 321.04813 280.2796 321.04813Q279.67023 321.04813 279.31085 321.4075Q278.9671 321.76688 278.9046 322.61063L276.99835 322.42313Q277.17023 320.82938 278.06085 320.14188Q278.9671 319.45438 280.32648 319.45438Q281.81085 319.45438 282.6546 320.25125Q283.49835 321.04813 283.49835 322.23563Q283.49835 322.92313 283.24835 323.5325Q283.01398 324.14188 282.49835 324.81375Q282.13898 325.25125 281.23273 326.095Q280.32648 326.92313 280.07648 327.20438Q279.8421 327.47 279.68585 327.73563L283.49835 327.73563ZM288.7796 329.51688L288.7796 327.50125L284.68585 327.50125L284.68585 325.81375L289.0296 319.45438L290.63898 319.45438L290.63898 325.81375L291.88898 325.81375L291.88898 327.50125L290.63898 327.50125L290.63898 329.51688L288.7796 329.51688ZM288.7796 325.81375L288.7796 322.39188L286.48273 325.81375L288.7796 325.81375Z" fill-rule="nonzero"/><path fill="#ffffff" d="M186.35617 154.89586L188.21555 154.66148Q188.29367 155.38023 188.6843 155.75523Q189.07492 156.13023 189.63742 156.13023Q190.23117 156.13023 190.63742 155.67711Q191.04367 155.22398 191.04367 154.45836Q191.04367 153.73961 190.65305 153.31773Q190.26242 152.89586 189.69992 152.89586Q189.32492 152.89586 188.82492 153.03648L189.02805 151.47398Q189.8093 151.48961 190.21555 151.13023Q190.63742 150.77086 190.63742 150.17711Q190.63742 149.67711 190.32492 149.38023Q190.02805 149.06773 189.52805 149.06773Q189.04367 149.06773 188.6843 149.41148Q188.34055 149.75523 188.26242 150.41148L186.4968 150.11461Q186.6843 149.19273 187.04367 148.66148Q187.41867 148.11461 188.09055 147.80211Q188.76242 147.48961 189.59055 147.48961Q190.9968 147.48961 191.85617 148.39586Q192.5593 149.13023 192.5593 150.05211Q192.5593 151.38023 191.1218 152.16148Q191.98117 152.34898 192.4968 152.98961Q193.01242 153.63023 193.01242 154.53648Q193.01242 155.86461 192.04367 156.80211Q191.07492 157.72398 189.65305 157.72398Q188.29367 157.72398 187.38742 156.94273Q186.4968 156.16148 186.35617 154.89586ZM194.44992 154.97398L196.35617 154.77086Q196.44992 155.42711 196.84055 155.80211Q197.2468 156.17711 197.77805 156.17711Q198.3718 156.17711 198.79367 155.69273Q199.21555 155.20836 199.21555 154.22398Q199.21555 153.30211 198.79367 152.84898Q198.38742 152.38023 197.71555 152.38023Q196.88742 152.38023 196.23117 153.11461L194.6843 152.88023L195.66867 147.66148L200.7468 147.66148L200.7468 149.45836L197.1218 149.45836L196.82492 151.16148Q197.46555 150.84898 198.13742 150.84898Q199.40305 150.84898 200.29367 151.78648Q201.1843 152.70836 201.1843 154.19273Q201.1843 155.42711 200.46555 156.39586Q199.4968 157.72398 197.76242 157.72398Q196.3718 157.72398 195.4968 156.98961Q194.6218 156.23961 194.44992 154.97398Z" fill-rule="nonzero"/><path stroke="#ffffff" stroke-width="1.0" stroke-linejoin="round" stroke-linecap="round" d="M300.0 203.68333L300.0 54.916668C348.63092 54.916668 394.19174 78.68572 422.01428 118.57144C449.83685 158.45717 456.40823 209.42357 439.61282 255.06213" fill-rule="nonzero"/><path stroke="#ffffff" stroke-width="1.0" stroke-linejoin="round" stroke-linecap="round" d="M300.0 203.68333L439.61282 255.06213C429.66138 282.10345 412.07108 305.67282 388.9789 322.90695" fill-rule="nonzero"/><path stroke="#ffffff" stroke-width="1.0" stroke-linejoin="round" stroke-linecap="round" d="M300.0 203.68333L388.9789 322.90695C324.6212 370.9384 233.75905 359.22302 183.68953 296.43784" fill-rule="nonzero"/><path stroke="#ffffff" stroke-width="1.0" stroke-linejoin="round" stroke-linecap="round" d="M300.0 203.68333L183.68953 296.43784C148.06006 251.75987 141.17146 190.622 165.96587 139.1359C190.76025 87.6498 242.85475 54.916668 300.0 54.916668" fill-rule="nonzero"/><path fill="#000000" d="M23.425 134.70702L23.425 133.25389L27.159374 133.25389L27.159374 136.67577Q26.6125 137.20702 25.58125 137.61327Q24.55 138.00389 23.4875 138.00389Q22.14375 138.00389 21.128124 137.44139Q20.128124 136.87889 19.628124 135.83202Q19.128124 134.76952 19.128124 133.53514Q19.128124 132.19139 19.690624 131.16014Q20.253124 130.11327 21.33125 129.55077Q22.159374 129.12889 23.39375 129.12889Q24.9875 129.12889 25.878124 129.80077Q26.784374 130.47264 27.05 131.64452L25.33125 131.97264Q25.14375 131.34764 24.64375 130.98827Q24.14375 130.61327 23.39375 130.61327Q22.253124 130.61327 21.58125 131.33202Q20.909374 132.05077 20.909374 133.47264Q20.909374 135.00389 21.58125 135.76952Q22.26875 136.51952 23.378124 136.51952Q23.925 136.51952 24.471874 136.31639Q25.01875 136.09764 25.409374 135.80077L25.409374 134.70702L23.425 134.70702ZM28.9875 137.86327L27.346874 137.86327L27.346874 131.64452L28.878124 131.64452L28.878124 132.51952Q29.26875 131.89452 29.58125 131.70702Q29.89375 131.50389 30.284374 131.50389Q30.846874 131.50389 31.378124 131.81639L30.8625 133.23827Q30.440624 132.97264 30.096874 132.97264Q29.7375 132.97264 29.503124 133.17577Q29.26875 133.36327 29.128124 133.86327Q28.9875 134.34764 28.9875 135.94139L28.9875 137.86327ZM33.64375 133.53514L32.14375 133.26952Q32.39375 132.36327 33.003124 131.94139Q33.628124 131.50389 34.846874 131.50389Q35.940624 131.50389 36.471874 131.76952Q37.01875 132.01952 37.2375 132.42577Q37.45625 132.81639 37.45625 133.89452L37.440624 135.81639Q37.440624 136.64452 37.51875 137.03514Q37.596874 137.41014 37.815624 137.86327L36.190624 137.86327Q36.128124 137.69139 36.034374 137.37889Q35.9875 137.22264 35.971874 137.17577Q35.55 137.59764 35.065624 137.80077Q34.596874 138.00389 34.05 138.00389Q33.08125 138.00389 32.51875 137.48827Q31.971874 136.95702 31.971874 136.16014Q31.971874 135.62889 32.221874 135.22264Q32.4875 134.81639 32.940624 134.59764Q33.39375 134.36327 34.253124 134.20702Q35.39375 133.98827 35.846874 133.80077L35.846874 133.64452Q35.846874 133.16014 35.6125 132.95702Q35.378124 132.75389 34.721874 132.75389Q34.284374 132.75389 34.034374 132.92577Q33.8 133.09764 33.64375 133.53514ZM35.846874 134.87889Q35.534374 134.97264 34.846874 135.12889Q34.159374 135.26952 33.940624 135.41014Q33.628124 135.64452 33.628124 135.98827Q33.628124 136.33202 33.878124 136.59764Q34.14375 136.84764 34.534374 136.84764Q34.9875 136.84764 35.39375 136.55077Q35.690624 136.33202 35.784374 136.00389Q35.846874 135.80077 35.846874 135.20702L35.846874 134.87889ZM41.128124 137.86327L38.6125 131.64452L40.346874 131.64452L41.51875 134.81639L41.8625 135.87889Q41.9875 135.47264 42.01875 135.34764Q42.1125 135.08202 42.20625 134.81639L43.378124 131.64452L45.08125 131.64452L42.6125 137.86327L41.128124 137.86327ZM49.01875 135.87889L50.659374 136.16014Q50.346874 137.06639 49.659374 137.53514Q48.971874 138.00389 47.95625 138.00389Q46.33125 138.00389 45.55 136.94139Q44.925 136.09764 44.925 134.80077Q44.925 133.25389 45.7375 132.37889Q46.55 131.50389 47.784374 131.50389Q49.175 131.50389 49.971874 132.42577Q50.784374 133.33202 50.7375 135.22264L46.6125 135.22264Q46.64375 135.95702 47.01875 136.36327Q47.39375 136.76952 47.971874 136.76952Q48.346874 136.76952 48.6125 136.56639Q48.878124 136.34764 49.01875 135.87889ZM49.1125 134.22264Q49.096874 133.50389 48.7375 133.12889Q48.39375 132.75389 47.878124 132.75389Q47.346874 132.75389 46.9875 133.14452Q46.64375 133.55077 46.64375 134.22264L49.1125 134.22264Z" fill-rule="nonzero"/><path fill="#9e9e9e" d="M19.003124 152.58202L20.596874 152.39452Q20.675 153.00389 21.003124 153.33202Q21.346874 153.64452 21.815624 153.64452Q22.33125 153.64452 22.675 153.25389Q23.01875 152.86327 23.01875 152.20702Q23.01875 151.59764 22.675 151.23827Q22.346874 150.86327 21.878124 150.86327Q21.55 150.86327 21.1125 150.98827L21.3 149.64452Q21.971874 149.66014 22.315624 149.36327Q22.675 149.05077 22.675 148.53514Q22.675 148.11327 22.409374 147.86327Q22.159374 147.59764 21.721874 147.59764Q21.3 147.59764 21.003124 147.89452Q20.70625 148.17577 20.64375 148.73827L19.128124 148.48827Q19.284374 147.70702 19.596874 147.23827Q19.925 146.76952 20.4875 146.50389Q21.065624 146.23827 21.76875 146.23827Q22.9875 146.23827 23.721874 147.00389Q24.315624 147.64452 24.315624 148.44139Q24.315624 149.56639 23.08125 150.23827Q23.83125 150.41014 24.26875 150.95702Q24.70625 151.50389 24.70625 152.28514Q24.70625 153.41014 23.878124 154.20702Q23.05 155.00389 21.83125 155.00389Q20.659374 155.00389 19.89375 154.33202Q19.128124 153.66014 19.003124 152.58202ZM26.08125 152.66014L27.721874 152.48827Q27.8 153.03514 28.14375 153.36327Q28.4875 153.69139 28.940624 153.69139Q29.45625 153.69139 29.815624 153.26952Q30.175 152.84764 30.175 152.00389Q30.175 151.22264 29.815624 150.83202Q29.45625 150.42577 28.89375 150.42577Q28.175 150.42577 27.6125 151.05077L26.284374 150.86327L27.128124 146.39452L31.4875 146.39452L31.4875 147.92577L28.378124 147.92577L28.1125 149.39452Q28.675 149.11327 29.2375 149.11327Q30.33125 149.11327 31.096874 149.91014Q31.8625 150.70702 31.8625 151.97264Q31.8625 153.03514 31.253124 153.87889Q30.409374 155.00389 28.925 155.00389Q27.7375 155.00389 26.9875 154.37889Q26.2375 153.73827 26.08125 152.66014ZM33.378124 153.22264L35.01875 153.22264L35.01875 154.39452Q35.01875 155.11327 34.89375 155.51952Q34.76875 155.94139 34.425 156.26952Q34.08125 156.59764 33.565624 156.78514L33.2375 156.09764Q33.7375 155.94139 33.940624 155.64452Q34.159374 155.36327 34.175 154.86327L33.378124 154.86327L33.378124 153.22264ZM36.065624 147.92577L36.065624 146.39452L41.690624 146.39452L41.690624 147.58202Q40.9875 148.26952 40.26875 149.55077Q39.55 150.83202 39.175 152.28514Q38.8 153.72264 38.8 154.86327L37.221874 154.86327Q37.253124 153.08202 37.940624 151.23827Q38.64375 149.37889 39.8 147.92577L36.065624 147.92577ZM43.065624 148.39452Q43.065624 147.23827 43.565624 146.69139Q44.08125 146.12889 44.95625 146.12889Q45.846874 146.12889 46.346874 146.69139Q46.8625 147.23827 46.8625 148.39452Q46.8625 149.55077 46.346874 150.11327Q45.846874 150.66014 44.9875 150.66014Q44.08125 150.66014 43.565624 150.11327Q43.065624 149.55077 43.065624 148.39452ZM44.3625 148.37889Q44.3625 149.22264 44.55 149.50389Q44.690624 149.72264 44.95625 149.72264Q45.221874 149.72264 45.3625 149.50389Q45.55 149.22264 45.55 148.37889Q45.55 147.55077 45.3625 147.26952Q45.221874 147.05077 44.95625 147.05077Q44.690624 147.05077 44.55 147.25389Q44.3625 147.55077 44.3625 148.37889ZM46.20625 155.19139L44.9875 155.19139L49.565624 146.12889L50.753124 146.12889L46.20625 155.19139ZM48.8625 152.94139Q48.8625 151.78514 49.3625 151.22264Q49.878124 150.66014 50.753124 150.66014Q51.64375 150.66014 52.14375 151.22264Q52.659374 151.78514 52.659374 152.94139Q52.659374 154.09764 52.14375 154.66014Q51.64375 155.20702 50.784374 155.20702Q49.878124 155.20702 49.3625 154.66014Q48.8625 154.09764 48.8625 152.94139ZM50.14375 152.92577Q50.14375 153.76952 50.346874 154.05077Q50.4875 154.26952 50.753124 154.26952Q51.01875 154.26952 51.159374 154.05077Q51.346874 153.76952 51.346874 152.92577Q51.346874 152.09764 51.159374 151.80077Q51.01875 151.59764 50.753124 151.59764Q50.4875 151.59764 50.346874 151.80077Q50.14375 152.09764 50.14375 152.92577Z" fill-rule="nonzero"/><path stroke="#757575" stroke-width="1.0" stroke-linecap="butt" d="M18.55 142.36327L145.23334 142.36327L172.66757 142.36327" fill-rule="nonzero"/><path fill="#9e9e9e" d="M174.66757 142.36327C174.66757 141.2587 173.77214 140.36327 172.66757 140.36327C171.563 140.36327 170.66757 141.2587 170.66757 142.36327C170.66757 143.46783 171.563 144.36327 172.66757 144.36327C173.77214 144.36327 174.66757 143.46783 174.66757 142.36327" fill-rule="nonzero"/><path fill="#000000" d="M19.471874 332.45L19.471874 323.9344L21.20625 323.9344L21.20625 330.9969L25.51875 330.9969L25.51875 332.45L19.471874 332.45ZM30.01875 330.46564L31.659374 330.7469Q31.346874 331.65314 30.659374 332.1219Q29.971874 332.59064 28.95625 332.59064Q27.33125 332.59064 26.55 331.52814Q25.925 330.6844 25.925 329.3875Q25.925 327.84064 26.7375 326.96564Q27.55 326.09064 28.784374 326.09064Q30.175 326.09064 30.971874 327.0125Q31.784374 327.91876 31.7375 329.8094L27.6125 329.8094Q27.64375 330.54376 28.01875 330.95Q28.39375 331.35626 28.971874 331.35626Q29.346874 331.35626 29.6125 331.15314Q29.878124 330.9344 30.01875 330.46564ZM30.1125 328.8094Q30.096874 328.09064 29.7375 327.71564Q29.39375 327.34064 28.878124 327.34064Q28.346874 327.34064 27.9875 327.73126Q27.64375 328.1375 27.64375 328.8094L30.1125 328.8094ZM35.128124 332.45L32.6125 326.23126L34.346874 326.23126L35.51875 329.40314L35.8625 330.46564Q35.9875 330.0594 36.01875 329.9344Q36.1125 329.66876 36.20625 329.40314L37.378124 326.23126L39.08125 326.23126L36.6125 332.45L35.128124 332.45ZM43.01875 330.46564L44.659374 330.7469Q44.346874 331.65314 43.659374 332.1219Q42.971874 332.59064 41.95625 332.59064Q40.33125 332.59064 39.55 331.52814Q38.925 330.6844 38.925 329.3875Q38.925 327.84064 39.7375 326.96564Q40.55 326.09064 41.784374 326.09064Q43.175 326.09064 43.971874 327.0125Q44.784374 327.91876 44.7375 329.8094L40.6125 329.8094Q40.64375 330.54376 41.01875 330.95Q41.39375 331.35626 41.971874 331.35626Q42.346874 331.35626 42.6125 331.15314Q42.878124 330.9344 43.01875 330.46564ZM43.1125 328.8094Q43.096874 328.09064 42.7375 327.71564Q42.39375 327.34064 41.878124 327.34064Q41.346874 327.34064 40.9875 327.73126Q40.64375 328.1375 40.64375 328.8094L43.1125 328.8094Z" fill-rule="nonzero"/><path fill="#9e9e9e" d="M24.628124 347.91876L24.628124 349.45L18.846874 349.45Q18.940624 348.575 19.409374 347.8094Q19.878124 347.02814 21.26875 345.7469Q22.378124 344.71564 22.628124 344.34064Q22.971874 343.825 22.971874 343.325Q22.971874 342.77814 22.675 342.48126Q22.378124 342.1844 21.8625 342.1844Q21.346874 342.1844 21.034374 342.4969Q20.7375 342.8094 20.690624 343.52814L19.05 343.3719Q19.190624 342.0125 19.95625 341.41876Q20.7375 340.825 21.89375 340.825Q23.175 340.825 23.89375 341.5125Q24.628124 342.2 24.628124 343.21564Q24.628124 343.79376 24.409374 344.325Q24.20625 344.84064 23.753124 345.41876Q23.45625 345.79376 22.675 346.5125Q21.89375 347.23126 21.690624 347.46564Q21.4875 347.7 21.346874 347.91876L24.628124 347.91876ZM29.284374 349.45L29.284374 347.71564L25.76875 347.71564L25.76875 346.27814L29.503124 340.825L30.878124 340.825L30.878124 346.27814L31.95625 346.27814L31.95625 347.71564L30.878124 347.71564L30.878124 349.45L29.284374 349.45ZM29.284374 346.27814L29.284374 343.34064L27.315624 346.27814L29.284374 346.27814ZM33.378124 347.8094L35.01875 347.8094L35.01875 348.98126Q35.01875 349.7 34.89375 350.10626Q34.76875 350.52814 34.425 350.85626Q34.08125 351.1844 33.565624 351.3719L33.2375 350.6844Q33.7375 350.52814 33.940624 350.23126Q34.159374 349.95 34.175 349.45L33.378124 349.45L33.378124 347.8094ZM36.08125 347.2469L37.721874 347.075Q37.8 347.6219 38.14375 347.95Q38.4875 348.27814 38.940624 348.27814Q39.45625 348.27814 39.815624 347.85626Q40.175 347.4344 40.175 346.59064Q40.175 345.8094 39.815624 345.41876Q39.45625 345.0125 38.89375 345.0125Q38.175 345.0125 37.6125 345.6375L36.284374 345.45L37.128124 340.98126L41.4875 340.98126L41.4875 342.5125L38.378124 342.5125L38.1125 343.98126Q38.675 343.7 39.2375 343.7Q40.33125 343.7 41.096874 344.4969Q41.8625 345.29376 41.8625 346.5594Q41.8625 347.6219 41.253124 348.46564Q40.409374 349.59064 38.925 349.59064Q37.7375 349.59064 36.9875 348.96564Q36.2375 348.325 36.08125 347.2469ZM43.065624 342.98126Q43.065624 341.825 43.565624 341.27814Q44.08125 340.71564 44.95625 340.71564Q45.846874 340.71564 46.346874 341.27814Q46.8625 341.825 46.8625 342.98126Q46.8625 344.1375 46.346874 344.7Q45.846874 345.2469 44.9875 345.2469Q44.08125 345.2469 43.565624 344.7Q43.065624 344.1375 43.065624 342.98126ZM44.3625 342.96564Q44.3625 343.8094 44.55 344.09064Q44.690624 344.3094 44.95625 344.3094Q45.221874 344.3094 45.3625 344.09064Q45.55 343.8094 45.55 342.96564Q45.55 342.1375 45.3625 341.85626Q45.221874 341.6375 44.95625 341.6375Q44.690624 341.6375 44.55 341.84064Q44.3625 342.1375 44.3625 342.96564ZM46.20625 349.77814L44.9875 349.77814L49.565624 340.71564L50.753124 340.71564L46.20625 349.77814ZM48.8625 347.52814Q48.8625 346.3719 49.3625 345.8094Q49.878124 345.2469 50.753124 345.2469Q51.64375 345.2469 52.14375 345.8094Q52.659374 346.3719 52.659374 347.52814Q52.659374 348.6844 52.14375 349.2469Q51.64375 349.79376 50.784374 349.79376Q49.878124 349.79376 49.3625 349.2469Q48.8625 348.6844 48.8625 347.52814ZM50.14375 347.5125Q50.14375 348.35626 50.346874 348.6375Q50.4875 348.85626 50.753124 348.85626Q51.01875 348.85626 51.159374 348.6375Q51.346874 348.35626 51.346874 347.5125Q51.346874 346.6844 51.159374 346.3875Q51.01875 346.1844 50.753124 346.1844Q50.4875 346.1844 50.346874 346.3875Q50.14375 346.6844 50.14375 347.5125Z" fill-rule="nonzero"/><path stroke="#757575" stroke-width="1.0" stroke-linecap="butt" d="M18.55 336.95L145.23334 336.95L281.92734 343.85135" fill-rule="nonzero"/><path fill="#9e9e9e" d="M283.92734 343.85135C283.92734 342.7468 283.0319 341.85135 281.92734 341.85135C280.82275 341.85135 279.92734 342.7468 279.92734 343.85135C279.92734 344.95593 280.82275 345.85135 281.92734 345.85135C283.0319 345.85135 283.92734 344.95593 283.92734 343.85135" fill-rule="nonzero"/><path fill="#000000" d="M525.29376 118.32704L525.29376 109.73329L527.90314 109.73329L529.45 115.59267L530.9969 109.73329L533.59064 109.73329L533.59064 118.32704L531.98126 118.32704L531.98126 111.56142L530.27814 118.32704L528.60626 118.32704L526.91876 111.56142L526.91876 118.32704L525.29376 118.32704ZM534.9344 115.12392Q534.9344 114.31142 535.34064 113.54579Q535.7469 112.76454 536.48126 112.37392Q537.21564 111.96767 538.1375 111.96767Q539.54376 111.96767 540.45 112.88954Q541.35626 113.79579 541.35626 115.20204Q541.35626 116.60829 540.4344 117.54579Q539.52814 118.46767 538.15314 118.46767Q537.29376 118.46767 536.5125 118.07704Q535.7469 117.68642 535.34064 116.95204Q534.9344 116.20204 534.9344 115.12392ZM536.6219 115.21767Q536.6219 116.13954 537.0594 116.63954Q537.4969 117.12392 538.1375 117.12392Q538.79376 117.12392 539.21564 116.63954Q539.65314 116.13954 539.65314 115.20204Q539.65314 114.29579 539.21564 113.81142Q538.79376 113.31142 538.1375 113.31142Q537.4969 113.31142 537.0594 113.81142Q536.6219 114.29579 536.6219 115.21767ZM548.0125 118.32704L546.4969 118.32704L546.4969 117.40517Q546.10626 117.95204 545.59064 118.21767Q545.075 118.46767 544.54376 118.46767Q543.46564 118.46767 542.7 117.60829Q541.95 116.73329 541.95 115.18642Q541.95 113.60829 542.6844 112.79579Q543.4344 111.96767 544.575 111.96767Q545.60626 111.96767 546.3719 112.82704L546.3719 109.73329L548.0125 109.73329L548.0125 118.32704ZM543.6219 115.07704Q543.6219 116.07704 543.90314 116.51454Q544.29376 117.17079 545.0125 117.17079Q545.575 117.17079 545.96564 116.68642Q546.3719 116.20204 546.3719 115.23329Q546.3719 114.17079 545.98126 113.70204Q545.60626 113.21767 544.9969 113.21767Q544.41876 113.21767 544.0125 113.68642Q543.6219 114.15517 543.6219 115.07704ZM552.91876 116.34267L554.5594 116.62392Q554.2469 117.53017 553.5594 117.99892Q552.8719 118.46767 551.85626 118.46767Q550.23126 118.46767 549.45 117.40517Q548.825 116.56142 548.825 115.26454Q548.825 113.71767 549.6375 112.84267Q550.45 111.96767 551.6844 111.96767Q553.075 111.96767 553.8719 112.88954Q554.6844 113.79579 554.6375 115.68642L550.5125 115.68642Q550.54376 116.42079 550.91876 116.82704Q551.29376 117.23329 551.8719 117.23329Q552.2469 117.23329 552.5125 117.03017Q552.77814 116.81142 552.91876 116.34267ZM553.0125 114.68642Q552.9969 113.96767 552.6375 113.59267Q552.29376 113.21767 551.77814 113.21767Q551.2469 113.21767 550.8875 113.60829Q550.54376 114.01454 550.54376 114.68642L553.0125 114.68642ZM557.8875 118.32704L556.2469 118.32704L556.2469 112.10829L557.77814 112.10829L557.77814 112.98329Q558.16876 112.35829 558.48126 112.17079Q558.79376 111.96767 559.1844 111.96767Q559.7469 111.96767 560.27814 112.28017L559.7625 113.70204Q559.34064 113.43642 558.9969 113.43642Q558.6375 113.43642 558.40314 113.63954Q558.16876 113.82704 558.02814 114.32704Q557.8875 114.81142 557.8875 116.40517L557.8875 118.32704ZM562.54376 113.99892L561.04376 113.73329Q561.29376 112.82704 561.90314 112.40517Q562.52814 111.96767 563.7469 111.96767Q564.84064 111.96767 565.3719 112.23329Q565.91876 112.48329 566.1375 112.88954Q566.35626 113.28017 566.35626 114.35829L566.34064 116.28017Q566.34064 117.10829 566.41876 117.49892Q566.4969 117.87392 566.71564 118.32704L565.09064 118.32704Q565.02814 118.15517 564.9344 117.84267Q564.8875 117.68642 564.8719 117.63954Q564.45 118.06142 563.96564 118.26454Q563.4969 118.46767 562.95 118.46767Q561.98126 118.46767 561.41876 117.95204Q560.8719 117.42079 560.8719 116.62392Q560.8719 116.09267 561.1219 115.68642Q561.3875 115.28017 561.84064 115.06142Q562.29376 114.82704 563.15314 114.67079Q564.29376 114.45204 564.7469 114.26454L564.7469 114.10829Q564.7469 113.62392 564.5125 113.42079Q564.27814 113.21767 563.6219 113.21767Q563.1844 113.21767 562.9344 113.38954Q562.7 113.56142 562.54376 113.99892ZM564.7469 115.34267Q564.4344 115.43642 563.7469 115.59267Q563.0594 115.73329 562.84064 115.87392Q562.52814 116.10829 562.52814 116.45204Q562.52814 116.79579 562.77814 117.06142Q563.04376 117.31142 563.4344 117.31142Q563.8875 117.31142 564.29376 117.01454Q564.59064 116.79579 564.6844 116.46767Q564.7469 116.26454 564.7469 115.67079L564.7469 115.34267ZM574.0125 118.32704L572.4969 118.32704L572.4969 117.40517Q572.10626 117.95204 571.59064 118.21767Q571.075 118.46767 570.54376 118.46767Q569.46564 118.46767 568.7 117.60829Q567.95 116.73329 567.95 115.18642Q567.95 113.60829 568.6844 112.79579Q569.4344 111.96767 570.575 111.96767Q571.60626 111.96767 572.3719 112.82704L572.3719 109.73329L574.0125 109.73329L574.0125 118.32704ZM569.6219 115.07704Q569.6219 116.07704 569.90314 116.51454Q570.29376 117.17079 571.0125 117.17079Q571.575 117.17079 571.96564 116.68642Q572.3719 116.20204 572.3719 115.23329Q572.3719 114.17079 571.98126 113.70204Q571.60626 113.21767 570.9969 113.21767Q570.41876 113.21767 570.0125 113.68642Q569.6219 114.15517 569.6219 115.07704ZM576.54376 113.99892L575.04376 113.73329Q575.29376 112.82704 575.90314 112.40517Q576.52814 111.96767 577.7469 111.96767Q578.84064 111.96767 579.3719 112.23329Q579.91876 112.48329 580.1375 112.88954Q580.35626 113.28017 580.35626 114.35829L580.34064 116.28017Q580.34064 117.10829 580.41876 117.49892Q580.4969 117.87392 580.71564 118.32704L579.09064 118.32704Q579.02814 118.15517 578.9344 117.84267Q578.8875 117.68642 578.8719 117.63954Q578.45 118.06142 577.96564 118.26454Q577.4969 118.46767 576.95 118.46767Q575.98126 118.46767 575.41876 117.95204Q574.8719 117.42079 574.8719 116.62392Q574.8719 116.09267 575.1219 115.68642Q575.3875 115.28017 575.84064 115.06142Q576.29376 114.82704 577.15314 114.67079Q578.29376 114.45204 578.7469 114.26454L578.7469 114.10829Q578.7469 113.62392 578.5125 113.42079Q578.27814 113.21767 577.6219 113.21767Q577.1844 113.21767 576.9344 113.38954Q576.7 113.56142 576.54376 113.99892ZM578.7469 115.34267Q578.4344 115.43642 577.7469 115.59267Q577.0594 115.73329 576.84064 115.87392Q576.52814 116.10829 576.52814 116.45204Q576.52814 116.79579 576.77814 117.06142Q577.04376 117.31142 577.4344 117.31142Q577.8875 117.31142 578.29376 117.01454Q578.59064 116.79579 578.6844 116.46767Q578.7469 116.26454 578.7469 115.67079L578.7469 115.34267Z" fill-rule="nonzero"/><path fill="#9e9e9e" d="M548.90314 133.04579L550.4969 132.85829Q550.575 133.46767 550.90314 133.79579Q551.2469 134.10829 551.71564 134.10829Q552.23126 134.10829 552.575 133.71767Q552.91876 133.32704 552.91876 132.67079Q552.91876 132.06142 552.575 131.70204Q552.2469 131.32704 551.77814 131.32704Q551.45 131.32704 551.0125 131.45204L551.2 130.10829Q551.8719 130.12392 552.21564 129.82704Q552.575 129.51454 552.575 128.99892Q552.575 128.57704 552.3094 128.32704Q552.0594 128.06142 551.6219 128.06142Q551.2 128.06142 550.90314 128.35829Q550.60626 128.63954 550.54376 129.20204L549.02814 128.95204Q549.1844 128.17079 549.4969 127.70204Q549.825 127.23329 550.3875 126.96767Q550.96564 126.70204 551.66876 126.70204Q552.8875 126.70204 553.6219 127.46767Q554.21564 128.10829 554.21564 128.90517Q554.21564 130.03017 552.98126 130.70204Q553.73126 130.87392 554.16876 131.42079Q554.60626 131.96767 554.60626 132.74892Q554.60626 133.87392 553.77814 134.67079Q552.95 135.46767 551.73126 135.46767Q550.5594 135.46767 549.79376 134.79579Q549.02814 134.12392 548.90314 133.04579ZM558.7469 126.70204Q559.9969 126.70204 560.7 127.59267Q561.52814 128.63954 561.52814 131.09267Q561.52814 133.53017 560.6844 134.59267Q559.9969 135.46767 558.7469 135.46767Q557.4969 135.46767 556.71564 134.51454Q555.95 133.54579 555.95 131.07704Q555.95 128.63954 556.79376 127.57704Q557.4969 126.70204 558.7469 126.70204ZM558.7469 128.06142Q558.45 128.06142 558.21564 128.26454Q557.98126 128.45204 557.84064 128.93642Q557.6844 129.57704 557.6844 131.09267Q557.6844 132.60829 557.825 133.17079Q557.98126 133.73329 558.21564 133.92079Q558.45 134.10829 558.7469 134.10829Q559.04376 134.10829 559.27814 133.92079Q559.5125 133.73329 559.6375 133.23329Q559.8094 132.60829 559.8094 131.09267Q559.8094 129.57704 559.65314 129.01454Q559.5125 128.45204 559.27814 128.26454Q559.04376 128.06142 558.7469 128.06142ZM563.27814 133.68642L564.91876 133.68642L564.91876 134.85829Q564.91876 135.57704 564.79376 135.98329Q564.66876 136.40517 564.325 136.73329Q563.98126 137.06142 563.46564 137.24892L563.1375 136.56142Q563.6375 136.40517 563.84064 136.10829Q564.0594 135.82704 564.075 135.32704L563.27814 135.32704L563.27814 133.68642ZM571.54376 128.84267L569.95 129.01454Q569.8875 128.53017 569.6375 128.29579Q569.3875 128.06142 568.9969 128.06142Q568.48126 128.06142 568.1219 128.53017Q567.7625 128.99892 567.66876 130.46767Q568.27814 129.74892 569.2 129.74892Q570.23126 129.74892 570.96564 130.53017Q571.7 131.31142 571.7 132.56142Q571.7 133.87392 570.91876 134.67079Q570.15314 135.46767 568.9344 135.46767Q567.6375 135.46767 566.79376 134.46767Q565.96564 133.45204 565.96564 131.15517Q565.96564 128.78017 566.825 127.74892Q567.7 126.70204 569.10626 126.70204Q570.075 126.70204 570.71564 127.24892Q571.35626 127.79579 571.54376 128.84267ZM567.8094 132.43642Q567.8094 133.23329 568.16876 133.67079Q568.54376 134.10829 569.0125 134.10829Q569.48126 134.10829 569.77814 133.74892Q570.09064 133.38954 570.09064 132.57704Q570.09064 131.73329 569.7625 131.35829Q569.4344 130.96767 568.9344 130.96767Q568.46564 130.96767 568.1375 131.34267Q567.8094 131.70204 567.8094 132.43642ZM572.96564 128.85829Q572.96564 127.70204 573.46564 127.15517Q573.98126 126.59267 574.85626 126.59267Q575.7469 126.59267 576.2469 127.15517Q576.7625 127.70204 576.7625 128.85829Q576.7625 130.01454 576.2469 130.57704Q575.7469 131.12392 574.8875 131.12392Q573.98126 131.12392 573.46564 130.57704Q572.96564 130.01454 572.96564 128.85829ZM574.2625 128.84267Q574.2625 129.68642 574.45 129.96767Q574.59064 130.18642 574.85626 130.18642Q575.1219 130.18642 575.2625 129.96767Q575.45 129.68642 575.45 128.84267Q575.45 128.01454 575.2625 127.73329Q575.1219 127.51454 574.85626 127.51454Q574.59064 127.51454 574.45 127.71767Q574.2625 128.01454 574.2625 128.84267ZM576.10626 135.65517L574.8875 135.65517L579.46564 126.59267L580.65314 126.59267L576.10626 135.65517ZM578.7625 133.40517Q578.7625 132.24892 579.2625 131.68642Q579.77814 131.12392 580.65314 131.12392Q581.54376 131.12392 582.04376 131.68642Q582.5594 132.24892 582.5594 133.40517Q582.5594 134.56142 582.04376 135.12392Q581.54376 135.67079 580.6844 135.67079Q579.77814 135.67079 579.2625 135.12392Q578.7625 134.56142 578.7625 133.40517ZM580.04376 133.38954Q580.04376 134.23329 580.2469 134.51454Q580.3875 134.73329 580.65314 134.73329Q580.91876 134.73329 581.0594 134.51454Q581.2469 134.23329 581.2469 133.38954Q581.2469 132.56142 581.0594 132.26454Q580.91876 132.06142 580.65314 132.06142Q580.3875 132.06142 580.2469 132.26454Q580.04376 132.56142 580.04376 133.38954Z" fill-rule="nonzero"/><path stroke="#757575" stroke-width="1.0" stroke-linecap="butt" d="M581.45 122.82704L454.76666 122.82704L415.91357 122.82704" fill-rule="nonzero"/><path fill="#9e9e9e" d="M417.91357 122.82704C417.91357 121.72247 417.01816 120.82704 415.91357 120.82704C414.80902 120.82704 413.91357 121.72247 413.91357 122.82704C413.91357 123.93161 414.80902 124.82704 415.91357 124.82704C417.01816 124.82704 417.91357 123.93161 417.91357 122.82704" fill-rule="nonzero"/><path fill="#000000" d="M538.325 275.11954L541.7625 275.11954Q542.77814 275.11954 543.27814 275.2133Q543.77814 275.2914 544.16876 275.57266Q544.575 275.8383 544.84064 276.2914Q545.10626 276.7289 545.10626 277.2914Q545.10626 277.88516 544.77814 278.4008Q544.45 278.9008 543.90314 279.1508Q544.6844 279.36954 545.10626 279.93204Q545.52814 280.4789 545.52814 281.2289Q545.52814 281.80704 545.2469 282.36954Q544.98126 282.9164 544.5125 283.24454Q544.04376 283.57266 543.34064 283.6508Q542.91876 283.69766 541.2469 283.7133L538.325 283.7133L538.325 275.11954ZM540.0594 276.55704L540.0594 278.5414L541.2 278.5414Q542.21564 278.5414 542.46564 278.51016Q542.90314 278.4633 543.15314 278.2133Q543.41876 277.94766 543.41876 277.5258Q543.41876 277.13516 543.2 276.88516Q542.98126 276.63516 542.54376 276.5883Q542.27814 276.55704 541.0594 276.55704L540.0594 276.55704ZM540.0594 279.9633L540.0594 282.26016L541.66876 282.26016Q542.60626 282.26016 542.85626 282.2133Q543.2469 282.13516 543.48126 281.86954Q543.73126 281.6039 543.73126 281.13516Q543.73126 280.76016 543.54376 280.49454Q543.35626 280.2133 542.9969 280.0883Q542.65314 279.9633 541.46564 279.9633L540.0594 279.9633ZM546.3094 283.7133L546.3094 275.11954L547.96564 275.11954L547.96564 283.7133L546.3094 283.7133ZM548.9344 280.51016Q548.9344 279.69766 549.34064 278.93204Q549.7469 278.1508 550.48126 277.76016Q551.21564 277.3539 552.1375 277.3539Q553.54376 277.3539 554.45 278.2758Q555.35626 279.18204 555.35626 280.5883Q555.35626 281.99454 554.4344 282.93204Q553.52814 283.8539 552.15314 283.8539Q551.29376 283.8539 550.5125 283.4633Q549.7469 283.07266 549.34064 282.3383Q548.9344 281.5883 548.9344 280.51016ZM550.6219 280.6039Q550.6219 281.5258 551.0594 282.0258Q551.4969 282.51016 552.1375 282.51016Q552.79376 282.51016 553.21564 282.0258Q553.65314 281.5258 553.65314 280.5883Q553.65314 279.68204 553.21564 279.19766Q552.79376 278.69766 552.1375 278.69766Q551.4969 278.69766 551.0594 279.19766Q550.6219 279.68204 550.6219 280.6039ZM561.73126 279.32266L560.1219 279.61954Q560.02814 279.13516 559.73126 278.9008Q559.45 278.6508 558.9969 278.6508Q558.3719 278.6508 557.9969 279.07266Q557.6375 279.49454 557.6375 280.49454Q557.6375 281.6039 558.0125 282.05704Q558.3875 282.51016 559.0125 282.51016Q559.48126 282.51016 559.77814 282.24454Q560.075 281.9789 560.2 281.32266L561.825 281.6039Q561.575 282.7133 560.85626 283.2914Q560.1375 283.8539 558.9344 283.8539Q557.575 283.8539 556.7625 282.99454Q555.95 282.13516 555.95 280.6039Q555.95 279.07266 556.7625 278.2133Q557.575 277.3539 558.96564 277.3539Q560.10626 277.3539 560.77814 277.8383Q561.45 278.32266 561.73126 279.32266ZM563.2469 283.7133L563.2469 275.11954L564.90314 275.11954L564.90314 279.68204L566.825 277.49454L568.85626 277.49454L566.73126 279.76016L569.0125 283.7133L567.23126 283.7133L565.66876 280.9164L564.90314 281.7133L564.90314 283.7133L563.2469 283.7133ZM573.91876 281.7289L575.5594 282.01016Q575.2469 282.9164 574.5594 283.38516Q573.8719 283.8539 572.85626 283.8539Q571.23126 283.8539 570.45 282.7914Q569.825 281.94766 569.825 280.6508Q569.825 279.1039 570.6375 278.2289Q571.45 277.3539 572.6844 277.3539Q574.075 277.3539 574.8719 278.2758Q575.6844 279.18204 575.6375 281.07266L571.5125 281.07266Q571.54376 281.80704 571.91876 282.2133Q572.29376 282.61954 572.8719 282.61954Q573.2469 282.61954 573.5125 282.4164Q573.77814 282.19766 573.91876 281.7289ZM574.0125 280.07266Q573.9969 279.3539 573.6375 278.9789Q573.29376 278.6039 572.77814 278.6039Q572.2469 278.6039 571.8875 278.99454Q571.54376 279.4008 571.54376 280.07266L574.0125 280.07266ZM578.8875 283.7133L577.2469 283.7133L577.2469 277.49454L578.77814 277.49454L578.77814 278.36954Q579.16876 277.74454 579.48126 277.55704Q579.79376 277.3539 580.1844 277.3539Q580.7469 277.3539 581.27814 277.6664L580.7625 279.0883Q580.34064 278.82266 579.9969 278.82266Q579.6375 278.82266 579.40314 279.0258Q579.16876 279.2133 579.02814 279.7133Q578.8875 280.19766 578.8875 281.7914L578.8875 283.7133Z" fill-rule="nonzero"/><path fill="#9e9e9e" d="M555.9969 298.7289L557.59064 298.55704Q557.65314 299.0414 557.8875 299.2758Q558.1375 299.51016 558.54376 299.51016Q559.0594 299.51016 559.40314 299.0414Q559.7625 298.57266 559.8719 297.0883Q559.2469 297.80704 558.3094 297.80704Q557.3094 297.80704 556.5594 297.0258Q555.825 296.24454 555.825 294.99454Q555.825 293.68204 556.60626 292.88516Q557.3875 292.0883 558.59064 292.0883Q559.8875 292.0883 560.73126 293.1039Q561.575 294.1039 561.575 296.4164Q561.575 298.7758 560.7 299.82266Q559.825 300.86954 558.41876 300.86954Q557.41876 300.86954 556.79376 300.3383Q556.16876 299.7914 555.9969 298.7289ZM559.71564 295.13516Q559.71564 294.3383 559.35626 293.9008Q558.9969 293.44766 558.5125 293.44766Q558.0594 293.44766 557.7469 293.80704Q557.45 294.1664 557.45 294.99454Q557.45 295.82266 557.77814 296.2133Q558.10626 296.6039 558.59064 296.6039Q559.075 296.6039 559.3875 296.2289Q559.71564 295.8539 559.71564 295.13516ZM563.27814 299.07266L564.91876 299.07266L564.91876 300.24454Q564.91876 300.9633 564.79376 301.36954Q564.66876 301.7914 564.325 302.11954Q563.98126 302.44766 563.46564 302.63516L563.1375 301.94766Q563.6375 301.7914 563.84064 301.49454Q564.0594 301.2133 564.075 300.7133L563.27814 300.7133L563.27814 299.07266ZM571.52814 299.18204L571.52814 300.7133L565.7469 300.7133Q565.84064 299.8383 566.3094 299.07266Q566.77814 298.2914 568.16876 297.01016Q569.27814 295.9789 569.52814 295.6039Q569.8719 295.0883 569.8719 294.5883Q569.8719 294.0414 569.575 293.74454Q569.27814 293.44766 568.7625 293.44766Q568.2469 293.44766 567.9344 293.76016Q567.6375 294.07266 567.59064 294.7914L565.95 294.63516Q566.09064 293.2758 566.85626 292.68204Q567.6375 292.0883 568.79376 292.0883Q570.075 292.0883 570.79376 292.7758Q571.52814 293.4633 571.52814 294.4789Q571.52814 295.05704 571.3094 295.5883Q571.10626 296.1039 570.65314 296.68204Q570.35626 297.05704 569.575 297.7758Q568.79376 298.49454 568.59064 298.7289Q568.3875 298.9633 568.2469 299.18204L571.52814 299.18204ZM572.96564 294.24454Q572.96564 293.0883 573.46564 292.5414Q573.98126 291.9789 574.85626 291.9789Q575.7469 291.9789 576.2469 292.5414Q576.7625 293.0883 576.7625 294.24454Q576.7625 295.4008 576.2469 295.9633Q575.7469 296.51016 574.8875 296.51016Q573.98126 296.51016 573.46564 295.9633Q572.96564 295.4008 572.96564 294.24454ZM574.2625 294.2289Q574.2625 295.07266 574.45 295.3539Q574.59064 295.57266 574.85626 295.57266Q575.1219 295.57266 575.2625 295.3539Q575.45 295.07266 575.45 294.2289Q575.45 293.4008 575.2625 293.11954Q575.1219 292.9008 574.85626 292.9008Q574.59064 292.9008 574.45 293.1039Q574.2625 293.4008 574.2625 294.2289ZM576.10626 301.0414L574.8875 301.0414L579.46564 291.9789L580.65314 291.9789L576.10626 301.0414ZM578.7625 298.7914Q578.7625 297.63516 579.2625 297.07266Q579.77814 296.51016 580.65314 296.51016Q581.54376 296.51016 582.04376 297.07266Q582.5594 297.63516 582.5594 298.7914Q582.5594 299.94766 582.04376 300.51016Q581.54376 301.05704 580.6844 301.05704Q579.77814 301.05704 579.2625 300.51016Q578.7625 299.94766 578.7625 298.7914ZM580.04376 298.7758Q580.04376 299.61954 580.2469 299.9008Q580.3875 300.11954 580.65314 300.11954Q580.91876 300.11954 581.0594 299.9008Q581.2469 299.61954 581.2469 298.7758Q581.2469 297.94766 581.0594 297.6508Q580.91876 297.44766 580.65314 297.44766Q580.3875 297.44766 580.2469 297.6508Q580.04376 297.94766 580.04376 298.7758Z" fill-rule="nonzero"/><path stroke="#757575" stroke-width="1.0" stroke-linecap="butt" d="M581.45 288.2133L454.76666 288.2133L413.26245 288.2133" fill-rule="nonzero"/><path fill="#9e9e9e" d="M415.26245 288.2133C415.26245 287.10873 414.36703 286.2133 413.26245 286.2133C412.15787 286.2133 411.26245 287.10873 411.26245 288.2133C411.26245 289.31787 412.15787 290.2133 413.26245 290.2133C414.36703 290.2133 415.26245 289.31787 415.26245 288.2133" fill-rule="nonzero"/><path fill="#000000" d="M29.159374 32.284374L31.971874 33.175Q31.33125 35.51875 29.83125 36.659374Q28.33125 37.8 26.01875 37.8Q23.175 37.8 21.33125 35.846874Q19.503124 33.89375 19.503124 30.51875Q19.503124 26.940624 21.346874 24.971874Q23.190624 22.9875 26.190624 22.9875Q28.83125 22.9875 30.471874 24.534374Q31.440624 25.45625 31.925 27.175L29.065624 27.8625Q28.815624 26.753124 28.003124 26.1125Q27.20625 25.45625 26.05 25.45625Q24.45625 25.45625 23.45625 26.596874Q22.471874 27.7375 22.471874 30.3Q22.471874 33.01875 23.440624 34.175Q24.425 35.315624 25.9875 35.315624Q27.14375 35.315624 27.971874 34.596874Q28.8 33.8625 29.159374 32.284374ZM33.346874 32.221874Q33.346874 30.846874 34.01875 29.565624Q34.70625 28.284374 35.940624 27.6125Q37.175 26.940624 38.690624 26.940624Q41.05 26.940624 42.55 28.471874Q44.05 30.003124 44.05 32.33125Q44.05 34.690624 42.534374 36.2375Q41.01875 37.784374 38.70625 37.784374Q37.284374 37.784374 35.9875 37.14375Q34.70625 36.4875 34.01875 35.253124Q33.346874 34.003124 33.346874 32.221874ZM36.159374 32.3625Q36.159374 33.909374 36.89375 34.7375Q37.628124 35.55 38.70625 35.55Q39.784374 35.55 40.503124 34.7375Q41.2375 33.909374 41.2375 32.346874Q41.2375 30.815624 40.503124 30.003124Q39.784374 29.175 38.70625 29.175Q37.628124 29.175 36.89375 30.003124Q36.159374 30.815624 36.159374 32.3625ZM55.425 37.55L52.675 37.55L52.675 32.253124Q52.675 30.58125 52.503124 30.096874Q52.33125 29.596874 51.925 29.33125Q51.534374 29.05 50.971874 29.05Q50.26875 29.05 49.690624 29.440624Q49.128124 29.83125 48.909374 30.471874Q48.70625 31.1125 48.70625 32.846874L48.70625 37.55L45.971874 37.55L45.971874 27.175L48.51875 27.175L48.51875 28.70625Q49.878124 26.940624 51.940624 26.940624Q52.846874 26.940624 53.596874 27.26875Q54.346874 27.596874 54.721874 28.1125Q55.1125 28.6125 55.26875 29.26875Q55.425 29.909374 55.425 31.096874L55.425 37.55ZM62.7375 27.175L62.7375 29.3625L60.8625 29.3625L60.8625 33.55Q60.8625 34.815624 60.909374 35.034374Q60.971874 35.2375 61.159374 35.378124Q61.3625 35.503124 61.628124 35.503124Q62.003124 35.503124 62.7375 35.2375L62.971874 37.378124Q62.003124 37.784374 60.8 37.784374Q60.05 37.784374 59.45625 37.534374Q58.8625 37.284374 58.58125 36.89375Q58.315624 36.4875 58.20625 35.815624Q58.1125 35.346874 58.1125 33.89375L58.1125 29.3625L56.846874 29.3625L56.846874 27.175L58.1125 27.175L58.1125 25.1125L60.8625 23.51875L60.8625 27.175L62.7375 27.175ZM67.03438 30.346874L64.55 29.89375Q64.97188 28.39375 65.9875 27.675Q67.01875 26.940624 69.03438 26.940624Q70.87813 26.940624 71.76875 27.378124Q72.675 27.815624 73.03438 28.4875Q73.40938 29.14375 73.40938 30.940624L73.37813 34.14375Q73.37813 35.503124 73.50313 36.159374Q73.64375 36.8 74.00313 37.55L71.28438 37.55Q71.175 37.26875 71.01875 36.7375Q70.95625 36.4875 70.925 36.409374Q70.22188 37.096874 69.40938 37.440624Q68.6125 37.784374 67.70625 37.784374Q66.1125 37.784374 65.19063 36.925Q64.26875 36.05 64.26875 34.721874Q64.26875 33.83125 64.675 33.14375Q65.09688 32.45625 65.84688 32.096874Q66.6125 31.721874 68.05 31.45625Q69.97188 31.096874 70.70625 30.784374L70.70625 30.503124Q70.70625 29.721874 70.31563 29.39375Q69.925 29.05 68.84688 29.05Q68.1125 29.05 67.69063 29.33125Q67.28438 29.6125 67.03438 30.346874ZM70.70625 32.565624Q70.175 32.7375 69.03438 32.9875Q67.89375 33.2375 67.55 33.471874Q67.00313 33.846874 67.00313 34.440624Q67.00313 35.003124 67.425 35.425Q67.8625 35.846874 68.53438 35.846874Q69.26875 35.846874 69.94063 35.3625Q70.44063 34.9875 70.59688 34.45625Q70.70625 34.096874 70.70625 33.1125L70.70625 32.565624ZM75.7375 38.2375L78.8625 38.6125Q78.94063 39.159374 79.22188 39.3625Q79.6125 39.659374 80.45625 39.659374Q81.53438 39.659374 82.06563 39.33125Q82.425 39.128124 82.6125 38.64375Q82.7375 38.3 82.7375 37.378124L82.7375 35.8625Q81.51875 37.55 79.64375 37.55Q77.55 37.55 76.33125 35.784374Q75.37813 34.378124 75.37813 32.3Q75.37813 29.690624 76.62813 28.315624Q77.87813 26.940624 79.75313 26.940624Q81.675 26.940624 82.925 28.628124L82.925 27.175L85.4875 27.175L85.4875 36.4875Q85.4875 38.315624 85.175 39.221874Q84.87813 40.14375 84.33125 40.659374Q83.78438 41.175 82.8625 41.45625Q81.95625 41.753124 80.56563 41.753124Q77.925 41.753124 76.81563 40.846874Q75.72188 39.95625 75.72188 38.565624Q75.72188 38.425 75.7375 38.2375ZM78.19063 32.14375Q78.19063 33.8 78.81563 34.565624Q79.45625 35.33125 80.39375 35.33125Q81.40938 35.33125 82.09688 34.55Q82.8 33.753124 82.8 32.221874Q82.8 30.6125 82.12813 29.83125Q81.47188 29.05 80.45625 29.05Q79.45625 29.05 78.81563 29.815624Q78.19063 30.58125 78.19063 32.14375ZM93.9875 34.253124L96.72188 34.70625Q96.20625 36.20625 95.06563 37.003124Q93.925 37.784374 92.22188 37.784374Q89.50313 37.784374 88.20625 36.01875Q87.19063 34.596874 87.19063 32.440624Q87.19063 29.8625 88.53438 28.409374Q89.87813 26.940624 91.94063 26.940624Q94.25313 26.940624 95.58125 28.471874Q96.925 30.003124 96.87813 33.159374L90.00313 33.159374Q90.03438 34.378124 90.65938 35.065624Q91.3 35.7375 92.2375 35.7375Q92.89375 35.7375 93.33125 35.39375Q93.76875 35.034374 93.9875 34.253124ZM94.14375 31.471874Q94.1125 30.284374 93.51875 29.675Q92.94063 29.05 92.1125 29.05Q91.20625 29.05 90.62813 29.690624Q90.03438 30.346874 90.05 31.471874L94.14375 31.471874ZM98.78438 27.175L101.31563 27.175L101.31563 28.596874Q102.675 26.940624 104.55 26.940624Q105.53438 26.940624 106.26875 27.3625Q107.00313 27.76875 107.47188 28.596874Q108.15938 27.76875 108.94063 27.3625Q109.7375 26.940624 110.64375 26.940624Q111.78438 26.940624 112.56563 27.409374Q113.3625 27.878124 113.75313 28.76875Q114.03438 29.440624 114.03438 30.925L114.03438 37.55L111.28438 37.55L111.28438 31.628124Q111.28438 30.08125 111.00313 29.628124Q110.62813 29.05 109.83125 29.05Q109.25313 29.05 108.7375 29.409374Q108.2375 29.753124 108.01875 30.425Q107.8 31.096874 107.8 32.565624L107.8 37.55L105.05 37.55L105.05 31.8625Q105.05 30.346874 104.89375 29.909374Q104.75313 29.471874 104.44063 29.26875Q104.14375 29.05 103.6125 29.05Q102.9875 29.05 102.47188 29.39375Q101.97188 29.721874 101.7375 30.378124Q101.51875 31.01875 101.51875 32.503124L101.51875 37.55L98.78438 37.55L98.78438 27.175ZM131.50313 37.55L128.95625 37.55L128.95625 36.01875Q128.31563 36.909374 127.44063 37.346874Q126.58125 37.784374 125.70625 37.784374Q123.925 37.784374 122.64375 36.346874Q121.37813 34.909374 121.37813 32.33125Q121.37813 29.690624 122.6125 28.315624Q123.84688 26.940624 125.75313 26.940624Q127.4875 26.940624 128.75313 28.39375L128.75313 23.2375L131.50313 23.2375L131.50313 37.55ZM124.175 32.14375Q124.175 33.8 124.62813 34.534374Q125.3 35.6125 126.4875 35.6125Q127.44063 35.6125 128.09688 34.815624Q128.76875 34.003124 128.76875 32.409374Q128.76875 30.6125 128.1125 29.83125Q127.47188 29.05 126.47188 29.05Q125.4875 29.05 124.83125 29.83125Q124.175 30.596874 124.175 32.14375ZM139.9875 34.253124L142.72188 34.70625Q142.20625 36.20625 141.06563 37.003124Q139.925 37.784374 138.22188 37.784374Q135.50313 37.784374 134.20625 36.01875Q133.19063 34.596874 133.19063 32.440624Q133.19063 29.8625 134.53438 28.409374Q135.87813 26.940624 137.94063 26.940624Q140.25313 26.940624 141.58125 28.471874Q142.925 30.003124 142.87813 33.159374L136.00313 33.159374Q136.03438 34.378124 136.65938 35.065624Q137.3 35.7375 138.2375 35.7375Q138.89375 35.7375 139.33125 35.39375Q139.76875 35.034374 139.9875 34.253124ZM140.14375 31.471874Q140.1125 30.284374 139.51875 29.675Q138.94063 29.05 138.1125 29.05Q137.20625 29.05 136.62813 29.690624Q136.03438 30.346874 136.05 31.471874L140.14375 31.471874ZM160.15938 32.284374L162.97188 33.175Q162.33125 35.51875 160.83125 36.659374Q159.33125 37.8 157.01875 37.8Q154.175 37.8 152.33125 35.846874Q150.50313 33.89375 150.50313 30.51875Q150.50313 26.940624 152.34688 24.971874Q154.19063 22.9875 157.19063 22.9875Q159.83125 22.9875 161.47188 24.534374Q162.44063 25.45625 162.925 27.175L160.06563 27.8625Q159.81563 26.753124 159.00313 26.1125Q158.20625 25.45625 157.05 25.45625Q155.45625 25.45625 154.45625 26.596874Q153.47188 27.7375 153.47188 30.3Q153.47188 33.01875 154.44063 34.175Q155.425 35.315624 156.9875 35.315624Q158.14375 35.315624 158.97188 34.596874Q159.8 33.8625 160.15938 32.284374ZM167.6125 37.55L164.8625 37.55L164.8625 27.175L167.425 27.175L167.425 28.659374Q168.06563 27.6125 168.58125 27.284374Q169.1125 26.940624 169.78438 26.940624Q170.72188 26.940624 171.58125 27.45625L170.7375 29.846874Q170.05 29.409374 169.45625 29.409374Q168.87813 29.409374 168.47188 29.721874Q168.06563 30.034374 167.83125 30.878124Q167.6125 31.70625 167.6125 34.346874L167.6125 37.55ZM172.9875 25.76875L172.9875 23.2375L175.7375 23.2375L175.7375 25.76875L172.9875 25.76875ZM172.9875 37.55L172.9875 27.175L175.7375 27.175L175.7375 37.55L172.9875 37.55ZM182.7375 27.175L182.7375 29.3625L180.8625 29.3625L180.8625 33.55Q180.8625 34.815624 180.90938 35.034374Q180.97188 35.2375 181.15938 35.378124Q181.3625 35.503124 181.62813 35.503124Q182.00313 35.503124 182.7375 35.2375L182.97188 37.378124Q182.00313 37.784374 180.8 37.784374Q180.05 37.784374 179.45625 37.534374Q178.8625 37.284374 178.58125 36.89375Q178.31563 36.4875 178.20625 35.815624Q178.1125 35.346874 178.1125 33.89375L178.1125 29.3625L176.84688 29.3625L176.84688 27.175L178.1125 27.175L178.1125 25.1125L180.8625 23.51875L180.8625 27.175L182.7375 27.175ZM184.9875 25.76875L184.9875 23.2375L187.7375 23.2375L187.7375 25.76875L184.9875 25.76875ZM184.9875 37.55L184.9875 27.175L187.7375 27.175L187.7375 37.55L184.9875 37.55ZM199.03438 30.2375L196.33125 30.7375Q196.19063 29.925 195.70625 29.51875Q195.22188 29.096874 194.45625 29.096874Q193.425 29.096874 192.81563 29.815624Q192.20625 30.51875 192.20625 32.175Q192.20625 34.01875 192.81563 34.784374Q193.44063 35.55 194.4875 35.55Q195.26875 35.55 195.76875 35.1125Q196.26875 34.659374 196.47188 33.58125L199.15938 34.034374Q198.75313 35.89375 197.55 36.846874Q196.3625 37.784374 194.3625 37.784374Q192.08125 37.784374 190.72188 36.346874Q189.37813 34.909374 189.37813 32.378124Q189.37813 29.8 190.7375 28.378124Q192.09688 26.940624 194.40938 26.940624Q196.3 26.940624 197.40938 27.76875Q198.53438 28.58125 199.03438 30.2375ZM200.9875 25.76875L200.9875 23.2375L203.7375 23.2375L203.7375 25.76875L200.9875 25.76875ZM200.9875 37.55L200.9875 27.175L203.7375 27.175L203.7375 37.55L200.9875 37.55ZM215.50313 37.55L212.95625 37.55L212.95625 36.01875Q212.31563 36.909374 211.44063 37.346874Q210.58125 37.784374 209.70625 37.784374Q207.925 37.784374 206.64375 36.346874Q205.37813 34.909374 205.37813 32.33125Q205.37813 29.690624 206.6125 28.315624Q207.84688 26.940624 209.75313 26.940624Q211.4875 26.940624 212.75313 28.39375L212.75313 23.2375L215.50313 23.2375L215.50313 37.55ZM208.175 32.14375Q208.175 33.8 208.62813 34.534374Q209.3 35.6125 210.4875 35.6125Q211.44063 35.6125 212.09688 34.815624Q212.76875 34.003124 212.76875 32.409374Q212.76875 30.6125 212.1125 29.83125Q211.47188 29.05 210.47188 29.05Q209.4875 29.05 208.83125 29.83125Q208.175 30.596874 208.175 32.14375ZM220.03438 30.346874L217.55 29.89375Q217.97188 28.39375 218.9875 27.675Q220.01875 26.940624 222.03438 26.940624Q223.87813 26.940624 224.76875 27.378124Q225.675 27.815624 226.03438 28.4875Q226.40938 29.14375 226.40938 30.940624L226.37813 34.14375Q226.37813 35.503124 226.50313 36.159374Q226.64375 36.8 227.00313 37.55L224.28438 37.55Q224.175 37.26875 224.01875 36.7375Q223.95625 36.4875 223.925 36.409374Q223.22188 37.096874 222.40938 37.440624Q221.6125 37.784374 220.70625 37.784374Q219.1125 37.784374 218.19063 36.925Q217.26875 36.05 217.26875 34.721874Q217.26875 33.83125 217.675 33.14375Q218.09688 32.45625 218.84688 32.096874Q219.6125 31.721874 221.05 31.45625Q222.97188 31.096874 223.70625 30.784374L223.70625 30.503124Q223.70625 29.721874 223.31563 29.39375Q222.925 29.05 221.84688 29.05Q221.1125 29.05 220.69063 29.33125Q220.28438 29.6125 220.03438 30.346874ZM223.70625 32.565624Q223.175 32.7375 222.03438 32.9875Q220.89375 33.2375 220.55 33.471874Q220.00313 33.846874 220.00313 34.440624Q220.00313 35.003124 220.425 35.425Q220.8625 35.846874 221.53438 35.846874Q222.26875 35.846874 222.94063 35.3625Q223.44063 34.9875 223.59688 34.45625Q223.70625 34.096874 223.70625 33.1125L223.70625 32.565624ZM238.50313 37.55L235.95625 37.55L235.95625 36.01875Q235.31563 36.909374 234.44063 37.346874Q233.58125 37.784374 232.70625 37.784374Q230.925 37.784374 229.64375 36.346874Q228.37813 34.909374 228.37813 32.33125Q228.37813 29.690624 229.6125 28.315624Q230.84688 26.940624 232.75313 26.940624Q234.4875 26.940624 235.75313 28.39375L235.75313 23.2375L238.50313 23.2375L238.50313 37.55ZM231.175 32.14375Q231.175 33.8 231.62813 34.534374Q232.3 35.6125 233.4875 35.6125Q234.44063 35.6125 235.09688 34.815624Q235.76875 34.003124 235.76875 32.409374Q235.76875 30.6125 235.1125 29.83125Q234.47188 29.05 233.47188 29.05Q232.4875 29.05 231.83125 29.83125Q231.175 30.596874 231.175 32.14375ZM246.9875 34.253124L249.72188 34.70625Q249.20625 36.20625 248.06563 37.003124Q246.925 37.784374 245.22188 37.784374Q242.50313 37.784374 241.20625 36.01875Q240.19063 34.596874 240.19063 32.440624Q240.19063 29.8625 241.53438 28.409374Q242.87813 26.940624 244.94063 26.940624Q247.25313 26.940624 248.58125 28.471874Q249.925 30.003124 249.87813 33.159374L243.00313 33.159374Q243.03438 34.378124 243.65938 35.065624Q244.3 35.7375 245.2375 35.7375Q245.89375 35.7375 246.33125 35.39375Q246.76875 35.034374 246.9875 34.253124ZM247.14375 31.471874Q247.1125 30.284374 246.51875 29.675Q245.94063 29.05 245.1125 29.05Q244.20625 29.05 243.62813 29.690624Q243.03438 30.346874 243.05 31.471874L247.14375 31.471874ZM267.5031 37.55L264.95624 37.55L264.95624 36.01875Q264.3156 36.909374 263.4406 37.346874Q262.58124 37.784374 261.70624 37.784374Q259.925 37.784374 258.64374 36.346874Q257.3781 34.909374 257.3781 32.33125Q257.3781 29.690624 258.6125 28.315624Q259.84686 26.940624 261.7531 26.940624Q263.4875 26.940624 264.7531 28.39375L264.7531 23.2375L267.5031 23.2375L267.5031 37.55ZM260.175 32.14375Q260.175 33.8 260.6281 34.534374Q261.3 35.6125 262.4875 35.6125Q263.4406 35.6125 264.09686 34.815624Q264.76874 34.003124 264.76874 32.409374Q264.76874 30.6125 264.1125 29.83125Q263.47186 29.05 262.47186 29.05Q261.4875 29.05 260.83124 29.83125Q260.175 30.596874 260.175 32.14375ZM275.9875 34.253124L278.72186 34.70625Q278.20624 36.20625 277.0656 37.003124Q275.925 37.784374 274.22186 37.784374Q271.5031 37.784374 270.20624 36.01875Q269.1906 34.596874 269.1906 32.440624Q269.1906 29.8625 270.53436 28.409374Q271.8781 26.940624 273.9406 26.940624Q276.2531 26.940624 277.58124 28.471874Q278.925 30.003124 278.8781 33.159374L272.0031 33.159374Q272.03436 34.378124 272.65936 35.065624Q273.3 35.7375 274.2375 35.7375Q274.89374 35.7375 275.33124 35.39375Q275.76874 35.034374 275.9875 34.253124ZM276.14374 31.471874Q276.1125 30.284374 275.51874 29.675Q274.9406 29.05 274.1125 29.05Q273.20624 29.05 272.6281 29.690624Q272.03436 30.346874 272.05 31.471874L276.14374 31.471874ZM287.01874 23.2375L292.7375 23.2375Q294.4406 23.2375 295.26874 23.378124Q296.1125 23.51875 296.76874 23.971874Q297.425 24.409374 297.8625 25.159374Q298.3 25.909374 298.3 26.83125Q298.3 27.846874 297.7531 28.690624Q297.22186 29.51875 296.3 29.940624Q297.59686 30.315624 298.3 31.2375Q299.0031 32.159374 299.0031 33.39375Q299.0031 34.378124 298.55 35.3Q298.09686 36.221874 297.3156 36.784374Q296.53436 37.33125 295.3781 37.45625Q294.65936 37.534374 291.89374 37.55L287.01874 37.55L287.01874 23.2375ZM289.90936 25.6125L289.90936 28.925L291.8 28.925Q293.4875 28.925 293.89374 28.878124Q294.64374 28.784374 295.0656 28.3625Q295.4875 27.940624 295.4875 27.253124Q295.4875 26.58125 295.1125 26.175Q294.7531 25.753124 294.03436 25.659374Q293.6125 25.6125 291.5656 25.6125L289.90936 25.6125ZM289.90936 31.315624L289.90936 35.14375L292.58124 35.14375Q294.14374 35.14375 294.5656 35.05Q295.20624 34.925 295.6125 34.471874Q296.01874 34.01875 296.01874 33.26875Q296.01874 32.6125 295.70624 32.175Q295.39374 31.721874 294.8 31.51875Q294.20624 31.315624 292.2375 31.315624L289.90936 31.315624ZM307.8156 37.55L307.8156 36.003124Q307.2531 36.83125 306.3156 37.315624Q305.39374 37.784374 304.3781 37.784374Q303.33124 37.784374 302.5031 37.33125Q301.675 36.8625 301.3 36.034374Q300.925 35.20625 300.925 33.7375L300.925 27.175L303.675 27.175L303.675 31.940624Q303.675 34.128124 303.8156 34.628124Q303.97186 35.1125 304.3625 35.409374Q304.76874 35.690624 305.39374 35.690624Q306.09686 35.690624 306.64374 35.315624Q307.20624 34.925 307.40936 34.3625Q307.6125 33.784374 307.6125 31.55L307.6125 27.175L310.3625 27.175L310.3625 37.55L307.8156 37.55ZM312.7375 38.2375L315.8625 38.6125Q315.9406 39.159374 316.22186 39.3625Q316.6125 39.659374 317.45624 39.659374Q318.53436 39.659374 319.0656 39.33125Q319.425 39.128124 319.6125 38.64375Q319.7375 38.3 319.7375 37.378124L319.7375 35.8625Q318.51874 37.55 316.64374 37.55Q314.55 37.55 313.33124 35.784374Q312.3781 34.378124 312.3781 32.3Q312.3781 29.690624 313.6281 28.315624Q314.8781 26.940624 316.7531 26.940624Q318.675 26.940624 319.925 28.628124L319.925 27.175L322.4875 27.175L322.4875 36.4875Q322.4875 38.315624 322.175 39.221874Q321.8781 40.14375 321.33124 40.659374Q320.78436 41.175 319.8625 41.45625Q318.95624 41.753124 317.5656 41.753124Q314.925 41.753124 313.8156 40.846874Q312.72186 39.95625 312.72186 38.565624Q312.72186 38.425 312.7375 38.2375ZM315.1906 32.14375Q315.1906 33.8 315.8156 34.565624Q316.45624 35.33125 317.39374 35.33125Q318.40936 35.33125 319.09686 34.55Q319.8 33.753124 319.8 32.221874Q319.8 30.6125 319.1281 29.83125Q318.47186 29.05 317.45624 29.05Q316.45624 29.05 315.8156 29.815624Q315.1906 30.58125 315.1906 32.14375ZM324.01874 34.596874L326.76874 34.175Q326.95624 34.971874 327.4875 35.39375Q328.01874 35.8 328.9875 35.8Q330.05 35.8 330.59686 35.409374Q330.95624 35.14375 330.95624 34.675Q330.95624 34.3625 330.7531 34.159374Q330.55 33.971874 329.84686 33.8Q326.51874 33.065624 325.6281 32.45625Q324.39374 31.628124 324.39374 30.128124Q324.39374 28.784374 325.45624 27.8625Q326.53436 26.940624 328.76874 26.940624Q330.89374 26.940624 331.925 27.64375Q332.97186 28.33125 333.3625 29.690624L330.76874 30.159374Q330.59686 29.565624 330.1281 29.2375Q329.675 28.909374 328.8156 28.909374Q327.7375 28.909374 327.26874 29.221874Q326.95624 29.440624 326.95624 29.76875Q326.95624 30.065624 327.22186 30.26875Q327.59686 30.55 329.78436 31.05Q331.97186 31.55 332.84686 32.26875Q333.70624 33.003124 333.70624 34.3Q333.70624 35.7375 332.51874 36.76875Q331.33124 37.784374 328.9875 37.784374Q326.8781 37.784374 325.6281 36.925Q324.39374 36.065624 324.01874 34.596874Z" fill-rule="nonzero"/></svg>