<svg width="207" height="115" viewBox="0 0 207 115" fill="none" xmlns="http://www.w3.org/2000/svg">
<path d="M23.1846 92.576C21.3766 92.576 19.7526 92.144 18.3126 91.28C16.8886 90.416 15.7606 89.208 14.9286 87.656C14.1126 86.088 13.7046 84.256 13.7046 82.16C13.7046 80.064 14.1126 78.24 14.9286 76.688C15.7606 75.12 16.8886 73.904 18.3126 73.04C19.7526 72.16 21.3766 71.72 23.1846 71.72C24.6406 71.72 25.9206 71.976 27.0246 72.488C28.1286 72.984 29.0086 73.568 29.6646 74.24C30.3206 74.912 30.6966 75.496 30.7926 75.992V58.976H34.9926V92H30.8646V88.16C30.6886 88.704 30.2486 89.32 29.5446 90.008C28.8566 90.696 27.9686 91.296 26.8806 91.808C25.7926 92.32 24.5606 92.576 23.1846 92.576ZM24.1446 89.12C25.3606 89.12 26.4726 88.832 27.4806 88.256C28.4886 87.68 29.2886 86.872 29.8806 85.832C30.4886 84.776 30.7926 83.552 30.7926 82.16C30.7926 80.768 30.4886 79.552 29.8806 78.512C29.2886 77.456 28.4886 76.64 27.4806 76.064C26.4726 75.472 25.3606 75.176 24.1446 75.176C23.0246 75.176 21.9846 75.464 21.0246 76.04C20.0646 76.616 19.2886 77.424 18.6966 78.464C18.1206 79.504 17.8326 80.736 17.8326 82.16C17.8326 83.584 18.1206 84.816 18.6966 85.856C19.2886 86.896 20.0646 87.704 21.0246 88.28C21.9846 88.84 23.0246 89.12 24.1446 89.12ZM48.7884 92.576C46.7564 92.576 44.9484 92.12 43.3644 91.208C41.7964 90.296 40.5644 89.064 39.6684 87.512C38.7724 85.944 38.3244 84.176 38.3244 82.208C38.3244 80.24 38.7724 78.464 39.6684 76.88C40.5644 75.296 41.7964 74.04 43.3644 73.112C44.9484 72.184 46.7564 71.72 48.7884 71.72C50.8044 71.72 52.5884 72.184 54.1404 73.112C55.7084 74.04 56.9324 75.296 57.8124 76.88C58.6924 78.464 59.1324 80.24 59.1324 82.208C59.1324 84.176 58.6924 85.944 57.8124 87.512C56.9324 89.064 55.7084 90.296 54.1404 91.208C52.5884 92.12 50.8044 92.576 48.7884 92.576ZM48.7884 89C50.0684 89 51.1804 88.704 52.1244 88.112C53.0844 87.52 53.8284 86.712 54.3564 85.688C54.8844 84.648 55.1484 83.48 55.1484 82.184C55.1484 80.888 54.8844 79.72 54.3564 78.68C53.8284 77.64 53.0844 76.816 52.1244 76.208C51.1804 75.6 50.0684 75.296 48.7884 75.296C47.4924 75.296 46.3644 75.6 45.4044 76.208C44.4444 76.816 43.6924 77.64 43.1484 78.68C42.6204 79.72 42.3564 80.888 42.3564 82.184C42.3564 83.48 42.6204 84.648 43.1484 85.688C43.6924 86.712 44.4444 87.52 45.4044 88.112C46.3644 88.704 47.4924 89 48.7884 89ZM73.0502 89.12C74.2982 89.12 75.3062 88.92 76.0742 88.52C76.8422 88.12 77.3222 87.832 77.5142 87.656L79.5542 90.656C79.3942 90.8 79.0102 91.032 78.4022 91.352C77.8102 91.656 77.0422 91.936 76.0982 92.192C75.1702 92.448 74.1142 92.576 72.9302 92.576C71.1222 92.576 69.4422 92.176 67.8902 91.376C66.3382 90.56 65.0822 89.376 64.1222 87.824C63.1782 86.272 62.7062 84.376 62.7062 82.136C62.7062 79.88 63.1782 77.984 64.1222 76.448C65.0822 74.896 66.3382 73.72 67.8902 72.92C69.4422 72.12 71.1222 71.72 72.9302 71.72C74.0982 71.72 75.1382 71.864 76.0502 72.152C76.9622 72.424 77.7142 72.728 78.3062 73.064C78.8982 73.4 79.2902 73.656 79.4822 73.832L77.4182 76.832C77.2902 76.704 77.0422 76.512 76.6742 76.256C76.3222 75.984 75.8422 75.736 75.2342 75.512C74.6262 75.288 73.8982 75.176 73.0502 75.176C72.0262 75.176 71.0262 75.456 70.0502 76.016C69.0902 76.56 68.2982 77.352 67.6742 78.392C67.0502 79.432 66.7382 80.68 66.7382 82.136C66.7382 83.592 67.0502 84.848 67.6742 85.904C68.2982 86.944 69.0902 87.744 70.0502 88.304C71.0262 88.848 72.0262 89.12 73.0502 89.12ZM87.5961 82.232C87.5961 84.296 88.0361 85.944 88.9161 87.176C89.8121 88.392 91.1801 89 93.0201 89C94.8761 89 96.2441 88.392 97.1241 87.176C98.0041 85.944 98.4441 84.296 98.4441 82.232V72.296H102.572V82.808C102.572 84.728 102.196 86.424 101.444 87.896C100.708 89.368 99.6281 90.52 98.2041 91.352C96.7961 92.168 95.0681 92.576 93.0201 92.576C90.9881 92.576 89.2601 92.168 87.8361 91.352C86.4281 90.52 85.3481 89.368 84.5961 87.896C83.8601 86.424 83.4921 84.728 83.4921 82.808V72.296H87.5961V82.232ZM119.263 71.72C120.559 71.72 121.815 71.992 123.031 72.536C124.263 73.08 125.271 73.944 126.055 75.128C126.855 76.296 127.255 77.824 127.255 79.712V92H123.031V80.528C123.031 78.576 122.575 77.16 121.663 76.28C120.751 75.384 119.575 74.936 118.135 74.936C117.191 74.936 116.279 75.208 115.399 75.752C114.535 76.28 113.823 77.016 113.263 77.96C112.703 78.888 112.423 79.944 112.423 81.128V92H108.247V72.296H112.423V75.8C112.567 75.256 112.959 74.664 113.599 74.024C114.239 73.384 115.055 72.84 116.047 72.392C117.039 71.944 118.111 71.72 119.263 71.72ZM141.403 92.576C139.595 92.576 137.971 92.144 136.531 91.28C135.107 90.416 133.979 89.208 133.147 87.656C132.331 86.088 131.923 84.256 131.923 82.16C131.923 80.064 132.331 78.24 133.147 76.688C133.979 75.12 135.107 73.904 136.531 73.04C137.971 72.16 139.595 71.72 141.403 71.72C142.859 71.72 144.139 71.976 145.243 72.488C146.347 72.984 147.227 73.568 147.883 74.24C148.539 74.912 148.915 75.496 149.011 75.992V58.976H153.211V92H149.083V88.16C148.907 88.704 148.467 89.32 147.763 90.008C147.075 90.696 146.187 91.296 145.099 91.808C144.011 92.32 142.779 92.576 141.403 92.576ZM142.363 89.12C143.579 89.12 144.691 88.832 145.699 88.256C146.707 87.68 147.507 86.872 148.099 85.832C148.707 84.776 149.011 83.552 149.011 82.16C149.011 80.768 148.707 79.552 148.099 78.512C147.507 77.456 146.707 76.64 145.699 76.064C144.691 75.472 143.579 75.176 142.363 75.176C141.243 75.176 140.203 75.464 139.243 76.04C138.283 76.616 137.507 77.424 136.915 78.464C136.339 79.504 136.051 80.736 136.051 82.16C136.051 83.584 136.339 84.816 136.915 85.856C137.507 86.896 138.283 87.704 139.243 88.28C140.203 88.84 141.243 89.12 142.363 89.12ZM160.503 83C160.519 84.184 160.775 85.264 161.271 86.24C161.767 87.216 162.503 87.992 163.479 88.568C164.471 89.144 165.687 89.432 167.127 89.432C168.343 89.432 169.375 89.256 170.223 88.904C171.087 88.536 171.791 88.104 172.335 87.608C172.879 87.096 173.271 86.64 173.511 86.24L175.551 88.76C175.023 89.528 174.375 90.2 173.607 90.776C172.855 91.352 171.935 91.792 170.847 92.096C169.759 92.416 168.431 92.576 166.863 92.576C164.751 92.576 162.919 92.128 161.367 91.232C159.831 90.32 158.647 89.064 157.815 87.464C156.983 85.848 156.567 84 156.567 81.92C156.567 80 156.959 78.272 157.743 76.736C158.527 75.184 159.663 73.96 161.151 73.064C162.655 72.168 164.463 71.72 166.575 71.72C168.511 71.72 170.191 72.128 171.615 72.944C173.055 73.744 174.167 74.88 174.951 76.352C175.751 77.824 176.151 79.584 176.151 81.632C176.151 81.76 176.143 81.992 176.127 82.328C176.111 82.648 176.095 82.872 176.079 83H160.503ZM172.167 79.856C172.151 79.2 171.959 78.48 171.591 77.696C171.239 76.912 170.663 76.24 169.863 75.68C169.063 75.12 167.983 74.84 166.623 74.84C165.215 74.84 164.079 75.112 163.215 75.656C162.367 76.2 161.743 76.864 161.343 77.648C160.943 78.416 160.711 79.152 160.647 79.856H172.167ZM184.866 92H180.714V72.296H184.866V75.704H184.746C184.826 75.288 185.122 74.768 185.634 74.144C186.146 73.52 186.85 72.96 187.746 72.464C188.642 71.968 189.714 71.72 190.962 71.72C191.874 71.72 192.674 71.848 193.362 72.104C194.066 72.344 194.562 72.584 194.85 72.824L193.146 76.28C192.922 76.056 192.53 75.832 191.97 75.608C191.41 75.368 190.714 75.248 189.882 75.248C188.826 75.248 187.922 75.576 187.17 76.232C186.418 76.888 185.842 77.68 185.442 78.608C185.058 79.52 184.866 80.368 184.866 81.152V92Z" fill="#111129"/>
<path d="M43 33C43 14.7746 57.7746 0 76 0H157C158.657 0 160 1.34315 160 3V23C160 41.2254 145.225 56 127 56H46C44.3431 56 43 54.6569 43 53V33Z" fill="#0A6AE0"/>
</svg>
